<?xml version="1.0" encoding="UTF-8" standalone="no"?><svg xmlns="http://www.w3.org/2000/svg" xmlns:xlink="http://www.w3.org/1999/xlink" contentScriptType="application/ecmascript" contentStyleType="text/css" height="3126px" preserveAspectRatio="none" style="width:3604px;height:3126px;" version="1.1" viewBox="0 0 3604 3126" width="3604px" zoomAndPan="magnify"><defs/><g><text fill="#888888" font-family="sans-serif" font-size="20" lengthAdjust="spacingAndGlyphs" textLength="190" x="3378" y="21.38">version: 03.05.2022</text><text fill="#000000" font-family="sans-serif" font-size="36" lengthAdjust="spacingAndGlyphs" textLength="412" x="1578" y="65.7237">Overview Platform (WIP)</text><text fill="#000000" font-family="sans-serif" font-size="36" lengthAdjust="spacingAndGlyphs" textLength="284" x="1642" y="114.7554">joinus4health.eu</text><!--MD5=[26c5d267d5640af9fd645d609f9318ff]
cluster umg--><rect fill="#FFCCCC" height="526" style="stroke: #000000; stroke-width: 3.0;" width="566" x="2842" y="139.3034"/><text fill="#000000" font-family="sans-serif" font-size="28" font-weight="bold" lengthAdjust="spacingAndGlyphs" textLength="68" x="3091" y="173.2352">UMG</text><text fill="#000000" font-family="sans-serif" font-size="28" font-weight="bold" lengthAdjust="spacingAndGlyphs" textLength="164" x="3043" y="211.3711">coordinator</text><!--MD5=[a5da4f68ede42b98d7b5f3a10e3ccc90]
cluster ICM SHIP-KEF--><rect fill="#FFCCCC" height="348" style="stroke: #000000; stroke-width: 3.0;" width="470" x="2890" y="269.3034"/><text fill="#000000" font-family="sans-serif" font-size="28" font-weight="bold" lengthAdjust="spacingAndGlyphs" textLength="188" x="3031" y="303.2352">ICM SHIP-KEF</text><!--MD5=[d416a0175338ee00014ff4466993c423]
cluster s4p--><rect fill="#CCCCCC" height="348" style="stroke: #000000; stroke-width: 3.0;" width="434" x="1262" y="250.3034"/><text fill="#000000" font-family="sans-serif" font-size="28" font-style="italic" lengthAdjust="spacingAndGlyphs" textLength="124" x="1417" y="284.2352">«Partner»</text><text fill="#000000" font-family="sans-serif" font-size="28" font-weight="bold" lengthAdjust="spacingAndGlyphs" textLength="252" x="1353" y="322.3711">science4people.eu</text><!--MD5=[07074073229a58b98d86dbf75a12e332]
cluster Internet--><path d="M192.7206,824.0069 C283.2817,716.0516 363.6171,724.1183 421.363,855.3725 C483.1497,735.4953 561.7696,738.8417 643.5921,834.7372 C717.2969,742.1773 796.1992,737.5858 871.276,833.0761 C959.1911,717.8952 1045.791,714.3763 1132.6685,834.2301 C1186.3991,738.9915 1259.7209,724.7118 1330.4003,816.2913 C1421.4584,728.4708 1503.3476,712.9639 1566.427,846.1689 C1639.7648,724.2231 1740.9976,715.1332 1819.5277,840.8629 C1867.6554,756.4731 1966.9439,731.4112 2023.3349,831.746 C2099.6603,743.8714 2183.1941,747.2892 2246.1182,847.6103 C2321.5019,723.8529 2407.81,740.1757 2492.6125,837.0894 C2545.5111,725.5687 2643.3494,722.1181 2699.6847,833.9025 C2774.0068,722.809 2871.3729,696.8379 2958.3577,819.9147 C3037.0566,727.9734 3104.3382,737.8345 3157.8681,845.1196 C3219.0715,717.7298 3320.6121,717.2021 3394,833.3034 C3409.4624,833.1264 3418.699,842.9729 3410.0707,858.2902 C3553.6968,913.9067 3537.7967,1044.9588 3429.488,1119.3163 C3555.6074,1196.6861 3540.8595,1289.0037 3421.3667,1358.0171 C3519.6602,1415.2069 3550.8394,1521.7588 3433.9682,1590.6062 C3547.6304,1671.2701 3549.5013,1762.2243 3440.1904,1848.2727 C3563.7171,1933.4629 3528.8604,2036.1501 3417.7567,2100.4692 C3538.0004,2167.8603 3537.1888,2248.0967 3443.4191,2338.5554 C3565.9137,2423.2532 3553.9617,2528.47 3414.5471,2582.1215 C3506.9366,2666.5021 3510.1778,2767.3411 3380,2819.3034 C3394.1559,2810.4532 3401.9812,2818.325 3404.2968,2832.0479 C3353.0708,2930.3921 3247.5183,2942.2872 3184.5954,2845.1972 C3110.9759,2964.0403 3040.8858,2964.5875 2960.2844,2851.9633 C2883.1614,2952.1085 2796.1604,2958.9605 2716.3705,2855.1529 C2644.4344,2981.6408 2561.8777,2959.5194 2485.1494,2860.0569 C2433.2422,2947.4802 2337.7591,2963.1875 2278.9668,2867.8234 C2201.5667,2971.3931 2110.8377,2965.5828 2039.4871,2860.868 C1957.2587,2977.8635 1872.547,2959.9284 1803.0167,2847.7647 C1749.5322,2970.2346 1633.7792,2974.8769 1562.3882,2866.4238 C1485.0666,2962.3954 1380.5308,2956.0296 1330.3292,2837.1339 C1271.5755,2951.5932 1202.2098,2976.3922 1112.2096,2867.672 C1016.4769,2950.5995 942.4696,2937.2174 879.7954,2827.7393 C823.1401,2931.4378 761.8529,2949.4388 677.326,2856.4268 C588.1453,2958.8515 492.8932,2952.5735 421.1157,2836.0608 C341.4651,2956.408 223.0024,2916.9887 172,2805.3034 C182.2572,2788.4695 194.823,2790.7813 204.9223,2805.4683 C100.5533,2730.9466 101.767,2634.8236 209.4911,2564.3203 C80.037,2506.5721 79.7963,2400.3187 198.8033,2331.1803 C72.7107,2279.1093 68.2235,2150.769 172.1686,2074.8001 C41.2827,2003.2133 52.3788,1908.901 164.4467,1829.661 C71.797,1748.5788 52.9568,1655.2283 181.0482,1589.3988 C76.4957,1522.3085 71.7036,1416.3256 197.4381,1366.1412 C78.8415,1284.0516 76.2138,1165.1536 197.1227,1082.7975 C59.7351,1001.6609 52.5463,911.8728 186,819.3034 C190.0144,817.6639 193.0594,819.4263 192.7206,824.0069 " fill="#FFFFFF" style="stroke: #000000; stroke-width: 3.0;"/><text fill="#000000" font-family="sans-serif" font-size="28" font-weight="bold" lengthAdjust="spacingAndGlyphs" textLength="114" x="1726" y="859.2352">Internet</text><!--MD5=[fc7c9bc70f56de5c86322601a7f106c8]
cluster netcup--><rect fill="#DDBBAA" height="1546" style="stroke: #000000; stroke-width: 3.0;" width="2248" x="364" y="895.3034"/><text fill="#000000" font-family="sans-serif" font-size="28" font-style="italic" lengthAdjust="spacingAndGlyphs" textLength="136" x="1420" y="929.2352">«Provider»</text><text fill="#000000" font-family="sans-serif" font-size="28" font-weight="bold" lengthAdjust="spacingAndGlyphs" textLength="96" x="1440" y="967.3711">netcup</text><!--MD5=[a04d69009329426f82a4cda3340f9045]
cluster mps--><polygon fill="#FFCCAA" points="536,1061.3034,556,1041.3034,2548,1041.3034,2548,2357.3034,2528,2377.3034,536,2377.3034,536,1061.3034" style="stroke: #000000; stroke-width: 3.0;"/><line style="stroke: #000000; stroke-width: 3.0;" x1="2528" x2="2548" y1="1061.3034" y2="1041.3034"/><line style="stroke: #000000; stroke-width: 3.0;" x1="536" x2="2528" y1="1061.3034" y2="1061.3034"/><line style="stroke: #000000; stroke-width: 3.0;" x1="2528" x2="2528" y1="1061.3034" y2="2377.3034"/><text fill="#000000" font-family="sans-serif" font-size="28" font-style="italic" lengthAdjust="spacingAndGlyphs" textLength="108" x="1480" y="1097.2352">«Server»</text><text fill="#000000" font-family="sans-serif" font-size="28" font-weight="bold" lengthAdjust="spacingAndGlyphs" textLength="330" x="1369" y="1135.3711">Managed Private Server</text><!--MD5=[a54cd0b4de8b8913c3bb58f3b7112d52]
cluster platform_server--><polygon fill="#FFCCAA" points="600,1217.3034,620,1197.3034,2468,1197.3034,2468,2293.3034,2448,2313.3034,600,2313.3034,600,1217.3034" style="stroke: #000000; stroke-width: 3.0;"/><line style="stroke: #000000; stroke-width: 3.0;" x1="2448" x2="2468" y1="1217.3034" y2="1197.3034"/><line style="stroke: #000000; stroke-width: 3.0;" x1="600" x2="2448" y1="1217.3034" y2="1217.3034"/><line style="stroke: #000000; stroke-width: 3.0;" x1="2448" x2="2448" y1="1217.3034" y2="2313.3034"/><text fill="#000000" font-family="sans-serif" font-size="28" font-style="italic" lengthAdjust="spacingAndGlyphs" textLength="108" x="1472" y="1253.2352">«Server»</text><text fill="#000000" font-family="sans-serif" font-size="28" font-weight="bold" lengthAdjust="spacingAndGlyphs" textLength="220" x="1416" y="1291.3711">Platform-Server</text><!--MD5=[d10c0fc188658aa905e9b53266af4542]
cluster wp--><rect fill="#FEFECE" height="878" style="stroke: #000000; stroke-width: 3.0;" width="750" x="664" y="1353.3034"/><rect fill="#FEFECE" height="20" style="stroke: #000000; stroke-width: 3.0;" width="30" x="1374" y="1363.3034"/><rect fill="#FEFECE" height="4" style="stroke: #000000; stroke-width: 3.0;" width="8" x="1370" y="1367.3034"/><rect fill="#FEFECE" height="4" style="stroke: #000000; stroke-width: 3.0;" width="8" x="1370" y="1375.3034"/><text fill="#000000" font-family="sans-serif" font-size="28" font-style="italic" lengthAdjust="spacingAndGlyphs" textLength="232" x="923" y="1409.2352">«Web-Framework»</text><text fill="#000000" font-family="sans-serif" font-size="28" font-weight="bold" lengthAdjust="spacingAndGlyphs" textLength="150" x="964" y="1447.3711">WordPress</text><!--MD5=[0ccfca756fad94035c3e173b9237d2d3]
cluster dbms--><path d="M1792,1965.3034 C1792,1945.3034 2098,1945.3034 2098,1945.3034 C2098,1945.3034 2404,1945.3034 2404,1965.3034 L2404,2229.3034 C2404,2249.3034 2098,2249.3034 2098,2249.3034 C2098,2249.3034 1792,2249.3034 1792,2229.3034 L1792,1965.3034 " fill="#FEFECE" style="stroke: #000000; stroke-width: 3.0;"/><path d="M1792,1965.3034 C1792,1985.3034 2098,1985.3034 2098,1985.3034 C2098,1985.3034 2404,1985.3034 2404,1965.3034 " fill="none" style="stroke: #000000; stroke-width: 3.0;"/><text fill="#000000" font-family="sans-serif" font-size="28" font-weight="bold" lengthAdjust="spacingAndGlyphs" textLength="204" x="1996" y="2019.2352">DBMS MariaDB</text><!--MD5=[7d64432051d8ad2067c4bd831a0c2179]
cluster bbb_provider--><rect fill="#DDBBAA" height="534" style="stroke: #000000; stroke-width: 3.0;" width="682" x="2660" y="1780.3034"/><text fill="#000000" font-family="sans-serif" font-size="28" font-style="italic" lengthAdjust="spacingAndGlyphs" textLength="136" x="2933" y="1814.2352">«Provider»</text><text fill="#000000" font-family="sans-serif" font-size="28" font-weight="bold" lengthAdjust="spacingAndGlyphs" textLength="102" x="2950" y="1852.3711">werk21</text><!--MD5=[1204e77cc24f7499f9b396e13082d6e8]
cluster bbb_server--><polygon fill="#FFCCAA" points="2832,1946.3034,2852,1926.3034,3278,1926.3034,3278,2230.3034,3258,2250.3034,2832,2250.3034,2832,1946.3034" style="stroke: #000000; stroke-width: 3.0;"/><line style="stroke: #000000; stroke-width: 3.0;" x1="3258" x2="3278" y1="1946.3034" y2="1926.3034"/><line style="stroke: #000000; stroke-width: 3.0;" x1="2832" x2="3258" y1="1946.3034" y2="1946.3034"/><line style="stroke: #000000; stroke-width: 3.0;" x1="3258" x2="3258" y1="1946.3034" y2="2250.3034"/><text fill="#000000" font-family="sans-serif" font-size="28" font-style="italic" lengthAdjust="spacingAndGlyphs" textLength="108" x="2993" y="1982.2352">«Server»</text><text fill="#000000" font-family="sans-serif" font-size="28" font-weight="bold" lengthAdjust="spacingAndGlyphs" textLength="254" x="2920" y="2020.3711">Conference-Server</text><!--MD5=[7e24b8391da21ad2be3b88b11b7f436f]
cluster deepl--><polygon fill="#DDBBAA" points="2830,2543.3034,2850,2523.3034,3346,2523.3034,3346,2751.3034,3326,2771.3034,2830,2771.3034,2830,2543.3034" style="stroke: #000000; stroke-width: 3.0;"/><line style="stroke: #000000; stroke-width: 3.0;" x1="3326" x2="3346" y1="2543.3034" y2="2523.3034"/><line style="stroke: #000000; stroke-width: 3.0;" x1="2830" x2="3326" y1="2543.3034" y2="2543.3034"/><line style="stroke: #000000; stroke-width: 3.0;" x1="3326" x2="3326" y1="2543.3034" y2="2771.3034"/><text fill="#000000" font-family="sans-serif" font-size="28" font-weight="bold" lengthAdjust="spacingAndGlyphs" textLength="144" x="3008" y="2579.2352">deepl.com</text><!--MD5=[3103861f95f0d7217426811062624cfa]
entity ship--><ellipse cx="3270" cy="418.3034" fill="#FEFECE" rx="32" ry="32" style="stroke: #A80036; stroke-width: 3.0;"/><path d="M3270,458.3034 C3278,458.3034 3284,458.3034 3292,450.3034 C3308,450.3034 3324,466.3034 3324,482.3034 L3324,490.3034 C3324,498.3034 3316,506.3034 3308,506.3034 L3232,506.3034 C3224,506.3034 3216,498.3034 3216,490.3034 L3216,482.3034 C3216,466.3034 3232,450.3034 3248,450.3034 C3256,458.3034 3262,458.3034 3270,458.3034 " fill="#FEFECE" style="stroke: #A80036; stroke-width: 3.0;"/><text fill="#000000" font-family="sans-serif" font-size="28" lengthAdjust="spacingAndGlyphs" textLength="98" x="3221" y="539.2352">SHIP-IT</text><!--MD5=[b08f2111fdc261dd0bfb2eacdde7049b]
entity umg_team--><ellipse cx="3032" cy="380.3034" fill="#FEFECE" rx="32" ry="32" style="stroke: #A80036; stroke-width: 3.0;"/><path d="M3032,420.3034 C3040,420.3034 3046,420.3034 3054,412.3034 C3070,412.3034 3086,428.3034 3086,444.3034 L3086,452.3034 C3086,460.3034 3078,468.3034 3070,468.3034 L2994,468.3034 C2986,468.3034 2978,460.3034 2978,452.3034 L2978,444.3034 C2978,428.3034 2994,412.3034 3010,412.3034 C3018,420.3034 3024,420.3034 3032,420.3034 " fill="#FEFECE" style="stroke: #A80036; stroke-width: 3.0;"/><text fill="#000000" font-family="sans-serif" font-size="28" lengthAdjust="spacingAndGlyphs" textLength="188" x="2922" y="501.2352">JoinUs4Health</text><text fill="#000000" font-family="sans-serif" font-size="28" lengthAdjust="spacingAndGlyphs" textLength="220" x="2922" y="539.3711">Project Manage-</text><text fill="#000000" font-family="sans-serif" font-size="28" lengthAdjust="spacingAndGlyphs" textLength="152" x="2922" y="577.5069">ment Team</text><path d="M1572,437.3034 L1572,492.7154 L1664,492.7154 L1664,457.3034 L1644,437.3034 L1572,437.3034 " fill="#AAAAFF" style="stroke: #A80036; stroke-width: 2.0;"/><path d="M1644,437.3034 L1644,457.3034 L1664,457.3034 L1644,437.3034 " fill="#AAAAFF" style="stroke: #A80036; stroke-width: 2.0;"/><text fill="#000000" font-family="sans-serif" font-size="26" lengthAdjust="spacingAndGlyphs" textLength="50" x="1584" y="475.0974">DPA</text><!--MD5=[db450b6175b1cf7e0741641dc58b6f7f]
entity s4p_partner--><ellipse cx="1398" cy="399.3034" fill="#FEFECE" rx="32" ry="32" style="stroke: #A80036; stroke-width: 3.0;"/><path d="M1398,439.3034 C1406,439.3034 1412,439.3034 1420,431.3034 C1436,431.3034 1452,447.3034 1452,463.3034 L1452,471.3034 C1452,479.3034 1444,487.3034 1436,487.3034 L1360,487.3034 C1352,487.3034 1344,479.3034 1344,471.3034 L1344,463.3034 C1344,447.3034 1360,431.3034 1376,431.3034 C1384,439.3034 1390,439.3034 1398,439.3034 " fill="#FEFECE" style="stroke: #A80036; stroke-width: 3.0;"/><text fill="#000000" font-family="sans-serif" font-size="28" lengthAdjust="spacingAndGlyphs" textLength="208" x="1294" y="520.2352">science4people</text><text fill="#000000" font-family="sans-serif" font-size="28" lengthAdjust="spacingAndGlyphs" textLength="100" x="1294" y="558.3711">Partner</text><!--MD5=[6bcb8a42b2cab2a46966951f62205111]
entity i_bbb--><ellipse cx="280" cy="2674.3034" fill="#FEFECE" rx="16" ry="16" style="stroke: #A80036; stroke-width: 4.0;"/><text fill="#000000" font-family="sans-serif" font-size="28" lengthAdjust="spacingAndGlyphs" textLength="154" x="203" y="2738.2352">Conference</text><!--MD5=[51764780891d56c625808fe39e0f2680]
entity i_web--><ellipse cx="260" cy="2134.3034" fill="#FEFECE" rx="16" ry="16" style="stroke: #A80036; stroke-width: 4.0;"/><text fill="#000000" font-family="sans-serif" font-size="28" lengthAdjust="spacingAndGlyphs" textLength="114" x="203" y="2198.2352">Platform</text><path d="M396,1504.3034 L396,1559.7154 L488,1559.7154 L488,1524.3034 L468,1504.3034 L396,1504.3034 " fill="#AAAAFF" style="stroke: #A80036; stroke-width: 2.0;"/><path d="M468,1504.3034 L468,1524.3034 L488,1524.3034 L468,1504.3034 " fill="#AAAAFF" style="stroke: #A80036; stroke-width: 2.0;"/><text fill="#000000" font-family="sans-serif" font-size="26" lengthAdjust="spacingAndGlyphs" textLength="50" x="408" y="1542.0974">DPA</text><!--MD5=[fcbfd374278afc1cf141dd59657f7740]
entity wpfolder--><polygon fill="#FEFECE" points="1463,2073.3034,1555,2073.3034,1569,2115.3034,1737,2115.3034,1737,2195.575,1463,2195.575,1463,2073.3034" style="stroke: #000000; stroke-width: 3.0;"/><line style="stroke: #000000; stroke-width: 3.0;" x1="1463" x2="1569" y1="2115.3034" y2="2115.3034"/><text fill="#000000" font-family="sans-serif" font-size="28" lengthAdjust="spacingAndGlyphs" textLength="214" x="1483" y="2159.2352">WordPress-Files</text><!--MD5=[9f7145901798a7118266a0e84948a32e]
entity bbPress--><rect fill="#FEFECE" height="98.1358" style="stroke: #A80036; stroke-width: 3.0;" width="188" x="740" y="1483.3034"/><rect fill="#FEFECE" height="20" style="stroke: #A80036; stroke-width: 3.0;" width="30" x="888" y="1493.3034"/><rect fill="#FEFECE" height="4" style="stroke: #A80036; stroke-width: 3.0;" width="8" x="884" y="1497.3034"/><rect fill="#FEFECE" height="4" style="stroke: #A80036; stroke-width: 3.0;" width="8" x="884" y="1505.3034"/><text fill="#000000" font-family="sans-serif" font-size="28" lengthAdjust="spacingAndGlyphs" textLength="108" x="770" y="1553.2352">bbPress</text><!--MD5=[e20b7567269dd7225f0884ecbdf37555]
entity BuddyPress*--><rect fill="#FEFECE" height="98.1358" style="stroke: #A80036; stroke-width: 3.0;" width="254" x="999" y="1483.3034"/><rect fill="#FEFECE" height="20" style="stroke: #A80036; stroke-width: 3.0;" width="30" x="1213" y="1493.3034"/><rect fill="#FEFECE" height="4" style="stroke: #A80036; stroke-width: 3.0;" width="8" x="1209" y="1497.3034"/><rect fill="#FEFECE" height="4" style="stroke: #A80036; stroke-width: 3.0;" width="8" x="1209" y="1505.3034"/><text fill="#000000" font-family="sans-serif" font-size="28" lengthAdjust="spacingAndGlyphs" textLength="174" x="1029" y="1553.2352">BuddyPress*</text><!--MD5=[1833ec68037e816bb92db43c282574ac]
entity TaskBreaker--><rect fill="#FEFECE" height="98.1358" style="stroke: #A80036; stroke-width: 3.0;" width="244" x="712" y="2085.3034"/><rect fill="#FEFECE" height="20" style="stroke: #A80036; stroke-width: 3.0;" width="30" x="916" y="2095.3034"/><rect fill="#FEFECE" height="4" style="stroke: #A80036; stroke-width: 3.0;" width="8" x="912" y="2099.3034"/><rect fill="#FEFECE" height="4" style="stroke: #A80036; stroke-width: 3.0;" width="8" x="912" y="2107.3034"/><text fill="#000000" font-family="sans-serif" font-size="28" lengthAdjust="spacingAndGlyphs" textLength="164" x="742" y="2155.2352">TaskBreaker</text><!--MD5=[32c605ce3f29b5b9d50f096edf3f9c30]
entity own Development--><rect fill="#FEFECE" height="98.1358" style="stroke: #A80036; stroke-width: 3.0;" width="322" x="1027" y="2085.3034"/><rect fill="#FEFECE" height="20" style="stroke: #A80036; stroke-width: 3.0;" width="30" x="1309" y="2095.3034"/><rect fill="#FEFECE" height="4" style="stroke: #A80036; stroke-width: 3.0;" width="8" x="1305" y="2099.3034"/><rect fill="#FEFECE" height="4" style="stroke: #A80036; stroke-width: 3.0;" width="8" x="1305" y="2107.3034"/><text fill="#000000" font-family="sans-serif" font-size="28" lengthAdjust="spacingAndGlyphs" textLength="242" x="1057" y="2155.2352">own Development</text><!--MD5=[f96d10f7e1fdd0429d7c6002fb5377c2]
entity db_plattform--><path d="M2132,2087.3034 C2132,2067.3034 2244,2067.3034 2244,2067.3034 C2244,2067.3034 2356,2067.3034 2356,2087.3034 L2356,2181.575 C2356,2201.575 2244,2201.575 2244,2201.575 C2244,2201.575 2132,2201.575 2132,2181.575 L2132,2087.3034 " fill="#FEFECE" style="stroke: #000000; stroke-width: 3.0;"/><path d="M2132,2087.3034 C2132,2107.3034 2244,2107.3034 2244,2107.3034 C2244,2107.3034 2356,2107.3034 2356,2087.3034 " fill="none" style="stroke: #000000; stroke-width: 3.0;"/><text fill="#000000" font-family="sans-serif" font-size="28" font-style="italic" lengthAdjust="spacingAndGlyphs" textLength="144" x="2172" y="2145.2352">«database»</text><text fill="#000000" font-family="sans-serif" font-size="28" lengthAdjust="spacingAndGlyphs" textLength="184" x="2152" y="2183.3711">platform data</text><!--MD5=[d7c4842f713b7111f319033620a05650]
entity db_user--><path d="M1878,2087.3034 C1878,2067.3034 1970,2067.3034 1970,2067.3034 C1970,2067.3034 2062,2067.3034 2062,2087.3034 L2062,2181.575 C2062,2201.575 1970,2201.575 1970,2201.575 C1970,2201.575 1878,2201.575 1878,2181.575 L1878,2087.3034 " fill="#FEFECE" style="stroke: #000000; stroke-width: 3.0;"/><path d="M1878,2087.3034 C1878,2107.3034 1970,2107.3034 1970,2107.3034 C1970,2107.3034 2062,2107.3034 2062,2087.3034 " fill="none" style="stroke: #000000; stroke-width: 3.0;"/><text fill="#000000" font-family="sans-serif" font-size="28" font-style="italic" lengthAdjust="spacingAndGlyphs" textLength="144" x="1898" y="2145.2352">«database»</text><text fill="#000000" font-family="sans-serif" font-size="28" lengthAdjust="spacingAndGlyphs" textLength="128" x="1906" y="2183.3711">user data</text><path d="M2692,2106.3034 L2692,2161.7154 L2784,2161.7154 L2784,2126.3034 L2764,2106.3034 L2692,2106.3034 " fill="#AAAAFF" style="stroke: #A80036; stroke-width: 2.0;"/><path d="M2764,2106.3034 L2764,2126.3034 L2784,2126.3034 L2764,2106.3034 " fill="#AAAAFF" style="stroke: #A80036; stroke-width: 2.0;"/><text fill="#000000" font-family="sans-serif" font-size="26" lengthAdjust="spacingAndGlyphs" textLength="50" x="2704" y="2144.0974">DPA</text><!--MD5=[c731dae3dc4b384084c2fdb9c9034c66]
entity bbb--><rect fill="#FEFECE" height="136.2717" style="stroke: #A80036; stroke-width: 3.0;" width="312" x="2880" y="2066.3034"/><rect fill="#FEFECE" height="20" style="stroke: #A80036; stroke-width: 3.0;" width="30" x="3152" y="2076.3034"/><rect fill="#FEFECE" height="4" style="stroke: #A80036; stroke-width: 3.0;" width="8" x="3148" y="2080.3034"/><rect fill="#FEFECE" height="4" style="stroke: #A80036; stroke-width: 3.0;" width="8" x="3148" y="2088.3034"/><text fill="#000000" font-family="sans-serif" font-size="28" font-style="italic" lengthAdjust="spacingAndGlyphs" textLength="232" x="2910" y="2136.2352">«Web-Framework»</text><text fill="#000000" font-family="sans-serif" font-size="28" lengthAdjust="spacingAndGlyphs" textLength="194" x="2929" y="2174.3711">BigBlueButton</text><path d="M3168,2646.3034 L3168,2701.7154 L3260,2701.7154 L3260,2666.3034 L3240,2646.3034 L3168,2646.3034 " fill="#AAAAFF" style="stroke: #A80036; stroke-width: 2.0;"/><path d="M3240,2646.3034 L3240,2666.3034 L3260,2666.3034 L3240,2646.3034 " fill="#AAAAFF" style="stroke: #A80036; stroke-width: 2.0;"/><text fill="#000000" font-family="sans-serif" font-size="26" lengthAdjust="spacingAndGlyphs" textLength="50" x="3180" y="2684.0974">DPA</text><!--MD5=[4010d4e2001a3c4827d43219502702b7]
entity deepl_trans--><rect fill="#FEFECE" height="98.1358" style="stroke: #A80036; stroke-width: 3.0;" width="218" x="2879" y="2625.3034"/><rect fill="#FEFECE" height="20" style="stroke: #A80036; stroke-width: 3.0;" width="30" x="3057" y="2635.3034"/><rect fill="#FEFECE" height="4" style="stroke: #A80036; stroke-width: 3.0;" width="8" x="3053" y="2639.3034"/><rect fill="#FEFECE" height="4" style="stroke: #A80036; stroke-width: 3.0;" width="8" x="3053" y="2647.3034"/><text fill="#000000" font-family="sans-serif" font-size="28" lengthAdjust="spacingAndGlyphs" textLength="138" x="2909" y="2695.2352">Translator</text><!--MD5=[8fc3522a43f8c7199df5e09e5bb0188e]
entity user--><ellipse cx="66" cy="1485.3034" fill="#FEFECE" rx="32" ry="32" style="stroke: #A80036; stroke-width: 3.0;"/><path d="M66,1525.3034 C74,1525.3034 80,1525.3034 88,1517.3034 C104,1517.3034 120,1533.3034 120,1549.3034 L120,1557.3034 C120,1565.3034 112,1573.3034 104,1573.3034 L28,1573.3034 C20,1573.3034 12,1565.3034 12,1557.3034 L12,1549.3034 C12,1533.3034 28,1517.3034 44,1517.3034 C52,1525.3034 58,1525.3034 66,1525.3034 " fill="#FEFECE" style="stroke: #A80036; stroke-width: 3.0;"/><text fill="#000000" font-family="sans-serif" font-size="28" lengthAdjust="spacingAndGlyphs" textLength="62" x="35" y="1606.2352">User</text><!--MD5=[7cf42eea8ccfc177cab0c6df00566878]
link wp to dbms--><path d="M1414.6298,1623.5728 C1415.2037,1624.1462 1415.7774,1624.7109 1416.3508,1625.267 C1417.4977,1626.3792 1418.6438,1627.457 1419.789,1628.5016 C1424.3701,1632.6798 1428.9392,1636.325 1433.5065,1639.5016 C1442.6411,1645.8548 1451.7684,1650.3338 1460.9694,1653.4543 C1479.3713,1659.6952 1498.0675,1660.5021 1517.705,1660.0009 C1556.98,1658.9984 1600.02,1652.7634 1652,1674.3034 C1723.12,1703.7634 1761.54,1697.6034 1800,1764.3034 C1820.11,1799.1784 1830.8063,1839.1746 1835.5044,1879.6596 C1837.8534,1899.9021 1838.703,1920.2668 1838.4799,1940.1746 C1838.466,1941.4188 1838.4479,1942.6613 1838.4256,1943.9018 " fill="none" id="wp-to-dbms" style="stroke: #000000; stroke-width: 2.0;"/><polygon fill="#000000" points="1838.4256,1943.9018,1846.7467,1926.048,1838.6047,1933.9034,1830.7492,1925.7615,1838.4256,1943.9018" style="stroke: #000000; stroke-width: 2.0;"/><!--MD5=[cca07670e30e52107cdaa95bdcd40b73]
link wp to wpfolder--><path d="M1414.2482,1647.7331 C1414.4195,1648.3922 1414.5912,1649.0516 1414.7635,1649.7111 C1415.1081,1651.0302 1415.4548,1652.35 1415.8036,1653.6704 C1416.5012,1656.3113 1417.2072,1658.9547 1417.9211,1661.6003 C1419.3491,1666.8916 1420.8092,1672.1915 1422.2993,1677.497 C1428.2595,1698.7187 1434.6983,1720.0277 1441.4703,1741.2146 C1455.0144,1783.5884 1469.8913,1825.4734 1484.9375,1865.1934 C1515.03,1944.6334 1545.8,2015.4134 1567.94,2064.1234 " fill="none" id="wp-to-wpfolder" style="stroke: #000000; stroke-width: 2.0;"/><polygon fill="#000000" points="1572.12,2073.2634,1571.8799,2053.5671,1567.9475,2064.1754,1557.3392,2060.243,1572.12,2073.2634" style="stroke: #000000; stroke-width: 2.0;"/><!--MD5=[5f3569dadbb7d91764bade3dadb2225a]
link wp to bbb--><path d="M1415.1044,1619.6968 C1419.3411,1621.4814 1424.7536,1623.2529 1431.2639,1625.0119 C1444.2845,1628.5299 1461.696,1631.9978 1482.8735,1635.42 C1525.2286,1642.2644 1582.6478,1648.926 1650.1319,1655.4399 C1785.1,1668.4677 1960.3275,1680.9046 2135.82,1693.0309 C2486.805,1717.2834 2838.85,1740.2934 2872,1764.3034 C2970.86,1835.8834 3011.14,1980.8634 3026.78,2065.9234 " fill="none" id="wp-bbb" style="stroke: #00AA00; stroke-width: 4.0;"/><path d="M2122.6864,1677.9475 A20,20 0 0 0 2120.7366 1706.1645" fill="#FFFFFF" style="stroke: #00AA00; stroke-width: 3.0;"/><ellipse cx="2135.82" cy="1693.0309" fill="#FFFFFF" rx="12" ry="12" style="stroke: #00AA00; stroke-width: 3.0;"/><!--MD5=[43fef3d11c192aa0a88d628b3eebaa00]
link wp to i_web--><path d="M661.5611,1654.0812 C658.1267,1654.721 654.7578,1655.4028 651.4571,1656.1282 C644.8558,1657.5792 638.5273,1659.205 632.4934,1661.0203 C620.4255,1664.6509 609.5363,1669.0396 600,1674.3034 C407.54,1780.5434 293.2,2046.9434 266.22,2115.8434 " fill="none" id="wp-i_web" style="stroke: #A80036; stroke-width: 2.0; stroke-dasharray: 7.0,7.0;"/><!--MD5=[ba0020594d3db87e1e094c8a817d7300]
link bbb to i_bbb--><path d="M3022.32,2202.5834 C3002.92,2278.1034 2959.58,2398.5834 2872,2457.3034 C2644.38,2609.9034 517.8,2666.4234 298.28,2671.8634 " fill="none" id="bbb-i_bbb" style="stroke: #A80036; stroke-width: 2.0; stroke-dasharray: 7.0,7.0;"/><!--MD5=[8cc0045ab29728952f25259bfa3a3d6b]
link wp to deepl_trans--><path d="M1415.1651,1620.9359 C1418.8713,1623.0557 1423.2148,1625.0858 1428.1542,1627.0301 C1438.0328,1630.9186 1450.2947,1634.4636 1464.6076,1637.6961 C1493.2333,1644.161 1530.0628,1649.3755 1572.4381,1653.5865 C1657.1888,1662.0084 1764.1225,1666.4159 1871.975,1668.7834 C2087.68,1673.5184 2307.06,1670.0934 2360,1674.3034 C2775.72,1707.4034 2998.36,1470.1834 3294,1764.3034 C3406.58,1876.3034 3474.36,2359.2034 3366,2475.3034 C3330.74,2513.0834 3179.82,2467.4234 3134,2491.3034 C3077.8,2520.6034 3035.62,2582.0434 3011.4,2625.1834 " fill="none" id="wp-deepl_trans" style="stroke: #00AA00; stroke-width: 4.0;"/><path d="M2162.9242,1657.5563 A20,20 0 0 0 2162.8404 1685.8404" fill="#FFFFFF" style="stroke: #00AA00; stroke-width: 3.0;"/><ellipse cx="2177.0244" cy="1671.7402" fill="#FFFFFF" rx="12" ry="12" style="stroke: #00AA00; stroke-width: 3.0;"/><!--MD5=[c7784b2e21d0ca9313c80fde28ef0c60]
link ship to mps--><path d="M3254.2,547.7634 C3241.2,593.2834 3218.12,647.6434 3178,681.3034 C3154.22,701.2634 3135.66,679.8234 3110,697.3034 C2925.2,823.0934 2781.505,1029.0834 2683.6125,1204.7434 C2634.6663,1292.5734 2597.1706,1372.8209 2571.7128,1431.6696 C2565.3484,1446.3818 2559.7363,1459.7566 2554.8857,1471.578 C2552.4604,1477.4888 2550.2256,1483.0112 2548.1822,1488.1183 " fill="none" id="ship-to-mps" style="stroke: #A80036; stroke-width: 2.0;"/><polygon fill="#A80036" points="2548.1822,1488.1183,2562.2962,1474.3781,2551.8969,1478.8338,2547.4411,1468.4345,2548.1822,1488.1183" style="stroke: #A80036; stroke-width: 2.0;"/><text fill="#000000" font-family="sans-serif" font-size="26" lengthAdjust="spacingAndGlyphs" textLength="104" x="3112" y="727.0974">Adminis-</text><text fill="#000000" font-family="sans-serif" font-size="26" lengthAdjust="spacingAndGlyphs" textLength="82" x="3123" y="762.5094">tration</text><!--MD5=[fff4ce1c990a36f9047cb0c016b2d9f8]
link ship to bbb_server--><path d="M3269.62,547.6034 C3268.82,712.6034 3266.94,1103.9034 3265.2475,1456.3634 C3264.4013,1632.5934 3263.6019,1799.1134 3263.0078,1922.7809 " fill="none" id="ship-to-bbb_server" style="stroke: #A80036; stroke-width: 2.0;"/><polygon fill="#A80036" points="3263.0078,1922.7809,3271.0942,1904.8195,3263.0558,1912.781,3255.0944,1904.7426,3263.0078,1922.7809" style="stroke: #A80036; stroke-width: 2.0;"/><text fill="#000000" font-family="sans-serif" font-size="26" lengthAdjust="spacingAndGlyphs" textLength="104" x="3270" y="1525.0974">Adminis-</text><text fill="#000000" font-family="sans-serif" font-size="26" lengthAdjust="spacingAndGlyphs" textLength="82" x="3281" y="1560.5094">tration</text><!--MD5=[d02e3e63e5832b21920f2069dd6b63da]
link ship to deepl--><path d="M3310.12,547.8034 C3339.32,611.1234 3376.38,702.5234 3392,787.3034 C3527.88,1525.1234 3487.52,1732.2434 3384,2475.3034 C3377.93,2518.8534 3365.07,2566.4334 3353.4225,2603.9234 C3351.9666,2608.6096 3350.5296,2613.1382 3349.1272,2617.4816 C3348.4259,2619.6532 3347.7334,2621.7786 3347.0514,2623.8542 C3346.7104,2624.892 3346.3721,2625.9174 3346.0367,2626.9299 " fill="none" id="ship-to-deepl" style="stroke: #A80036; stroke-width: 2.0;"/><polygon fill="#A80036" points="3346.0367,2626.9299,3359.2916,2612.3591,3349.1816,2617.4373,3344.1034,2607.3273,3346.0367,2626.9299" style="stroke: #A80036; stroke-width: 2.0;"/><text fill="#000000" font-family="sans-serif" font-size="26" lengthAdjust="spacingAndGlyphs" textLength="104" x="3476" y="1704.0974">Adminis-</text><text fill="#000000" font-family="sans-serif" font-size="26" lengthAdjust="spacingAndGlyphs" textLength="82" x="3487" y="1739.5094">tration</text><!--MD5=[146ac31a81dcf7247f718aff5916ad51]
link s4p_partner to wp--><path d="M1398,566.3434 C1398,697.2634 1398,935.5234 1398,1142.4034 C1398,1194.1234 1398,1243.8821 1398,1289.5121 C1398,1300.9196 1398,1312.0691 1398,1322.9266 C1398,1328.3554 1398,1333.7112 1398,1338.9897 C1398,1341.629 1398,1344.249 1398,1346.8492 C1398,1348.1492 1398,1349.4444 1398,1350.7345 " fill="none" id="s4p_partner-to-wp" style="stroke: #A80036; stroke-width: 2.0;"/><polygon fill="#A80036" points="1398,1350.7345,1406,1332.7345,1398,1340.7345,1390,1332.7345,1398,1350.7345" style="stroke: #A80036; stroke-width: 2.0;"/><text fill="#000000" font-family="sans-serif" font-size="26" lengthAdjust="spacingAndGlyphs" textLength="104" x="1400" y="727.0974">Adminis-</text><text fill="#000000" font-family="sans-serif" font-size="26" lengthAdjust="spacingAndGlyphs" textLength="82" x="1411" y="762.5094">tration</text><!--MD5=[b93c4206cee9011957949891b2cc86fb]
link i_web to i_bbb--><!--MD5=[a23f446537a1da76446c4d6a9c6586ad]
link user to i_web--><path d="M102.26,1614.3434 C110.52,1633.7834 118.94,1654.6434 126,1674.3034 C183.94,1835.6434 235.76,2035.4034 253.5,2106.0634 " fill="none" id="user-to-i_web" style="stroke: #A80036; stroke-width: 2.0;"/><polygon fill="#A80036" points="256.06,2116.2634,259.442,2096.8582,253.6279,2106.5636,243.9224,2100.7495,256.06,2116.2634" style="stroke: #A80036; stroke-width: 2.0;"/><!--MD5=[5e73b41978777b769d1de7890e6d9607]
link user to i_bbb--><path d="M62.2,1614.4234 C56.94,1777.4834 57.22,2157.8634 154,2457.3034 C178.16,2532.0634 231.46,2608.9634 260.38,2647.3234 " fill="none" id="user-to-i_bbb" style="stroke: #A80036; stroke-width: 2.0;"/><polygon fill="#A80036" points="267.18,2656.2234,262.6264,2637.0592,261.1161,2648.2717,249.9037,2646.7614,267.18,2656.2234" style="stroke: #A80036; stroke-width: 2.0;"/><!--MD5=[685d4c77146e4de69831589066018687]
link bbPress to BuddyPress*--><!--MD5=[d978cefa2092a887f55296fa2c0a6979]
link bbPress to TaskBreaker--><!--MD5=[022445beb18406161a482656595ac62e]
link TaskBreaker to own Development--><rect fill="#DDDDDD" height="96.2717" rx="10" ry="10" style="stroke: #000000; stroke-width: 2.0;" width="1006" x="1280" y="3009.6408"/><text fill="#000000" font-family="sans-serif" font-size="28" font-weight="bold" lengthAdjust="spacingAndGlyphs" textLength="102" x="1292" y="3049.5726">Legend</text><text fill="#000000" font-family="sans-serif" font-size="28" lengthAdjust="spacingAndGlyphs" textLength="982" x="1292" y="3087.7085">- DPA "Data Processing Agreement" - Auftragsverarbeitungsvertrag (AVV)</text><!--MD5=[8959a1ad661a897a07a99502a8a7f2c7]
@startuml

skinparam shadowing false
scale 2

title: Overview Platform (WIP)\njoinus4health.eu
header version: %date("dd.MM.yyyy")

skinparam actorStyle awesome
skinparam nodeBackgroundColor<<Server>> #ffccaa
skinparam rectangleBackgroundColor<<Partner>> #cccccc
skinparam rectangleBackgroundColor<<Provider>> #ddbbaa
skinparam componentBackgroundColor #fefece
skinparam databaseBackgroundColor #fefece

legend
**Legend**
- DPA "Data Processing Agreement" - Auftragsverarbeitungsvertrag (AVV)
end legend

!define DPA(_name)   note "DPA" as _name #aaaaff

actor "User" as user

rectangle "UMG\ncoordinator" as umg #ffcccc {
    rectangle "ICM SHIP-KEF" {
        actor "SHIP-IT" as ship
        actor "JoinUs4Health\nProject Manage-\nment Team" as umg_team
    }
}

rectangle "science4people.eu" <<Partner>> as s4p {
    DPA(dpa_s4p)
    actor "science4people\nPartner" as s4p_partner
}

cloud "Internet" {
    rectangle "netcup" <<Provider>> as netcup {
        DPA(dpa_netcup)
        node "Managed Private Server" <<Server>> as mps {
            node "Platform-Server" <<Server>> as platform_server {
                component "WordPress" <<Web-Framework>> as wp {
                    component "bbPress"
                    component "BuddyPress*"
                    component "TaskBreaker"
                    component "own Development"
                }
                folder "WordPress-Files" as wpfolder
                database "DBMS MariaDB" as dbms {
                    database "platform data" <<database>> as db_plattform
                    database "user data" <<database>> as db_user
                }
                wp - -> dbms     #black
                wp - -> wpfolder #black
            }
'            node "Questionnaire-Server" <<Server>> as lime_server {
'                component "LimeSurvey" <<Web-Framework>> as lime
'                database "MariaDB" <<database>> as lime_db
'                
'                lime    - ->     lime_db #black
'            }
'            
'            wp      =(0=    lime    #00aa00
        }
    }
    rectangle "werk21" <<Provider>> as bbb_provider {
        DPA(dpa_bbb)
        node "Conference-Server" <<Server>> as bbb_server {
            component "BigBlueButton" <<Web-Framework>> as bbb
            
        }
    }
    wp     =(0=     bbb #00aa00

    interface "Conference" as i_bbb
    interface "Platform" as i_web
'    interface "Questionnaire" as i_lime

    i_web   .u.     wp
'    i_lime  .u.     lime
    i_bbb   .u.     bbb

    node "deepl.com" as deepl #ddbbaa {
        DPA(dpa_deepl)
        component "Translator" as deepl_trans
    }
    wp     =(0==     deepl_trans #00aa00
}

ship        - ->     mps         : Adminis-\ntration
ship        - ->     bbb_server  : Adminis-\ntration
ship        - ->     deepl       : Adminis-\ntration
s4p_partner - ->     wp          : Adminis-\ntration
's4p_partner - ->     lime        : Adminis-\ntration

i_web   -[hidden]-  i_bbb
'i_bbb   -[hidden]-  i_lime

user    - -> i_web
user    - -> i_bbb
'user    -u->  i_lime

@enduml

@startuml

skinparam shadowing false
scale 2

title: Overview Platform (WIP)\njoinus4health.eu
header version: 03.05.2022

skinparam actorStyle awesome
skinparam nodeBackgroundColor<<Server>> #ffccaa
skinparam rectangleBackgroundColor<<Partner>> #cccccc
skinparam rectangleBackgroundColor<<Provider>> #ddbbaa
skinparam componentBackgroundColor #fefece
skinparam databaseBackgroundColor #fefece

legend
**Legend**
- DPA "Data Processing Agreement" - Auftragsverarbeitungsvertrag (AVV)
end legend


actor "User" as user

rectangle "UMG\ncoordinator" as umg #ffcccc {
    rectangle "ICM SHIP-KEF" {
        actor "SHIP-IT" as ship
        actor "JoinUs4Health\nProject Manage-\nment Team" as umg_team
    }
}

rectangle "science4people.eu" <<Partner>> as s4p {
    note "DPA" as dpa_s4p #aaaaff
    actor "science4people\nPartner" as s4p_partner
}

cloud "Internet" {
    rectangle "netcup" <<Provider>> as netcup {
        note "DPA" as dpa_netcup #aaaaff
        node "Managed Private Server" <<Server>> as mps {
            node "Platform-Server" <<Server>> as platform_server {
                component "WordPress" <<Web-Framework>> as wp {
                    component "bbPress"
                    component "BuddyPress*"
                    component "TaskBreaker"
                    component "own Development"
                }
                folder "WordPress-Files" as wpfolder
                database "DBMS MariaDB" as dbms {
                    database "platform data" <<database>> as db_plattform
                    database "user data" <<database>> as db_user
                }
                wp - -> dbms     #black
                wp - -> wpfolder #black
            }
        }
    }
    rectangle "werk21" <<Provider>> as bbb_provider {
        note "DPA" as dpa_bbb #aaaaff
        node "Conference-Server" <<Server>> as bbb_server {
            component "BigBlueButton" <<Web-Framework>> as bbb
            
        }
    }
    wp     =(0=     bbb #00aa00

    interface "Conference" as i_bbb
    interface "Platform" as i_web

    i_web   .u.     wp
    i_bbb   .u.     bbb

    node "deepl.com" as deepl #ddbbaa {
        note "DPA" as dpa_deepl #aaaaff
        component "Translator" as deepl_trans
    }
    wp     =(0==     deepl_trans #00aa00
}

ship        - ->     mps         : Adminis-\ntration
ship        - ->     bbb_server  : Adminis-\ntration
ship        - ->     deepl       : Adminis-\ntration
s4p_partner - ->     wp          : Adminis-\ntration

i_web   -[hidden]-  i_bbb

user    - -> i_web
user    - -> i_bbb

@enduml

PlantUML version 1.2020.16(Sun Aug 23 22:20:43 CEST 2020)
(GPL source distribution)
Java Runtime: OpenJDK Runtime Environment
JVM: OpenJDK 64-Bit Server VM
Default Encoding: UTF-8
Language: en
Country: GB
--></g></svg>