<?xml version="1.0" encoding="UTF-8" standalone="no"?><svg xmlns="http://www.w3.org/2000/svg" xmlns:xlink="http://www.w3.org/1999/xlink" contentScriptType="application/ecmascript" contentStyleType="text/css" height="1616px" preserveAspectRatio="none" style="width:3058px;height:1616px;" version="1.1" viewBox="0 0 3058 1616" width="3058px" zoomAndPan="magnify"><defs/><g><text fill="#888888" font-family="sans-serif" font-size="20" lengthAdjust="spacingAndGlyphs" textLength="190" x="2833.3964" y="18.5645">version: 01.10.2021</text><text fill="#000000" font-family="sans-serif" font-size="36" lengthAdjust="spacingAndGlyphs" textLength="448" x="1287.6982" y="56.6973">Overview Platform (WIP)</text><text fill="#000000" font-family="sans-serif" font-size="36" lengthAdjust="spacingAndGlyphs" textLength="290" x="1366.6982" y="98.6035">joinus4health.eu</text><!--MD5=[07074073229a58b98d86dbf75a12e332]
cluster Internet--><path d="M167.2723,246.5246 C222.2727,160.3612 298.7865,177.6186 339.5016,261.0332 C391.9019,149.9353 489.3895,149.4628 551.9557,250.8697 C601.8174,148.3897 696.8578,157.6649 743.5342,253.9401 C795.1517,167.5968 894.5617,150.4034 949.1666,250.6479 C986.0597,160.9237 1050.7182,161.0113 1114.4416,221.0356 C1169.6854,121.5171 1262.0465,127.5571 1317.9972,220.2871 C1373.455,121.0532 1457.7334,143.0493 1507.0822,226.6065 C1568.1114,119.0938 1666.2585,135.848 1710.5053,242.5439 C1773.6309,137.5913 1842.4027,151.4374 1914.3354,232.9148 C1975.5581,132.463 2038.1381,146.3013 2105.3252,226.613 C2183.9759,139.6238 2248.5721,146.7404 2300.6726,253.3966 C2370.0943,161.0977 2428.6956,152.6121 2492.1674,259.1274 C2552.1979,161.6735 2622.0844,165.0982 2691.3531,248.9798 C2753.1043,159.173 2810.1973,162.0555 2875.3964,245.3132 C2884.0967,250.9 2886.8073,257.2624 2877.6108,264.8751 C2979.4315,308.0043 2974.5565,398.3866 2901.6968,462.7758 C2991.7143,528.7862 2992.4957,610.1659 2899.3751,674.165 C2994.6307,731.9654 2984.9147,814.1528 2900.3783,872.8609 C2986.1551,925.5339 2978.327,983.7407 2912.256,1046.7838 C3022.1525,1111.0831 3020.1489,1198.0353 2909.7617,1259.7546 C2984.154,1340.4168 2976.9559,1415.6333 2861.3964,1447.3132 C2869.4936,1442.8578 2875.5156,1444.6867 2877.495,1454.3091 C2831.4293,1552.8729 2751.1133,1560.0542 2686.2331,1473.7771 C2640.7731,1568.1216 2542.8461,1579.8387 2484.5627,1487.6403 C2428.1925,1575.6361 2345.8369,1550.3259 2311.7182,1465.3989 C2241.8227,1556.9136 2168.2691,1556.3504 2102.6861,1460.5855 C2062.1284,1547.167 1975.24,1560.5087 1910.8874,1489.5558 C1835.9441,1576.2236 1764.4353,1565.0796 1709.0503,1468.0644 C1652.3084,1576.2265 1562.7994,1563.8055 1502.7827,1471.4327 C1457.4764,1570.4938 1383.5493,1591.3258 1314.0931,1494.7216 C1255.2719,1570.5321 1175.8704,1578.9891 1129.4033,1481.5515 C1070.7654,1563.5505 998.3932,1592.6915 931.7762,1490.0938 C868.5974,1573.2227 782.4396,1562.8898 743.3766,1464.9954 C674.3624,1553.4737 610.6816,1553.0361 546.1909,1460.0792 C495.6968,1558.9251 418.1224,1558.0848 347.1327,1483.6196 C261.508,1559.74 164.6425,1568.5087 127.3964,1433.3132 C134.8733,1424.7948 143.3415,1425.9303 148.37,1436.0659 C58.5376,1391.4572 46.8981,1325.96 120.9355,1256.3375 C23.9017,1195.0263 12,1111.1557 119.7622,1048.6874 C25.1751,981.8228 17.5434,919.1043 120.0025,852.4811 C29.2669,790.6077 38.033,712.8349 131.7581,662.3676 C32.598,594.0809 27.7935,520.7534 139.3877,460.4293 C47.0707,399.9332 46.6547,290.1693 141.3964,231.3132 C156.1323,225.6832 167.0234,227.5112 167.2723,246.5246 " fill="#FFFFFF" style="stroke: #000000; stroke-width: 3.0;"/><text fill="#000000" font-family="sans-serif" font-size="28" font-weight="bold" lengthAdjust="spacingAndGlyphs" textLength="126" x="1438.3964" y="267.3034">Internet</text><!--MD5=[b096110c50ac24e42b11da8f612dac3d]
cluster ???--><rect fill="#DDBBAA" height="1114" style="stroke: #000000; stroke-width: 3.0;" width="2196" x="647.3964" y="301.3132"/><text fill="#000000" font-family="sans-serif" font-size="28" font-style="italic" lengthAdjust="spacingAndGlyphs" textLength="148" x="1671.3964" y="331.3034">«Provider»</text><text fill="#000000" font-family="sans-serif" font-size="28" font-weight="bold" lengthAdjust="spacingAndGlyphs" textLength="48" x="1721.3964" y="363.8972">???</text><!--MD5=[34913ffcb3053ed9a56a135089e63dff]
cluster Web-Server--><polygon fill="#FFCCAA" points="1319.3964,439.3132,1339.3964,419.3132,2635.3964,419.3132,2635.3964,1347.3132,2615.3964,1367.3132,1319.3964,1367.3132,1319.3964,439.3132" style="stroke: #000000; stroke-width: 3.0;"/><line style="stroke: #000000; stroke-width: 3.0;" x1="2615.3964" x2="2635.3964" y1="439.3132" y2="419.3132"/><line style="stroke: #000000; stroke-width: 3.0;" x1="1319.3964" x2="2615.3964" y1="439.3132" y2="439.3132"/><line style="stroke: #000000; stroke-width: 3.0;" x1="2615.3964" x2="2615.3964" y1="439.3132" y2="1367.3132"/><text fill="#000000" font-family="sans-serif" font-size="28" font-style="italic" lengthAdjust="spacingAndGlyphs" textLength="126" x="1906.3964" y="471.3034">«Server»</text><text fill="#000000" font-family="sans-serif" font-size="28" font-weight="bold" lengthAdjust="spacingAndGlyphs" textLength="188" x="1875.3964" y="503.8972">Web-Server</text><!--MD5=[0ccfca756fad94035c3e173b9237d2d3]
cluster dbms--><rect fill="#FFCCAA" height="519" style="stroke: #000000; stroke-width: 3.0;" width="882" x="1689.3964" y="784.3132"/><text fill="#000000" font-family="sans-serif" font-size="28" font-weight="bold" lengthAdjust="spacingAndGlyphs" textLength="204" x="2028.3964" y="814.3034">DBMS MySQL</text><!--MD5=[8df29e4425d6c9c2b067528b2a8f694e]
cluster Database-Server--><polygon fill="#FFCCAA" points="695.3964,462.3132,715.3964,442.3132,1271.3964,442.3132,1271.3964,646.3132,1251.3964,666.3132,695.3964,666.3132,695.3964,462.3132" style="stroke: #000000; stroke-width: 3.0;"/><line style="stroke: #000000; stroke-width: 3.0;" x1="1251.3964" x2="1271.3964" y1="462.3132" y2="442.3132"/><line style="stroke: #000000; stroke-width: 3.0;" x1="695.3964" x2="1251.3964" y1="462.3132" y2="462.3132"/><line style="stroke: #000000; stroke-width: 3.0;" x1="1251.3964" x2="1251.3964" y1="462.3132" y2="666.3132"/><text fill="#000000" font-family="sans-serif" font-size="28" font-style="italic" lengthAdjust="spacingAndGlyphs" textLength="126" x="912.3964" y="494.3034">«Server»</text><text fill="#000000" font-family="sans-serif" font-size="28" font-weight="bold" lengthAdjust="spacingAndGlyphs" textLength="264" x="843.3964" y="526.8972">Database-Server</text><!--MD5=[bb5492b77aca0b4b44a0b9df2cf859ce]
cluster ????--><rect fill="#DDBBAA" height="402" style="stroke: #000000; stroke-width: 3.0;" width="440" x="159.3964" y="318.3132"/><text fill="#000000" font-family="sans-serif" font-size="28" font-style="italic" lengthAdjust="spacingAndGlyphs" textLength="148" x="305.3964" y="348.3034">«Provider»</text><text fill="#000000" font-family="sans-serif" font-size="28" font-weight="bold" lengthAdjust="spacingAndGlyphs" textLength="64" x="347.3964" y="380.8972">????</text><!--MD5=[6a89d95d3230b50323f5dfbffa31abbb]
cluster BBB-Server--><polygon fill="#FFCCAA" points="207.3964,456.3132,227.3964,436.3132,551.3964,436.3132,551.3964,652.3132,531.3964,672.3132,207.3964,672.3132,207.3964,456.3132" style="stroke: #000000; stroke-width: 3.0;"/><line style="stroke: #000000; stroke-width: 3.0;" x1="531.3964" x2="551.3964" y1="456.3132" y2="436.3132"/><line style="stroke: #000000; stroke-width: 3.0;" x1="207.3964" x2="531.3964" y1="456.3132" y2="456.3132"/><line style="stroke: #000000; stroke-width: 3.0;" x1="531.3964" x2="531.3964" y1="456.3132" y2="672.3132"/><text fill="#000000" font-family="sans-serif" font-size="28" font-style="italic" lengthAdjust="spacingAndGlyphs" textLength="126" x="308.3964" y="488.3034">«Server»</text><text fill="#000000" font-family="sans-serif" font-size="28" font-weight="bold" lengthAdjust="spacingAndGlyphs" textLength="178" x="282.3964" y="520.8972">BBB-Server</text><!--MD5=[51764780891d56c625808fe39e0f2680]
entity i_web--><ellipse cx="2739.3964" cy="932.3132" fill="#FEFECE" rx="16" ry="16" style="stroke: #A80036; stroke-width: 4.0;"/><text fill="#000000" font-family="sans-serif" font-size="28" lengthAdjust="spacingAndGlyphs" textLength="112" x="2683.3964" y="992.3034">Platform</text><!--MD5=[4660e0abdb7fa9e4244c49bb3714a7b9]
entity wp--><rect fill="#FEFECE" height="125.1875" style="stroke: #A80036; stroke-width: 3.0;" width="342" x="1992.3964" y="531.3132"/><rect fill="#FEFECE" height="20" style="stroke: #A80036; stroke-width: 3.0;" width="30" x="2294.3964" y="541.3132"/><rect fill="#FEFECE" height="4" style="stroke: #A80036; stroke-width: 3.0;" width="8" x="2290.3964" y="545.3132"/><rect fill="#FEFECE" height="4" style="stroke: #A80036; stroke-width: 3.0;" width="8" x="2290.3964" y="553.3132"/><text fill="#000000" font-family="sans-serif" font-size="28" font-style="italic" lengthAdjust="spacingAndGlyphs" textLength="262" x="2022.3964" y="597.3034">«Web-Framework»</text><text fill="#000000" font-family="sans-serif" font-size="28" lengthAdjust="spacingAndGlyphs" textLength="150" x="2078.3964" y="629.8972">WordPress</text><!--MD5=[512cfe29bb72a2b486a917f72d1d5dbb]
entity pad--><rect fill="#FEFECE" height="92.5938" style="stroke: #A80036; stroke-width: 3.0;" width="132" x="1789.3964" y="548.3132"/><rect fill="#FEFECE" height="20" style="stroke: #A80036; stroke-width: 3.0;" width="30" x="1881.3964" y="558.3132"/><rect fill="#FEFECE" height="4" style="stroke: #A80036; stroke-width: 3.0;" width="8" x="1877.3964" y="562.3132"/><rect fill="#FEFECE" height="4" style="stroke: #A80036; stroke-width: 3.0;" width="8" x="1877.3964" y="570.3132"/><text fill="#000000" font-family="sans-serif" font-size="28" lengthAdjust="spacingAndGlyphs" textLength="52" x="1819.3964" y="614.3034">Pad</text><!--MD5=[a05a56772dba1c5db36c3799a8bf10bf]
entity survey--><rect fill="#FEFECE" height="92.5938" style="stroke: #A80036; stroke-width: 3.0;" width="366" x="1352.3964" y="548.3132"/><rect fill="#FEFECE" height="20" style="stroke: #A80036; stroke-width: 3.0;" width="30" x="1678.3964" y="558.3132"/><rect fill="#FEFECE" height="4" style="stroke: #A80036; stroke-width: 3.0;" width="8" x="1674.3964" y="562.3132"/><rect fill="#FEFECE" height="4" style="stroke: #A80036; stroke-width: 3.0;" width="8" x="1674.3964" y="570.3132"/><text fill="#000000" font-family="sans-serif" font-size="28" lengthAdjust="spacingAndGlyphs" textLength="286" x="1382.3964" y="614.3034">Questionaire System</text><!--MD5=[fcbfd374278afc1cf141dd59657f7740]
entity wpfolder--><polygon fill="#FEFECE" points="1352.3964,876.3132,1444.3964,876.3132,1458.3964,918.3132,1634.3964,918.3132,1634.3964,987.5007,1352.3964,987.5007,1352.3964,876.3132" style="stroke: #000000; stroke-width: 3.0;"/><line style="stroke: #000000; stroke-width: 3.0;" x1="1352.3964" x2="1458.3964" y1="918.3132" y2="918.3132"/><text fill="#000000" font-family="sans-serif" font-size="28" lengthAdjust="spacingAndGlyphs" textLength="222" x="1372.3964" y="958.3034">WordPress-Files</text><path d="M1776.3964,907.3132 L1776.3964,957.5788 L2250.3964,957.5788 L2250.3964,927.3132 L2230.3964,907.3132 L1776.3964,907.3132 " fill="#FBFB77" style="stroke: #A80036; stroke-width: 2.0;"/><path d="M2230.3964,907.3132 L2230.3964,927.3132 L2250.3964,927.3132 L2230.3964,907.3132 " fill="#FBFB77" style="stroke: #A80036; stroke-width: 2.0;"/><text fill="#000000" font-family="sans-serif" font-size="26" lengthAdjust="spacingAndGlyphs" textLength="432" x="1788.3964" y="941.447">OPEN: maybe on database server</text><!--MD5=[d7c4842f713b7111f319033620a05650]
entity db_user--><path d="M2320.3964,890.3132 C2320.3964,870.3132 2421.3964,870.3132 2421.3964,870.3132 C2421.3964,870.3132 2522.3964,870.3132 2522.3964,890.3132 L2522.3964,973.5007 C2522.3964,993.5007 2421.3964,993.5007 2421.3964,993.5007 C2421.3964,993.5007 2320.3964,993.5007 2320.3964,973.5007 L2320.3964,890.3132 " fill="#FEFECE" style="stroke: #000000; stroke-width: 3.0;"/><path d="M2320.3964,890.3132 C2320.3964,910.3132 2421.3964,910.3132 2421.3964,910.3132 C2421.3964,910.3132 2522.3964,910.3132 2522.3964,890.3132 " fill="none" style="stroke: #000000; stroke-width: 3.0;"/><text fill="#000000" font-family="sans-serif" font-size="28" font-style="italic" lengthAdjust="spacingAndGlyphs" textLength="162" x="2340.3964" y="944.3034">«database»</text><text fill="#000000" font-family="sans-serif" font-size="28" lengthAdjust="spacingAndGlyphs" textLength="130" x="2356.3964" y="976.8972">user data</text><!--MD5=[f96d10f7e1fdd0429d7c6002fb5377c2]
entity db_plattform--><path d="M1903.3964,1151.3132 C1903.3964,1131.3132 2013.3964,1131.3132 2013.3964,1131.3132 C2013.3964,1131.3132 2123.3964,1131.3132 2123.3964,1151.3132 L2123.3964,1234.5007 C2123.3964,1254.5007 2013.3964,1254.5007 2013.3964,1254.5007 C2013.3964,1254.5007 1903.3964,1254.5007 1903.3964,1234.5007 L1903.3964,1151.3132 " fill="#FEFECE" style="stroke: #000000; stroke-width: 3.0;"/><path d="M1903.3964,1151.3132 C1903.3964,1171.3132 2013.3964,1171.3132 2013.3964,1171.3132 C2013.3964,1171.3132 2123.3964,1171.3132 2123.3964,1151.3132 " fill="none" style="stroke: #000000; stroke-width: 3.0;"/><text fill="#000000" font-family="sans-serif" font-size="28" font-style="italic" lengthAdjust="spacingAndGlyphs" textLength="162" x="1932.3964" y="1205.3034">«database»</text><text fill="#000000" font-family="sans-serif" font-size="28" lengthAdjust="spacingAndGlyphs" textLength="180" x="1923.3964" y="1237.8972">platform data</text><path d="M727.3964,554.3132 L727.3964,634.8444 L1239.3964,634.8444 L1239.3964,574.3132 L1219.3964,554.3132 L727.3964,554.3132 " fill="#FBFB77" style="stroke: #A80036; stroke-width: 2.0;"/><path d="M1219.3964,554.3132 L1219.3964,574.3132 L1239.3964,574.3132 L1219.3964,554.3132 " fill="#FBFB77" style="stroke: #A80036; stroke-width: 2.0;"/><text fill="#000000" font-family="sans-serif" font-size="26" lengthAdjust="spacingAndGlyphs" textLength="470" x="739.3964" y="588.447">OPEN: can we use a database server</text><text fill="#000000" font-family="sans-serif" font-size="26" lengthAdjust="spacingAndGlyphs" textLength="396" x="739.3964" y="618.7126">asking netcup, technical issues</text><!--MD5=[c731dae3dc4b384084c2fdb9c9034c66]
entity bbb--><rect fill="#FEFECE" height="92.5938" style="stroke: #A80036; stroke-width: 3.0;" width="280" x="239.3964" y="548.3132"/><rect fill="#FEFECE" height="20" style="stroke: #A80036; stroke-width: 3.0;" width="30" x="479.3964" y="558.3132"/><rect fill="#FEFECE" height="4" style="stroke: #A80036; stroke-width: 3.0;" width="8" x="475.3964" y="562.3132"/><rect fill="#FEFECE" height="4" style="stroke: #A80036; stroke-width: 3.0;" width="8" x="475.3964" y="570.3132"/><text fill="#000000" font-family="sans-serif" font-size="28" lengthAdjust="spacingAndGlyphs" textLength="200" x="269.3964" y="614.3034">BigBlueButton</text><!--MD5=[8fc3522a43f8c7199df5e09e5bb0188e]
entity user--><ellipse cx="2981.3964" cy="1149.3132" fill="#FEFECE" rx="32" ry="32" style="stroke: #A80036; stroke-width: 3.0;"/><path d="M2981.3964,1189.3132 C2989.3964,1189.3132 2995.3964,1189.3132 3003.3964,1181.3132 C3019.3964,1181.3132 3035.3964,1197.3132 3035.3964,1213.3132 L3035.3964,1221.3132 C3035.3964,1229.3132 3027.3964,1237.3132 3019.3964,1237.3132 L2943.3964,1237.3132 C2935.3964,1237.3132 2927.3964,1229.3132 2927.3964,1221.3132 L2927.3964,1213.3132 C2927.3964,1197.3132 2943.3964,1181.3132 2959.3964,1181.3132 C2967.3964,1189.3132 2973.3964,1189.3132 2981.3964,1189.3132 " fill="#FEFECE" style="stroke: #A80036; stroke-width: 3.0;"/><text fill="#000000" font-family="sans-serif" font-size="28" lengthAdjust="spacingAndGlyphs" textLength="64" x="2949.3964" y="1266.3034">User</text><!--MD5=[7cf42eea8ccfc177cab0c6df00566878]
link wp to dbms--><path d="M2092.3964,657.6532 C2054.3564,686.8332 2005.1564,719.0532 1955.3964,736.3132 C1910.7564,751.7932 1778.9764,721.2332 1743.3964,752.3132 C1735.8989,758.8607 1729.6711,766.4919 1724.514,774.8411 C1723.2248,776.9284 1722.0024,779.0605 1720.8439,781.2318 C1720.5543,781.7746 1720.2686,782.3199 1719.9869,782.8675 C1719.8461,783.1414 1719.7062,783.4158 1719.5673,783.6908 " fill="none" id="wp-to-dbms" style="stroke: #A80036; stroke-width: 2.0;"/><polygon fill="#A80036" points="1719.5673,783.6908,1734.8232,771.2306,1724.0757,774.7647,1720.5416,764.0171,1719.5673,783.6908" style="stroke: #A80036; stroke-width: 2.0;"/><!--MD5=[cca07670e30e52107cdaa95bdcd40b73]
link wp to wpfolder--><path d="M2092.5164,658.0332 C2054.5164,687.3132 2005.3164,719.5132 1955.3964,736.3132 C1895.8964,756.3332 1730.7564,726.8132 1673.3964,752.3132 C1617.6764,777.0732 1569.4764,827.2932 1537.0164,868.0932 " fill="none" id="wp-to-wpfolder" style="stroke: #A80036; stroke-width: 2.0;"/><polygon fill="#A80036" points="1530.7364,876.1132,1548.13,866.8686,1536.8995,868.2381,1535.5299,857.0076,1530.7364,876.1132" style="stroke: #A80036; stroke-width: 2.0;"/><!--MD5=[43fef3d11c192aa0a88d628b3eebaa00]
link wp to i_web--><path d="M2334.4364,647.9732 C2405.8364,673.6332 2487.7364,708.5732 2555.3964,752.3132 C2628.9364,799.8332 2698.2564,879.6332 2726.2964,913.8732 " fill="none" id="wp-i_web" style="stroke: #A80036; stroke-width: 2.0; stroke-dasharray: 7.0,7.0;"/><!--MD5=[d320135e18d4819ab489a80e606b00fb]
reverse link i_web to user--><path d="M2762.2164,958.5532 C2798.9764,997.5932 2872.3964,1075.5532 2924.0964,1130.4732 " fill="none" id="i_web-backto-user" style="stroke: #A80036; stroke-width: 2.0;"/><polygon fill="#A80036" points="2754.5364,950.3932,2761.0474,968.9837,2761.3901,957.6752,2772.6986,958.0179,2754.5364,950.3932" style="stroke: #A80036; stroke-width: 2.0;"/><!--MD5=[4fc8a8cb9f710c9f8fa1c35fa8d61e26]
link n1 to db_user--><!--MD5=[3cff492338447693cfbb4deff1e5d3a2]
link n1 to db_plattform--><!--MD5=[eb27203e8275854f2c1c622a082a1333]
@startuml

skinparam shadowing false
scale 2

title: Overview Platform (WIP)\njoinus4health.eu
header version: %date("dd.MM.yyyy")

skinparam actorStyle awesome
skinparam nodeBackgroundColor<<Server>> #ffccaa
skinparam rectangleBackgroundColor<<Provider>> #ddbbaa

actor "User" as user

cloud "Internet" {
    rectangle "???" <<Provider>>  {
        node "Web-Server" <<Server>> {
            component "WordPress" <<Web-Framework>> as wp
            component "Pad" as pad
            component "Questionaire System" as survey
            folder "WordPress-Files" as wpfolder
            rectangle "DBMS MySQL" as dbms {
                note "OPEN: maybe on database server" as n1
                database "user data" <<database>> as db_user
                database "platform data" <<database>> as db_plattform
            }
            wp - -> dbms
            wp - -> wpfolder
        }
        node "Database-Server" <<Server>> {
            note "OPEN: can we use a database server\nasking netcup, technical issues" as n2
        }
        interface "Platform" as i_web
        i_web .u. wp
    }
    rectangle "????" <<Provider>> {
        node "BBB-Server" <<Server>> {
            component "BigBlueButton" as bbb
        }
    }
}

user    -u-> i_web

@enduml

@startuml

skinparam shadowing false
scale 2

title: Overview Platform (WIP)\njoinus4health.eu
header version: 01.10.2021

skinparam actorStyle awesome
skinparam nodeBackgroundColor<<Server>> #ffccaa
skinparam rectangleBackgroundColor<<Provider>> #ddbbaa

actor "User" as user

cloud "Internet" {
    rectangle "???" <<Provider>>  {
        node "Web-Server" <<Server>> {
            component "WordPress" <<Web-Framework>> as wp
            component "Pad" as pad
            component "Questionaire System" as survey
            folder "WordPress-Files" as wpfolder
            rectangle "DBMS MySQL" as dbms {
                note "OPEN: maybe on database server" as n1
                database "user data" <<database>> as db_user
                database "platform data" <<database>> as db_plattform
            }
            wp - -> dbms
            wp - -> wpfolder
        }
        node "Database-Server" <<Server>> {
            note "OPEN: can we use a database server\nasking netcup, technical issues" as n2
        }
        interface "Platform" as i_web
        i_web .u. wp
    }
    rectangle "????" <<Provider>> {
        node "BBB-Server" <<Server>> {
            component "BigBlueButton" as bbb
        }
    }
}

user    -u-> i_web

@enduml

PlantUML version 1.2020.16(Sun Aug 23 22:20:43 CEST 2020)
(GPL source distribution)
Java Runtime: OpenJDK Runtime Environment
JVM: OpenJDK 64-Bit Server VM
Default Encoding: UTF-8
Language: en
Country: GB
--></g></svg>