<?xml version="1.0" encoding="UTF-8" standalone="no"?><svg xmlns="http://www.w3.org/2000/svg" xmlns:xlink="http://www.w3.org/1999/xlink" contentScriptType="application/ecmascript" contentStyleType="text/css" height="1738px" preserveAspectRatio="none" style="width:3524px;height:1738px;" version="1.1" viewBox="0 0 3524 1738" width="3524px" zoomAndPan="magnify"><defs/><g><text fill="#888888" font-family="sans-serif" font-size="20" lengthAdjust="spacingAndGlyphs" textLength="190" x="3298.9224" y="18.5645">version: 19.01.2022</text><text fill="#000000" font-family="sans-serif" font-size="36" lengthAdjust="spacingAndGlyphs" textLength="448" x="1520.4612" y="56.6973">Overview Platform (WIP)</text><text fill="#000000" font-family="sans-serif" font-size="36" lengthAdjust="spacingAndGlyphs" textLength="290" x="1599.4612" y="98.6035">joinus4health.eu</text><!--MD5=[07074073229a58b98d86dbf75a12e332]
cluster Internet--><path d="M172.7693,254.1167 C245.1191,167.9665 341.2484,147.3503 396.6176,272.1368 C472.7909,174.2882 546.3024,153.5357 622.2626,272.3588 C681.0999,138.7893 792.2865,152.5867 871.9733,249.7992 C953.5155,161.6855 1031.4254,160.7685 1090.7953,273.9071 C1165.6786,171.7033 1238.1001,187.0877 1307.0711,280.4458 C1383.7251,181.035 1463.1392,145.8762 1545.9714,273.9577 C1588.1893,182.1096 1685.3115,140.195 1753.8712,246.291 C1842.0678,119.0938 1931.1649,147.4738 2003.3987,262.7203 C2081.3114,171.0487 2166.99,179.3525 2234.161,275.8905 C2277.3475,171.1311 2377.2406,135.2382 2450.4785,245.6838 C2539.2957,126.7965 2625.5505,153.8136 2690.7337,269.8538 C2767.332,167.3734 2847.1756,186.9497 2911.9336,283.0432 C2970.5812,198.9958 3064.5764,198.6204 3117.3262,289.9503 C3178.387,188.3689 3268.5977,153.0947 3351.3724,266.288 C3363.4914,252.6551 3374.9566,258.1347 3381.1183,272.5956 C3497.5759,345.2029 3465.9901,424.9052 3373.349,490.0415 C3481.3053,542.8247 3500.9224,648.9452 3383.3971,711.9389 C3480.8076,769.4664 3459.7322,848.7873 3376.3945,899.569 C3472.0264,953.9686 3484.8381,1024.582 3395.6234,1096.9861 C3492.0412,1173.5867 3462.0399,1263.9197 3361.6414,1308.9698 C3436.8192,1373.7691 3431.366,1467.6817 3337.3724,1512.288 C3341.535,1507.9057 3344.9948,1507.9725 3347.9418,1513.5749 C3305.5463,1616.3221 3217.4409,1632.4126 3143.7217,1547.699 C3055.7315,1655.7912 2979.0089,1648.572 2898.0095,1539.7791 C2831.667,1649.5111 2761.6048,1629.5839 2693.2294,1541.8877 C2631.225,1664.6825 2511.0189,1656.7162 2437.597,1554.881 C2369.9599,1657.4958 2281.5234,1637.9866 2232.5071,1536.1977 C2161.2902,1651.5973 2086.8989,1643.1938 2007.4948,1544.8151 C1930.9214,1665.2976 1828.1793,1650.0218 1759.4572,1536.4932 C1701.1709,1633.67 1606.657,1633.7191 1553.7292,1530.9789 C1473.5387,1639.0908 1404.8525,1634.8129 1326.8227,1528.6903 C1256.9643,1659.0207 1129.5667,1653.5666 1070.1267,1518.6092 C991.5121,1609.6301 923.83,1631.2073 848.007,1515.6082 C782.7427,1610.96 719.6053,1612.8117 639.2372,1533.68 C556.3458,1663.568 476.0339,1639.3399 389.1212,1538.0304 C289.4062,1654.1379 197.9289,1619.4314 135.3724,1498.288 C149.4521,1506.4752 147.8186,1519.6592 135.4009,1527.8719 C30.2182,1469.5715 13.5116,1365.5249 133.491,1305.2924 C40.7883,1240.0416 45.2042,1160.5373 132.4859,1094.4286 C29.03,1038.3017 52.5098,942.5809 139.0171,892.6013 C64.1696,840.9579 38.9373,765.5774 135.9809,711.0592 C26.3648,649.6402 40.23,553.1835 132.9763,489.0262 C12,417.4687 42.616,308.0731 149.3724,252.288 C156.036,242.8324 167.6463,243.862 172.7693,254.1167 " fill="#FFFFFF" style="stroke: #000000; stroke-width: 3.0;"/><text fill="#000000" font-family="sans-serif" font-size="28" font-weight="bold" lengthAdjust="spacingAndGlyphs" textLength="126" x="1680.3724" y="288.2782">Internet</text><!--MD5=[fc7c9bc70f56de5c86322601a7f106c8]
cluster netcup--><rect fill="#DDBBAA" height="1158" style="stroke: #000000; stroke-width: 3.0;" width="2436" x="167.3724" y="322.288"/><text fill="#000000" font-family="sans-serif" font-size="28" font-style="italic" lengthAdjust="spacingAndGlyphs" textLength="148" x="1311.3724" y="352.2782">«Provider»</text><text fill="#000000" font-family="sans-serif" font-size="28" font-weight="bold" lengthAdjust="spacingAndGlyphs" textLength="110" x="1330.3724" y="384.872">netcup</text><!--MD5=[c3e77a38aab77e5d24c410e8e2432d2f]
cluster Platform-Server--><polygon fill="#FFCCAA" points="215.3724,602.288,235.3724,582.288,2015.3724,582.288,2015.3724,1412.288,1995.3724,1432.288,215.3724,1432.288,215.3724,602.288" style="stroke: #000000; stroke-width: 3.0;"/><line style="stroke: #000000; stroke-width: 3.0;" x1="1995.3724" x2="2015.3724" y1="602.288" y2="582.288"/><line style="stroke: #000000; stroke-width: 3.0;" x1="215.3724" x2="1995.3724" y1="602.288" y2="602.288"/><line style="stroke: #000000; stroke-width: 3.0;" x1="1995.3724" x2="1995.3724" y1="602.288" y2="1432.288"/><text fill="#000000" font-family="sans-serif" font-size="28" font-style="italic" lengthAdjust="spacingAndGlyphs" textLength="126" x="1044.3724" y="634.2782">«Server»</text><text fill="#000000" font-family="sans-serif" font-size="28" font-weight="bold" lengthAdjust="spacingAndGlyphs" textLength="250" x="982.3724" y="666.872">Platform-Server</text><!--MD5=[d10c0fc188658aa905e9b53266af4542]
cluster wp--><rect fill="#FEFECE" height="626" style="stroke: #000000; stroke-width: 3.0;" width="658" x="279.3724" y="726.288"/><rect fill="#FEFECE" height="20" style="stroke: #000000; stroke-width: 3.0;" width="30" x="897.3724" y="736.288"/><rect fill="#FEFECE" height="4" style="stroke: #000000; stroke-width: 3.0;" width="8" x="893.3724" y="740.288"/><rect fill="#FEFECE" height="4" style="stroke: #000000; stroke-width: 3.0;" width="8" x="893.3724" y="748.288"/><text fill="#000000" font-family="sans-serif" font-size="28" font-style="italic" lengthAdjust="spacingAndGlyphs" textLength="262" x="477.3724" y="778.2782">«Web-Framework»</text><text fill="#000000" font-family="sans-serif" font-size="28" font-weight="bold" lengthAdjust="spacingAndGlyphs" textLength="174" x="521.3724" y="810.872">WordPress</text><!--MD5=[0ccfca756fad94035c3e173b9237d2d3]
cluster dbms--><path d="M1323.3724,1100.288 C1323.3724,1080.288 1637.3724,1080.288 1637.3724,1080.288 C1637.3724,1080.288 1951.3724,1080.288 1951.3724,1100.288 L1951.3724,1348.288 C1951.3724,1368.288 1637.3724,1368.288 1637.3724,1368.288 C1637.3724,1368.288 1323.3724,1368.288 1323.3724,1348.288 L1323.3724,1100.288 " fill="#FEFECE" style="stroke: #000000; stroke-width: 3.0;"/><path d="M1323.3724,1100.288 C1323.3724,1120.288 1637.3724,1120.288 1637.3724,1120.288 C1637.3724,1120.288 1951.3724,1120.288 1951.3724,1100.288 " fill="none" style="stroke: #000000; stroke-width: 3.0;"/><text fill="#000000" font-family="sans-serif" font-size="28" font-weight="bold" lengthAdjust="spacingAndGlyphs" textLength="204" x="1535.3724" y="1150.2782">DBMS MySQL</text><!--MD5=[663fdc2ef320c666fb5da634f833c009]
cluster Questionnaire-Server--><polygon fill="#FFCCAA" points="2063.3724,735.288,2083.3724,715.288,2555.3724,715.288,2555.3724,1315.288,2535.3724,1335.288,2063.3724,1335.288,2063.3724,735.288" style="stroke: #000000; stroke-width: 3.0;"/><line style="stroke: #000000; stroke-width: 3.0;" x1="2535.3724" x2="2555.3724" y1="735.288" y2="715.288"/><line style="stroke: #000000; stroke-width: 3.0;" x1="2063.3724" x2="2535.3724" y1="735.288" y2="735.288"/><line style="stroke: #000000; stroke-width: 3.0;" x1="2535.3724" x2="2535.3724" y1="735.288" y2="1335.288"/><text fill="#000000" font-family="sans-serif" font-size="28" font-style="italic" lengthAdjust="spacingAndGlyphs" textLength="126" x="2238.3724" y="767.2782">«Server»</text><text fill="#000000" font-family="sans-serif" font-size="28" font-weight="bold" lengthAdjust="spacingAndGlyphs" textLength="340" x="2131.3724" y="799.872">Questionnaire-Server</text><!--MD5=[bb5492b77aca0b4b44a0b9df2cf859ce]
cluster ????--><rect fill="#DDBBAA" height="402" style="stroke: #000000; stroke-width: 3.0;" width="512" x="2729.3724" y="614.288"/><text fill="#000000" font-family="sans-serif" font-size="28" font-style="italic" lengthAdjust="spacingAndGlyphs" textLength="148" x="2911.3724" y="644.2782">«Provider»</text><text fill="#000000" font-family="sans-serif" font-size="28" font-weight="bold" lengthAdjust="spacingAndGlyphs" textLength="64" x="2953.3724" y="676.872">????</text><!--MD5=[0a0c9bd37ffd365bcd7ae89f0b81b13c]
cluster BBB???-Server--><polygon fill="#FFCCAA" points="2777.3724,752.288,2797.3724,732.288,3193.3724,732.288,3193.3724,948.288,3173.3724,968.288,2777.3724,968.288,2777.3724,752.288" style="stroke: #000000; stroke-width: 3.0;"/><line style="stroke: #000000; stroke-width: 3.0;" x1="3173.3724" x2="3193.3724" y1="752.288" y2="732.288"/><line style="stroke: #000000; stroke-width: 3.0;" x1="2777.3724" x2="3173.3724" y1="752.288" y2="752.288"/><line style="stroke: #000000; stroke-width: 3.0;" x1="3173.3724" x2="3173.3724" y1="752.288" y2="968.288"/><text fill="#000000" font-family="sans-serif" font-size="28" font-style="italic" lengthAdjust="spacingAndGlyphs" textLength="126" x="2914.3724" y="784.2782">«Server»</text><text fill="#000000" font-family="sans-serif" font-size="28" font-weight="bold" lengthAdjust="spacingAndGlyphs" textLength="226" x="2864.3724" y="816.872">BBB???-Server</text><!--MD5=[6bcb8a42b2cab2a46966951f62205111]
entity i_bbb--><ellipse cx="3239.3724" cy="1258.288" fill="#FEFECE" rx="16" ry="16" style="stroke: #A80036; stroke-width: 4.0;"/><text fill="#000000" font-family="sans-serif" font-size="28" lengthAdjust="spacingAndGlyphs" textLength="162" x="3158.3724" y="1318.2782">Conference</text><!--MD5=[51764780891d56c625808fe39e0f2680]
entity i_web--><ellipse cx="2707.3724" cy="1258.288" fill="#FEFECE" rx="16" ry="16" style="stroke: #A80036; stroke-width: 4.0;"/><text fill="#000000" font-family="sans-serif" font-size="28" lengthAdjust="spacingAndGlyphs" textLength="112" x="2651.3724" y="1318.2782">Platform</text><!--MD5=[ac446b10bf28a2765c1ed4904d1957ba]
entity i_lime--><ellipse cx="2961.3724" cy="1258.288" fill="#FEFECE" rx="16" ry="16" style="stroke: #A80036; stroke-width: 4.0;"/><text fill="#000000" font-family="sans-serif" font-size="28" lengthAdjust="spacingAndGlyphs" textLength="194" x="2864.3724" y="1318.2782">Questionnaire</text><!--MD5=[1be1e8e9c1fa15d6e082466842209191]
entity ldap--><polygon fill="#FFCCAA" points="2226.3724,444.288,2246.3724,424.288,2476.3724,424.288,2476.3724,529.4755,2456.3724,549.4755,2226.3724,549.4755,2226.3724,444.288" style="stroke: #000000; stroke-width: 3.0;"/><line style="stroke: #000000; stroke-width: 3.0;" x1="2456.3724" x2="2476.3724" y1="444.288" y2="424.288"/><line style="stroke: #000000; stroke-width: 3.0;" x1="2226.3724" x2="2456.3724" y1="444.288" y2="444.288"/><line style="stroke: #000000; stroke-width: 3.0;" x1="2456.3724" x2="2456.3724" y1="444.288" y2="549.4755"/><text fill="#000000" font-family="sans-serif" font-size="28" font-style="italic" lengthAdjust="spacingAndGlyphs" textLength="126" x="2278.3724" y="490.2782">«Server»</text><text fill="#000000" font-family="sans-serif" font-size="28" lengthAdjust="spacingAndGlyphs" textLength="170" x="2256.3724" y="522.872">LDAP-Server</text><!--MD5=[fcbfd374278afc1cf141dd59657f7740]
entity wpfolder--><polygon fill="#FEFECE" points="986.3724,1202.288,1078.3724,1202.288,1092.3724,1244.288,1268.3724,1244.288,1268.3724,1313.4755,986.3724,1313.4755,986.3724,1202.288" style="stroke: #000000; stroke-width: 3.0;"/><line style="stroke: #000000; stroke-width: 3.0;" x1="986.3724" x2="1092.3724" y1="1244.288" y2="1244.288"/><text fill="#000000" font-family="sans-serif" font-size="28" lengthAdjust="spacingAndGlyphs" textLength="222" x="1006.3724" y="1284.2782">WordPress-Files</text><!--MD5=[9f7145901798a7118266a0e84948a32e]
entity bbPress--><rect fill="#FEFECE" height="92.5938" style="stroke: #A80036; stroke-width: 3.0;" width="194" x="326.3724" y="844.288"/><rect fill="#FEFECE" height="20" style="stroke: #A80036; stroke-width: 3.0;" width="30" x="480.3724" y="854.288"/><rect fill="#FEFECE" height="4" style="stroke: #A80036; stroke-width: 3.0;" width="8" x="476.3724" y="858.288"/><rect fill="#FEFECE" height="4" style="stroke: #A80036; stroke-width: 3.0;" width="8" x="476.3724" y="866.288"/><text fill="#000000" font-family="sans-serif" font-size="28" lengthAdjust="spacingAndGlyphs" textLength="114" x="356.3724" y="910.2782">bbPress</text><!--MD5=[e20b7567269dd7225f0884ecbdf37555]
entity BuddyPress*--><rect fill="#FEFECE" height="92.5938" style="stroke: #A80036; stroke-width: 3.0;" width="260" x="591.3724" y="844.288"/><rect fill="#FEFECE" height="20" style="stroke: #A80036; stroke-width: 3.0;" width="30" x="811.3724" y="854.288"/><rect fill="#FEFECE" height="4" style="stroke: #A80036; stroke-width: 3.0;" width="8" x="807.3724" y="858.288"/><rect fill="#FEFECE" height="4" style="stroke: #A80036; stroke-width: 3.0;" width="8" x="807.3724" y="866.288"/><text fill="#000000" font-family="sans-serif" font-size="28" lengthAdjust="spacingAndGlyphs" textLength="180" x="621.3724" y="910.2782">BuddyPress*</text><!--MD5=[1833ec68037e816bb92db43c282574ac]
entity TaskBreaker--><rect fill="#FEFECE" height="92.5938" style="stroke: #A80036; stroke-width: 3.0;" width="254" x="328.3724" y="1212.288"/><rect fill="#FEFECE" height="20" style="stroke: #A80036; stroke-width: 3.0;" width="30" x="542.3724" y="1222.288"/><rect fill="#FEFECE" height="4" style="stroke: #A80036; stroke-width: 3.0;" width="8" x="538.3724" y="1226.288"/><rect fill="#FEFECE" height="4" style="stroke: #A80036; stroke-width: 3.0;" width="8" x="538.3724" y="1234.288"/><text fill="#000000" font-family="sans-serif" font-size="28" lengthAdjust="spacingAndGlyphs" textLength="174" x="358.3724" y="1278.2782">TaskBreaker</text><!--MD5=[96553056188126bdc93422bc8f59f530]
entity TODO???--><rect fill="#FEFECE" height="92.5938" style="stroke: #A80036; stroke-width: 3.0;" width="206" x="652.3724" y="1212.288"/><rect fill="#FEFECE" height="20" style="stroke: #A80036; stroke-width: 3.0;" width="30" x="818.3724" y="1222.288"/><rect fill="#FEFECE" height="4" style="stroke: #A80036; stroke-width: 3.0;" width="8" x="814.3724" y="1226.288"/><rect fill="#FEFECE" height="4" style="stroke: #A80036; stroke-width: 3.0;" width="8" x="814.3724" y="1234.288"/><text fill="#000000" font-family="sans-serif" font-size="28" lengthAdjust="spacingAndGlyphs" textLength="126" x="682.3724" y="1278.2782">TODO???</text><!--MD5=[d7c4842f713b7111f319033620a05650]
entity db_user--><path d="M1700.3724,1216.288 C1700.3724,1196.288 1801.3724,1196.288 1801.3724,1196.288 C1801.3724,1196.288 1902.3724,1196.288 1902.3724,1216.288 L1902.3724,1299.4755 C1902.3724,1319.4755 1801.3724,1319.4755 1801.3724,1319.4755 C1801.3724,1319.4755 1700.3724,1319.4755 1700.3724,1299.4755 L1700.3724,1216.288 " fill="#FEFECE" style="stroke: #000000; stroke-width: 3.0;"/><path d="M1700.3724,1216.288 C1700.3724,1236.288 1801.3724,1236.288 1801.3724,1236.288 C1801.3724,1236.288 1902.3724,1236.288 1902.3724,1216.288 " fill="none" style="stroke: #000000; stroke-width: 3.0;"/><text fill="#000000" font-family="sans-serif" font-size="28" font-style="italic" lengthAdjust="spacingAndGlyphs" textLength="162" x="1720.3724" y="1270.2782">«database»</text><text fill="#000000" font-family="sans-serif" font-size="28" lengthAdjust="spacingAndGlyphs" textLength="130" x="1736.3724" y="1302.872">user data</text><!--MD5=[f96d10f7e1fdd0429d7c6002fb5377c2]
entity db_plattform--><path d="M1409.3724,1216.288 C1409.3724,1196.288 1519.3724,1196.288 1519.3724,1196.288 C1519.3724,1196.288 1629.3724,1196.288 1629.3724,1216.288 L1629.3724,1299.4755 C1629.3724,1319.4755 1519.3724,1319.4755 1519.3724,1319.4755 C1519.3724,1319.4755 1409.3724,1319.4755 1409.3724,1299.4755 L1409.3724,1216.288 " fill="#FEFECE" style="stroke: #000000; stroke-width: 3.0;"/><path d="M1409.3724,1216.288 C1409.3724,1236.288 1519.3724,1236.288 1519.3724,1236.288 C1519.3724,1236.288 1629.3724,1236.288 1629.3724,1216.288 " fill="none" style="stroke: #000000; stroke-width: 3.0;"/><text fill="#000000" font-family="sans-serif" font-size="28" font-style="italic" lengthAdjust="spacingAndGlyphs" textLength="162" x="1438.3724" y="1270.2782">«database»</text><text fill="#000000" font-family="sans-serif" font-size="28" lengthAdjust="spacingAndGlyphs" textLength="180" x="1429.3724" y="1302.872">platform data</text><!--MD5=[98be375b8ca3cc00d19155af4f671309]
entity lime--><rect fill="#FEFECE" height="125.1875" style="stroke: #A80036; stroke-width: 3.0;" width="342" x="2180.3724" y="827.288"/><rect fill="#FEFECE" height="20" style="stroke: #A80036; stroke-width: 3.0;" width="30" x="2482.3724" y="837.288"/><rect fill="#FEFECE" height="4" style="stroke: #A80036; stroke-width: 3.0;" width="8" x="2478.3724" y="841.288"/><rect fill="#FEFECE" height="4" style="stroke: #A80036; stroke-width: 3.0;" width="8" x="2478.3724" y="849.288"/><text fill="#000000" font-family="sans-serif" font-size="28" font-style="italic" lengthAdjust="spacingAndGlyphs" textLength="262" x="2210.3724" y="893.2782">«Web-Framework»</text><text fill="#000000" font-family="sans-serif" font-size="28" lengthAdjust="spacingAndGlyphs" textLength="156" x="2263.3724" y="925.872">LimeSurvey</text><!--MD5=[13ba44324247c992f47ee7c3adccb3d8]
entity lime_db--><path d="M2239.3724,1233.288 C2239.3724,1213.288 2351.3724,1213.288 2351.3724,1213.288 C2351.3724,1213.288 2463.3724,1213.288 2463.3724,1233.288 L2463.3724,1283.8818 C2463.3724,1303.8818 2351.3724,1303.8818 2351.3724,1303.8818 C2351.3724,1303.8818 2239.3724,1303.8818 2239.3724,1283.8818 L2239.3724,1233.288 " fill="#FEFECE" style="stroke: #000000; stroke-width: 3.0;"/><path d="M2239.3724,1233.288 C2239.3724,1253.288 2351.3724,1253.288 2351.3724,1253.288 C2351.3724,1253.288 2463.3724,1253.288 2463.3724,1233.288 " fill="none" style="stroke: #000000; stroke-width: 3.0;"/><text fill="#000000" font-family="sans-serif" font-size="28" lengthAdjust="spacingAndGlyphs" textLength="184" x="2259.3724" y="1287.2782">DBMS MySQL</text><!--MD5=[c731dae3dc4b384084c2fdb9c9034c66]
entity bbb--><rect fill="#FEFECE" height="92.5938" style="stroke: #A80036; stroke-width: 3.0;" width="352" x="2809.3724" y="844.288"/><rect fill="#FEFECE" height="20" style="stroke: #A80036; stroke-width: 3.0;" width="30" x="3121.3724" y="854.288"/><rect fill="#FEFECE" height="4" style="stroke: #A80036; stroke-width: 3.0;" width="8" x="3117.3724" y="858.288"/><rect fill="#FEFECE" height="4" style="stroke: #A80036; stroke-width: 3.0;" width="8" x="3117.3724" y="866.288"/><text fill="#000000" font-family="sans-serif" font-size="28" lengthAdjust="spacingAndGlyphs" textLength="272" x="2839.3724" y="910.2782">Conference System</text><!--MD5=[8fc3522a43f8c7199df5e09e5bb0188e]
entity user--><ellipse cx="2961.3724" cy="1595.288" fill="#FEFECE" rx="32" ry="32" style="stroke: #A80036; stroke-width: 3.0;"/><path d="M2961.3724,1635.288 C2969.3724,1635.288 2975.3724,1635.288 2983.3724,1627.288 C2999.3724,1627.288 3015.3724,1643.288 3015.3724,1659.288 L3015.3724,1667.288 C3015.3724,1675.288 3007.3724,1683.288 2999.3724,1683.288 L2923.3724,1683.288 C2915.3724,1683.288 2907.3724,1675.288 2907.3724,1667.288 L2907.3724,1659.288 C2907.3724,1643.288 2923.3724,1627.288 2939.3724,1627.288 C2947.3724,1635.288 2953.3724,1635.288 2961.3724,1635.288 " fill="#FEFECE" style="stroke: #A80036; stroke-width: 3.0;"/><text fill="#000000" font-family="sans-serif" font-size="28" lengthAdjust="spacingAndGlyphs" textLength="64" x="2929.3724" y="1712.2782">User</text><!--MD5=[7cf42eea8ccfc177cab0c6df00566878]
link wp to dbms--><path d="M938.0439,892.6156 C938.3312,892.6258 938.6219,892.6362 938.9159,892.647 C939.5039,892.6685 940.1054,892.6913 940.72,892.7155 C941.9492,892.7638 943.231,892.8175 944.5637,892.8772 C947.2292,892.9965 950.0982,893.1398 953.1569,893.3118 C959.2742,893.6557 966.1501,894.1143 973.6731,894.7255 C1003.7649,897.1705 1044.2099,902.058 1087.8724,911.818 C1175.1974,931.338 1275.3924,970.348 1331.3724,1048.288 C1338.0124,1057.533 1343.1396,1067.6521 1347.0258,1078.2901 C1347.1472,1078.6226 1347.2674,1078.9555 1347.3865,1079.2889 " fill="none" id="wp-to-dbms" style="stroke: #A80036; stroke-width: 2.0;"/><polygon fill="#A80036" points="1347.3865,1079.2889,1348.8695,1059.6471,1344.0246,1069.871,1333.8008,1065.0261,1347.3865,1079.2889" style="stroke: #A80036; stroke-width: 2.0;"/><!--MD5=[cca07670e30e52107cdaa95bdcd40b73]
link wp to wpfolder--><path d="M937.6943,921.133 C939.0168,923.4695 940.4072,925.9261 941.8609,928.4946 C953.4906,949.0424 969.1712,976.7493 986.5149,1007.3955 C1021.2024,1068.688 1062.5424,1141.738 1091.4324,1192.788 " fill="none" id="wp-to-wpfolder" style="stroke: #A80036; stroke-width: 2.0;"/><polygon fill="#A80036" points="1096.5324,1201.788,1094.6103,1182.1843,1091.5987,1193.0898,1080.6932,1190.0783,1096.5324,1201.788" style="stroke: #A80036; stroke-width: 2.0;"/><!--MD5=[5808ed5415be249f4ce946070b438bcd]
link lime to lime_db--><path d="M2351.3724,954.028 C2351.3724,1023.928 2351.3724,1136.628 2351.3724,1202.888 " fill="none" id="lime-to-lime_db" style="stroke: #A80036; stroke-width: 2.0;"/><polygon fill="#A80036" points="2351.3724,1213.108,2359.3724,1195.108,2351.3724,1203.108,2343.3724,1195.108,2351.3724,1213.108" style="stroke: #A80036; stroke-width: 2.0;"/><!--MD5=[e6f0b5b389ed37abf765f754bc10196b]
reverse link ldap to wp--><path d="M2216.5724,526.908 C2039.8824,576.208 1719.7774,665.523 1442.0199,743.023 C1303.1412,781.773 1174.8493,817.5693 1080.3646,843.933 C1033.1223,857.1149 994.3317,867.9386 966.8955,875.5944 C960.0365,877.5084 953.8871,879.2243 948.4927,880.7296 C945.7955,881.4823 943.287,882.1822 940.973,882.828 C939.8159,883.1508 938.7075,883.4602 937.6484,883.7557 " fill="none" id="ldap-backto-wp" style="stroke: #A80036; stroke-width: 2.0;"/><polygon fill="#A80036" points="2226.3524,524.168,2206.8649,521.2983,2216.7201,526.8548,2211.1637,536.71,2226.3524,524.168" style="stroke: #A80036; stroke-width: 2.0;"/><!--MD5=[d04ae5820eb36ec275a2100624d37712]
reverse link ldap to bbb--><path d="M2486.2124,534.008 C2509.7924,543.548 2533.6924,554.388 2555.3724,566.288 C2704.5924,648.168 2859.5924,776.948 2936.2924,844.148 " fill="none" id="ldap-backto-bbb" style="stroke: #A80036; stroke-width: 2.0;"/><polygon fill="#A80036" points="2476.8524,530.268,2490.6313,544.3443,2486.147,533.9572,2496.5341,529.473,2476.8524,530.268" style="stroke: #A80036; stroke-width: 2.0;"/><!--MD5=[e877f874ecde7445e001794091ef3e2f]
reverse link ldap to lime--><path d="M2351.3724,561.628 C2351.3724,637.428 2351.3724,755.248 2351.3724,826.748 " fill="none" id="ldap-backto-lime" style="stroke: #A80036; stroke-width: 2.0;"/><polygon fill="#A80036" points="2351.3724,550.748,2343.3724,568.748,2351.3724,560.748,2359.3724,568.748,2351.3724,550.748" style="stroke: #A80036; stroke-width: 2.0;"/><!--MD5=[43fef3d11c192aa0a88d628b3eebaa00]
link wp to i_web--><path d="M938.3663,894.7131 C939.2919,894.8443 940.2537,894.9805 941.2514,895.1216 C945.2422,895.6862 949.8073,896.3301 954.9224,897.0488 C975.3831,899.9237 1004.6449,903.995 1041.1599,908.9683 C1114.1899,918.9149 1216.2324,932.4693 1334.9024,947.2755 C1572.2424,976.888 1876.0924,1011.508 2147.3724,1032.288 C2192.6124,1035.748 2515.3324,1026.968 2555.3724,1048.288 C2636.2924,1091.388 2685.0924,1198.848 2701.3124,1239.948 " fill="none" id="wp-i_web" style="stroke: #A80036; stroke-width: 2.0; stroke-dasharray: 7.0,7.0;"/><!--MD5=[852cf93fdfc09389cd87830623d42458]
link lime to i_lime--><path d="M2522.7124,947.128 C2649.6524,988.208 2802.7724,1038.888 2815.3724,1048.288 C2887.1324,1101.888 2936.8924,1201.268 2954.4124,1240.128 " fill="none" id="lime-i_lime" style="stroke: #A80036; stroke-width: 2.0; stroke-dasharray: 7.0,7.0;"/><!--MD5=[ba0020594d3db87e1e094c8a817d7300]
link bbb to i_bbb--><path d="M3022.5524,936.308 C3047.9324,967.008 3081.8124,1009.288 3109.3724,1048.288 C3158.2724,1117.508 3209.6924,1204.788 3230.1724,1240.248 " fill="none" id="bbb-i_bbb" style="stroke: #A80036; stroke-width: 2.0; stroke-dasharray: 7.0,7.0;"/><!--MD5=[d320135e18d4819ab489a80e606b00fb]
reverse link i_web to user--><path d="M2711.7724,1287.288 C2721.7124,1341.348 2750.3724,1464.488 2815.3724,1544.288 C2838.9124,1573.188 2873.8924,1595.908 2903.7124,1611.648 " fill="none" id="i_web-backto-user" style="stroke: #A80036; stroke-width: 2.0;"/><polygon fill="#A80036" points="2709.9124,1276.848,2705.1686,1295.966,2711.6536,1286.6953,2720.9242,1293.1802,2709.9124,1276.848" style="stroke: #A80036; stroke-width: 2.0;"/><!--MD5=[b580156ca5aa78714c03c8e7bd9b55b2]
reverse link i_bbb to user--><path d="M3232.8324,1286.648 C3218.3924,1340.428 3179.3924,1464.368 3109.3724,1544.288 C3084.5724,1572.588 3049.0724,1595.288 3019.0524,1611.188 " fill="none" id="i_bbb-backto-user" style="stroke: #A80036; stroke-width: 2.0;"/><polygon fill="#A80036" points="3235.3924,1276.868,3223.1153,1292.2717,3232.8729,1286.5454,3238.5992,1296.303,3235.3924,1276.868" style="stroke: #A80036; stroke-width: 2.0;"/><!--MD5=[4be8e9c37ce665f48b41b367474d54ff]
reverse link i_lime to user--><path d="M2961.3724,1286.588 C2961.3724,1342.348 2961.3724,1474.308 2961.3724,1559.508 " fill="none" id="i_lime-backto-user" style="stroke: #A80036; stroke-width: 2.0;"/><polygon fill="#A80036" points="2961.3724,1276.488,2953.3724,1294.488,2961.3724,1286.488,2969.3724,1294.488,2961.3724,1276.488" style="stroke: #A80036; stroke-width: 2.0;"/><!--MD5=[685d4c77146e4de69831589066018687]
link bbPress to BuddyPress*--><!--MD5=[d978cefa2092a887f55296fa2c0a6979]
link bbPress to TaskBreaker--><!--MD5=[1c051b0180945900d66b5aa8f40fc977]
link TaskBreaker to TODO???--><!--MD5=[25f3f36549099e11501d18d069b6afb5]
@startuml

skinparam shadowing false
scale 2

title: Overview Platform (WIP)\njoinus4health.eu
header version: %date("dd.MM.yyyy")

skinparam actorStyle awesome
skinparam nodeBackgroundColor<<Server>> #ffccaa
skinparam rectangleBackgroundColor<<Provider>> #ddbbaa
skinparam componentBackgroundColor #fefece
skinparam databaseBackgroundColor #fefece


actor "User" as user

cloud "Internet" {
    rectangle "netcup" <<Provider>>  {
        node "Platform-Server" <<Server>> {
            component "WordPress" <<Web-Framework>> as wp {
                component "bbPress"
                component "BuddyPress*"
                component "TaskBreaker"
                component "TODO???"
            }
            folder "WordPress-Files" as wpfolder
            database "DBMS MySQL" as dbms {
                database "user data" <<database>> as db_user
                database "platform data" <<database>> as db_plattform
            }
            wp - -> dbms
            wp - -> wpfolder
        }
        node "Questionnaire-Server" <<Server>> {
            component "LimeSurvey" <<Web-Framework>> as lime
            database "DBMS MySQL" as lime_db
            
            lime    - ->     lime_db
        }
        node "LDAP-Server" <<Server>> as ldap

    }
    rectangle "????" <<Provider>> {
        node "BBB???-Server" <<Server>> {
            component "Conference System" as bbb
            
        }
    }
    wp      -u->     ldap
    bbb     -u->     ldap
    lime    -u->     ldap

    interface "Conference" as i_bbb
    interface "Platform" as i_web
    interface "Questionnaire" as i_lime

    i_web   .u.     wp
    i_lime  .u.     lime
    i_bbb   .u.     bbb
}

user    -u-> i_web
user    -u-> i_bbb
user    -u-> i_lime

@enduml

@startuml

skinparam shadowing false
scale 2

title: Overview Platform (WIP)\njoinus4health.eu
header version: 19.01.2022

skinparam actorStyle awesome
skinparam nodeBackgroundColor<<Server>> #ffccaa
skinparam rectangleBackgroundColor<<Provider>> #ddbbaa
skinparam componentBackgroundColor #fefece
skinparam databaseBackgroundColor #fefece


actor "User" as user

cloud "Internet" {
    rectangle "netcup" <<Provider>>  {
        node "Platform-Server" <<Server>> {
            component "WordPress" <<Web-Framework>> as wp {
                component "bbPress"
                component "BuddyPress*"
                component "TaskBreaker"
                component "TODO???"
            }
            folder "WordPress-Files" as wpfolder
            database "DBMS MySQL" as dbms {
                database "user data" <<database>> as db_user
                database "platform data" <<database>> as db_plattform
            }
            wp - -> dbms
            wp - -> wpfolder
        }
        node "Questionnaire-Server" <<Server>> {
            component "LimeSurvey" <<Web-Framework>> as lime
            database "DBMS MySQL" as lime_db
            
            lime    - ->     lime_db
        }
        node "LDAP-Server" <<Server>> as ldap

    }
    rectangle "????" <<Provider>> {
        node "BBB???-Server" <<Server>> {
            component "Conference System" as bbb
            
        }
    }
    wp      -u->     ldap
    bbb     -u->     ldap
    lime    -u->     ldap

    interface "Conference" as i_bbb
    interface "Platform" as i_web
    interface "Questionnaire" as i_lime

    i_web   .u.     wp
    i_lime  .u.     lime
    i_bbb   .u.     bbb
}

user    -u-> i_web
user    -u-> i_bbb
user    -u-> i_lime

@enduml

PlantUML version 1.2020.16(Sun Aug 23 22:20:43 CEST 2020)
(GPL source distribution)
Java Runtime: OpenJDK Runtime Environment
JVM: OpenJDK 64-Bit Server VM
Default Encoding: UTF-8
Language: en
Country: GB
--></g></svg>