<?xml version="1.0" encoding="UTF-8" standalone="no"?><svg xmlns="http://www.w3.org/2000/svg" xmlns:xlink="http://www.w3.org/1999/xlink" contentScriptType="application/ecmascript" contentStyleType="text/css" height="3858px" preserveAspectRatio="none" style="width:3944px;height:3858px;" version="1.1" viewBox="0 0 3944 3858" width="3944px" zoomAndPan="magnify"><defs/><g><text fill="#888888" font-family="sans-serif" font-size="20" lengthAdjust="spacingAndGlyphs" textLength="190" x="3719.0256" y="18.5645">version: 02.02.2022</text><text fill="#000000" font-family="sans-serif" font-size="36" lengthAdjust="spacingAndGlyphs" textLength="448" x="1730.5128" y="56.6973">Overview Platform (WIP)</text><text fill="#000000" font-family="sans-serif" font-size="36" lengthAdjust="spacingAndGlyphs" textLength="290" x="1809.5128" y="98.6035">joinus4health.eu</text><!--MD5=[26c5d267d5640af9fd645d609f9318ff]
cluster umg--><rect fill="#FFCCCC" height="524" style="stroke: #000000; stroke-width: 3.0;" width="618" x="1718.1677" y="121.0938"/><text fill="#000000" font-family="sans-serif" font-size="28" font-weight="bold" lengthAdjust="spacingAndGlyphs" textLength="72" x="1991.1677" y="151.084">UMG</text><text fill="#000000" font-family="sans-serif" font-size="28" font-weight="bold" lengthAdjust="spacingAndGlyphs" textLength="184" x="1935.1677" y="183.6777">coordinator</text><!--MD5=[a5da4f68ede42b98d7b5f3a10e3ccc90]
cluster ICM SHIP-KEF--><rect fill="#FFCCCC" height="326" style="stroke: #000000; stroke-width: 3.0;" width="474" x="1798.1677" y="255.0938"/><text fill="#000000" font-family="sans-serif" font-size="28" font-weight="bold" lengthAdjust="spacingAndGlyphs" textLength="206" x="1932.1677" y="285.084">ICM SHIP-KEF</text><!--MD5=[d416a0175338ee00014ff4466993c423]
cluster s4p--><rect fill="#CCCCCC" height="358" style="stroke: #000000; stroke-width: 3.0;" width="356" x="1978.1677" y="977.0938"/><text fill="#000000" font-family="sans-serif" font-size="28" font-style="italic" lengthAdjust="spacingAndGlyphs" textLength="134" x="2089.1677" y="1007.084">«Partner»</text><text fill="#000000" font-family="sans-serif" font-size="28" font-weight="bold" lengthAdjust="spacingAndGlyphs" textLength="300" x="2006.1677" y="1039.6777">science4people.eu</text><!--MD5=[07074073229a58b98d86dbf75a12e332]
cluster Internet--><path d="M173.069,1523.6032 C269.897,1387.7377 359.4674,1387.0868 442.2183,1536.8673 C515.3034,1397.7627 631.823,1394.0966 710.5734,1531.3663 C759.2728,1410.481 873.3337,1415.5126 938.2514,1514.5782 C1036.2005,1355.2663 1132.0246,1392.8108 1231.5942,1512.8766 C1290.1098,1386.8382 1404.785,1389.2328 1462.8067,1513.3331 C1518.3537,1385.2782 1642.2402,1378.0776 1722.0251,1486.7977 C1812.987,1340.1096 1927.0338,1356.3714 1998.7035,1504.8797 C2050.4764,1401.8991 2161.8084,1384.6481 2228.8622,1487.8194 C2334.309,1367.7504 2426.7595,1376.2203 2507.6617,1514.325 C2596.2489,1407.2631 2686.6255,1407.4214 2763.9081,1527.1006 C2812.2597,1392.0749 2923.0919,1376.3382 3006.5136,1493.3418 C3078.2979,1388.9382 3186.3199,1423.0706 3229.6177,1524.2554 C3314.5066,1370.0233 3427.2254,1373.8827 3513.9697,1522.5133 C3575.2931,1390.2512 3677.83,1410.3513 3752.1677,1509.0938 C3779.3056,1494.4625 3792.4064,1504.2361 3793.5447,1533.5653 C3917.4089,1605.7023 3913.4205,1715.7912 3778.7463,1771.8734 C3912.7028,1868.1405 3912.0347,1953.4272 3763.5725,2033.3022 C3878.3643,2096.6846 3895.208,2182.0232 3777.2562,2259.4861 C3886.1892,2317.6283 3921.0256,2434.1381 3801.3855,2513.9542 C3908.4428,2584.8394 3882.9442,2691.6937 3775.3729,2737.6169 C3893.7891,2811.6281 3884.7743,2907.0349 3765.8711,2971.4006 C3883.6357,3035.4617 3875.6916,3146.9292 3775.4048,3219.3735 C3868.5425,3295.5652 3857.1662,3415.8544 3738.1677,3459.0938 C3756.3876,3460.8513 3762.4711,3469.9042 3753.2257,3486.663 C3681.9255,3619.0779 3575.1981,3615.2719 3505.0238,3485.5969 C3437.0134,3618.8206 3315.2093,3606.1749 3252.2848,3480.6296 C3193.5771,3589.3689 3091.641,3599.5502 3016.5315,3499.1155 C2929.6293,3646.2591 2802.9538,3616.5718 2725.2356,3489.3642 C2671.2361,3610.2655 2572.0195,3606.3836 2494.9036,3514.3719 C2417.6506,3623.5599 2284.3598,3619.4001 2216.3325,3502.9804 C2137.3306,3627.3368 2041.3787,3606.3394 1964.9665,3500.1567 C1890.3377,3613.8894 1766.6719,3613.4664 1709.6835,3481.8054 C1630.8978,3593.7403 1548.5836,3590.7995 1473.8998,3477.5112 C1407.3913,3623.7118 1295.0453,3627.7992 1197.5728,3509.91 C1136.8575,3609.8462 1033.2982,3611.5674 978.5802,3503.5931 C907.0308,3639.2709 768.9295,3635.0384 699.8654,3501.0246 C591.5242,3623.9541 508.6822,3615.0997 426.2105,3474.1924 C321.3293,3611.6489 231.2412,3584.26 156.1677,3445.0938 C169.101,3425.8503 188.6741,3426.515 197.9954,3448.7372 C82.8878,3382.6879 77.8914,3292.9345 191.5576,3220.4341 C80.4008,3171.4039 86.2264,3061.6986 179.0579,3001.0462 C30.57,2945.9095 17.0917,2834.7258 145.4868,2743.4977 C29.4616,2662.2312 27.8321,2592.4601 149.7977,2515.6974 C12,2410.5592 22.0469,2326.3303 170.7401,2243.2109 C56.3137,2150.0624 50.2334,2069.1503 190.0097,1995.8004 C76.4167,1941.0671 83.1622,1873.6151 161.5999,1792.0996 C13.9728,1684.0505 30.4432,1594.8535 170.1677,1495.0938 C185.0545,1502.1752 184.0152,1513.8928 173.069,1523.6032 " fill="#FFFFFF" style="stroke: #000000; stroke-width: 3.0;"/><text fill="#000000" font-family="sans-serif" font-size="28" font-weight="bold" lengthAdjust="spacingAndGlyphs" textLength="126" x="1891.1677" y="1531.084">Internet</text><!--MD5=[fc7c9bc70f56de5c86322601a7f106c8]
cluster netcup--><rect fill="#DDBBAA" height="1636" style="stroke: #000000; stroke-width: 3.0;" width="2660" x="204.1677" y="1581.0938"/><text fill="#000000" font-family="sans-serif" font-size="28" font-style="italic" lengthAdjust="spacingAndGlyphs" textLength="148" x="1460.1677" y="1611.084">«Provider»</text><text fill="#000000" font-family="sans-serif" font-size="28" font-weight="bold" lengthAdjust="spacingAndGlyphs" textLength="110" x="1479.1677" y="1643.6777">netcup</text><!--MD5=[a04d69009329426f82a4cda3340f9045]
cluster mps--><polygon fill="#FFCCAA" points="300.1677,1751.0938,320.1677,1731.0938,2784.1677,1731.0938,2784.1677,3117.0938,2764.1677,3137.0938,300.1677,3137.0938,300.1677,1751.0938" style="stroke: #000000; stroke-width: 3.0;"/><line style="stroke: #000000; stroke-width: 3.0;" x1="2764.1677" x2="2784.1677" y1="1751.0938" y2="1731.0938"/><line style="stroke: #000000; stroke-width: 3.0;" x1="300.1677" x2="2764.1677" y1="1751.0938" y2="1751.0938"/><line style="stroke: #000000; stroke-width: 3.0;" x1="2764.1677" x2="2764.1677" y1="1751.0938" y2="3137.0938"/><text fill="#000000" font-family="sans-serif" font-size="28" font-style="italic" lengthAdjust="spacingAndGlyphs" textLength="126" x="1471.1677" y="1783.084">«Server»</text><text fill="#000000" font-family="sans-serif" font-size="28" font-weight="bold" lengthAdjust="spacingAndGlyphs" textLength="378" x="1345.1677" y="1815.6777">Managed Private Server</text><!--MD5=[a54cd0b4de8b8913c3bb58f3b7112d52]
cluster platform_server--><polygon fill="#FFCCAA" points="380.1677,1895.0938,400.1677,1875.0938,2180.1677,1875.0938,2180.1677,2802.0938,2160.1677,2822.0938,380.1677,2822.0938,380.1677,1895.0938" style="stroke: #000000; stroke-width: 3.0;"/><line style="stroke: #000000; stroke-width: 3.0;" x1="2160.1677" x2="2180.1677" y1="1895.0938" y2="1875.0938"/><line style="stroke: #000000; stroke-width: 3.0;" x1="380.1677" x2="2160.1677" y1="1895.0938" y2="1895.0938"/><line style="stroke: #000000; stroke-width: 3.0;" x1="2160.1677" x2="2160.1677" y1="1895.0938" y2="2822.0938"/><text fill="#000000" font-family="sans-serif" font-size="28" font-style="italic" lengthAdjust="spacingAndGlyphs" textLength="126" x="1209.1677" y="1927.084">«Server»</text><text fill="#000000" font-family="sans-serif" font-size="28" font-weight="bold" lengthAdjust="spacingAndGlyphs" textLength="250" x="1147.1677" y="1959.6777">Platform-Server</text><!--MD5=[d10c0fc188658aa905e9b53266af4542]
cluster wp--><rect fill="#FEFECE" height="723" style="stroke: #000000; stroke-width: 3.0;" width="658" x="444.1677" y="2019.0938"/><rect fill="#FEFECE" height="20" style="stroke: #000000; stroke-width: 3.0;" width="30" x="1062.1677" y="2029.0938"/><rect fill="#FEFECE" height="4" style="stroke: #000000; stroke-width: 3.0;" width="8" x="1058.1677" y="2033.0938"/><rect fill="#FEFECE" height="4" style="stroke: #000000; stroke-width: 3.0;" width="8" x="1058.1677" y="2041.0938"/><text fill="#000000" font-family="sans-serif" font-size="28" font-style="italic" lengthAdjust="spacingAndGlyphs" textLength="262" x="642.1677" y="2071.084">«Web-Framework»</text><text fill="#000000" font-family="sans-serif" font-size="28" font-weight="bold" lengthAdjust="spacingAndGlyphs" textLength="174" x="686.1677" y="2103.6777">WordPress</text><!--MD5=[0ccfca756fad94035c3e173b9237d2d3]
cluster dbms--><path d="M1488.1677,2490.0938 C1488.1677,2470.0938 1802.1677,2470.0938 1802.1677,2470.0938 C1802.1677,2470.0938 2116.1677,2470.0938 2116.1677,2490.0938 L2116.1677,2738.0938 C2116.1677,2758.0938 1802.1677,2758.0938 1802.1677,2758.0938 C1802.1677,2758.0938 1488.1677,2758.0938 1488.1677,2738.0938 L1488.1677,2490.0938 " fill="#FEFECE" style="stroke: #000000; stroke-width: 3.0;"/><path d="M1488.1677,2490.0938 C1488.1677,2510.0938 1802.1677,2510.0938 1802.1677,2510.0938 C1802.1677,2510.0938 2116.1677,2510.0938 2116.1677,2490.0938 " fill="none" style="stroke: #000000; stroke-width: 3.0;"/><text fill="#000000" font-family="sans-serif" font-size="28" font-weight="bold" lengthAdjust="spacingAndGlyphs" textLength="204" x="1700.1677" y="2540.084">DBMS MySQL</text><!--MD5=[b5fe8b70cd7277a7a7ef85d9f5bce651]
cluster lime_server--><polygon fill="#FFCCAA" points="2228.1677,2493.0938,2248.1677,2473.0938,2720.1677,2473.0938,2720.1677,3053.0938,2700.1677,3073.0938,2228.1677,3073.0938,2228.1677,2493.0938" style="stroke: #000000; stroke-width: 3.0;"/><line style="stroke: #000000; stroke-width: 3.0;" x1="2700.1677" x2="2720.1677" y1="2493.0938" y2="2473.0938"/><line style="stroke: #000000; stroke-width: 3.0;" x1="2228.1677" x2="2700.1677" y1="2493.0938" y2="2493.0938"/><line style="stroke: #000000; stroke-width: 3.0;" x1="2700.1677" x2="2700.1677" y1="2493.0938" y2="3073.0938"/><text fill="#000000" font-family="sans-serif" font-size="28" font-style="italic" lengthAdjust="spacingAndGlyphs" textLength="126" x="2403.1677" y="2525.084">«Server»</text><text fill="#000000" font-family="sans-serif" font-size="28" font-weight="bold" lengthAdjust="spacingAndGlyphs" textLength="340" x="2296.1677" y="2557.6777">Questionnaire-Server</text><!--MD5=[7d64432051d8ad2067c4bd831a0c2179]
cluster bbb_provider--><rect fill="#DDBBAA" height="468" style="stroke: #000000; stroke-width: 3.0;" width="600" x="3104.1677" y="2339.0938"/><text fill="#000000" font-family="sans-serif" font-size="28" font-style="italic" lengthAdjust="spacingAndGlyphs" textLength="148" x="3330.1677" y="2369.084">«Provider»</text><text fill="#000000" font-family="sans-serif" font-size="28" font-weight="bold" lengthAdjust="spacingAndGlyphs" textLength="64" x="3372.1677" y="2401.6777">????</text><!--MD5=[f2ccaafa7b8536fc09ee98f584c61fe1]
cluster Conference-Server--><polygon fill="#FFCCAA" points="3168.1677,2493.0938,3188.1677,2473.0938,3624.1677,2473.0938,3624.1677,2723.0938,3604.1677,2743.0938,3168.1677,2743.0938,3168.1677,2493.0938" style="stroke: #000000; stroke-width: 3.0;"/><line style="stroke: #000000; stroke-width: 3.0;" x1="3604.1677" x2="3624.1677" y1="2493.0938" y2="2473.0938"/><line style="stroke: #000000; stroke-width: 3.0;" x1="3168.1677" x2="3604.1677" y1="2493.0938" y2="2493.0938"/><line style="stroke: #000000; stroke-width: 3.0;" x1="3604.1677" x2="3604.1677" y1="2493.0938" y2="2743.0938"/><text fill="#000000" font-family="sans-serif" font-size="28" font-style="italic" lengthAdjust="spacingAndGlyphs" textLength="126" x="3325.1677" y="2525.084">«Server»</text><text fill="#000000" font-family="sans-serif" font-size="28" font-weight="bold" lengthAdjust="spacingAndGlyphs" textLength="304" x="3236.1677" y="2557.6777">Conference-Server</text><!--MD5=[3103861f95f0d7217426811062624cfa]
entity ship--><ellipse cx="2182.1677" cy="393.0938" fill="#FEFECE" rx="32" ry="32" style="stroke: #A80036; stroke-width: 3.0;"/><path d="M2182.1677,433.0938 C2190.1677,433.0938 2196.1677,433.0938 2204.1677,425.0938 C2220.1677,425.0938 2236.1677,441.0938 2236.1677,457.0938 L2236.1677,465.0938 C2236.1677,473.0938 2228.1677,481.0938 2220.1677,481.0938 L2144.1677,481.0938 C2136.1677,481.0938 2128.1677,473.0938 2128.1677,465.0938 L2128.1677,457.0938 C2128.1677,441.0938 2144.1677,425.0938 2160.1677,425.0938 C2168.1677,433.0938 2174.1677,433.0938 2182.1677,433.0938 " fill="#FEFECE" style="stroke: #A80036; stroke-width: 3.0;"/><text fill="#000000" font-family="sans-serif" font-size="28" lengthAdjust="spacingAndGlyphs" textLength="96" x="2134.1677" y="510.084">SHIP-IT</text><!--MD5=[b08f2111fdc261dd0bfb2eacdde7049b]
entity umg_team--><ellipse cx="1942.1677" cy="360.0938" fill="#FEFECE" rx="32" ry="32" style="stroke: #A80036; stroke-width: 3.0;"/><path d="M1942.1677,400.0938 C1950.1677,400.0938 1956.1677,400.0938 1964.1677,392.0938 C1980.1677,392.0938 1996.1677,408.0938 1996.1677,424.0938 L1996.1677,432.0938 C1996.1677,440.0938 1988.1677,448.0938 1980.1677,448.0938 L1904.1677,448.0938 C1896.1677,448.0938 1888.1677,440.0938 1888.1677,432.0938 L1888.1677,424.0938 C1888.1677,408.0938 1904.1677,392.0938 1920.1677,392.0938 C1928.1677,400.0938 1934.1677,400.0938 1942.1677,400.0938 " fill="#FEFECE" style="stroke: #A80036; stroke-width: 3.0;"/><text fill="#000000" font-family="sans-serif" font-size="28" lengthAdjust="spacingAndGlyphs" textLength="190" x="1830.1677" y="477.084">JoinUs4Health</text><text fill="#000000" font-family="sans-serif" font-size="28" lengthAdjust="spacingAndGlyphs" textLength="224" x="1830.1677" y="509.6777">Project Manage-</text><text fill="#000000" font-family="sans-serif" font-size="28" lengthAdjust="spacingAndGlyphs" textLength="158" x="1830.1677" y="542.2715">ment Team</text><!--MD5=[db450b6175b1cf7e0741641dc58b6f7f]
entity s4p_partner--><ellipse cx="2176.1677" cy="1130.0938" fill="#FEFECE" rx="32" ry="32" style="stroke: #A80036; stroke-width: 3.0;"/><path d="M2176.1677,1170.0938 C2184.1677,1170.0938 2190.1677,1170.0938 2198.1677,1162.0938 C2214.1677,1162.0938 2230.1677,1178.0938 2230.1677,1194.0938 L2230.1677,1202.0938 C2230.1677,1210.0938 2222.1677,1218.0938 2214.1677,1218.0938 L2138.1677,1218.0938 C2130.1677,1218.0938 2122.1677,1210.0938 2122.1677,1202.0938 L2122.1677,1194.0938 C2122.1677,1178.0938 2138.1677,1162.0938 2154.1677,1162.0938 C2162.1677,1170.0938 2168.1677,1170.0938 2176.1677,1170.0938 " fill="#FEFECE" style="stroke: #A80036; stroke-width: 3.0;"/><text fill="#000000" font-family="sans-serif" font-size="28" lengthAdjust="spacingAndGlyphs" textLength="222" x="2065.1677" y="1247.084">science4people</text><text fill="#000000" font-family="sans-serif" font-size="28" lengthAdjust="spacingAndGlyphs" textLength="100" x="2065.1677" y="1279.6777">Partner</text><!--MD5=[6bcb8a42b2cab2a46966951f62205111]
entity i_bbb--><ellipse cx="3008.1677" cy="2979.0938" fill="#FEFECE" rx="16" ry="16" style="stroke: #A80036; stroke-width: 4.0;"/><text fill="#000000" font-family="sans-serif" font-size="28" lengthAdjust="spacingAndGlyphs" textLength="162" x="2927.1677" y="3039.084">Conference</text><!--MD5=[51764780891d56c625808fe39e0f2680]
entity i_web--><ellipse cx="2984.1677" cy="2648.0938" fill="#FEFECE" rx="16" ry="16" style="stroke: #A80036; stroke-width: 4.0;"/><text fill="#000000" font-family="sans-serif" font-size="28" lengthAdjust="spacingAndGlyphs" textLength="112" x="2928.1677" y="2708.084">Platform</text><!--MD5=[ac446b10bf28a2765c1ed4904d1957ba]
entity i_lime--><ellipse cx="3000.1677" cy="3385.0938" fill="#FEFECE" rx="16" ry="16" style="stroke: #A80036; stroke-width: 4.0;"/><text fill="#000000" font-family="sans-serif" font-size="28" lengthAdjust="spacingAndGlyphs" textLength="194" x="2903.1677" y="3445.084">Questionnaire</text><!--MD5=[fcbfd374278afc1cf141dd59657f7740]
entity wpfolder--><polygon fill="#FEFECE" points="1151.1677,2592.0938,1243.1677,2592.0938,1257.1677,2634.0938,1433.1677,2634.0938,1433.1677,2703.2813,1151.1677,2703.2813,1151.1677,2592.0938" style="stroke: #000000; stroke-width: 3.0;"/><line style="stroke: #000000; stroke-width: 3.0;" x1="1151.1677" x2="1257.1677" y1="2634.0938" y2="2634.0938"/><text fill="#000000" font-family="sans-serif" font-size="28" lengthAdjust="spacingAndGlyphs" textLength="222" x="1171.1677" y="2674.084">WordPress-Files</text><!--MD5=[9f7145901798a7118266a0e84948a32e]
entity bbPress--><rect fill="#FEFECE" height="92.5938" style="stroke: #A80036; stroke-width: 3.0;" width="194" x="491.1677" y="2137.0938"/><rect fill="#FEFECE" height="20" style="stroke: #A80036; stroke-width: 3.0;" width="30" x="645.1677" y="2147.0938"/><rect fill="#FEFECE" height="4" style="stroke: #A80036; stroke-width: 3.0;" width="8" x="641.1677" y="2151.0938"/><rect fill="#FEFECE" height="4" style="stroke: #A80036; stroke-width: 3.0;" width="8" x="641.1677" y="2159.0938"/><text fill="#000000" font-family="sans-serif" font-size="28" lengthAdjust="spacingAndGlyphs" textLength="114" x="521.1677" y="2203.084">bbPress</text><!--MD5=[e20b7567269dd7225f0884ecbdf37555]
entity BuddyPress*--><rect fill="#FEFECE" height="92.5938" style="stroke: #A80036; stroke-width: 3.0;" width="260" x="756.1677" y="2137.0938"/><rect fill="#FEFECE" height="20" style="stroke: #A80036; stroke-width: 3.0;" width="30" x="976.1677" y="2147.0938"/><rect fill="#FEFECE" height="4" style="stroke: #A80036; stroke-width: 3.0;" width="8" x="972.1677" y="2151.0938"/><rect fill="#FEFECE" height="4" style="stroke: #A80036; stroke-width: 3.0;" width="8" x="972.1677" y="2159.0938"/><text fill="#000000" font-family="sans-serif" font-size="28" lengthAdjust="spacingAndGlyphs" textLength="180" x="786.1677" y="2203.084">BuddyPress*</text><!--MD5=[1833ec68037e816bb92db43c282574ac]
entity TaskBreaker--><rect fill="#FEFECE" height="92.5938" style="stroke: #A80036; stroke-width: 3.0;" width="254" x="493.1677" y="2602.0938"/><rect fill="#FEFECE" height="20" style="stroke: #A80036; stroke-width: 3.0;" width="30" x="707.1677" y="2612.0938"/><rect fill="#FEFECE" height="4" style="stroke: #A80036; stroke-width: 3.0;" width="8" x="703.1677" y="2616.0938"/><rect fill="#FEFECE" height="4" style="stroke: #A80036; stroke-width: 3.0;" width="8" x="703.1677" y="2624.0938"/><text fill="#000000" font-family="sans-serif" font-size="28" lengthAdjust="spacingAndGlyphs" textLength="174" x="523.1677" y="2668.084">TaskBreaker</text><!--MD5=[96553056188126bdc93422bc8f59f530]
entity TODO???--><rect fill="#FEFECE" height="92.5938" style="stroke: #A80036; stroke-width: 3.0;" width="206" x="817.1677" y="2602.0938"/><rect fill="#FEFECE" height="20" style="stroke: #A80036; stroke-width: 3.0;" width="30" x="983.1677" y="2612.0938"/><rect fill="#FEFECE" height="4" style="stroke: #A80036; stroke-width: 3.0;" width="8" x="979.1677" y="2616.0938"/><rect fill="#FEFECE" height="4" style="stroke: #A80036; stroke-width: 3.0;" width="8" x="979.1677" y="2624.0938"/><text fill="#000000" font-family="sans-serif" font-size="28" lengthAdjust="spacingAndGlyphs" textLength="126" x="847.1677" y="2668.084">TODO???</text><!--MD5=[d7c4842f713b7111f319033620a05650]
entity db_user--><path d="M1865.1677,2606.0938 C1865.1677,2586.0938 1966.1677,2586.0938 1966.1677,2586.0938 C1966.1677,2586.0938 2067.1677,2586.0938 2067.1677,2606.0938 L2067.1677,2689.2813 C2067.1677,2709.2813 1966.1677,2709.2813 1966.1677,2709.2813 C1966.1677,2709.2813 1865.1677,2709.2813 1865.1677,2689.2813 L1865.1677,2606.0938 " fill="#FEFECE" style="stroke: #000000; stroke-width: 3.0;"/><path d="M1865.1677,2606.0938 C1865.1677,2626.0938 1966.1677,2626.0938 1966.1677,2626.0938 C1966.1677,2626.0938 2067.1677,2626.0938 2067.1677,2606.0938 " fill="none" style="stroke: #000000; stroke-width: 3.0;"/><text fill="#000000" font-family="sans-serif" font-size="28" font-style="italic" lengthAdjust="spacingAndGlyphs" textLength="162" x="1885.1677" y="2660.084">«database»</text><text fill="#000000" font-family="sans-serif" font-size="28" lengthAdjust="spacingAndGlyphs" textLength="130" x="1901.1677" y="2692.6777">user data</text><!--MD5=[f96d10f7e1fdd0429d7c6002fb5377c2]
entity db_plattform--><path d="M1574.1677,2606.0938 C1574.1677,2586.0938 1684.1677,2586.0938 1684.1677,2586.0938 C1684.1677,2586.0938 1794.1677,2586.0938 1794.1677,2606.0938 L1794.1677,2689.2813 C1794.1677,2709.2813 1684.1677,2709.2813 1684.1677,2709.2813 C1684.1677,2709.2813 1574.1677,2709.2813 1574.1677,2689.2813 L1574.1677,2606.0938 " fill="#FEFECE" style="stroke: #000000; stroke-width: 3.0;"/><path d="M1574.1677,2606.0938 C1574.1677,2626.0938 1684.1677,2626.0938 1684.1677,2626.0938 C1684.1677,2626.0938 1794.1677,2626.0938 1794.1677,2606.0938 " fill="none" style="stroke: #000000; stroke-width: 3.0;"/><text fill="#000000" font-family="sans-serif" font-size="28" font-style="italic" lengthAdjust="spacingAndGlyphs" textLength="162" x="1603.1677" y="2660.084">«database»</text><text fill="#000000" font-family="sans-serif" font-size="28" lengthAdjust="spacingAndGlyphs" textLength="180" x="1594.1677" y="2692.6777">platform data</text><!--MD5=[98be375b8ca3cc00d19155af4f671309]
entity lime--><rect fill="#FEFECE" height="125.1875" style="stroke: #A80036; stroke-width: 3.0;" width="342" x="2261.1677" y="2585.0938"/><rect fill="#FEFECE" height="20" style="stroke: #A80036; stroke-width: 3.0;" width="30" x="2563.1677" y="2595.0938"/><rect fill="#FEFECE" height="4" style="stroke: #A80036; stroke-width: 3.0;" width="8" x="2559.1677" y="2599.0938"/><rect fill="#FEFECE" height="4" style="stroke: #A80036; stroke-width: 3.0;" width="8" x="2559.1677" y="2607.0938"/><text fill="#000000" font-family="sans-serif" font-size="28" font-style="italic" lengthAdjust="spacingAndGlyphs" textLength="262" x="2291.1677" y="2651.084">«Web-Framework»</text><text fill="#000000" font-family="sans-serif" font-size="28" lengthAdjust="spacingAndGlyphs" textLength="156" x="2344.1677" y="2683.6777">LimeSurvey</text><!--MD5=[13ba44324247c992f47ee7c3adccb3d8]
entity lime_db--><path d="M2331.1677,2937.0938 C2331.1677,2917.0938 2432.1677,2917.0938 2432.1677,2917.0938 C2432.1677,2917.0938 2533.1677,2917.0938 2533.1677,2937.0938 L2533.1677,3020.2813 C2533.1677,3040.2813 2432.1677,3040.2813 2432.1677,3040.2813 C2432.1677,3040.2813 2331.1677,3040.2813 2331.1677,3020.2813 L2331.1677,2937.0938 " fill="#FEFECE" style="stroke: #000000; stroke-width: 3.0;"/><path d="M2331.1677,2937.0938 C2331.1677,2957.0938 2432.1677,2957.0938 2432.1677,2957.0938 C2432.1677,2957.0938 2533.1677,2957.0938 2533.1677,2937.0938 " fill="none" style="stroke: #000000; stroke-width: 3.0;"/><text fill="#000000" font-family="sans-serif" font-size="28" font-style="italic" lengthAdjust="spacingAndGlyphs" textLength="162" x="2351.1677" y="2991.084">«database»</text><text fill="#000000" font-family="sans-serif" font-size="28" lengthAdjust="spacingAndGlyphs" textLength="92" x="2386.1677" y="3023.6777">MySQL</text><!--MD5=[c731dae3dc4b384084c2fdb9c9034c66]
entity bbb--><rect fill="#FEFECE" height="125.1875" style="stroke: #A80036; stroke-width: 3.0;" width="342" x="3201.1677" y="2585.0938"/><rect fill="#FEFECE" height="20" style="stroke: #A80036; stroke-width: 3.0;" width="30" x="3503.1677" y="2595.0938"/><rect fill="#FEFECE" height="4" style="stroke: #A80036; stroke-width: 3.0;" width="8" x="3499.1677" y="2599.0938"/><rect fill="#FEFECE" height="4" style="stroke: #A80036; stroke-width: 3.0;" width="8" x="3499.1677" y="2607.0938"/><text fill="#000000" font-family="sans-serif" font-size="28" font-style="italic" lengthAdjust="spacingAndGlyphs" textLength="262" x="3231.1677" y="2651.084">«Web-Framework»</text><text fill="#000000" font-family="sans-serif" font-size="28" lengthAdjust="spacingAndGlyphs" textLength="200" x="3262.1677" y="2683.6777">BigBlueButton</text><!--MD5=[8fc3522a43f8c7199df5e09e5bb0188e]
entity user--><ellipse cx="3000.1677" cy="3604.0938" fill="#FEFECE" rx="32" ry="32" style="stroke: #A80036; stroke-width: 3.0;"/><path d="M3000.1677,3644.0938 C3008.1677,3644.0938 3014.1677,3644.0938 3022.1677,3636.0938 C3038.1677,3636.0938 3054.1677,3652.0938 3054.1677,3668.0938 L3054.1677,3676.0938 C3054.1677,3684.0938 3046.1677,3692.0938 3038.1677,3692.0938 L2962.1677,3692.0938 C2954.1677,3692.0938 2946.1677,3684.0938 2946.1677,3676.0938 L2946.1677,3668.0938 C2946.1677,3652.0938 2962.1677,3636.0938 2978.1677,3636.0938 C2986.1677,3644.0938 2992.1677,3644.0938 3000.1677,3644.0938 " fill="#FEFECE" style="stroke: #A80036; stroke-width: 3.0;"/><text fill="#000000" font-family="sans-serif" font-size="28" lengthAdjust="spacingAndGlyphs" textLength="64" x="2968.1677" y="3721.084">User</text><path d="M1686.1677,755.0938 L1686.1677,805.3594 L1782.1677,805.3594 L1782.1677,775.0938 L1762.1677,755.0938 L1686.1677,755.0938 " fill="#AAAAFF" style="stroke: #A80036; stroke-width: 2.0;"/><path d="M1762.1677,755.0938 L1762.1677,775.0938 L1782.1677,775.0938 L1762.1677,755.0938 " fill="#AAAAFF" style="stroke: #A80036; stroke-width: 2.0;"/><text fill="#000000" font-family="sans-serif" font-size="26" lengthAdjust="spacingAndGlyphs" textLength="54" x="1698.1677" y="789.2275">DPA</text><path d="M1136.1677,755.0938 L1136.1677,805.3594 L1232.1677,805.3594 L1232.1677,775.0938 L1212.1677,755.0938 L1136.1677,755.0938 " fill="#AAAAFF" style="stroke: #A80036; stroke-width: 2.0;"/><path d="M1212.1677,755.0938 L1212.1677,775.0938 L1232.1677,775.0938 L1212.1677,755.0938 " fill="#AAAAFF" style="stroke: #A80036; stroke-width: 2.0;"/><text fill="#000000" font-family="sans-serif" font-size="26" lengthAdjust="spacingAndGlyphs" textLength="54" x="1148.1677" y="789.2275">DPA</text><path d="M2606.1677,755.0938 L2606.1677,805.3594 L2702.1677,805.3594 L2702.1677,775.0938 L2682.1677,755.0938 L2606.1677,755.0938 " fill="#AAAAFF" style="stroke: #A80036; stroke-width: 2.0;"/><path d="M2682.1677,755.0938 L2682.1677,775.0938 L2702.1677,775.0938 L2682.1677,755.0938 " fill="#AAAAFF" style="stroke: #A80036; stroke-width: 2.0;"/><text fill="#000000" font-family="sans-serif" font-size="26" lengthAdjust="spacingAndGlyphs" textLength="54" x="2618.1677" y="789.2275">DPA</text><!--MD5=[7cf42eea8ccfc177cab0c6df00566878]
link wp to dbms--><path d="M1102.8494,2187.4511 C1103.4737,2187.5424 1104.1139,2187.6363 1104.7696,2187.7328 C1115.2608,2189.2772 1129.7276,2191.4888 1146.9649,2194.335 C1181.4396,2200.0275 1226.9965,2208.2588 1273.9952,2218.7687 C1367.9927,2239.7887 1467.7577,2269.9238 1496.1677,2307.0938 C1518.6877,2336.5588 1530.6077,2372.0525 1535.7812,2408.8231 C1538.3679,2427.2084 1539.268,2445.913 1538.9631,2464.3427 C1538.944,2465.4946 1538.9203,2466.6454 1538.8919,2467.795 C1538.8778,2468.3697 1538.8624,2468.9442 1538.846,2469.5184 " fill="none" id="wp-to-dbms" style="stroke: #000000; stroke-width: 2.0;"/><polygon fill="#000000" points="1538.846,2469.5184,1547.3584,2451.7549,1539.1325,2459.5225,1531.3649,2451.2966,1538.846,2469.5184" style="stroke: #000000; stroke-width: 2.0;"/><!--MD5=[cca07670e30e52107cdaa95bdcd40b73]
link wp to wpfolder--><path d="M1102.2099,2220.9953 C1102.3815,2221.3792 1102.5543,2221.7658 1102.7282,2222.1549 C1103.076,2222.9332 1103.4285,2223.7218 1103.7855,2224.5205 C1105.2136,2227.7156 1106.7143,2231.0734 1108.2824,2234.5819 C1120.8271,2262.65 1137.6815,2300.3663 1156.1152,2341.6187 C1192.9827,2424.1237 1236.1677,2520.7738 1263.8277,2582.6738 " fill="none" id="wp-to-wpfolder" style="stroke: #000000; stroke-width: 2.0;"/><polygon fill="#000000" points="1268.0277,2592.0738,1267.9878,2572.3761,1263.9478,2582.9439,1253.38,2578.9039,1268.0277,2592.0738" style="stroke: #000000; stroke-width: 2.0;"/><!--MD5=[5808ed5415be249f4ce946070b438bcd]
link lime to lime_db--><path d="M2432.1677,2711.5938 C2432.1677,2766.9938 2432.1677,2848.3737 2432.1677,2906.4138 " fill="none" id="lime-to-lime_db" style="stroke: #000000; stroke-width: 2.0;"/><polygon fill="#000000" points="2432.1677,2916.9738,2440.1677,2898.9738,2432.1677,2906.9738,2424.1677,2898.9738,2432.1677,2916.9738" style="stroke: #000000; stroke-width: 2.0;"/><!--MD5=[264fbeb4c787e161a62c307dd56b3276]
link wp to lime--><path d="M1102.9447,2187.7324 C1103.6709,2187.8455 1104.4194,2187.9621 1105.19,2188.0821 C1106.7313,2188.3221 1108.3611,2188.5755 1110.0774,2188.8421 C1123.8084,2190.9745 1143.0815,2193.9458 1166.9202,2197.5641 C1214.5977,2204.8006 1280.5377,2214.625 1356.9277,2225.5013 C1509.7077,2247.2538 1704.2877,2273.2138 1878.1677,2291.0938 C1927.3677,2296.1538 2055.2877,2286.2938 2100.1677,2307.0938 C2231.3477,2367.8737 2338.6877,2504.6338 2393.2477,2584.6338 " fill="none" id="wp-lime" style="stroke: #00AA00; stroke-width: 4.0;"/><path d="M1865.5464,2275.5792 A20,20 0 0 0 1862.6532 2303.7151" fill="#FFFFFF" style="stroke: #00AA00; stroke-width: 3.0;"/><ellipse cx="1878.1677" cy="2291.0938" fill="#FFFFFF" rx="12" ry="12" style="stroke: #00AA00; stroke-width: 3.0;"/><!--MD5=[5f3569dadbb7d91764bade3dadb2225a]
link wp to bbb--><path d="M1104.0579,2186.002 C1104.8934,2186.0447 1105.7571,2186.0889 1106.6486,2186.1345 C1108.4317,2186.2257 1110.3263,2186.3226 1112.3304,2186.4252 C1128.3636,2187.2458 1151.4094,2188.4273 1180.4682,2189.9225 C1238.5858,2192.9128 1320.7557,2197.1575 1418.9824,2202.2775 C1615.4359,2212.5175 1876.1165,2226.2588 2137.0602,2240.4688 C2658.9477,2268.8888 3181.8877,2299.1838 3194.1677,2307.0938 C3291.9477,2370.1138 3339.2277,2505.3938 3359.3477,2584.6938 " fill="none" id="wp-bbb" style="stroke: #00AA00; stroke-width: 4.0;"/><path d="M2123.708,2225.5785 A20,20 0 0 0 2122.17 2253.821" fill="#FFFFFF" style="stroke: #00AA00; stroke-width: 3.0;"/><ellipse cx="2137.0602" cy="2240.4688" fill="#FFFFFF" rx="12" ry="12" style="stroke: #00AA00; stroke-width: 3.0;"/><!--MD5=[43fef3d11c192aa0a88d628b3eebaa00]
link wp to i_web--><path d="M1102.5782,2186.8564 C1103.4717,2186.9516 1104.4002,2187.0504 1105.3634,2187.1528 C1109.2159,2187.5627 1113.6228,2188.0304 1118.5605,2188.5528 C1138.3113,2190.6424 1166.5562,2193.6073 1201.7971,2197.2434 C1272.279,2204.5156 1370.7452,2214.4725 1485.2127,2225.4813 C1714.1477,2247.4988 2007.0877,2273.7238 2268.1677,2291.0938 C2309.0077,2293.8138 2598.5877,2290.8538 2636.1677,2307.0938 C2804.1877,2379.6938 2937.4077,2572.7938 2974.0877,2629.9338 " fill="none" id="wp-i_web" style="stroke: #A80036; stroke-width: 2.0; stroke-dasharray: 7.0,7.0;"/><!--MD5=[852cf93fdfc09389cd87830623d42458]
link lime to i_lime--><path d="M2474.5677,2711.0938 C2551.7077,2821.1138 2721.4877,3058.9938 2878.1677,3249.0938 C2914.5877,3293.2738 2960.8877,3342.3737 2984.6077,3367.0538 " fill="none" id="lime-i_lime" style="stroke: #A80036; stroke-width: 2.0; stroke-dasharray: 7.0,7.0;"/><!--MD5=[ba0020594d3db87e1e094c8a817d7300]
link bbb to i_bbb--><path d="M3319.4077,2711.4738 C3285.2677,2749.7938 3238.9677,2799.2538 3194.1677,2839.0938 C3136.4677,2890.3938 3060.6877,2942.3737 3026.4077,2965.1538 " fill="none" id="bbb-i_bbb" style="stroke: #A80036; stroke-width: 2.0; stroke-dasharray: 7.0,7.0;"/><!--MD5=[916fb375b8357f075b32922fdcb91ce5]
link umg to a_us--><path d="M1734.1677,645.4536 C1734.1677,645.9881 1734.1677,646.522 1734.1677,647.0555 C1734.1677,648.1223 1734.1677,649.187 1734.1677,650.2494 C1734.1677,658.7485 1734.1677,667.0986 1734.1677,675.2069 C1734.1677,707.64 1734.1677,736.2038 1734.1677,754.9538 " fill="none" id="umg-a_us" style="stroke: #A80036; stroke-width: 2.0; stroke-dasharray: 7.0,7.0;"/><!--MD5=[6997ee9cb04b0574bc4b3d2005e4b463]
link a_us to s4p--><path d="M1743.1677,805.2337 C1755.0477,834.8137 1777.3877,887.2337 1802.1677,929.0938 C1838.1977,989.9237 1885.2727,1053.8587 1923.7927,1103.1062 C1943.0527,1127.73 1960.174,1148.6819 1972.7065,1163.7378 C1974.2731,1165.6198 1975.7679,1167.4097 1977.1863,1169.1031 C1977.3636,1169.3147 1977.5397,1169.5249 1977.7146,1169.7336 " fill="none" id="a_us-to-s4p" style="stroke: #A80036; stroke-width: 2.0; stroke-dasharray: 7.0,7.0;"/><polygon fill="#A80036" points="1977.7146,1169.7336,1972.2825,1150.7997,1971.2906,1162.0698,1960.0205,1161.078,1977.7146,1169.7336" style="stroke: #A80036; stroke-width: 2.0;"/><!--MD5=[7339e6ca21ba761044ccb6aba77ddd84]
link umg to a_un--><path d="M1717.1793,449.5679 C1716.5066,449.9827 1715.8156,450.4086 1715.1066,450.8457 C1703.7623,457.8393 1687.8056,467.6755 1668.4709,479.5934 C1629.8015,503.4294 1577.6202,535.5925 1521.8027,569.9963 C1410.1677,638.8038 1283.9877,716.5738 1222.2677,754.6138 " fill="none" id="umg-a_un" style="stroke: #A80036; stroke-width: 2.0; stroke-dasharray: 7.0,7.0;"/><!--MD5=[9fa15f41c5eba71b8841bb348f363064]
link a_un to netcup--><path d="M1135.8477,801.4538 C979.7677,866.8738 487.3877,1096.3137 284.1677,1463.0938 C207.7477,1601.0237 191.0477,1777.1137 193.7952,1920.3862 C194.4821,1956.2044 196.3845,1989.9714 198.873,2020.5783 C200.1173,2035.8818 201.5081,2050.3952 202.9669,2063.98 C203.3315,2067.3762 203.7005,2070.7143 204.0724,2073.9923 " fill="none" id="a_un-to-netcup" style="stroke: #A80036; stroke-width: 2.0; stroke-dasharray: 7.0,7.0;"/><polygon fill="#A80036" points="204.0724,2073.9923,209.992,2055.2051,202.945,2064.056,194.094,2057.009,204.0724,2073.9923" style="stroke: #A80036; stroke-width: 2.0;"/><!--MD5=[2d73c405dc055b46790ba087183c6302]
link umg to a_ub--><path d="M1771.288,645.7863 C1771.5148,646.138 1771.743,646.4888 1771.9724,646.8387 C1779.3134,658.0341 1787.9702,668.2813 1798.1677,677.0938 C1920.1477,782.5338 2443.3477,782.0338 2605.8277,779.2337 " fill="none" id="umg-a_ub" style="stroke: #A80036; stroke-width: 2.0; stroke-dasharray: 7.0,7.0;"/><!--MD5=[f9614aa9d415bd2f719ee7d76ca26acb]
link a_ub to bbb_provider--><path d="M2670.9077,805.1937 C2769.2877,941.7137 3277.9477,1659.3137 3576.1677,2307.0938 C3580.2502,2315.9613 3584.2543,2325.0208 3588.1741,2334.2152 C3588.6641,2335.3644 3589.1528,2336.5159 3589.6401,2337.6692 " fill="none" id="a_ub-to-bbb_provider" style="stroke: #A80036; stroke-width: 2.0; stroke-dasharray: 7.0,7.0;"/><polygon fill="#A80036" points="3589.6401,2337.6692,3590.0036,2317.9749,3585.7481,2328.4577,3575.2652,2324.2022,3589.6401,2337.6692" style="stroke: #A80036; stroke-width: 2.0;"/><!--MD5=[c7784b2e21d0ca9313c80fde28ef0c60]
link ship to mps--><path d="M2167.6877,516.6538 C2154.7677,567.4538 2131.3277,632.4938 2090.1677,677.0938 C2073.1277,695.5738 475.5677,1443.2337 460.1677,1463.0938 C411.0777,1526.3838 377.4277,1602.0063 354.5915,1680.0584 C351.737,1689.815 349.0514,1699.6094 346.5258,1709.4226 C345.2629,1714.3291 344.0401,1719.2403 342.8561,1724.1538 C342.5601,1725.3821 342.2666,1726.6106 341.9754,1727.8392 " fill="none" id="ship-to-mps" style="stroke: #A80036; stroke-width: 2.0;"/><polygon fill="#A80036" points="341.9754,1727.8392,353.9105,1712.1691,344.2814,1718.1087,338.3417,1708.4796,341.9754,1727.8392" style="stroke: #A80036; stroke-width: 2.0;"/><text fill="#000000" font-family="sans-serif" font-size="26" lengthAdjust="spacingAndGlyphs" textLength="112" x="1702.1677" y="891.2275">Adminis-</text><text fill="#000000" font-family="sans-serif" font-size="26" lengthAdjust="spacingAndGlyphs" textLength="84" x="1716.1677" y="921.4932">tration</text><!--MD5=[fb49174e3b63624fb852d26317662dc8]
link ship to bbb--><path d="M2239.6477,443.6937 C2469.5277,463.6737 3310.1677,552.1338 3310.1677,778.0938 C3310.1677,778.0938 3310.1677,778.0938 3310.1677,2185.0938 C3310.1677,2323.8938 3338.1077,2484.1138 3356.4877,2574.4338 " fill="none" id="ship-to-bbb" style="stroke: #A80036; stroke-width: 2.0;"/><polygon fill="#A80036" points="3358.5677,2584.5538,3362.7531,2565.3058,3356.5407,2574.7613,3347.0852,2568.549,3358.5677,2584.5538" style="stroke: #A80036; stroke-width: 2.0;"/><text fill="#000000" font-family="sans-serif" font-size="26" lengthAdjust="spacingAndGlyphs" textLength="112" x="3312.1677" y="1185.2275">Adminis-</text><text fill="#000000" font-family="sans-serif" font-size="26" lengthAdjust="spacingAndGlyphs" textLength="84" x="3326.1677" y="1215.4932">tration</text><!--MD5=[146ac31a81dcf7247f718aff5916ad51]
link s4p_partner to wp--><path d="M2118.8477,1287.8538 C2100.8477,1314.6138 2079.9477,1342.9938 2058.1677,1367.0938 C1870.7577,1574.5037 1630.0777,1776.4587 1435.1027,1927.3237 C1337.6152,2002.7563 1251.554,2065.4163 1189.2909,2109.5994 C1158.1593,2131.6909 1132.9773,2149.1633 1115.2913,2161.3034 C1110.8698,2164.3384 1106.9168,2167.0401 1103.4564,2169.3975 C1103.0239,2169.6921 1102.599,2169.9814 1102.1819,2170.2653 " fill="none" id="s4p_partner-to-wp" style="stroke: #A80036; stroke-width: 2.0;"/><polygon fill="#A80036" points="1102.1819,2170.2653,1121.5636,2166.751,1110.4488,2164.6387,1112.5611,2153.524,1102.1819,2170.2653" style="stroke: #A80036; stroke-width: 2.0;"/><text fill="#000000" font-family="sans-serif" font-size="26" lengthAdjust="spacingAndGlyphs" textLength="112" x="2036.1677" y="1409.2275">Adminis-</text><text fill="#000000" font-family="sans-serif" font-size="26" lengthAdjust="spacingAndGlyphs" textLength="84" x="2050.1677" y="1439.4932">tration</text><!--MD5=[3cb7a05c2be10d670030bdc849a71b1d]
link s4p_partner to lime--><path d="M2192.7677,1287.3137 C2240.4677,1558.0938 2377.2677,2334.4938 2419.5477,2574.5138 " fill="none" id="s4p_partner-to-lime" style="stroke: #A80036; stroke-width: 2.0;"/><polygon fill="#A80036" points="2421.3877,2584.8538,2426.1316,2565.7358,2419.6466,2575.0065,2410.3759,2568.5216,2421.3877,2584.8538" style="stroke: #A80036; stroke-width: 2.0;"/><text fill="#000000" font-family="sans-serif" font-size="26" lengthAdjust="spacingAndGlyphs" textLength="112" x="2358.1677" y="2177.2275">Adminis-</text><text fill="#000000" font-family="sans-serif" font-size="26" lengthAdjust="spacingAndGlyphs" textLength="84" x="2372.1677" y="2207.4932">tration</text><!--MD5=[b93c4206cee9011957949891b2cc86fb]
link i_web to i_bbb--><!--MD5=[5cd74230e2ae9df8a556e2435a37450c]
link i_bbb to i_lime--><!--MD5=[d320135e18d4819ab489a80e606b00fb]
reverse link i_web to user--><path d="M3004.2477,2674.3737 C3039.7677,2719.0538 3112.5077,2818.7338 3140.1677,2917.0938 C3209.2477,3162.6938 3243.0677,3254.2738 3148.1677,3491.0938 C3129.9077,3536.6738 3091.1277,3576.4738 3057.8477,3604.3138 " fill="none" id="i_web-backto-user" style="stroke: #A80036; stroke-width: 2.0;"/><polygon fill="#A80036" points="2997.6677,2666.1938,3002.6908,2685.2402,3003.9251,2673.9941,3015.1713,2675.2284,2997.6677,2666.1938" style="stroke: #A80036; stroke-width: 2.0;"/><!--MD5=[b580156ca5aa78714c03c8e7bd9b55b2]
reverse link i_bbb to user--><path d="M2992.4677,3006.2938 C2958.9477,3061.6938 2881.3077,3199.4138 2854.1677,3327.0938 C2839.0077,3398.3938 2827.2877,3423.3538 2854.1677,3491.0938 C2872.0277,3536.1138 2909.8477,3575.6338 2942.5077,3603.5138 " fill="none" id="i_bbb-backto-user" style="stroke: #A80036; stroke-width: 2.0;"/><polygon fill="#A80036" points="2997.8077,2997.5138,2981.5984,3008.7056,2992.5956,3006.048,2995.2532,3017.0451,2997.8077,2997.5138" style="stroke: #A80036; stroke-width: 2.0;"/><!--MD5=[4be8e9c37ce665f48b41b367474d54ff]
reverse link i_lime to user--><path d="M3000.1677,3413.4938 C3000.1677,3449.6338 3000.1677,3516.0138 3000.1677,3568.6338 " fill="none" id="i_lime-backto-user" style="stroke: #A80036; stroke-width: 2.0;"/><polygon fill="#A80036" points="3000.1677,3403.2938,2992.1677,3421.2938,3000.1677,3413.2938,3008.1677,3421.2938,3000.1677,3403.2938" style="stroke: #A80036; stroke-width: 2.0;"/><!--MD5=[685d4c77146e4de69831589066018687]
link bbPress to BuddyPress*--><!--MD5=[d978cefa2092a887f55296fa2c0a6979]
link bbPress to TaskBreaker--><!--MD5=[1c051b0180945900d66b5aa8f40fc977]
link TaskBreaker to TODO???--><rect fill="#DDDDDD" height="85.1875" rx="10" ry="10" style="stroke: #000000; stroke-width: 2.0;" width="1024" x="1441.5128" y="3752.084"/><text fill="#000000" font-family="sans-serif" font-size="28" font-weight="bold" lengthAdjust="spacingAndGlyphs" textLength="118" x="1453.5128" y="3788.0742">Legend</text><text fill="#000000" font-family="sans-serif" font-size="28" lengthAdjust="spacingAndGlyphs" textLength="1000" x="1453.5128" y="3820.668">- DPA "Data Processing Agreement" - Auftragsverarbeitungsvertrag (AVV)</text><!--MD5=[7fb7439dead6b2e7e1d8ff26a48dae78]
@startuml

skinparam shadowing false
scale 2

title: Overview Platform (WIP)\njoinus4health.eu
header version: %date("dd.MM.yyyy")

skinparam actorStyle awesome
skinparam nodeBackgroundColor<<Server>> #ffccaa
skinparam rectangleBackgroundColor<<Partner>> #cccccc
skinparam rectangleBackgroundColor<<Provider>> #ddbbaa
skinparam componentBackgroundColor #fefece
skinparam databaseBackgroundColor #fefece

legend
**Legend**
- DPA "Data Processing Agreement" - Auftragsverarbeitungsvertrag (AVV)
end legend

actor "User" as user

rectangle "UMG\ncoordinator" as umg #ffcccc {
    rectangle "ICM SHIP-KEF" {
        actor "SHIP-IT" as ship
        actor "JoinUs4Health\nProject Manage-\nment Team" as umg_team
    }
}

rectangle "science4people.eu" <<Partner>> as s4p {
    actor "science4people\nPartner" as s4p_partner
}

cloud "Internet" {
    rectangle "netcup" <<Provider>> as netcup {
        node "Managed Private Server" <<Server>> as mps {
            node "Platform-Server" <<Server>> as platform_server {
                component "WordPress" <<Web-Framework>> as wp {
                    component "bbPress"
                    component "BuddyPress*"
                    component "TaskBreaker"
                    component "TODO???"
                }
                folder "WordPress-Files" as wpfolder
                database "DBMS MySQL" as dbms {
                    database "user data" <<database>> as db_user
                    database "platform data" <<database>> as db_plattform
                }
                wp - -> dbms     #black
                wp - -> wpfolder #black
            }
            node "Questionnaire-Server" <<Server>> as lime_server {
                component "LimeSurvey" <<Web-Framework>> as lime
                database "MySQL" <<database>> as lime_db
                
                lime    - ->     lime_db #black
            }
            
            wp      =(0=     lime #00aa00
        }
    }
    rectangle "????" <<Provider>> as bbb_provider {
        node "Conference-Server" <<Server>> {
            component "BigBlueButton" <<Web-Framework>> as bbb
            
        }
    }
    wp     =(0=     bbb #00aa00

    interface "Conference" as i_bbb
    interface "Platform" as i_web
    interface "Questionnaire" as i_lime

    i_web   .u.     wp
    i_lime  .u.     lime
    i_bbb   .u.     bbb
}

note "DPA" as a_us #aaaaff
umg .. a_us
a_us ..> s4p
note "DPA" as a_un #aaaaff
umg .. a_un
a_un ..> netcup
note "DPA" as a_ub #aaaaff
umg .. a_ub
a_ub ..> bbb_provider

ship        - ->     mps         : Adminis-\ntration
ship        - ->     bbb         : Adminis-\ntration
s4p_partner - ->     wp          : Adminis-\ntration
s4p_partner - ->     lime        : Adminis-\ntration

i_web   -[hidden]-  i_bbb
i_bbb   -[hidden]-  i_lime

user    -u-> i_web
user    -u-> i_bbb
user    -u->  i_lime

@enduml

@startuml

skinparam shadowing false
scale 2

title: Overview Platform (WIP)\njoinus4health.eu
header version: 02.02.2022

skinparam actorStyle awesome
skinparam nodeBackgroundColor<<Server>> #ffccaa
skinparam rectangleBackgroundColor<<Partner>> #cccccc
skinparam rectangleBackgroundColor<<Provider>> #ddbbaa
skinparam componentBackgroundColor #fefece
skinparam databaseBackgroundColor #fefece

legend
**Legend**
- DPA "Data Processing Agreement" - Auftragsverarbeitungsvertrag (AVV)
end legend

actor "User" as user

rectangle "UMG\ncoordinator" as umg #ffcccc {
    rectangle "ICM SHIP-KEF" {
        actor "SHIP-IT" as ship
        actor "JoinUs4Health\nProject Manage-\nment Team" as umg_team
    }
}

rectangle "science4people.eu" <<Partner>> as s4p {
    actor "science4people\nPartner" as s4p_partner
}

cloud "Internet" {
    rectangle "netcup" <<Provider>> as netcup {
        node "Managed Private Server" <<Server>> as mps {
            node "Platform-Server" <<Server>> as platform_server {
                component "WordPress" <<Web-Framework>> as wp {
                    component "bbPress"
                    component "BuddyPress*"
                    component "TaskBreaker"
                    component "TODO???"
                }
                folder "WordPress-Files" as wpfolder
                database "DBMS MySQL" as dbms {
                    database "user data" <<database>> as db_user
                    database "platform data" <<database>> as db_plattform
                }
                wp - -> dbms     #black
                wp - -> wpfolder #black
            }
            node "Questionnaire-Server" <<Server>> as lime_server {
                component "LimeSurvey" <<Web-Framework>> as lime
                database "MySQL" <<database>> as lime_db
                
                lime    - ->     lime_db #black
            }
            
            wp      =(0=     lime #00aa00
        }
    }
    rectangle "????" <<Provider>> as bbb_provider {
        node "Conference-Server" <<Server>> {
            component "BigBlueButton" <<Web-Framework>> as bbb
            
        }
    }
    wp     =(0=     bbb #00aa00

    interface "Conference" as i_bbb
    interface "Platform" as i_web
    interface "Questionnaire" as i_lime

    i_web   .u.     wp
    i_lime  .u.     lime
    i_bbb   .u.     bbb
}

note "DPA" as a_us #aaaaff
umg .. a_us
a_us ..> s4p
note "DPA" as a_un #aaaaff
umg .. a_un
a_un ..> netcup
note "DPA" as a_ub #aaaaff
umg .. a_ub
a_ub ..> bbb_provider

ship        - ->     mps         : Adminis-\ntration
ship        - ->     bbb         : Adminis-\ntration
s4p_partner - ->     wp          : Adminis-\ntration
s4p_partner - ->     lime        : Adminis-\ntration

i_web   -[hidden]-  i_bbb
i_bbb   -[hidden]-  i_lime

user    -u-> i_web
user    -u-> i_bbb
user    -u->  i_lime

@enduml

PlantUML version 1.2020.16(Sun Aug 23 22:20:43 CEST 2020)
(GPL source distribution)
Java Runtime: OpenJDK Runtime Environment
JVM: OpenJDK 64-Bit Server VM
Default Encoding: UTF-8
Language: en
Country: GB
--></g></svg>