<?xml version="1.0" encoding="us-ascii" standalone="no"?><svg xmlns="http://www.w3.org/2000/svg" xmlns:xlink="http://www.w3.org/1999/xlink" contentStyleType="text/css" height="3232px" preserveAspectRatio="none" style="width:2924px;height:3232px;background:#FFFFFF;" version="1.1" viewBox="0 0 2924 3232" width="2924px" zoomAndPan="magnify"><defs/><g><text fill="#888888" font-family="sans-serif" font-size="20" lengthAdjust="spacing" textLength="190" x="2706.5368" y="21.38">version: 06.11.2023</text><text fill="#000000" font-family="sans-serif" font-size="28" font-weight="bold" lengthAdjust="spacing" textLength="344" x="1276.2684" y="79.1718">Overview Platform (WIP)</text><text fill="#000000" font-family="sans-serif" font-size="28" font-weight="bold" lengthAdjust="spacing" textLength="230" x="1333.2684" y="117.3077">joinus4health.eu</text><!--cluster umg--><g id="cluster_umg"><rect fill="#FFCCCC" height="943.48" rx="5" ry="5" style="stroke:#181818;stroke-width:2.0;" width="690" x="14.1318" y="161.5116"/><text fill="#000000" font-family="sans-serif" font-size="28" font-weight="bold" lengthAdjust="spacing" textLength="68" x="325.1318" y="195.4435">UMG</text><text fill="#000000" font-family="sans-serif" font-size="28" font-weight="bold" lengthAdjust="spacing" textLength="164" x="277.1318" y="233.5793">coordinator</text></g><!--cluster ICM SHIP-KEF--><g id="cluster_ICM SHIP-KEF"><rect fill="none" height="733.48" rx="5" ry="5" style="stroke:#181818;stroke-width:2.0;" width="546" x="78.1318" y="307.5116"/><text fill="#000000" font-family="sans-serif" font-size="28" font-weight="bold" lengthAdjust="spacing" textLength="188" x="257.1318" y="341.4435">ICM SHIP-KEF</text></g><!--cluster s4p--><g id="cluster_s4p"><rect fill="#CCCCCC" height="380.26" rx="5" ry="5" style="stroke:#181818;stroke-width:2.0;" width="504" x="784.1318" y="657.6516"/><text fill="#000000" font-family="sans-serif" font-size="28" font-style="italic" lengthAdjust="spacing" textLength="124" x="974.1318" y="691.5835">&#171;Partner&#187;</text><text fill="#000000" font-family="sans-serif" font-size="28" font-weight="bold" lengthAdjust="spacing" textLength="252" x="910.1318" y="729.7193">science4people.eu</text></g><!--cluster Internet--><g id="cluster_Internet"><path d="M158.0501,1276.6004 C216.3619,1200.5462 278.3901,1209.3229 331.1132,1283.0576 C392.0849,1184.8244 473.3852,1214.8122 520.8702,1297.2246 C583.6087,1200.3805 643.9141,1200.1909 710.3865,1293.5034 C763.7528,1195.5036 837.4018,1199.0054 905.5697,1277.0971 C961.7477,1179.5034 1039.7383,1179.3111 1096.6556,1276.3713 C1158.3041,1191.9702 1217.7247,1182.8355 1286.1544,1268.8298 C1344.3607,1183.8647 1408.7503,1201.406 1453.0428,1282.7887 C1515.3352,1197.4492 1581.3216,1196.2653 1648.3679,1277.2043 C1704.7142,1204.6517 1788.6142,1211.6506 1830.8787,1293.8157 C1880.9035,1207.816 1970.6544,1203.5504 2019.8405,1294.7103 C2064.5616,1197.3335 2166.947,1173.8539 2234.2798,1269.6031 C2305.7482,1192.112 2362.675,1186.1238 2413.4142,1290.0692 C2469.4216,1203.4592 2541.0139,1199.0619 2595.747,1291.3678 C2644.875,1190.9412 2736.7821,1209.5343 2788.1318,1288.9916 C2800.2459,1294.166 2805.2187,1304.2859 2793.9043,1314.7173 C2873.2071,1356.096 2890.5062,1424.7822 2811.0547,1482.3982 C2910.0028,1559.2412 2897.9787,1633.7228 2790.8098,1690.5155 C2895.8493,1731.4381 2908.3795,1794.2149 2822.7366,1869.2067 C2898.9562,1926.3722 2898.1348,2018.2817 2812.1156,2066.7232 C2881.3793,2132.4079 2896.926,2186.6188 2799.0497,2239.6768 C2873.8822,2285.9212 2884.6992,2350.5709 2813.7201,2409.4175 C2910.5368,2469.523 2903.7092,2560.0556 2815.9846,2622.1258 C2880.772,2689.516 2866.7902,2762.9317 2774.1318,2791.3916 C2797.6475,2784.1478 2813.5772,2795.6093 2807.1783,2821.3564 C2731.4309,2908.9099 2656.8706,2936.2789 2585.7992,2816.3669 C2522.2028,2912.2143 2462.6696,2894.8242 2402.1208,2813.2124 C2359.0299,2909.4736 2266.9667,2913.2827 2211.7644,2825.7567 C2162.2039,2898.2539 2098.8053,2912.0622 2043.9329,2831.5846 C1979.9307,2930.3728 1899.1191,2925.7041 1835.8579,2830.7886 C1791.7166,2919.1462 1708.8055,2911.8591 1658.3705,2837.6604 C1598.4602,2919.6714 1503.9521,2927.899 1454.099,2826.4616 C1411.8931,2906.4436 1322.6129,2930.1528 1269.0512,2838.7205 C1209.4014,2916.2061 1156.501,2901.5296 1102.7807,2832.0138 C1027.4084,2909.1741 968.8114,2908.4398 911.9779,2811.676 C871.4605,2912.4018 787.1071,2923.7881 727.8452,2829.3622 C670.4205,2911.429 590.7706,2914.2879 538.8061,2823.3944 C471.1716,2915.8552 390.9944,2891.7993 340.6969,2804.3081 C257.6554,2908.2856 170.9099,2894.4817 114.1318,2777.3916 C128.1715,2766.5678 144.5137,2769.9707 147.4503,2789.5566 C51.0609,2742.2091 48.1591,2659.3423 131.0624,2596.755 C44.585,2540.2716 53.0916,2480.7785 133.1194,2426.3045 C38.4364,2376.3118 22.3404,2295.5137 102.2669,2219.4748 C27.4336,2157.7259 50.65,2105.2329 125.6881,2066.4178 C36.6872,2018.1534 32.9573,1928.0634 118.7473,1873.5101 C28.3124,1814.1241 28.4847,1728.2799 121.235,1671.1458 C45.7535,1610.2544 52.9597,1546.3226 130.7883,1493.6845 C12.5588,1433.247 12,1338.2759 128.1318,1274.9916 C137.0699,1261.1171 150.5804,1263.17 158.0501,1276.6004 " fill="#EEEEEE" style="stroke:#181818;stroke-width:2.0;"/><text fill="#000000" font-family="sans-serif" font-size="28" font-weight="bold" lengthAdjust="spacing" textLength="114" x="1394.1318" y="1314.9235">Internet</text></g><!--cluster netcup--><g id="cluster_netcup"><rect fill="#DDBBAA" height="1408.4" rx="5" ry="5" style="stroke:#181818;stroke-width:2.0;" width="1950" x="146.1318" y="1350.9916"/><text fill="#000000" font-family="sans-serif" font-size="28" font-style="italic" lengthAdjust="spacing" textLength="136" x="1053.1318" y="1384.9235">&#171;Provider&#187;</text><text fill="#000000" font-family="sans-serif" font-size="28" font-weight="bold" lengthAdjust="spacing" textLength="96" x="1073.1318" y="1423.0593">netcup</text></g><!--cluster mps--><g id="cluster_mps"><polygon fill="#FFCCAA" points="302.1318,1500.9916,322.1318,1480.9916,1436.1318,1480.9916,1436.1318,2691.3916,1416.1318,2711.3916,302.1318,2711.3916,302.1318,1500.9916" style="stroke:#181818;stroke-width:2.0;"/><line style="stroke:#181818;stroke-width:2.0;" x1="1416.1318" x2="1436.1318" y1="1500.9916" y2="1480.9916"/><line style="stroke:#181818;stroke-width:2.0;" x1="302.1318" x2="1416.1318" y1="1500.9916" y2="1500.9916"/><line style="stroke:#181818;stroke-width:2.0;" x1="1416.1318" x2="1416.1318" y1="1500.9916" y2="2711.3916"/><text fill="#000000" font-family="sans-serif" font-size="28" font-style="italic" lengthAdjust="spacing" textLength="108" x="807.1318" y="1536.9235">&#171;Server&#187;</text><text fill="#000000" font-family="sans-serif" font-size="28" font-weight="bold" lengthAdjust="spacing" textLength="330" x="696.1318" y="1575.0593">Managed Private Server</text></g><!--cluster platform_server--><g id="cluster_platform_server"><polygon fill="#FFCCAA" points="350.1318,1640.9916,370.1318,1620.9916,1388.1318,1620.9916,1388.1318,2643.3916,1368.1318,2663.3916,350.1318,2663.3916,350.1318,1640.9916" style="stroke:#181818;stroke-width:2.0;"/><line style="stroke:#181818;stroke-width:2.0;" x1="1368.1318" x2="1388.1318" y1="1640.9916" y2="1620.9916"/><line style="stroke:#181818;stroke-width:2.0;" x1="350.1318" x2="1368.1318" y1="1640.9916" y2="1640.9916"/><line style="stroke:#181818;stroke-width:2.0;" x1="1368.1318" x2="1368.1318" y1="1640.9916" y2="2663.3916"/><text fill="#000000" font-family="sans-serif" font-size="28" font-style="italic" lengthAdjust="spacing" textLength="108" x="807.1318" y="1676.9235">&#171;Server&#187;</text><text fill="#000000" font-family="sans-serif" font-size="28" font-weight="bold" lengthAdjust="spacing" textLength="220" x="751.1318" y="1715.0593">Platform-Server</text></g><!--cluster wp--><g id="cluster_wp"><rect fill="#FEFECE" height="276.14" rx="5" ry="5" style="stroke:#181818;stroke-width:2.0;" width="366" x="958.1318" y="1776.9916"/><rect fill="#FEFECE" height="20" style="stroke:#181818;stroke-width:2.0;" width="30" x="1284.1318" y="1786.9916"/><rect fill="#FEFECE" height="4" style="stroke:#181818;stroke-width:2.0;" width="8" x="1280.1318" y="1790.9916"/><rect fill="#FEFECE" height="4" style="stroke:#181818;stroke-width:2.0;" width="8" x="1280.1318" y="1798.9916"/><text fill="#000000" font-family="sans-serif" font-size="28" font-style="italic" lengthAdjust="spacing" textLength="232" x="1025.1318" y="1832.9235">&#171;Web-Framework&#187;</text><text fill="#000000" font-family="sans-serif" font-size="28" font-weight="bold" lengthAdjust="spacing" textLength="150" x="1066.1318" y="1871.0593">WordPress</text></g><!--cluster dbms--><g id="cluster_dbms"><path d="M712.1318,2315.1316 C712.1318,2295.1316 1018.1318,2295.1316 1018.1318,2295.1316 C1018.1318,2295.1316 1324.1318,2295.1316 1324.1318,2315.1316 L1324.1318,2579.3916 C1324.1318,2599.3916 1018.1318,2599.3916 1018.1318,2599.3916 C1018.1318,2599.3916 712.1318,2599.3916 712.1318,2579.3916 L712.1318,2315.1316 " fill="#FEFECE" style="stroke:#181818;stroke-width:2.0;"/><path d="M712.1318,2315.1316 C712.1318,2335.1316 1018.1318,2335.1316 1018.1318,2335.1316 C1018.1318,2335.1316 1324.1318,2335.1316 1324.1318,2315.1316 " fill="none" style="stroke:#181818;stroke-width:2.0;"/><text fill="#000000" font-family="sans-serif" font-size="28" font-weight="bold" lengthAdjust="spacing" textLength="204" x="916.1318" y="2369.0635">DBMS MariaDB</text></g><!--cluster vps--><g id="cluster_vps"><polygon fill="#FFCCAA" points="1484.1318,2191.1316,1504.1318,2171.1316,2048.1318,2171.1316,2048.1318,2611.3916,2028.1318,2631.3916,1484.1318,2631.3916,1484.1318,2191.1316" style="stroke:#181818;stroke-width:2.0;"/><line style="stroke:#181818;stroke-width:2.0;" x1="2028.1318" x2="2048.1318" y1="2191.1316" y2="2171.1316"/><line style="stroke:#181818;stroke-width:2.0;" x1="1484.1318" x2="2028.1318" y1="2191.1316" y2="2191.1316"/><line style="stroke:#181818;stroke-width:2.0;" x1="2028.1318" x2="2028.1318" y1="2191.1316" y2="2631.3916"/><text fill="#000000" font-family="sans-serif" font-size="28" font-style="italic" lengthAdjust="spacing" textLength="108" x="1704.1318" y="2227.0635">&#171;Server&#187;</text><text fill="#000000" font-family="sans-serif" font-size="28" font-weight="bold" lengthAdjust="spacing" textLength="406" x="1555.1318" y="2265.1993">Virtual Private Server, Debian</text></g><!--cluster dbms_m--><g id="cluster_dbms_m"><path d="M1744.1318,2331.1316 C1744.1318,2311.1316 1872.1318,2311.1316 1872.1318,2311.1316 C1872.1318,2311.1316 2000.1318,2311.1316 2000.1318,2331.1316 L2000.1318,2563.3916 C2000.1318,2583.3916 1872.1318,2583.3916 1872.1318,2583.3916 C1872.1318,2583.3916 1744.1318,2583.3916 1744.1318,2563.3916 L1744.1318,2331.1316 " fill="#FEFECE" style="stroke:#181818;stroke-width:2.0;"/><path d="M1744.1318,2331.1316 C1744.1318,2351.1316 1872.1318,2351.1316 1872.1318,2351.1316 C1872.1318,2351.1316 2000.1318,2351.1316 2000.1318,2331.1316 " fill="none" style="stroke:#181818;stroke-width:2.0;"/><text fill="#000000" font-family="sans-serif" font-size="28" font-weight="bold" lengthAdjust="spacing" textLength="204" x="1770.1318" y="2385.0635">DBMS MariaDB</text></g><!--cluster deepl--><g id="cluster_deepl"><polygon fill="#DDBBAA" points="2310.1318,2369.1916,2330.1318,2349.1916,2756.1318,2349.1916,2756.1318,2545.3316,2736.1318,2565.3316,2310.1318,2565.3316,2310.1318,2369.1916" style="stroke:#181818;stroke-width:2.0;"/><line style="stroke:#181818;stroke-width:2.0;" x1="2736.1318" x2="2756.1318" y1="2369.1916" y2="2349.1916"/><line style="stroke:#181818;stroke-width:2.0;" x1="2310.1318" x2="2736.1318" y1="2369.1916" y2="2369.1916"/><line style="stroke:#181818;stroke-width:2.0;" x1="2736.1318" x2="2736.1318" y1="2369.1916" y2="2565.3316"/><text fill="#000000" font-family="sans-serif" font-size="28" font-weight="bold" lengthAdjust="spacing" textLength="144" x="2453.1318" y="2405.1235">deepl.com</text></g><!--entity ship--><g id="elem_ship"><ellipse cx="168.1318" cy="418.5116" fill="#F1F1F1" rx="32" ry="32" style="stroke:#181818;stroke-width:3.0;"/><path d="M168.1318,458.5116 C176.1318,458.5116 182.1318,458.5116 190.1318,450.5116 C206.1318,450.5116 222.1318,466.5116 222.1318,482.5116 L222.1318,490.5116 C222.1318,498.5116 214.1318,506.5116 206.1318,506.5116 L130.1318,506.5116 C122.1318,506.5116 114.1318,498.5116 114.1318,490.5116 L114.1318,482.5116 C114.1318,466.5116 130.1318,450.5116 146.1318,450.5116 C154.1318,458.5116 160.1318,458.5116 168.1318,458.5116 " fill="#F1F1F1" style="stroke:#181818;stroke-width:3.0;"/><text fill="#000000" font-family="sans-serif" font-size="28" lengthAdjust="spacing" textLength="98" x="119.1318" y="539.4435">SHIP-IT</text></g><g id="elem_shipit"><path d="M296.1318,402.4716 L296.1318,528.7077 L592.1318,528.7077 L592.1318,422.4716 L572.1318,402.4716 L296.1318,402.4716 " fill="#FFFFAA" style="stroke:#181818;stroke-width:1.0;"/><path d="M572.1318,402.4716 L572.1318,422.4716 L592.1318,422.4716 L572.1318,402.4716 " fill="#FFFFAA" style="stroke:#181818;stroke-width:2.0;"/><text fill="#000000" font-family="sans-serif" font-size="26" lengthAdjust="spacing" textLength="178" x="308.1318" y="440.2657">SHIP-IT has full</text><text fill="#000000" font-family="sans-serif" font-size="26" lengthAdjust="spacing" textLength="254" x="308.1318" y="475.6777">Administration rights</text><text fill="#000000" font-family="sans-serif" font-size="26" lengthAdjust="spacing" textLength="168" x="308.1318" y="511.0897">on all systems</text></g><!--entity umg_team--><g id="elem_umg_team"><ellipse cx="220.1318" cy="803.5716" fill="#F1F1F1" rx="32" ry="32" style="stroke:#181818;stroke-width:3.0;"/><path d="M220.1318,843.5716 C228.1318,843.5716 234.1318,843.5716 242.1318,835.5716 C258.1318,835.5716 274.1318,851.5716 274.1318,867.5716 L274.1318,875.5716 C274.1318,883.5716 266.1318,891.5716 258.1318,891.5716 L182.1318,891.5716 C174.1318,891.5716 166.1318,883.5716 166.1318,875.5716 L166.1318,867.5716 C166.1318,851.5716 182.1318,835.5716 198.1318,835.5716 C206.1318,843.5716 212.1318,843.5716 220.1318,843.5716 " fill="#F1F1F1" style="stroke:#181818;stroke-width:3.0;"/><text fill="#000000" font-family="sans-serif" font-size="28" lengthAdjust="spacing" textLength="188" x="110.1318" y="924.5035">JoinUs4Health</text><text fill="#000000" font-family="sans-serif" font-size="28" lengthAdjust="spacing" textLength="220" x="110.1318" y="962.6393">Project Manage-</text><text fill="#000000" font-family="sans-serif" font-size="28" lengthAdjust="spacing" textLength="152" x="110.1318" y="1000.7752">ment Team</text></g><g id="elem_dpa_s4p"><path d="M1148.1318,861.0716 L1148.1318,916.4837 L1240.1318,916.4837 L1240.1318,881.0716 L1220.1318,861.0716 L1148.1318,861.0716 " fill="#AAAAFF" style="stroke:#181818;stroke-width:1.0;"/><path d="M1220.1318,861.0716 L1220.1318,881.0716 L1240.1318,881.0716 L1220.1318,861.0716 " fill="#AAAAFF" style="stroke:#181818;stroke-width:2.0;"/><text fill="#000000" font-family="sans-serif" font-size="26" lengthAdjust="spacing" textLength="50" x="1160.1318" y="898.8657">DPA</text></g><!--entity s4p_partner--><g id="elem_s4p_partner"><ellipse cx="974.1318" cy="822.6516" fill="#F1F1F1" rx="32" ry="32" style="stroke:#181818;stroke-width:3.0;"/><path d="M974.1318,862.6516 C982.1318,862.6516 988.1318,862.6516 996.1318,854.6516 C1012.1318,854.6516 1028.1318,870.6516 1028.1318,886.6516 L1028.1318,894.6516 C1028.1318,902.6516 1020.1318,910.6516 1012.1318,910.6516 L936.1318,910.6516 C928.1318,910.6516 920.1318,902.6516 920.1318,894.6516 L920.1318,886.6516 C920.1318,870.6516 936.1318,854.6516 952.1318,854.6516 C960.1318,862.6516 966.1318,862.6516 974.1318,862.6516 " fill="#F1F1F1" style="stroke:#181818;stroke-width:3.0;"/><text fill="#000000" font-family="sans-serif" font-size="28" lengthAdjust="spacing" textLength="208" x="870.1318" y="943.5835">science4people</text><text fill="#000000" font-family="sans-serif" font-size="28" lengthAdjust="spacing" textLength="100" x="870.1318" y="981.7193">Partner</text></g><!--entity i_web--><g id="elem_i_web"><ellipse cx="2200.1318" cy="2484.2516" fill="#F1F1F1" rx="16" ry="16" style="stroke:#181818;stroke-width:1.0;"/><text fill="#000000" font-family="sans-serif" font-size="28" lengthAdjust="spacing" textLength="114" x="2143.1318" y="2548.1835">Platform</text></g><g id="elem_dpa_netcup"><path d="M178.1318,1928.3516 L178.1318,1983.7637 L270.1318,1983.7637 L270.1318,1948.3516 L250.1318,1928.3516 L178.1318,1928.3516 " fill="#AAAAFF" style="stroke:#181818;stroke-width:1.0;"/><path d="M250.1318,1928.3516 L250.1318,1948.3516 L270.1318,1948.3516 L250.1318,1928.3516 " fill="#AAAAFF" style="stroke:#181818;stroke-width:2.0;"/><text fill="#000000" font-family="sans-serif" font-size="26" lengthAdjust="spacing" textLength="50" x="190.1318" y="1966.1457">DPA</text></g><!--entity wpfolder--><g id="elem_wpfolder"><path d="M388.1318,2427.1916 L470.1318,2427.1916 A7.5,7.5 0 0 1 475.1318,2432.1916 L489.1318,2469.1916 L652.1318,2469.1916 A5,5 0 0 1 657.1318,2474.1916 L657.1318,2536.3275 A5,5 0 0 1 652.1318,2541.3275 L388.1318,2541.3275 A5,5 0 0 1 383.1318,2536.3275 L383.1318,2432.1916 A5,5 0 0 1 388.1318,2427.1916 " fill="#F1F1F1" style="stroke:#181818;stroke-width:1.0;"/><line style="stroke:#181818;stroke-width:1.0;" x1="383.1318" x2="489.1318" y1="2469.1916" y2="2469.1916"/><text fill="#000000" font-family="sans-serif" font-size="28" lengthAdjust="spacing" textLength="214" x="403.1318" y="2513.1235">WordPress-Files</text></g><!--entity WP-Plugins--><g id="elem_WP-Plugins"><rect fill="#FEFECE" height="98.1358" rx="5" ry="5" style="stroke:#181818;stroke-width:1.0;" width="232" x="1044.1318" y="1906.9916"/><rect fill="#FEFECE" height="20" style="stroke:#181818;stroke-width:1.0;" width="30" x="1236.1318" y="1916.9916"/><rect fill="#FEFECE" height="4" style="stroke:#181818;stroke-width:1.0;" width="8" x="1232.1318" y="1920.9916"/><rect fill="#FEFECE" height="4" style="stroke:#181818;stroke-width:1.0;" width="8" x="1232.1318" y="1928.9916"/><text fill="#000000" font-family="sans-serif" font-size="28" lengthAdjust="spacing" textLength="152" x="1074.1318" y="1976.9235">WP-Plugins</text></g><!--entity db_plattform--><g id="elem_db_plattform"><path d="M1052.1318,2437.1316 C1052.1318,2417.1316 1164.1318,2417.1316 1164.1318,2417.1316 C1164.1318,2417.1316 1276.1318,2417.1316 1276.1318,2437.1316 L1276.1318,2531.4033 C1276.1318,2551.4033 1164.1318,2551.4033 1164.1318,2551.4033 C1164.1318,2551.4033 1052.1318,2551.4033 1052.1318,2531.4033 L1052.1318,2437.1316 " fill="#FEFECE" style="stroke:#181818;stroke-width:1.0;"/><path d="M1052.1318,2437.1316 C1052.1318,2457.1316 1164.1318,2457.1316 1164.1318,2457.1316 C1164.1318,2457.1316 1276.1318,2457.1316 1276.1318,2437.1316 " fill="none" style="stroke:#181818;stroke-width:1.0;"/><text fill="#000000" font-family="sans-serif" font-size="28" font-style="italic" lengthAdjust="spacing" textLength="144" x="1092.1318" y="2495.0635">&#171;database&#187;</text><text fill="#000000" font-family="sans-serif" font-size="28" lengthAdjust="spacing" textLength="184" x="1072.1318" y="2533.1993">platform data</text></g><!--entity db_user--><g id="elem_db_user"><path d="M798.1318,2437.1316 C798.1318,2417.1316 890.1318,2417.1316 890.1318,2417.1316 C890.1318,2417.1316 982.1318,2417.1316 982.1318,2437.1316 L982.1318,2531.4033 C982.1318,2551.4033 890.1318,2551.4033 890.1318,2551.4033 C890.1318,2551.4033 798.1318,2551.4033 798.1318,2531.4033 L798.1318,2437.1316 " fill="#FEFECE" style="stroke:#181818;stroke-width:1.0;"/><path d="M798.1318,2437.1316 C798.1318,2457.1316 890.1318,2457.1316 890.1318,2457.1316 C890.1318,2457.1316 982.1318,2457.1316 982.1318,2437.1316 " fill="none" style="stroke:#181818;stroke-width:1.0;"/><text fill="#000000" font-family="sans-serif" font-size="28" font-style="italic" lengthAdjust="spacing" textLength="144" x="818.1318" y="2495.0635">&#171;database&#187;</text><text fill="#000000" font-family="sans-serif" font-size="28" lengthAdjust="spacing" textLength="128" x="826.1318" y="2533.1993">user data</text></g><!--entity matomo--><g id="elem_matomo"><rect fill="#FEFECE" height="98.1358" rx="5" ry="5" style="stroke:#181818;stroke-width:1.0;" width="190" x="1515.1318" y="2435.1916"/><rect fill="#FEFECE" height="20" style="stroke:#181818;stroke-width:1.0;" width="30" x="1665.1318" y="2445.1916"/><rect fill="#FEFECE" height="4" style="stroke:#181818;stroke-width:1.0;" width="8" x="1661.1318" y="2449.1916"/><rect fill="#FEFECE" height="4" style="stroke:#181818;stroke-width:1.0;" width="8" x="1661.1318" y="2457.1916"/><text fill="#000000" font-family="sans-serif" font-size="28" lengthAdjust="spacing" textLength="110" x="1545.1318" y="2505.1235">Matomo</text></g><!--entity db_matomo--><g id="elem_db_matomo"><path d="M1775.1318,2437.1316 C1775.1318,2417.1316 1872.1318,2417.1316 1872.1318,2417.1316 C1872.1318,2417.1316 1969.1318,2417.1316 1969.1318,2437.1316 L1969.1318,2531.4033 C1969.1318,2551.4033 1872.1318,2551.4033 1872.1318,2551.4033 C1872.1318,2551.4033 1775.1318,2551.4033 1775.1318,2531.4033 L1775.1318,2437.1316 " fill="#FEFECE" style="stroke:#181818;stroke-width:1.0;"/><path d="M1775.1318,2437.1316 C1775.1318,2457.1316 1872.1318,2457.1316 1872.1318,2457.1316 C1872.1318,2457.1316 1969.1318,2457.1316 1969.1318,2437.1316 " fill="none" style="stroke:#181818;stroke-width:1.0;"/><text fill="#000000" font-family="sans-serif" font-size="28" font-style="italic" lengthAdjust="spacing" textLength="144" x="1800.1318" y="2495.0635">&#171;database&#187;</text><text fill="#000000" font-family="sans-serif" font-size="28" lengthAdjust="spacing" textLength="154" x="1795.1318" y="2533.1993">matomo db</text></g><g id="elem_dpa_deepl"><path d="M2632.1318,2456.5516 L2632.1318,2511.9637 L2724.1318,2511.9637 L2724.1318,2476.5516 L2704.1318,2456.5516 L2632.1318,2456.5516 " fill="#AAAAFF" style="stroke:#181818;stroke-width:1.0;"/><path d="M2704.1318,2456.5516 L2704.1318,2476.5516 L2724.1318,2476.5516 L2704.1318,2456.5516 " fill="#AAAAFF" style="stroke:#181818;stroke-width:2.0;"/><text fill="#000000" font-family="sans-serif" font-size="26" lengthAdjust="spacing" textLength="50" x="2644.1318" y="2494.3457">DPA</text></g><!--entity deepl_trans--><g id="elem_deepl_trans"><rect fill="#FEFECE" height="98.1358" rx="5" ry="5" style="stroke:#181818;stroke-width:1.0;" width="218" x="2343.1318" y="2435.1916"/><rect fill="#FEFECE" height="20" style="stroke:#181818;stroke-width:1.0;" width="30" x="2521.1318" y="2445.1916"/><rect fill="#FEFECE" height="4" style="stroke:#181818;stroke-width:1.0;" width="8" x="2517.1318" y="2449.1916"/><rect fill="#FEFECE" height="4" style="stroke:#181818;stroke-width:1.0;" width="8" x="2517.1318" y="2457.1916"/><text fill="#000000" font-family="sans-serif" font-size="28" lengthAdjust="spacing" textLength="138" x="2373.1318" y="2505.1235">Translator</text></g><!--entity user--><g id="elem_user"><ellipse cx="2200.1318" cy="2936.3916" fill="#F1F1F1" rx="32" ry="32" style="stroke:#181818;stroke-width:3.0;"/><path d="M2200.1318,2976.3916 C2208.1318,2976.3916 2214.1318,2976.3916 2222.1318,2968.3916 C2238.1318,2968.3916 2254.1318,2984.3916 2254.1318,3000.3916 L2254.1318,3008.3916 C2254.1318,3016.3916 2246.1318,3024.3916 2238.1318,3024.3916 L2162.1318,3024.3916 C2154.1318,3024.3916 2146.1318,3016.3916 2146.1318,3008.3916 L2146.1318,3000.3916 C2146.1318,2984.3916 2162.1318,2968.3916 2178.1318,2968.3916 C2186.1318,2976.3916 2192.1318,2976.3916 2200.1318,2976.3916 " fill="#F1F1F1" style="stroke:#181818;stroke-width:3.0;"/><text fill="#000000" font-family="sans-serif" font-size="28" lengthAdjust="spacing" textLength="62" x="2169.1318" y="3057.3235">User</text></g><!--link umg to s4p--><!--link wp to dbms--><g id="link_wp_dbms"><path d="M979.6564,2053.4337 C979.5607,2053.8542 979.4627,2054.2741 979.3624,2054.6933 C979.1616,2055.5316 978.9515,2056.3673 978.7316,2057.1999 C977.8522,2060.5301 976.8174,2063.8103 975.6091,2067.015 C973.1925,2073.4245 970.0818,2079.5316 966.1318,2085.1316 C931.0118,2134.9116 898.1718,2120.5916 840.1318,2139.1316 C808.0718,2149.3516 788.7318,2130.2116 766.1318,2155.1316 C754.0318,2168.4716 745.5856,2195.0579 739.7278,2227.5629 C736.7989,2243.8154 734.5171,2261.5476 732.7492,2279.8435 C732.3073,2284.4175 731.8974,2289.0267 731.5176,2293.6569 " fill="none" id="wp-to-dbms" style="stroke:#000000;stroke-width:2.0;"/><polygon fill="#000000" points="731.5176,2293.6569,740.9624,2276.3711,732.3352,2283.6903,725.016,2275.0631,731.5176,2293.6569" style="stroke:#000000;stroke-width:2.0;"/></g><!--link wp to wpfolder--><g id="link_wp_wpfolder"><path d="M982.6181,2053.625 C982.567,2053.8306 982.5153,2054.036 982.4628,2054.2412 C982.0429,2055.8824 981.5784,2057.5079 981.0666,2059.1138 C980.043,2062.3257 978.8298,2065.4597 977.4048,2068.4867 C974.5547,2074.5407 970.8568,2080.1666 966.1318,2085.1316 C944.2318,2108.1316 854.8518,2093.0916 824.1318,2101.1316 C764.3918,2116.7316 741.8118,2113.5716 696.1318,2155.1316 C617.6718,2226.5116 567.3718,2383.2116 541.4518,2456.0916 " fill="none" id="wp-to-wpfolder" style="stroke:#000000;stroke-width:2.0;"/><polygon fill="#000000" points="538.1918,2465.4516,551.7084,2451.1232,541.5081,2456.0175,536.6138,2445.8172,538.1918,2465.4516" style="stroke:#000000;stroke-width:2.0;"/></g><!--link matomo to db_matomo--><g id="link_matomo_db_matomo"><path d="M1705.8318,2484.2516 C1724.4718,2484.2516 1743.1318,2484.2516 1761.7718,2484.2516 " fill="none" id="matomo-to-db_matomo" style="stroke:#181818;stroke-width:2.0;"/><polygon fill="#181818" points="1771.6518,2484.2516,1753.6518,2476.2516,1761.6518,2484.2516,1753.6518,2492.2516,1771.6518,2484.2516" style="stroke:#181818;stroke-width:2.0;"/></g><!--link wp to deepl_trans--><g id="link_wp_deepl_trans"><path d="M987.7256,2053.3802 C987.8187,2053.5828 987.9125,2053.785 988.0068,2053.987 C988.3841,2054.7947 988.7708,2055.5973 989.1673,2056.3942 C989.9601,2057.988 990.7917,2059.5592 991.6639,2061.1036 C993.4082,2064.1925 995.3147,2067.1744 997.3978,2070.0166 C1001.564,2075.701 1006.4368,2080.8266 1012.1318,2085.1316 C1036.9118,2103.8516 2099.3718,2096.8916 2130.1318,2101.1316 C2223.0518,2113.8916 2264.9718,2091.7716 2334.1318,2155.1316 C2415.1518,2229.3516 2440.6118,2363.3916 2448.5718,2434.6716 " fill="none" id="wp-deepl_trans" style="stroke:#00AA00;stroke-width:4.0;"/><path d="M1554.806,2084.361 A20,20 0 0 0 1554.6887 2112.645" fill="none" style="stroke:#00AA00;stroke-width:3.0;"/><ellipse cx="1568.8893" cy="2098.5616" fill="#FFFFFF" rx="12" ry="12" style="stroke:#00AA00;stroke-width:3.0;"/></g><!--link wp to i_web--><g id="link_wp_i_web"><path d="M988.2756,2053.6414 C988.6505,2054.4523 989.0345,2055.2584 989.4281,2056.059 C990.2152,2057.6603 991.0403,2059.2399 991.905,2060.794 C993.6344,2063.9021 995.5224,2066.9077 997.5832,2069.7787 C1001.7047,2075.5207 1006.5168,2080.7241 1012.1318,2085.1316 C1039.7918,2106.8316 1293.0518,2098.8316 1328.1318,2101.1316 C1477.6318,2110.9116 1872.4918,2076.6716 2000.1318,2155.1316 C2122.6318,2230.4116 2180.7918,2411.5516 2195.9718,2466.3116 " fill="none" id="wp-i_web" style="stroke:#181818;stroke-width:2.0;stroke-dasharray:7.0,7.0;"/></g><!--link s4p_partner to wp--><g id="link_s4p_partner_wp"><path d="M974.1318,990.8116 C974.1318,1122.1216 974.1318,1360.2116 974.1318,1566.8191 C974.1318,1618.471 974.1318,1668.1552 974.1318,1713.7114 C974.1318,1725.1005 974.1318,1736.2316 974.1318,1747.0708 C974.1318,1752.4905 974.1318,1757.8372 974.1318,1763.1068 C974.1318,1765.7415 974.1318,1768.357 974.1318,1770.9527 C974.1318,1772.2505 974.1318,1773.5434 974.1318,1774.8313 " fill="none" id="s4p_partner-to-wp" style="stroke:#181818;stroke-width:2.0;"/><polygon fill="#181818" points="974.1318,1774.8313,982.1318,1756.8313,974.1318,1764.8313,966.1318,1756.8313,974.1318,1774.8313" style="stroke:#181818;stroke-width:2.0;"/><text fill="#000000" font-family="sans-serif" font-size="26" lengthAdjust="spacing" textLength="104" x="976.1318" y="1182.7857">Adminis-</text><text fill="#000000" font-family="sans-serif" font-size="26" lengthAdjust="spacing" textLength="82" x="987.1318" y="1218.1977">tration</text></g><!--link wp to matomo--><g id="link_wp_matomo"><path d="M991.1393,2053.2142 C991.2312,2053.4209 991.3237,2053.6274 991.4166,2053.8337 C992.16,2055.4839 992.935,2057.1196 993.7429,2058.7372 C995.3588,2061.9724 997.1065,2065.1352 998.9966,2068.1971 C1002.7768,2074.321 1007.1268,2080.0416 1012.1318,2085.1316 C1067.7118,2141.6516 1104.7118,2122.0516 1182.1318,2139.1316 C1237.2518,2151.2716 1257.9518,2129.2716 1308.1318,2155.1316 C1434.5518,2220.2716 1535.2518,2360.7716 1581.9118,2434.6516 " fill="none" id="wp-matomo" style="stroke:#181818;stroke-width:2.0;stroke-dasharray:7.0,7.0;"/><text fill="#000000" font-family="sans-serif" font-size="26" lengthAdjust="spacing" textLength="126" x="1184.1318" y="2130.9257">connected</text></g><!--reverse link i_web to user--><g id="link_i_web_user"><path d="M2200.1318,2514.3716 C2200.1318,2587.7916 2200.1318,2787.4916 2200.1318,2900.5716 " fill="none" id="i_web-backto-user" style="stroke:#181818;stroke-width:2.0;"/><polygon fill="#181818" points="2200.1318,2505.2116,2192.1318,2523.2116,2200.1318,2515.2116,2208.1318,2523.2116,2200.1318,2505.2116" style="stroke:#181818;stroke-width:2.0;"/></g><rect fill="#DDDDDD" height="96.2717" id="_legend" rx="15" ry="15" style="stroke:#000000;stroke-width:2.0;" width="1002" x="947.2684" y="3096.3235"/><text fill="#000000" font-family="sans-serif" font-size="28" font-weight="bold" lengthAdjust="spacing" textLength="102" x="957.2684" y="3136.2554">Legend</text><text fill="#000000" font-family="sans-serif" font-size="28" lengthAdjust="spacing" textLength="982" x="957.2684" y="3174.3912">- DPA "Data Processing Agreement" - Auftragsverarbeitungsvertrag (AVV)</text><!--SRC=[dLRRRkCs47tdLx0A2iT1PGH5deBT57RITDFMg85aauUwC2Xn97EN8WMIiX4K-VSEAScIPRlfbY-cvd8uF7EXxLUXIcPOGUsQSRqLAgSPanQ8JPa4-YCXJZW9r_IF3PYDW2rTIEOoRGfw_lAm62_L5orKPQ_MmAHRJw0YkEDWADfReTKr_Pup1-SHvvFvVFAAAneJOdS7izHfy-XUyJIs1QiBw2cLvZ1ZwTVSw4hnMosr-V3X4IC1StD3px8iJHdhsHj87LEvF7HQCEDKxPM6zT-yZDu8NhjndYHxXwMwABK2vGPk61TaaFRlWHImX5butpALkk87PX0M8H9oK9nSNFmUDXSN9APtYocDxl00Yj6cOArFuZGt00N65j6OJglC6PPRP8sP18IhLFZmGde-VNuU4mIZ3JZvZaCc57ZWyvLY1OmfnKmum6CMquWoIuEOdZ5SMKP8o26DFbimGLtXXf0ThQYP_x9KgTQ62yNGjhOgyZg5QKh_9dW6xNaytCxfuwU7HVpRp_THe_QhEIge7fu2ZbsBSgUluspKT8tgh99ogQQy44fOlBB3ggH6v6jdbmgtJ4fgNws3mkxWXFEHPHdcUt3mhrZkd-tLfr3kIuMKVy6WwPmfbaEyL9vp-WIiQA-uSlWHKDx8snufDXMWKhWgGPSIi7KYsgzJ7yfLsLpTvuANR8MICUc5iu-1yTJkKUEzAkjlVxAdE_vpBJW7zLVijOI4QaEobGEZm4M7UK1fMfKXiguN4BoMznBJHbWhnhs4S8If-U5OecA3uu3MFUnXTzsCe4LfUuYTTpjpukDkPQDUsI0SGFYrQrKQlM0HBWosYKTvWII-nxQ3hJPVQx1jUSH_YB685xBAXRBHWUdRWIJJqW_4xkJuNaYeYsrRrje3ftPYOC_DvezONqQmkrdmuKbXJyJOURMS196_QgkgRycJbRS89kyW-MO-ZH9Q_NqEaDKulgb3z-iiaJZZJfcrh1mpwx3V1ZNsB8ohc1pKs0_q3XB1rB1eDWUrralm78TKeGFRHTYIRyZDgZYIdSwd1aJBetmUEMwVpSQT1ZQ7vc_De1aDklWdN8Szd2HO1Oq4GnuDMndruqvQatohLGR6pvmJpUX1TtquEi7lJEGpMS6iSawh4us8GFl-tLTpmUO7YyQlZ-UN7yC67UdPvILZbvU4T95pW59EC8WwKVwhVTIFZB6WxwPOB_OdmvILkrSi6AwS5v8k1SEOUbPTR25wuMTlnj8zRWEoy0aW0vjs53OMMqZgEuOj_awgITD93Rm7wSaz93u68__AjPVpBHTAgxGxigzfysBYczOyciUTDl_7gMR_6vrwbNNKYVGUl9tJjgJ_6XuPjSprtiQ6UjBs6kqHk4Eyng9G2diCy3zJ698UfC9pwxIC1ZAF-0y0]--></g></svg>