<?xml version="1.0" encoding="UTF-8" standalone="no"?><svg xmlns="http://www.w3.org/2000/svg" xmlns:xlink="http://www.w3.org/1999/xlink" contentScriptType="application/ecmascript" contentStyleType="text/css" height="4154px" preserveAspectRatio="none" style="width:3912px;height:4154px;" version="1.1" viewBox="0 0 3912 4154" width="3912px" zoomAndPan="magnify"><defs/><g><text fill="#888888" font-family="sans-serif" font-size="20" lengthAdjust="spacingAndGlyphs" textLength="190" x="3687.974" y="21.38">version: 08.04.2022</text><text fill="#000000" font-family="sans-serif" font-size="36" lengthAdjust="spacingAndGlyphs" textLength="412" x="1732.987" y="65.7237">Overview Platform (WIP)</text><text fill="#000000" font-family="sans-serif" font-size="36" lengthAdjust="spacingAndGlyphs" textLength="284" x="1796.987" y="114.7554">joinus4health.eu</text><!--MD5=[26c5d267d5640af9fd645d609f9318ff]
cluster umg--><rect fill="#FFCCCC" height="558" style="stroke: #000000; stroke-width: 3.0;" width="614" x="1683.2434" y="139.3034"/><text fill="#000000" font-family="sans-serif" font-size="28" font-weight="bold" lengthAdjust="spacingAndGlyphs" textLength="68" x="1956.2434" y="173.2352">UMG</text><text fill="#000000" font-family="sans-serif" font-size="28" font-weight="bold" lengthAdjust="spacingAndGlyphs" textLength="164" x="1908.2434" y="211.3711">coordinator</text><!--MD5=[a5da4f68ede42b98d7b5f3a10e3ccc90]
cluster ICM SHIP-KEF--><rect fill="#FFCCCC" height="348" style="stroke: #000000; stroke-width: 3.0;" width="470" x="1763.2434" y="285.3034"/><text fill="#000000" font-family="sans-serif" font-size="28" font-weight="bold" lengthAdjust="spacingAndGlyphs" textLength="188" x="1904.2434" y="319.2352">ICM SHIP-KEF</text><!--MD5=[d416a0175338ee00014ff4466993c423]
cluster s4p--><rect fill="#CCCCCC" height="380" style="stroke: #000000; stroke-width: 3.0;" width="342" x="1941.2434" y="1045.3034"/><text fill="#000000" font-family="sans-serif" font-size="28" font-style="italic" lengthAdjust="spacingAndGlyphs" textLength="124" x="2050.2434" y="1079.2352">«Partner»</text><text fill="#000000" font-family="sans-serif" font-size="28" font-weight="bold" lengthAdjust="spacingAndGlyphs" textLength="252" x="1986.2434" y="1117.3711">science4people.eu</text><!--MD5=[07074073229a58b98d86dbf75a12e332]
cluster Internet--><path d="M210.9353,1598.5368 C276.8421,1487.3748 388.5791,1502.9177 447.5797,1606.1593 C533.2089,1482.6652 613.2814,1515.0576 685.0503,1620.5342 C759.4583,1475.4603 885.1388,1494.9966 964.3936,1615.435 C1024.0545,1515.8081 1143.8146,1502.1144 1207.473,1610.7697 C1277.6433,1494.4928 1387.486,1516.3389 1439.0648,1629.533 C1507.018,1509.1133 1629.138,1498.5653 1708.1031,1617.1366 C1793.9987,1488.3481 1870.5332,1508.429 1958.4262,1615.0124 C2037.2738,1515.3197 2108.548,1490.8791 2187.2474,1615.1638 C2265.0464,1502.0121 2354.2942,1479.3782 2442.3869,1604.1239 C2528.2542,1478.0781 2630.476,1480.3039 2719.2658,1600.8423 C2801.5465,1507.8805 2878.3482,1510.2396 2941.3889,1621.7439 C3036.7695,1503.1788 3126.4422,1476.6117 3215.002,1628.6407 C3290.7049,1504.7888 3384.8508,1505.722 3465.2249,1623.8096 C3534.3768,1494.2513 3608.6565,1496.2448 3693.2434,1609.3034 C3701.9587,1612.6644 3704.6364,1617.4864 3698.9005,1625.8024 C3850.6098,1705.3174 3833.8074,1805.2419 3718.1102,1903.2701 C3838.5529,1982.2106 3860.8026,2080.3541 3726.8411,2167.6946 C3855.561,2257.1351 3813.2746,2351.937 3701.059,2416.401 C3829.9212,2494.5145 3812.0857,2592.2299 3705.5589,2674.4483 C3825.4397,2745.0464 3845.9741,2870.9637 3716.6121,2951.5054 C3828.5668,3015.6121 3860.8329,3126.9036 3732.8792,3206.3255 C3871.8852,3304.1959 3889.974,3400.5459 3732.2094,3497.7343 C3836.8993,3586.6833 3813.3176,3702.7054 3679.2434,3739.3034 C3706.6301,3736.5585 3713.0885,3752.445 3704.8221,3775.1446 C3626.8354,3884.1746 3524.7298,3915.3827 3442.4825,3779.7124 C3357.4478,3892.9724 3272.9563,3851.6535 3216.8543,3749.4191 C3148.519,3871.4041 3045.8968,3885.1941 2967.3603,3759.7034 C2895.5431,3892.7464 2776.7013,3877.1505 2714.8693,3750.0133 C2637.9798,3863.1827 2551.5477,3899.68 2457.213,3768.401 C2369.4921,3916.0183 2281.2481,3910.8148 2179.5344,3782.4815 C2106.8187,3896.5922 1995.2597,3891.1097 1929.8986,3774.5231 C1862.4791,3907.4686 1742.6948,3907.4163 1678.0774,3771.8947 C1608.3003,3912.6216 1505.5981,3906.3474 1423.4052,3783.9099 C1358.8021,3868.1513 1260.1262,3855.3219 1212.4425,3763.6226 C1153.7807,3886.1712 1018.3149,3911.4898 937.1236,3788.9288 C849.1226,3878.1356 766.533,3889.0413 702.5276,3762.8006 C613.1471,3902.3126 523.6992,3876.144 430.0248,3767.5161 C333.2735,3878.4731 211.5687,3877.4973 155.2434,3725.3034 C176.252,3710.7033 196.3949,3714.3414 199.2948,3743.5236 C77.5681,3688.2755 70.9626,3576.1595 164.7567,3491.3888 C12,3414.1643 36.0367,3273.2206 165.2653,3196.4825 C54.8867,3108.6907 82.0728,3038.6524 181.1334,2965.232 C50.1535,2911.0398 50.9917,2785.2344 156.4087,2708.2941 C17.6535,2601.2898 40.6254,2506.4335 176.0705,2418.001 C64.4154,2337.1959 61.5669,2258.1656 173.7593,2175.2294 C27.4117,2083.4346 19.6045,1990.4977 169.2256,1893.9327 C27.252,1797.7256 26.5516,1691.4935 169.2434,1595.3034 C182.9766,1576.9644 200.1959,1578.2745 210.9353,1598.5368 " fill="#FFFFFF" style="stroke: #000000; stroke-width: 3.0;"/><text fill="#000000" font-family="sans-serif" font-size="28" font-weight="bold" lengthAdjust="spacingAndGlyphs" textLength="114" x="1867.2434" y="1635.2352">Internet</text><!--MD5=[fc7c9bc70f56de5c86322601a7f106c8]
cluster netcup--><rect fill="#DDBBAA" height="1798" style="stroke: #000000; stroke-width: 3.0;" width="2580" x="203.2434" y="1687.3034"/><text fill="#000000" font-family="sans-serif" font-size="28" font-style="italic" lengthAdjust="spacingAndGlyphs" textLength="136" x="1425.2434" y="1721.2352">«Provider»</text><text fill="#000000" font-family="sans-serif" font-size="28" font-weight="bold" lengthAdjust="spacingAndGlyphs" textLength="96" x="1445.2434" y="1759.3711">netcup</text><!--MD5=[a04d69009329426f82a4cda3340f9045]
cluster mps--><polygon fill="#FFCCAA" points="299.2434,1869.3034,319.2434,1849.3034,2703.2434,1849.3034,2703.2434,3385.3034,2683.2434,3405.3034,299.2434,3405.3034,299.2434,1869.3034" style="stroke: #000000; stroke-width: 3.0;"/><line style="stroke: #000000; stroke-width: 3.0;" x1="2683.2434" x2="2703.2434" y1="1869.3034" y2="1849.3034"/><line style="stroke: #000000; stroke-width: 3.0;" x1="299.2434" x2="2683.2434" y1="1869.3034" y2="1869.3034"/><line style="stroke: #000000; stroke-width: 3.0;" x1="2683.2434" x2="2683.2434" y1="1869.3034" y2="3405.3034"/><text fill="#000000" font-family="sans-serif" font-size="28" font-style="italic" lengthAdjust="spacingAndGlyphs" textLength="108" x="1439.2434" y="1905.2352">«Server»</text><text fill="#000000" font-family="sans-serif" font-size="28" font-weight="bold" lengthAdjust="spacingAndGlyphs" textLength="330" x="1328.2434" y="1943.3711">Managed Private Server</text><!--MD5=[a54cd0b4de8b8913c3bb58f3b7112d52]
cluster platform_server--><polygon fill="#FFCCAA" points="379.2434,2025.3034,399.2434,2005.3034,2145.2434,2005.3034,2145.2434,3028.3034,2125.2434,3048.3034,379.2434,3048.3034,379.2434,2025.3034" style="stroke: #000000; stroke-width: 3.0;"/><line style="stroke: #000000; stroke-width: 3.0;" x1="2125.2434" x2="2145.2434" y1="2025.3034" y2="2005.3034"/><line style="stroke: #000000; stroke-width: 3.0;" x1="379.2434" x2="2125.2434" y1="2025.3034" y2="2025.3034"/><line style="stroke: #000000; stroke-width: 3.0;" x1="2125.2434" x2="2125.2434" y1="2025.3034" y2="3048.3034"/><text fill="#000000" font-family="sans-serif" font-size="28" font-style="italic" lengthAdjust="spacingAndGlyphs" textLength="108" x="1200.2434" y="2061.2352">«Server»</text><text fill="#000000" font-family="sans-serif" font-size="28" font-weight="bold" lengthAdjust="spacingAndGlyphs" textLength="220" x="1144.2434" y="2099.3711">Platform-Server</text><!--MD5=[d10c0fc188658aa905e9b53266af4542]
cluster wp--><rect fill="#FEFECE" height="805" style="stroke: #000000; stroke-width: 3.0;" width="648" x="443.2434" y="2161.3034"/><rect fill="#FEFECE" height="20" style="stroke: #000000; stroke-width: 3.0;" width="30" x="1051.2434" y="2171.3034"/><rect fill="#FEFECE" height="4" style="stroke: #000000; stroke-width: 3.0;" width="8" x="1047.2434" y="2175.3034"/><rect fill="#FEFECE" height="4" style="stroke: #000000; stroke-width: 3.0;" width="8" x="1047.2434" y="2183.3034"/><text fill="#000000" font-family="sans-serif" font-size="28" font-style="italic" lengthAdjust="spacingAndGlyphs" textLength="232" x="651.2434" y="2217.2352">«Web-Framework»</text><text fill="#000000" font-family="sans-serif" font-size="28" font-weight="bold" lengthAdjust="spacingAndGlyphs" textLength="150" x="692.2434" y="2255.3711">WordPress</text><!--MD5=[0ccfca756fad94035c3e173b9237d2d3]
cluster dbms--><path d="M1469.2434,2700.3034 C1469.2434,2680.3034 1775.2434,2680.3034 1775.2434,2680.3034 C1775.2434,2680.3034 2081.2434,2680.3034 2081.2434,2700.3034 L2081.2434,2964.3034 C2081.2434,2984.3034 1775.2434,2984.3034 1775.2434,2984.3034 C1775.2434,2984.3034 1469.2434,2984.3034 1469.2434,2964.3034 L1469.2434,2700.3034 " fill="#FEFECE" style="stroke: #000000; stroke-width: 3.0;"/><path d="M1469.2434,2700.3034 C1469.2434,2720.3034 1775.2434,2720.3034 1775.2434,2720.3034 C1775.2434,2720.3034 2081.2434,2720.3034 2081.2434,2700.3034 " fill="none" style="stroke: #000000; stroke-width: 3.0;"/><text fill="#000000" font-family="sans-serif" font-size="28" font-weight="bold" lengthAdjust="spacingAndGlyphs" textLength="204" x="1673.2434" y="2754.2352">DBMS MariaDB</text><!--MD5=[b5fe8b70cd7277a7a7ef85d9f5bce651]
cluster lime_server--><polygon fill="#FFCCAA" points="2193.2434,2697.3034,2213.2434,2677.3034,2639.2434,2677.3034,2639.2434,3321.3034,2619.2434,3341.3034,2193.2434,3341.3034,2193.2434,2697.3034" style="stroke: #000000; stroke-width: 3.0;"/><line style="stroke: #000000; stroke-width: 3.0;" x1="2619.2434" x2="2639.2434" y1="2697.3034" y2="2677.3034"/><line style="stroke: #000000; stroke-width: 3.0;" x1="2193.2434" x2="2619.2434" y1="2697.3034" y2="2697.3034"/><line style="stroke: #000000; stroke-width: 3.0;" x1="2619.2434" x2="2619.2434" y1="2697.3034" y2="3341.3034"/><text fill="#000000" font-family="sans-serif" font-size="28" font-style="italic" lengthAdjust="spacingAndGlyphs" textLength="108" x="2354.2434" y="2733.2352">«Server»</text><text fill="#000000" font-family="sans-serif" font-size="28" font-weight="bold" lengthAdjust="spacingAndGlyphs" textLength="294" x="2261.2434" y="2771.3711">Questionnaire-Server</text><!--MD5=[7d64432051d8ad2067c4bd831a0c2179]
cluster bbb_provider--><rect fill="#DDBBAA" height="566" style="stroke: #000000; stroke-width: 3.0;" width="622" x="3023.2434" y="2499.3034"/><text fill="#000000" font-family="sans-serif" font-size="28" font-style="italic" lengthAdjust="spacingAndGlyphs" textLength="136" x="3266.2434" y="2533.2352">«Provider»</text><text fill="#000000" font-family="sans-serif" font-size="28" font-weight="bold" lengthAdjust="spacingAndGlyphs" textLength="56" x="3306.2434" y="2571.3711">????</text><!--MD5=[1204e77cc24f7499f9b396e13082d6e8]
cluster bbb_server--><polygon fill="#FFCCAA" points="3103.2434,2681.3034,3123.2434,2661.3034,3549.2434,2661.3034,3549.2434,2965.3034,3529.2434,2985.3034,3103.2434,2985.3034,3103.2434,2681.3034" style="stroke: #000000; stroke-width: 3.0;"/><line style="stroke: #000000; stroke-width: 3.0;" x1="3529.2434" x2="3549.2434" y1="2681.3034" y2="2661.3034"/><line style="stroke: #000000; stroke-width: 3.0;" x1="3103.2434" x2="3529.2434" y1="2681.3034" y2="2681.3034"/><line style="stroke: #000000; stroke-width: 3.0;" x1="3529.2434" x2="3529.2434" y1="2681.3034" y2="2985.3034"/><text fill="#000000" font-family="sans-serif" font-size="28" font-style="italic" lengthAdjust="spacingAndGlyphs" textLength="108" x="3264.2434" y="2717.2352">«Server»</text><text fill="#000000" font-family="sans-serif" font-size="28" font-weight="bold" lengthAdjust="spacingAndGlyphs" textLength="254" x="3191.2434" y="2755.3711">Conference-Server</text><!--MD5=[3103861f95f0d7217426811062624cfa]
entity ship--><ellipse cx="2143.2434" cy="434.3034" fill="#FEFECE" rx="32" ry="32" style="stroke: #A80036; stroke-width: 3.0;"/><path d="M2143.2434,474.3034 C2151.2434,474.3034 2157.2434,474.3034 2165.2434,466.3034 C2181.2434,466.3034 2197.2434,482.3034 2197.2434,498.3034 L2197.2434,506.3034 C2197.2434,514.3034 2189.2434,522.3034 2181.2434,522.3034 L2105.2434,522.3034 C2097.2434,522.3034 2089.2434,514.3034 2089.2434,506.3034 L2089.2434,498.3034 C2089.2434,482.3034 2105.2434,466.3034 2121.2434,466.3034 C2129.2434,474.3034 2135.2434,474.3034 2143.2434,474.3034 " fill="#FEFECE" style="stroke: #A80036; stroke-width: 3.0;"/><text fill="#000000" font-family="sans-serif" font-size="28" lengthAdjust="spacingAndGlyphs" textLength="98" x="2094.2434" y="555.2352">SHIP-IT</text><!--MD5=[b08f2111fdc261dd0bfb2eacdde7049b]
entity umg_team--><ellipse cx="1905.2434" cy="396.3034" fill="#FEFECE" rx="32" ry="32" style="stroke: #A80036; stroke-width: 3.0;"/><path d="M1905.2434,436.3034 C1913.2434,436.3034 1919.2434,436.3034 1927.2434,428.3034 C1943.2434,428.3034 1959.2434,444.3034 1959.2434,460.3034 L1959.2434,468.3034 C1959.2434,476.3034 1951.2434,484.3034 1943.2434,484.3034 L1867.2434,484.3034 C1859.2434,484.3034 1851.2434,476.3034 1851.2434,468.3034 L1851.2434,460.3034 C1851.2434,444.3034 1867.2434,428.3034 1883.2434,428.3034 C1891.2434,436.3034 1897.2434,436.3034 1905.2434,436.3034 " fill="#FEFECE" style="stroke: #A80036; stroke-width: 3.0;"/><text fill="#000000" font-family="sans-serif" font-size="28" lengthAdjust="spacingAndGlyphs" textLength="188" x="1795.2434" y="517.2352">JoinUs4Health</text><text fill="#000000" font-family="sans-serif" font-size="28" lengthAdjust="spacingAndGlyphs" textLength="220" x="1795.2434" y="555.3711">Project Manage-</text><text fill="#000000" font-family="sans-serif" font-size="28" lengthAdjust="spacingAndGlyphs" textLength="152" x="1795.2434" y="593.5069">ment Team</text><!--MD5=[db450b6175b1cf7e0741641dc58b6f7f]
entity s4p_partner--><ellipse cx="2131.2434" cy="1210.3034" fill="#FEFECE" rx="32" ry="32" style="stroke: #A80036; stroke-width: 3.0;"/><path d="M2131.2434,1250.3034 C2139.2434,1250.3034 2145.2434,1250.3034 2153.2434,1242.3034 C2169.2434,1242.3034 2185.2434,1258.3034 2185.2434,1274.3034 L2185.2434,1282.3034 C2185.2434,1290.3034 2177.2434,1298.3034 2169.2434,1298.3034 L2093.2434,1298.3034 C2085.2434,1298.3034 2077.2434,1290.3034 2077.2434,1282.3034 L2077.2434,1274.3034 C2077.2434,1258.3034 2093.2434,1242.3034 2109.2434,1242.3034 C2117.2434,1250.3034 2123.2434,1250.3034 2131.2434,1250.3034 " fill="#FEFECE" style="stroke: #A80036; stroke-width: 3.0;"/><text fill="#000000" font-family="sans-serif" font-size="28" lengthAdjust="spacingAndGlyphs" textLength="208" x="2027.2434" y="1331.2352">science4people</text><text fill="#000000" font-family="sans-serif" font-size="28" lengthAdjust="spacingAndGlyphs" textLength="100" x="2027.2434" y="1369.3711">Partner</text><!--MD5=[6bcb8a42b2cab2a46966951f62205111]
entity i_bbb--><ellipse cx="2923.2434" cy="3242.3034" fill="#FEFECE" rx="16" ry="16" style="stroke: #A80036; stroke-width: 4.0;"/><text fill="#000000" font-family="sans-serif" font-size="28" lengthAdjust="spacingAndGlyphs" textLength="154" x="2846.2434" y="3306.2352">Conference</text><!--MD5=[51764780891d56c625808fe39e0f2680]
entity i_web--><ellipse cx="2903.2434" cy="2869.3034" fill="#FEFECE" rx="16" ry="16" style="stroke: #A80036; stroke-width: 4.0;"/><text fill="#000000" font-family="sans-serif" font-size="28" lengthAdjust="spacingAndGlyphs" textLength="114" x="2846.2434" y="2933.2352">Platform</text><!--MD5=[ac446b10bf28a2765c1ed4904d1957ba]
entity i_lime--><ellipse cx="2913.2434" cy="3659.3034" fill="#FEFECE" rx="16" ry="16" style="stroke: #A80036; stroke-width: 4.0;"/><text fill="#000000" font-family="sans-serif" font-size="28" lengthAdjust="spacingAndGlyphs" textLength="192" x="2817.2434" y="3723.2352">Questionnaire</text><!--MD5=[fcbfd374278afc1cf141dd59657f7740]
entity wpfolder--><polygon fill="#FEFECE" points="1140.2434,2808.3034,1232.2434,2808.3034,1246.2434,2850.3034,1414.2434,2850.3034,1414.2434,2930.575,1140.2434,2930.575,1140.2434,2808.3034" style="stroke: #000000; stroke-width: 3.0;"/><line style="stroke: #000000; stroke-width: 3.0;" x1="1140.2434" x2="1246.2434" y1="2850.3034" y2="2850.3034"/><text fill="#000000" font-family="sans-serif" font-size="28" lengthAdjust="spacingAndGlyphs" textLength="214" x="1160.2434" y="2894.2352">WordPress-Files</text><!--MD5=[9f7145901798a7118266a0e84948a32e]
entity bbPress--><rect fill="#FEFECE" height="98.1358" style="stroke: #A80036; stroke-width: 3.0;" width="188" x="491.2434" y="2291.3034"/><rect fill="#FEFECE" height="20" style="stroke: #A80036; stroke-width: 3.0;" width="30" x="639.2434" y="2301.3034"/><rect fill="#FEFECE" height="4" style="stroke: #A80036; stroke-width: 3.0;" width="8" x="635.2434" y="2305.3034"/><rect fill="#FEFECE" height="4" style="stroke: #A80036; stroke-width: 3.0;" width="8" x="635.2434" y="2313.3034"/><text fill="#000000" font-family="sans-serif" font-size="28" lengthAdjust="spacingAndGlyphs" textLength="108" x="521.2434" y="2361.2352">bbPress</text><!--MD5=[e20b7567269dd7225f0884ecbdf37555]
entity BuddyPress*--><rect fill="#FEFECE" height="98.1358" style="stroke: #A80036; stroke-width: 3.0;" width="254" x="750.2434" y="2291.3034"/><rect fill="#FEFECE" height="20" style="stroke: #A80036; stroke-width: 3.0;" width="30" x="964.2434" y="2301.3034"/><rect fill="#FEFECE" height="4" style="stroke: #A80036; stroke-width: 3.0;" width="8" x="960.2434" y="2305.3034"/><rect fill="#FEFECE" height="4" style="stroke: #A80036; stroke-width: 3.0;" width="8" x="960.2434" y="2313.3034"/><text fill="#000000" font-family="sans-serif" font-size="28" lengthAdjust="spacingAndGlyphs" textLength="174" x="780.2434" y="2361.2352">BuddyPress*</text><!--MD5=[1833ec68037e816bb92db43c282574ac]
entity TaskBreaker--><rect fill="#FEFECE" height="98.1358" style="stroke: #A80036; stroke-width: 3.0;" width="244" x="491.2434" y="2820.3034"/><rect fill="#FEFECE" height="20" style="stroke: #A80036; stroke-width: 3.0;" width="30" x="695.2434" y="2830.3034"/><rect fill="#FEFECE" height="4" style="stroke: #A80036; stroke-width: 3.0;" width="8" x="691.2434" y="2834.3034"/><rect fill="#FEFECE" height="4" style="stroke: #A80036; stroke-width: 3.0;" width="8" x="691.2434" y="2842.3034"/><text fill="#000000" font-family="sans-serif" font-size="28" lengthAdjust="spacingAndGlyphs" textLength="164" x="521.2434" y="2890.2352">TaskBreaker</text><!--MD5=[96553056188126bdc93422bc8f59f530]
entity TODO???--><rect fill="#FEFECE" height="98.1358" style="stroke: #A80036; stroke-width: 3.0;" width="196" x="805.2434" y="2820.3034"/><rect fill="#FEFECE" height="20" style="stroke: #A80036; stroke-width: 3.0;" width="30" x="961.2434" y="2830.3034"/><rect fill="#FEFECE" height="4" style="stroke: #A80036; stroke-width: 3.0;" width="8" x="957.2434" y="2834.3034"/><rect fill="#FEFECE" height="4" style="stroke: #A80036; stroke-width: 3.0;" width="8" x="957.2434" y="2842.3034"/><text fill="#000000" font-family="sans-serif" font-size="28" lengthAdjust="spacingAndGlyphs" textLength="116" x="835.2434" y="2890.2352">TODO???</text><!--MD5=[f96d10f7e1fdd0429d7c6002fb5377c2]
entity db_plattform--><path d="M1809.2434,2822.3034 C1809.2434,2802.3034 1921.2434,2802.3034 1921.2434,2802.3034 C1921.2434,2802.3034 2033.2434,2802.3034 2033.2434,2822.3034 L2033.2434,2916.575 C2033.2434,2936.575 1921.2434,2936.575 1921.2434,2936.575 C1921.2434,2936.575 1809.2434,2936.575 1809.2434,2916.575 L1809.2434,2822.3034 " fill="#FEFECE" style="stroke: #000000; stroke-width: 3.0;"/><path d="M1809.2434,2822.3034 C1809.2434,2842.3034 1921.2434,2842.3034 1921.2434,2842.3034 C1921.2434,2842.3034 2033.2434,2842.3034 2033.2434,2822.3034 " fill="none" style="stroke: #000000; stroke-width: 3.0;"/><text fill="#000000" font-family="sans-serif" font-size="28" font-style="italic" lengthAdjust="spacingAndGlyphs" textLength="144" x="1849.2434" y="2880.2352">«database»</text><text fill="#000000" font-family="sans-serif" font-size="28" lengthAdjust="spacingAndGlyphs" textLength="184" x="1829.2434" y="2918.3711">platform data</text><!--MD5=[d7c4842f713b7111f319033620a05650]
entity db_user--><path d="M1555.2434,2822.3034 C1555.2434,2802.3034 1647.2434,2802.3034 1647.2434,2802.3034 C1647.2434,2802.3034 1739.2434,2802.3034 1739.2434,2822.3034 L1739.2434,2916.575 C1739.2434,2936.575 1647.2434,2936.575 1647.2434,2936.575 C1647.2434,2936.575 1555.2434,2936.575 1555.2434,2916.575 L1555.2434,2822.3034 " fill="#FEFECE" style="stroke: #000000; stroke-width: 3.0;"/><path d="M1555.2434,2822.3034 C1555.2434,2842.3034 1647.2434,2842.3034 1647.2434,2842.3034 C1647.2434,2842.3034 1739.2434,2842.3034 1739.2434,2822.3034 " fill="none" style="stroke: #000000; stroke-width: 3.0;"/><text fill="#000000" font-family="sans-serif" font-size="28" font-style="italic" lengthAdjust="spacingAndGlyphs" textLength="144" x="1575.2434" y="2880.2352">«database»</text><text fill="#000000" font-family="sans-serif" font-size="28" lengthAdjust="spacingAndGlyphs" textLength="128" x="1583.2434" y="2918.3711">user data</text><!--MD5=[98be375b8ca3cc00d19155af4f671309]
entity lime--><rect fill="#FEFECE" height="136.2717" style="stroke: #A80036; stroke-width: 3.0;" width="312" x="2225.2434" y="2801.3034"/><rect fill="#FEFECE" height="20" style="stroke: #A80036; stroke-width: 3.0;" width="30" x="2497.2434" y="2811.3034"/><rect fill="#FEFECE" height="4" style="stroke: #A80036; stroke-width: 3.0;" width="8" x="2493.2434" y="2815.3034"/><rect fill="#FEFECE" height="4" style="stroke: #A80036; stroke-width: 3.0;" width="8" x="2493.2434" y="2823.3034"/><text fill="#000000" font-family="sans-serif" font-size="28" font-style="italic" lengthAdjust="spacingAndGlyphs" textLength="232" x="2255.2434" y="2871.2352">«Web-Framework»</text><text fill="#000000" font-family="sans-serif" font-size="28" lengthAdjust="spacingAndGlyphs" textLength="154" x="2294.2434" y="2909.3711">LimeSurvey</text><!--MD5=[13ba44324247c992f47ee7c3adccb3d8]
entity lime_db--><path d="M2289.2434,3195.3034 C2289.2434,3175.3034 2381.2434,3175.3034 2381.2434,3175.3034 C2381.2434,3175.3034 2473.2434,3175.3034 2473.2434,3195.3034 L2473.2434,3289.575 C2473.2434,3309.575 2381.2434,3309.575 2381.2434,3309.575 C2381.2434,3309.575 2289.2434,3309.575 2289.2434,3289.575 L2289.2434,3195.3034 " fill="#FEFECE" style="stroke: #000000; stroke-width: 3.0;"/><path d="M2289.2434,3195.3034 C2289.2434,3215.3034 2381.2434,3215.3034 2381.2434,3215.3034 C2381.2434,3215.3034 2473.2434,3215.3034 2473.2434,3195.3034 " fill="none" style="stroke: #000000; stroke-width: 3.0;"/><text fill="#000000" font-family="sans-serif" font-size="28" font-style="italic" lengthAdjust="spacingAndGlyphs" textLength="144" x="2309.2434" y="3253.2352">«database»</text><text fill="#000000" font-family="sans-serif" font-size="28" lengthAdjust="spacingAndGlyphs" textLength="116" x="2323.2434" y="3291.3711">MariaDB</text><!--MD5=[c731dae3dc4b384084c2fdb9c9034c66]
entity bbb--><rect fill="#FEFECE" height="136.2717" style="stroke: #A80036; stroke-width: 3.0;" width="312" x="3151.2434" y="2801.3034"/><rect fill="#FEFECE" height="20" style="stroke: #A80036; stroke-width: 3.0;" width="30" x="3423.2434" y="2811.3034"/><rect fill="#FEFECE" height="4" style="stroke: #A80036; stroke-width: 3.0;" width="8" x="3419.2434" y="2815.3034"/><rect fill="#FEFECE" height="4" style="stroke: #A80036; stroke-width: 3.0;" width="8" x="3419.2434" y="2823.3034"/><text fill="#000000" font-family="sans-serif" font-size="28" font-style="italic" lengthAdjust="spacingAndGlyphs" textLength="232" x="3181.2434" y="2871.2352">«Web-Framework»</text><text fill="#000000" font-family="sans-serif" font-size="28" lengthAdjust="spacingAndGlyphs" textLength="194" x="3200.2434" y="2909.3711">BigBlueButton</text><!--MD5=[8fc3522a43f8c7199df5e09e5bb0188e]
entity user--><ellipse cx="2913.2434" cy="3884.3034" fill="#FEFECE" rx="32" ry="32" style="stroke: #A80036; stroke-width: 3.0;"/><path d="M2913.2434,3924.3034 C2921.2434,3924.3034 2927.2434,3924.3034 2935.2434,3916.3034 C2951.2434,3916.3034 2967.2434,3932.3034 2967.2434,3948.3034 L2967.2434,3956.3034 C2967.2434,3964.3034 2959.2434,3972.3034 2951.2434,3972.3034 L2875.2434,3972.3034 C2867.2434,3972.3034 2859.2434,3964.3034 2859.2434,3956.3034 L2859.2434,3948.3034 C2859.2434,3932.3034 2875.2434,3916.3034 2891.2434,3916.3034 C2899.2434,3924.3034 2905.2434,3924.3034 2913.2434,3924.3034 " fill="#FEFECE" style="stroke: #A80036; stroke-width: 3.0;"/><text fill="#000000" font-family="sans-serif" font-size="28" lengthAdjust="spacingAndGlyphs" textLength="62" x="2882.2434" y="4005.2352">User</text><path d="M1653.2434,807.3034 L1653.2434,862.7154 L1745.2434,862.7154 L1745.2434,827.3034 L1725.2434,807.3034 L1653.2434,807.3034 " fill="#AAAAFF" style="stroke: #A80036; stroke-width: 2.0;"/><path d="M1725.2434,807.3034 L1725.2434,827.3034 L1745.2434,827.3034 L1725.2434,807.3034 " fill="#AAAAFF" style="stroke: #A80036; stroke-width: 2.0;"/><text fill="#000000" font-family="sans-serif" font-size="26" lengthAdjust="spacingAndGlyphs" textLength="50" x="1665.2434" y="845.0974">DPA</text><path d="M1115.2434,807.3034 L1115.2434,862.7154 L1207.2434,862.7154 L1207.2434,827.3034 L1187.2434,807.3034 L1115.2434,807.3034 " fill="#AAAAFF" style="stroke: #A80036; stroke-width: 2.0;"/><path d="M1187.2434,807.3034 L1187.2434,827.3034 L1207.2434,827.3034 L1187.2434,807.3034 " fill="#AAAAFF" style="stroke: #A80036; stroke-width: 2.0;"/><text fill="#000000" font-family="sans-serif" font-size="26" lengthAdjust="spacingAndGlyphs" textLength="50" x="1127.2434" y="845.0974">DPA</text><path d="M2605.2434,807.3034 L2605.2434,862.7154 L2697.2434,862.7154 L2697.2434,827.3034 L2677.2434,807.3034 L2605.2434,807.3034 " fill="#AAAAFF" style="stroke: #A80036; stroke-width: 2.0;"/><path d="M2677.2434,807.3034 L2677.2434,827.3034 L2697.2434,827.3034 L2677.2434,807.3034 " fill="#AAAAFF" style="stroke: #A80036; stroke-width: 2.0;"/><text fill="#000000" font-family="sans-serif" font-size="26" lengthAdjust="spacingAndGlyphs" textLength="50" x="2617.2434" y="845.0974">DPA</text><!--MD5=[7cf42eea8ccfc177cab0c6df00566878]
link wp to dbms--><path d="M1091.5413,2341.3817 C1091.8222,2341.3703 1092.1063,2341.359 1092.3938,2341.3478 C1092.9687,2341.3252 1093.5567,2341.303 1094.1575,2341.2811 C1095.3592,2341.2373 1096.6124,2341.195 1097.9154,2341.1548 C1100.5215,2341.0744 1103.3267,2341.0025 1106.3175,2340.9451 C1112.2992,2340.8303 1119.0233,2340.773 1126.3812,2340.8196 C1155.8127,2341.0059 1195.3846,2342.8534 1238.1409,2349.3234 C1323.6534,2362.2634 1421.9034,2393.6934 1477.2434,2467.3034 C1490.3934,2484.7934 1497.5559,2517.8996 1500.8815,2557.8768 C1502.5443,2577.8654 1503.2479,2599.5717 1503.2611,2621.9026 C1503.2677,2633.0681 1503.1017,2644.3897 1502.7967,2655.7307 C1502.6442,2661.4013 1502.457,2667.0767 1502.2392,2672.7399 C1502.1847,2674.1557 1502.1284,2675.5708 1502.0702,2676.9848 C1502.0411,2677.6918 1502.0115,2678.3985 1501.9815,2679.105 " fill="none" id="wp-to-dbms" style="stroke: #000000; stroke-width: 2.0;"/><polygon fill="#000000" points="1501.9815,2679.105,1510.7383,2661.4608,1502.406,2669.114,1494.7528,2660.7816,1501.9815,2679.105" style="stroke: #000000; stroke-width: 2.0;"/><!--MD5=[cca07670e30e52107cdaa95bdcd40b73]
link wp to wpfolder--><path d="M1091.6525,2384.9387 C1093.0465,2388.5614 1094.5154,2392.3789 1096.0537,2396.3768 C1108.3602,2428.3602 1125.1096,2471.8921 1143.4809,2519.6409 C1180.2234,2615.1384 1223.4534,2727.5034 1250.6034,2798.0834 " fill="none" id="wp-to-wpfolder" style="stroke: #000000; stroke-width: 2.0;"/><polygon fill="#000000" points="1254.4034,2807.9434,1255.3964,2788.2707,1250.8078,2798.6121,1240.4664,2794.0235,1254.4034,2807.9434" style="stroke: #000000; stroke-width: 2.0;"/><!--MD5=[5808ed5415be249f4ce946070b438bcd]
link lime to lime_db--><path d="M2381.2434,2938.1234 C2381.2434,3002.0034 2381.2434,3098.1634 2381.2434,3164.7834 " fill="none" id="lime-to-lime_db" style="stroke: #000000; stroke-width: 2.0;"/><polygon fill="#000000" points="2381.2434,3175.2234,2389.2434,3157.2234,2381.2434,3165.2234,2373.2434,3157.2234,2381.2434,3175.2234" style="stroke: #000000; stroke-width: 2.0;"/><!--MD5=[264fbeb4c787e161a62c307dd56b3276]
link wp to lime--><path d="M1091.5552,2345.036 C1092.2609,2345.1532 1092.9883,2345.274 1093.7371,2345.3983 C1095.2349,2345.6469 1096.8187,2345.9094 1098.4867,2346.1855 C1111.8302,2348.3942 1130.5602,2351.4707 1153.7284,2355.2143 C1200.0646,2362.7015 1264.1534,2372.8571 1338.4084,2384.0759 C1486.9184,2406.5134 1676.0934,2433.2034 1845.2434,2451.3034 C1893.9834,2456.5234 2021.9234,2444.3434 2065.2434,2467.3034 C2205.2034,2541.4834 2303.9434,2707.5034 2350.6634,2800.6434 " fill="none" id="wp-lime" style="stroke: #00AA00; stroke-width: 4.0;"/><path d="M1832.6862,2435.7368 A20,20 0 0 0 1829.6768 2463.8605" fill="#FFFFFF" style="stroke: #00AA00; stroke-width: 3.0;"/><ellipse cx="1845.2434" cy="2451.3034" fill="#FFFFFF" rx="12" ry="12" style="stroke: #00AA00; stroke-width: 3.0;"/><!--MD5=[5f3569dadbb7d91764bade3dadb2225a]
link wp to bbb--><path d="M1092.6067,2343.0915 C1093.4176,2343.1286 1094.2557,2343.167 1095.121,2343.2066 C1096.8515,2343.2859 1098.6902,2343.3701 1100.6354,2343.4593 C1116.1966,2344.1729 1138.567,2345.2028 1166.7824,2346.5129 C1223.2134,2349.133 1303.0246,2352.874 1398.5034,2357.4471 C1589.4609,2366.5934 1843.0884,2379.0684 2097.6834,2392.5634 C2606.8734,2419.5534 3119.9334,2450.6234 3143.2434,2467.3034 C3252.2034,2545.2634 3288.9434,2708.9834 3301.2034,2800.9634 " fill="none" id="wp-bbb" style="stroke: #00AA00; stroke-width: 4.0;"/><path d="M2084.3096,2377.6925 A20,20 0 0 0 2082.8125 2405.9371" fill="#FFFFFF" style="stroke: #00AA00; stroke-width: 3.0;"/><ellipse cx="2097.6834" cy="2392.5634" fill="#FFFFFF" rx="12" ry="12" style="stroke: #00AA00; stroke-width: 3.0;"/><!--MD5=[43fef3d11c192aa0a88d628b3eebaa00]
link wp to i_web--><path d="M1092.4771,2344.2676 C1092.9271,2344.3184 1093.3855,2344.3702 1093.8523,2344.4229 C1097.5866,2344.8446 1101.8583,2345.3259 1106.6446,2345.8634 C1125.7899,2348.0134 1153.1695,2351.0635 1187.3318,2354.8037 C1255.6565,2362.284 1351.1121,2372.5246 1462.0859,2383.8459 C1684.0334,2406.4884 1968.0534,2433.4534 2221.2434,2451.3034 C2259.8634,2454.0234 2534.5634,2450.1034 2569.2434,2467.3034 C2747.5434,2555.7634 2866.0634,2787.5834 2895.8634,2851.0434 " fill="none" id="wp-i_web" style="stroke: #A80036; stroke-width: 2.0; stroke-dasharray: 7.0,7.0;"/><!--MD5=[852cf93fdfc09389cd87830623d42458]
link lime to i_lime--><path d="M2420.6434,2938.1434 C2491.7034,3057.3634 2647.9034,3313.3434 2797.2434,3517.3034 C2831.1834,3563.6634 2875.5034,3614.8634 2898.2834,3640.5834 " fill="none" id="lime-i_lime" style="stroke: #A80036; stroke-width: 2.0; stroke-dasharray: 7.0,7.0;"/><!--MD5=[ba0020594d3db87e1e094c8a817d7300]
link bbb to i_bbb--><path d="M3268.3434,2937.6234 C3238.1634,2985.5434 3193.1634,3049.8834 3143.2434,3097.3034 C3077.5234,3159.7434 2981.0434,3211.5234 2941.3234,3231.4834 " fill="none" id="bbb-i_bbb" style="stroke: #A80036; stroke-width: 2.0; stroke-dasharray: 7.0,7.0;"/><!--MD5=[916fb375b8357f075b32922fdcb91ce5]
link umg to a_us--><path d="M1699.2434,698.6054 C1699.2434,707.3283 1699.2434,715.9099 1699.2434,724.2571 C1699.2434,757.6459 1699.2434,787.2834 1699.2434,807.2034 " fill="none" id="umg-a_us" style="stroke: #A80036; stroke-width: 2.0; stroke-dasharray: 7.0,7.0;"/><!--MD5=[6997ee9cb04b0574bc4b3d2005e4b463]
link a_us to s4p--><path d="M1708.1034,863.5834 C1719.4834,895.9434 1740.6634,952.1834 1765.2434,997.3034 C1800.5034,1062.0534 1847.5684,1130.1684 1886.2759,1182.6509 C1905.6296,1208.8921 1922.894,1231.2252 1935.5487,1247.2755 C1937.1305,1249.2818 1938.6403,1251.19 1940.0732,1252.9953 C1940.4314,1253.4466 1940.7848,1253.8915 1941.1333,1254.3299 " fill="none" id="a_us-to-s4p" style="stroke: #A80036; stroke-width: 2.0; stroke-dasharray: 7.0,7.0;"/><polygon fill="#A80036" points="1941.1333,1254.3299,1936.1944,1235.2614,1934.9104,1246.5021,1923.6698,1245.2181,1941.1333,1254.3299" style="stroke: #A80036; stroke-width: 2.0;"/><!--MD5=[7339e6ca21ba761044ccb6aba77ddd84]
link umg to a_un--><path d="M1682.8988,493.9364 C1682.2519,494.3573 1681.5874,494.7897 1680.9056,495.2334 C1669.9959,502.3321 1654.6471,512.3184 1636.0334,524.4284 C1598.8059,548.6484 1548.5184,581.3634 1494.5634,616.4634 C1386.6534,686.6634 1264.0734,766.4034 1201.9634,806.8034 " fill="none" id="umg-a_un" style="stroke: #A80036; stroke-width: 2.0; stroke-dasharray: 7.0,7.0;"/><!--MD5=[9fa15f41c5eba71b8841bb348f363064]
link a_un to netcup--><path d="M1114.9834,858.7034 C963.3034,931.6634 479.5834,1187.2034 283.2434,1563.3034 C203.8934,1715.2934 187.5234,1907.2134 191.1734,2062.0409 C192.0859,2100.7477 194.2496,2137.1363 196.9934,2170.0032 C198.3652,2186.4366 199.8821,2201.9896 201.4601,2216.5117 C201.8546,2220.1422 202.2529,2223.7083 202.6537,2227.2076 C202.7539,2228.0824 202.8543,2228.9531 202.9548,2229.8195 " fill="none" id="a_un-to-netcup" style="stroke: #A80036; stroke-width: 2.0; stroke-dasharray: 7.0,7.0;"/><polygon fill="#A80036" points="202.9548,2229.8195,208.8276,2211.0177,201.8026,2219.8861,192.9342,2212.8611,202.9548,2229.8195" style="stroke: #A80036; stroke-width: 2.0;"/><!--MD5=[2d73c405dc055b46790ba087183c6302]
link umg to a_ub--><path d="M1736.3901,697.9876 C1743.889,709.5699 1752.7609,720.1759 1763.2434,729.3034 C1827.3434,785.1034 2431.6234,821.5434 2604.9634,830.9034 " fill="none" id="umg-a_ub" style="stroke: #A80036; stroke-width: 2.0; stroke-dasharray: 7.0,7.0;"/><!--MD5=[f9614aa9d415bd2f719ee7d76ca26acb]
link a_ub to bbb_provider--><path d="M2670.7234,863.4834 C2780.0234,1011.7034 3320.5434,1764.0634 3565.2434,2467.3034 C3568.8834,2477.7646 3572.3177,2488.4527 3575.558,2499.3 " fill="none" id="a_ub-to-bbb_provider" style="stroke: #A80036; stroke-width: 2.0; stroke-dasharray: 7.0,7.0;"/><polygon fill="#A80036" points="3575.558,2499.3,3578.0714,2479.7633,3572.6958,2489.7184,3562.7408,2484.3428,3575.558,2499.3" style="stroke: #A80036; stroke-width: 2.0;"/><!--MD5=[c7784b2e21d0ca9313c80fde28ef0c60]
link ship to mps--><path d="M2128.7434,563.5634 C2115.8434,615.8034 2092.4234,682.6434 2051.2434,729.3034 C2018.2034,766.7434 488.9034,1523.1434 459.2434,1563.3034 C433.4334,1598.2584 411.5671,1663.5559 393.2762,1741.9924 C388.7035,1761.6016 384.3542,1782.0319 380.2226,1803.0146 C378.1568,1813.506 376.1454,1824.1354 374.1878,1834.8694 C373.6984,1837.5529 373.2123,1840.2429 372.7296,1842.9389 C372.4882,1844.2869 372.2477,1845.6364 372.008,1846.9874 " fill="none" id="ship-to-mps" style="stroke: #A80036; stroke-width: 2.0;"/><polygon fill="#A80036" points="372.008,1846.9874,383.0295,1830.6617,373.755,1837.1412,367.2755,1827.8666,372.008,1846.9874" style="stroke: #A80036; stroke-width: 2.0;"/><text fill="#000000" font-family="sans-serif" font-size="26" lengthAdjust="spacingAndGlyphs" textLength="104" x="1683.2434" y="953.0974">Adminis-</text><text fill="#000000" font-family="sans-serif" font-size="26" lengthAdjust="spacingAndGlyphs" textLength="82" x="1694.2434" y="988.5094">tration</text><!--MD5=[fff4ce1c990a36f9047cb0c016b2d9f8]
link ship to bbb_server--><path d="M2200.9234,486.5834 C2448.6034,502.1634 3409.2434,579.0434 3409.2434,833.3034 C3409.2434,833.3034 3409.2434,833.3034 3409.2434,2342.3034 C3409.2434,2409.7434 3472.2034,2403.9234 3495.2434,2467.3034 C3510.2584,2508.6084 3520.1846,2553.8084 3526.6174,2598.4849 C3528.2256,2609.6541 3529.6155,2620.7905 3530.812,2631.8252 C3531.4102,2637.3425 3531.9601,2642.8344 3532.4647,2648.2922 C3532.717,2651.0211 3532.958,2653.7415 3533.1881,2656.4523 C3533.3031,2657.8077 3533.4155,2659.1607 3533.5251,2660.5112 " fill="none" id="ship-to-bbb_server" style="stroke: #A80036; stroke-width: 2.0;"/><polygon fill="#A80036" points="3533.5251,2660.5112,3540.0424,2641.9229,3532.7159,2650.544,3524.0948,2643.2176,3533.5251,2660.5112" style="stroke: #A80036; stroke-width: 2.0;"/><text fill="#000000" font-family="sans-serif" font-size="26" lengthAdjust="spacingAndGlyphs" textLength="104" x="3411.2434" y="1269.0974">Adminis-</text><text fill="#000000" font-family="sans-serif" font-size="26" lengthAdjust="spacingAndGlyphs" textLength="82" x="3422.2434" y="1304.5094">tration</text><!--MD5=[146ac31a81dcf7247f718aff5916ad51]
link s4p_partner to wp--><path d="M2075.2034,1378.1034 C2058.5234,1404.8034 2039.3034,1432.9834 2019.2434,1457.3034 C1838.1334,1676.9634 1604.3934,1895.5034 1414.8134,2059.9734 C1320.0234,2142.2084 1236.2734,2210.9259 1175.6621,2259.5071 C1145.3565,2283.7977 1120.8356,2303.0543 1103.6117,2316.4495 C1099.3057,2319.7982 1095.4558,2322.7807 1092.0856,2325.3839 " fill="none" id="s4p_partner-to-wp" style="stroke: #A80036; stroke-width: 2.0;"/><polygon fill="#A80036" points="1092.0856,2325.3839,1111.2212,2320.7119,1099.9996,2319.271,1101.4406,2308.0494,1092.0856,2325.3839" style="stroke: #A80036; stroke-width: 2.0;"/><text fill="#000000" font-family="sans-serif" font-size="26" lengthAdjust="spacingAndGlyphs" textLength="104" x="1997.2434" y="1503.0974">Adminis-</text><text fill="#000000" font-family="sans-serif" font-size="26" lengthAdjust="spacingAndGlyphs" textLength="82" x="2008.2434" y="1538.5094">tration</text><!--MD5=[3cb7a05c2be10d670030bdc849a71b1d]
link s4p_partner to lime--><path d="M2146.8834,1377.7034 C2193.0034,1670.8834 2327.8634,2527.9834 2369.1034,2790.1834 " fill="none" id="s4p_partner-to-lime" style="stroke: #A80036; stroke-width: 2.0;"/><polygon fill="#A80036" points="2370.7634,2800.7434,2375.892,2781.725,2369.2213,2790.863,2360.0834,2784.1923,2370.7634,2800.7434" style="stroke: #A80036; stroke-width: 2.0;"/><text fill="#000000" font-family="sans-serif" font-size="26" lengthAdjust="spacingAndGlyphs" textLength="104" x="2307.2434" y="2333.0974">Adminis-</text><text fill="#000000" font-family="sans-serif" font-size="26" lengthAdjust="spacingAndGlyphs" textLength="82" x="2318.2434" y="2368.5094">tration</text><!--MD5=[b93c4206cee9011957949891b2cc86fb]
link i_web to i_bbb--><!--MD5=[5cd74230e2ae9df8a556e2435a37450c]
link i_bbb to i_lime--><!--MD5=[d320135e18d4819ab489a80e606b00fb]
reverse link i_web to user--><path d="M2919.9034,2896.0034 C2952.5834,2946.0634 3024.2234,3064.1434 3051.2434,3175.3034 C3113.8234,3432.7434 3158.6234,3524.9234 3061.2434,3771.3034 C3043.0034,3817.4434 3004.2234,3858.0034 2970.9434,3886.4834 " fill="none" id="i_web-backto-user" style="stroke: #A80036; stroke-width: 2.0;"/><polygon fill="#A80036" points="2914.2834,2887.4834,2917.4882,2906.9186,2919.7774,2895.8389,2930.8571,2898.1281,2914.2834,2887.4834" style="stroke: #A80036; stroke-width: 2.0;"/><!--MD5=[b580156ca5aa78714c03c8e7bd9b55b2]
reverse link i_bbb to user--><path d="M2907.3434,3269.8634 C2873.3834,3326.0834 2794.7234,3465.8034 2767.2434,3595.3034 C2751.0034,3671.8234 2738.7434,3698.4634 2767.2434,3771.3034 C2785.0634,3816.8634 2822.8834,3857.1634 2855.5634,3885.6634 " fill="none" id="i_bbb-backto-user" style="stroke: #A80036; stroke-width: 2.0;"/><polygon fill="#A80036" points="2912.7634,3260.9634,2896.5707,3272.1794,2907.5639,3269.5053,2910.2379,3280.4985,2912.7634,3260.9634" style="stroke: #A80036; stroke-width: 2.0;"/><!--MD5=[4be8e9c37ce665f48b41b367474d54ff]
reverse link i_lime to user--><path d="M2913.2434,3688.6234 C2913.2434,3726.0034 2913.2434,3794.7034 2913.2434,3849.1634 " fill="none" id="i_lime-backto-user" style="stroke: #A80036; stroke-width: 2.0;"/><polygon fill="#A80036" points="2913.2434,3678.0634,2905.2434,3696.0634,2913.2434,3688.0634,2921.2434,3696.0634,2913.2434,3678.0634" style="stroke: #A80036; stroke-width: 2.0;"/><!--MD5=[685d4c77146e4de69831589066018687]
link bbPress to BuddyPress*--><!--MD5=[d978cefa2092a887f55296fa2c0a6979]
link bbPress to TaskBreaker--><!--MD5=[1c051b0180945900d66b5aa8f40fc977]
link TaskBreaker to TODO???--><rect fill="#DDDDDD" height="96.2717" rx="10" ry="10" style="stroke: #000000; stroke-width: 2.0;" width="1006" x="1434.987" y="4036.2352"/><text fill="#000000" font-family="sans-serif" font-size="28" font-weight="bold" lengthAdjust="spacingAndGlyphs" textLength="102" x="1446.987" y="4076.1671">Legend</text><text fill="#000000" font-family="sans-serif" font-size="28" lengthAdjust="spacingAndGlyphs" textLength="982" x="1446.987" y="4114.3029">- DPA "Data Processing Agreement" - Auftragsverarbeitungsvertrag (AVV)</text><!--MD5=[0bab6774028ad970e3f714bbd1ba78aa]
@startuml

skinparam shadowing false
scale 2

title: Overview Platform (WIP)\njoinus4health.eu
header version: %date("dd.MM.yyyy")

skinparam actorStyle awesome
skinparam nodeBackgroundColor<<Server>> #ffccaa
skinparam rectangleBackgroundColor<<Partner>> #cccccc
skinparam rectangleBackgroundColor<<Provider>> #ddbbaa
skinparam componentBackgroundColor #fefece
skinparam databaseBackgroundColor #fefece

legend
**Legend**
- DPA "Data Processing Agreement" - Auftragsverarbeitungsvertrag (AVV)
end legend

actor "User" as user

rectangle "UMG\ncoordinator" as umg #ffcccc {
    rectangle "ICM SHIP-KEF" {
        actor "SHIP-IT" as ship
        actor "JoinUs4Health\nProject Manage-\nment Team" as umg_team
    }
}

rectangle "science4people.eu" <<Partner>> as s4p {
    actor "science4people\nPartner" as s4p_partner
}

cloud "Internet" {
    rectangle "netcup" <<Provider>> as netcup {
        node "Managed Private Server" <<Server>> as mps {
            node "Platform-Server" <<Server>> as platform_server {
                component "WordPress" <<Web-Framework>> as wp {
                    component "bbPress"
                    component "BuddyPress*"
                    component "TaskBreaker"
                    component "TODO???"
                }
                folder "WordPress-Files" as wpfolder
                database "DBMS MariaDB" as dbms {
                    database "platform data" <<database>> as db_plattform
                    database "user data" <<database>> as db_user
                }
                wp - -> dbms     #black
                wp - -> wpfolder #black
            }
            node "Questionnaire-Server" <<Server>> as lime_server {
                component "LimeSurvey" <<Web-Framework>> as lime
                database "MariaDB" <<database>> as lime_db
                
                lime    - ->     lime_db #black
            }
            
            wp      =(0=    lime    #00aa00
        }
    }
    rectangle "????" <<Provider>> as bbb_provider {
        node "Conference-Server" <<Server>> as bbb_server {
            component "BigBlueButton" <<Web-Framework>> as bbb
            
        }
    }
    wp     =(0=     bbb #00aa00

    interface "Conference" as i_bbb
    interface "Platform" as i_web
    interface "Questionnaire" as i_lime

    i_web   .u.     wp
    i_lime  .u.     lime
    i_bbb   .u.     bbb
}

note "DPA" as a_us #aaaaff
umg .. a_us
a_us ..> s4p
note "DPA" as a_un #aaaaff
umg .. a_un
a_un ..> netcup
note "DPA" as a_ub #aaaaff
umg .. a_ub
a_ub ..> bbb_provider

ship        - ->     mps         : Adminis-\ntration
ship        - ->     bbb_server  : Adminis-\ntration
s4p_partner - ->     wp          : Adminis-\ntration
s4p_partner - ->     lime        : Adminis-\ntration

i_web   -[hidden]-  i_bbb
i_bbb   -[hidden]-  i_lime

user    -u-> i_web
user    -u-> i_bbb
user    -u->  i_lime

@enduml

@startuml

skinparam shadowing false
scale 2

title: Overview Platform (WIP)\njoinus4health.eu
header version: 08.04.2022

skinparam actorStyle awesome
skinparam nodeBackgroundColor<<Server>> #ffccaa
skinparam rectangleBackgroundColor<<Partner>> #cccccc
skinparam rectangleBackgroundColor<<Provider>> #ddbbaa
skinparam componentBackgroundColor #fefece
skinparam databaseBackgroundColor #fefece

legend
**Legend**
- DPA "Data Processing Agreement" - Auftragsverarbeitungsvertrag (AVV)
end legend

actor "User" as user

rectangle "UMG\ncoordinator" as umg #ffcccc {
    rectangle "ICM SHIP-KEF" {
        actor "SHIP-IT" as ship
        actor "JoinUs4Health\nProject Manage-\nment Team" as umg_team
    }
}

rectangle "science4people.eu" <<Partner>> as s4p {
    actor "science4people\nPartner" as s4p_partner
}

cloud "Internet" {
    rectangle "netcup" <<Provider>> as netcup {
        node "Managed Private Server" <<Server>> as mps {
            node "Platform-Server" <<Server>> as platform_server {
                component "WordPress" <<Web-Framework>> as wp {
                    component "bbPress"
                    component "BuddyPress*"
                    component "TaskBreaker"
                    component "TODO???"
                }
                folder "WordPress-Files" as wpfolder
                database "DBMS MariaDB" as dbms {
                    database "platform data" <<database>> as db_plattform
                    database "user data" <<database>> as db_user
                }
                wp - -> dbms     #black
                wp - -> wpfolder #black
            }
            node "Questionnaire-Server" <<Server>> as lime_server {
                component "LimeSurvey" <<Web-Framework>> as lime
                database "MariaDB" <<database>> as lime_db
                
                lime    - ->     lime_db #black
            }
            
            wp      =(0=    lime    #00aa00
        }
    }
    rectangle "????" <<Provider>> as bbb_provider {
        node "Conference-Server" <<Server>> as bbb_server {
            component "BigBlueButton" <<Web-Framework>> as bbb
            
        }
    }
    wp     =(0=     bbb #00aa00

    interface "Conference" as i_bbb
    interface "Platform" as i_web
    interface "Questionnaire" as i_lime

    i_web   .u.     wp
    i_lime  .u.     lime
    i_bbb   .u.     bbb
}

note "DPA" as a_us #aaaaff
umg .. a_us
a_us ..> s4p
note "DPA" as a_un #aaaaff
umg .. a_un
a_un ..> netcup
note "DPA" as a_ub #aaaaff
umg .. a_ub
a_ub ..> bbb_provider

ship        - ->     mps         : Adminis-\ntration
ship        - ->     bbb_server  : Adminis-\ntration
s4p_partner - ->     wp          : Adminis-\ntration
s4p_partner - ->     lime        : Adminis-\ntration

i_web   -[hidden]-  i_bbb
i_bbb   -[hidden]-  i_lime

user    -u-> i_web
user    -u-> i_bbb
user    -u->  i_lime

@enduml

PlantUML version 1.2020.16(Sun Aug 23 22:20:43 CEST 2020)
(GPL source distribution)
Java Runtime: OpenJDK Runtime Environment
JVM: OpenJDK 64-Bit Server VM
Default Encoding: UTF-8
Language: en
Country: GB
--></g></svg>