<?xml version="1.0" encoding="UTF-8" standalone="no"?><svg xmlns="http://www.w3.org/2000/svg" xmlns:xlink="http://www.w3.org/1999/xlink" contentScriptType="application/ecmascript" contentStyleType="text/css" height="3922px" preserveAspectRatio="none" style="width:3518px;height:3922px;" version="1.1" viewBox="0 0 3518 3922" width="3518px" zoomAndPan="magnify"><defs/><g><text fill="#888888" font-family="sans-serif" font-size="20" lengthAdjust="spacingAndGlyphs" textLength="190" x="3292.66" y="18.5645">version: 19.01.2022</text><text fill="#000000" font-family="sans-serif" font-size="36" lengthAdjust="spacingAndGlyphs" textLength="448" x="1517.33" y="56.6973">Overview Platform (WIP)</text><text fill="#000000" font-family="sans-serif" font-size="36" lengthAdjust="spacingAndGlyphs" textLength="290" x="1596.33" y="98.6035">joinus4health.eu</text><!--MD5=[26c5d267d5640af9fd645d609f9318ff]
cluster umg--><rect fill="#FFCCCC" height="524" style="stroke: #000000; stroke-width: 3.0;" width="618" x="508" y="121.0938"/><text fill="#000000" font-family="sans-serif" font-size="28" font-weight="bold" lengthAdjust="spacingAndGlyphs" textLength="72" x="781" y="151.084">UMG</text><text fill="#000000" font-family="sans-serif" font-size="28" font-weight="bold" lengthAdjust="spacingAndGlyphs" textLength="184" x="725" y="183.6777">coordinator</text><!--MD5=[a5da4f68ede42b98d7b5f3a10e3ccc90]
cluster ICM SHIP-KEF--><rect fill="#FFCCCC" height="326" style="stroke: #000000; stroke-width: 3.0;" width="474" x="588" y="255.0938"/><text fill="#000000" font-family="sans-serif" font-size="28" font-weight="bold" lengthAdjust="spacingAndGlyphs" textLength="206" x="722" y="285.084">ICM SHIP-KEF</text><!--MD5=[d416a0175338ee00014ff4466993c423]
cluster s4p--><rect fill="#CCCCCC" height="358" style="stroke: #000000; stroke-width: 3.0;" width="356" x="2336" y="977.0938"/><text fill="#000000" font-family="sans-serif" font-size="28" font-style="italic" lengthAdjust="spacingAndGlyphs" textLength="134" x="2447" y="1007.084">«Partner»</text><text fill="#000000" font-family="sans-serif" font-size="28" font-weight="bold" lengthAdjust="spacingAndGlyphs" textLength="300" x="2364" y="1039.6777">science4people.eu</text><!--MD5=[07074073229a58b98d86dbf75a12e332]
cluster Internet--><path d="M201.5494,1524.4324 C263.2889,1408.0136 351.8554,1402.36 421.4741,1516.9306 C497.427,1402.3544 578.5195,1390.7548 665.8138,1504.81 C727.2867,1391.1793 832.3325,1390.4471 887.9492,1510.3796 C956.5553,1411.9706 1014.9304,1419.357 1078.2488,1515.5505 C1128.0605,1418.3129 1217.9659,1396.3774 1292.2822,1487.7415 C1382.6289,1376.1079 1465.1707,1387.6481 1536.5797,1507.7093 C1602.3656,1408.3175 1706.06,1407.1635 1767.0411,1513.1021 C1830.7888,1409.4864 1901.5058,1425.9009 1959.3496,1518.8773 C2023.0002,1407.6447 2133.6316,1402.403 2194.0552,1522.1563 C2244.6757,1410.8883 2325.8692,1409.6264 2400.7873,1496.8499 C2488.1688,1374.0529 2565.85,1367.0302 2648.1497,1501.7316 C2724.8427,1400.177 2791.0031,1394.0324 2867.7522,1501.6726 C2926.8606,1415.9241 3019.4648,1418.5578 3067.7762,1513.6172 C3127.7946,1390.6014 3231.2019,1390.9589 3296,1509.0938 C3307.3049,1508.7366 3310.6585,1517.1818 3304.4336,1525.7178 C3414.733,1587.1173 3416.7362,1688.855 3304.8614,1750.677 C3418.9072,1806.1367 3425.251,1881.9894 3333.5231,1964.9713 C3414.5933,2027.9657 3412.3743,2117.3875 3320.1198,2168.9953 C3420.3602,2224.7563 3406.2533,2304.9278 3314.9815,2355.4099 C3408.3565,2428.2346 3413.1734,2501.3496 3309.9616,2569.5663 C3425.2147,2637.8104 3414.1256,2727.5058 3306.5559,2792.3436 C3408.593,2849.2733 3400.3773,2952.2247 3304.9625,3007.6935 C3419.0182,3058.4566 3416.1005,3127.3886 3335.1872,3207.626 C3430.9281,3275.5345 3410.7282,3365.9229 3312.5398,3412.3814 C3406.69,3484.5219 3402.1359,3585.4323 3282,3627.0938 C3303.6502,3636.9955 3301.8054,3648.8444 3287.8533,3664.341 C3213.6366,3756.2918 3130.4386,3756.3548 3083.1885,3638.0869 C3017.1367,3737.0996 2939.0175,3740.4641 2873.691,3637.3351 C2805.1689,3761.0352 2698.7449,3744.8556 2629.4031,3638.2044 C2564.6982,3738.3263 2498.062,3733.4404 2425.4394,3646.8538 C2352.3038,3763.1393 2262.938,3739.5631 2193.0408,3643.3127 C2130.7529,3762.9368 2030.1221,3759.8592 1969.0544,3642.1611 C1921.0966,3756.1864 1814.7438,3774.8447 1743.5995,3665.5717 C1678.9778,3782.4779 1575.6176,3780.3673 1516.5056,3660.2919 C1442.8829,3738.7398 1373.1068,3735.1547 1317.4161,3639.756 C1272.5613,3763.6177 1160.1022,3741.9639 1097.4162,3658.6951 C1032.2995,3788.2379 920.0561,3756.7958 859.3059,3654.2161 C792.3138,3745.0573 730.8618,3742.5711 663.5291,3654.5889 C597.831,3743.0943 509.0291,3751.3431 445.4626,3652.113 C356.8747,3751.8276 228.3084,3739.607 172,3613.0938 C183.0065,3600.5066 192.6031,3601.9584 199.7039,3617.0089 C117.8311,3571.0273 85.0112,3506.1156 173.6978,3435.6735 C93.406,3370.2734 85.5366,3284.9005 184.0869,3228.4674 C78.1054,3163.2876 102.3924,3075.959 191.4283,3017.5678 C98.9401,2954.2424 65.872,2877.495 179.4906,2802.7176 C80.8121,2754.9 59.166,2659.8029 161.4585,2594.5745 C37.8109,2528.4123 44.1885,2417.7924 165.3115,2355.5762 C70.4755,2281.4779 76.8861,2211.3998 188.6342,2162.2197 C101.049,2087.8385 97.1248,2003.3096 199.8937,1938.5091 C112.2614,1870.7007 88.079,1788.3494 204.3022,1724.7451 C89.6427,1666.0038 83.8162,1571.1165 186,1495.0938 C204.1674,1498.1416 212.062,1506.1842 201.5494,1524.4324 " fill="#FFFFFF" style="stroke: #000000; stroke-width: 3.0;"/><text fill="#000000" font-family="sans-serif" font-size="28" font-weight="bold" lengthAdjust="spacingAndGlyphs" textLength="126" x="1671" y="1531.084">Internet</text><!--MD5=[fc7c9bc70f56de5c86322601a7f106c8]
cluster netcup--><rect fill="#DDBBAA" height="1998" style="stroke: #000000; stroke-width: 3.0;" width="2388" x="860" y="1581.0938"/><text fill="#000000" font-family="sans-serif" font-size="28" font-style="italic" lengthAdjust="spacingAndGlyphs" textLength="148" x="1980" y="1611.084">«Provider»</text><text fill="#000000" font-family="sans-serif" font-size="28" font-weight="bold" lengthAdjust="spacingAndGlyphs" textLength="110" x="1999" y="1643.6777">netcup</text><!--MD5=[a04d69009329426f82a4cda3340f9045]
cluster mps--><polygon fill="#FFCCAA" points="956,1751.0938,976,1731.0938,3168,1731.0938,3168,3479.0938,3148,3499.0938,956,3499.0938,956,1751.0938" style="stroke: #000000; stroke-width: 3.0;"/><line style="stroke: #000000; stroke-width: 3.0;" x1="3148" x2="3168" y1="1751.0938" y2="1731.0938"/><line style="stroke: #000000; stroke-width: 3.0;" x1="956" x2="3148" y1="1751.0938" y2="1751.0938"/><line style="stroke: #000000; stroke-width: 3.0;" x1="3148" x2="3148" y1="1751.0938" y2="3499.0938"/><text fill="#000000" font-family="sans-serif" font-size="28" font-style="italic" lengthAdjust="spacingAndGlyphs" textLength="126" x="1991" y="1783.084">«Server»</text><text fill="#000000" font-family="sans-serif" font-size="28" font-weight="bold" lengthAdjust="spacingAndGlyphs" textLength="378" x="1865" y="1815.6777">Managed Private Server</text><!--MD5=[a54cd0b4de8b8913c3bb58f3b7112d52]
cluster platform_server--><polygon fill="#FFCCAA" points="1036,1895.0938,1056,1875.0938,2836,1875.0938,2836,2817.0938,2816,2837.0938,1036,2837.0938,1036,1895.0938" style="stroke: #000000; stroke-width: 3.0;"/><line style="stroke: #000000; stroke-width: 3.0;" x1="2816" x2="2836" y1="1895.0938" y2="1875.0938"/><line style="stroke: #000000; stroke-width: 3.0;" x1="1036" x2="2816" y1="1895.0938" y2="1895.0938"/><line style="stroke: #000000; stroke-width: 3.0;" x1="2816" x2="2816" y1="1895.0938" y2="2837.0938"/><text fill="#000000" font-family="sans-serif" font-size="28" font-style="italic" lengthAdjust="spacingAndGlyphs" textLength="126" x="1865" y="1927.084">«Server»</text><text fill="#000000" font-family="sans-serif" font-size="28" font-weight="bold" lengthAdjust="spacingAndGlyphs" textLength="250" x="1803" y="1959.6777">Platform-Server</text><!--MD5=[d10c0fc188658aa905e9b53266af4542]
cluster wp--><rect fill="#FEFECE" height="738" style="stroke: #000000; stroke-width: 3.0;" width="658" x="1100" y="2019.0938"/><rect fill="#FEFECE" height="20" style="stroke: #000000; stroke-width: 3.0;" width="30" x="1718" y="2029.0938"/><rect fill="#FEFECE" height="4" style="stroke: #000000; stroke-width: 3.0;" width="8" x="1714" y="2033.0938"/><rect fill="#FEFECE" height="4" style="stroke: #000000; stroke-width: 3.0;" width="8" x="1714" y="2041.0938"/><text fill="#000000" font-family="sans-serif" font-size="28" font-style="italic" lengthAdjust="spacingAndGlyphs" textLength="262" x="1298" y="2071.084">«Web-Framework»</text><text fill="#000000" font-family="sans-serif" font-size="28" font-weight="bold" lengthAdjust="spacingAndGlyphs" textLength="174" x="1342" y="2103.6777">WordPress</text><!--MD5=[0ccfca756fad94035c3e173b9237d2d3]
cluster dbms--><path d="M2144,2505.0938 C2144,2485.0938 2458,2485.0938 2458,2485.0938 C2458,2485.0938 2772,2485.0938 2772,2505.0938 L2772,2753.0938 C2772,2773.0938 2458,2773.0938 2458,2773.0938 C2458,2773.0938 2144,2773.0938 2144,2753.0938 L2144,2505.0938 " fill="#FEFECE" style="stroke: #000000; stroke-width: 3.0;"/><path d="M2144,2505.0938 C2144,2525.0938 2458,2525.0938 2458,2525.0938 C2458,2525.0938 2772,2525.0938 2772,2505.0938 " fill="none" style="stroke: #000000; stroke-width: 3.0;"/><text fill="#000000" font-family="sans-serif" font-size="28" font-weight="bold" lengthAdjust="spacingAndGlyphs" textLength="204" x="2356" y="2555.084">DBMS MySQL</text><!--MD5=[b5fe8b70cd7277a7a7ef85d9f5bce651]
cluster lime_server--><polygon fill="#FFCCAA" points="2612,2923.0938,2632,2903.0938,3104,2903.0938,3104,3415.0938,3084,3435.0938,2612,3435.0938,2612,2923.0938" style="stroke: #000000; stroke-width: 3.0;"/><line style="stroke: #000000; stroke-width: 3.0;" x1="3084" x2="3104" y1="2923.0938" y2="2903.0938"/><line style="stroke: #000000; stroke-width: 3.0;" x1="2612" x2="3084" y1="2923.0938" y2="2923.0938"/><line style="stroke: #000000; stroke-width: 3.0;" x1="3084" x2="3084" y1="2923.0938" y2="3435.0938"/><text fill="#000000" font-family="sans-serif" font-size="28" font-style="italic" lengthAdjust="spacingAndGlyphs" textLength="126" x="2787" y="2955.084">«Server»</text><text fill="#000000" font-family="sans-serif" font-size="28" font-weight="bold" lengthAdjust="spacingAndGlyphs" textLength="340" x="2680" y="2987.6777">Questionnaire-Server</text><!--MD5=[7d64432051d8ad2067c4bd831a0c2179]
cluster bbb_provider--><rect fill="#DDBBAA" height="434" style="stroke: #000000; stroke-width: 3.0;" width="560" x="220" y="1891.0938"/><text fill="#000000" font-family="sans-serif" font-size="28" font-style="italic" lengthAdjust="spacingAndGlyphs" textLength="148" x="426" y="1921.084">«Provider»</text><text fill="#000000" font-family="sans-serif" font-size="28" font-weight="bold" lengthAdjust="spacingAndGlyphs" textLength="64" x="468" y="1953.6777">????</text><!--MD5=[e4d7b339e994a1720ab76b76544c4597]
cluster ???-Server--><polygon fill="#FFCCAA" points="300,2045.0938,320,2025.0938,716,2025.0938,716,2241.0938,696,2261.0938,300,2261.0938,300,2045.0938" style="stroke: #000000; stroke-width: 3.0;"/><line style="stroke: #000000; stroke-width: 3.0;" x1="696" x2="716" y1="2045.0938" y2="2025.0938"/><line style="stroke: #000000; stroke-width: 3.0;" x1="300" x2="696" y1="2045.0938" y2="2045.0938"/><line style="stroke: #000000; stroke-width: 3.0;" x1="696" x2="696" y1="2045.0938" y2="2261.0938"/><text fill="#000000" font-family="sans-serif" font-size="28" font-style="italic" lengthAdjust="spacingAndGlyphs" textLength="126" x="437" y="2077.084">«Server»</text><text fill="#000000" font-family="sans-serif" font-size="28" font-weight="bold" lengthAdjust="spacingAndGlyphs" textLength="166" x="417" y="2109.6777">???-Server</text><!--MD5=[3103861f95f0d7217426811062624cfa]
entity ship--><ellipse cx="972" cy="393.0938" fill="#FEFECE" rx="32" ry="32" style="stroke: #A80036; stroke-width: 3.0;"/><path d="M972,433.0938 C980,433.0938 986,433.0938 994,425.0938 C1010,425.0938 1026,441.0938 1026,457.0938 L1026,465.0938 C1026,473.0938 1018,481.0938 1010,481.0938 L934,481.0938 C926,481.0938 918,473.0938 918,465.0938 L918,457.0938 C918,441.0938 934,425.0938 950,425.0938 C958,433.0938 964,433.0938 972,433.0938 " fill="#FEFECE" style="stroke: #A80036; stroke-width: 3.0;"/><text fill="#000000" font-family="sans-serif" font-size="28" lengthAdjust="spacingAndGlyphs" textLength="96" x="924" y="510.084">SHIP-IT</text><!--MD5=[b08f2111fdc261dd0bfb2eacdde7049b]
entity umg_team--><ellipse cx="732" cy="360.0938" fill="#FEFECE" rx="32" ry="32" style="stroke: #A80036; stroke-width: 3.0;"/><path d="M732,400.0938 C740,400.0938 746,400.0938 754,392.0938 C770,392.0938 786,408.0938 786,424.0938 L786,432.0938 C786,440.0938 778,448.0938 770,448.0938 L694,448.0938 C686,448.0938 678,440.0938 678,432.0938 L678,424.0938 C678,408.0938 694,392.0938 710,392.0938 C718,400.0938 724,400.0938 732,400.0938 " fill="#FEFECE" style="stroke: #A80036; stroke-width: 3.0;"/><text fill="#000000" font-family="sans-serif" font-size="28" lengthAdjust="spacingAndGlyphs" textLength="190" x="620" y="477.084">JoinUs4Health</text><text fill="#000000" font-family="sans-serif" font-size="28" lengthAdjust="spacingAndGlyphs" textLength="224" x="620" y="509.6777">Project Manage-</text><text fill="#000000" font-family="sans-serif" font-size="28" lengthAdjust="spacingAndGlyphs" textLength="158" x="620" y="542.2715">ment Team</text><!--MD5=[db450b6175b1cf7e0741641dc58b6f7f]
entity s4p_partner--><ellipse cx="2534" cy="1130.0938" fill="#FEFECE" rx="32" ry="32" style="stroke: #A80036; stroke-width: 3.0;"/><path d="M2534,1170.0938 C2542,1170.0938 2548,1170.0938 2556,1162.0938 C2572,1162.0938 2588,1178.0938 2588,1194.0938 L2588,1202.0938 C2588,1210.0938 2580,1218.0938 2572,1218.0938 L2496,1218.0938 C2488,1218.0938 2480,1210.0938 2480,1202.0938 L2480,1194.0938 C2480,1178.0938 2496,1162.0938 2512,1162.0938 C2520,1170.0938 2526,1170.0938 2534,1170.0938 " fill="#FEFECE" style="stroke: #A80036; stroke-width: 3.0;"/><text fill="#000000" font-family="sans-serif" font-size="28" lengthAdjust="spacingAndGlyphs" textLength="222" x="2423" y="1247.084">science4people</text><text fill="#000000" font-family="sans-serif" font-size="28" lengthAdjust="spacingAndGlyphs" textLength="100" x="2423" y="1279.6777">Partner</text><!--MD5=[6bcb8a42b2cab2a46966951f62205111]
entity i_bbb--><ellipse cx="360" cy="3078.0938" fill="#FEFECE" rx="16" ry="16" style="stroke: #A80036; stroke-width: 4.0;"/><text fill="#000000" font-family="sans-serif" font-size="28" lengthAdjust="spacingAndGlyphs" textLength="162" x="279" y="3138.084">Conference</text><!--MD5=[51764780891d56c625808fe39e0f2680]
entity i_web--><ellipse cx="360" cy="2663.0938" fill="#FEFECE" rx="16" ry="16" style="stroke: #A80036; stroke-width: 4.0;"/><text fill="#000000" font-family="sans-serif" font-size="28" lengthAdjust="spacingAndGlyphs" textLength="112" x="304" y="2723.084">Platform</text><!--MD5=[ac446b10bf28a2765c1ed4904d1957ba]
entity i_lime--><ellipse cx="360" cy="3341.0938" fill="#FEFECE" rx="16" ry="16" style="stroke: #A80036; stroke-width: 4.0;"/><text fill="#000000" font-family="sans-serif" font-size="28" lengthAdjust="spacingAndGlyphs" textLength="194" x="263" y="3401.084">Questionnaire</text><!--MD5=[dcb6d21719f225a55bcaa6a673ddc41a]
entity ldap_server--><polygon fill="#FEFECE" points="2869,2620.0938,2889,2600.0938,3119,2600.0938,3119,2705.2813,3099,2725.2813,2869,2725.2813,2869,2620.0938" style="stroke: #000000; stroke-width: 3.0;"/><line style="stroke: #000000; stroke-width: 3.0;" x1="3099" x2="3119" y1="2620.0938" y2="2600.0938"/><line style="stroke: #000000; stroke-width: 3.0;" x1="2869" x2="3099" y1="2620.0938" y2="2620.0938"/><line style="stroke: #000000; stroke-width: 3.0;" x1="3099" x2="3099" y1="2620.0938" y2="2725.2813"/><text fill="#000000" font-family="sans-serif" font-size="28" font-style="italic" lengthAdjust="spacingAndGlyphs" textLength="126" x="2921" y="2666.084">«Server»</text><text fill="#000000" font-family="sans-serif" font-size="28" lengthAdjust="spacingAndGlyphs" textLength="170" x="2899" y="2698.6777">LDAP-Server</text><!--MD5=[fcbfd374278afc1cf141dd59657f7740]
entity wpfolder--><polygon fill="#FEFECE" points="1807,2607.0938,1899,2607.0938,1913,2649.0938,2089,2649.0938,2089,2718.2813,1807,2718.2813,1807,2607.0938" style="stroke: #000000; stroke-width: 3.0;"/><line style="stroke: #000000; stroke-width: 3.0;" x1="1807" x2="1913" y1="2649.0938" y2="2649.0938"/><text fill="#000000" font-family="sans-serif" font-size="28" lengthAdjust="spacingAndGlyphs" textLength="222" x="1827" y="2689.084">WordPress-Files</text><!--MD5=[9f7145901798a7118266a0e84948a32e]
entity bbPress--><rect fill="#FEFECE" height="92.5938" style="stroke: #A80036; stroke-width: 3.0;" width="194" x="1147" y="2137.0938"/><rect fill="#FEFECE" height="20" style="stroke: #A80036; stroke-width: 3.0;" width="30" x="1301" y="2147.0938"/><rect fill="#FEFECE" height="4" style="stroke: #A80036; stroke-width: 3.0;" width="8" x="1297" y="2151.0938"/><rect fill="#FEFECE" height="4" style="stroke: #A80036; stroke-width: 3.0;" width="8" x="1297" y="2159.0938"/><text fill="#000000" font-family="sans-serif" font-size="28" lengthAdjust="spacingAndGlyphs" textLength="114" x="1177" y="2203.084">bbPress</text><!--MD5=[e20b7567269dd7225f0884ecbdf37555]
entity BuddyPress*--><rect fill="#FEFECE" height="92.5938" style="stroke: #A80036; stroke-width: 3.0;" width="260" x="1412" y="2137.0938"/><rect fill="#FEFECE" height="20" style="stroke: #A80036; stroke-width: 3.0;" width="30" x="1632" y="2147.0938"/><rect fill="#FEFECE" height="4" style="stroke: #A80036; stroke-width: 3.0;" width="8" x="1628" y="2151.0938"/><rect fill="#FEFECE" height="4" style="stroke: #A80036; stroke-width: 3.0;" width="8" x="1628" y="2159.0938"/><text fill="#000000" font-family="sans-serif" font-size="28" lengthAdjust="spacingAndGlyphs" textLength="180" x="1442" y="2203.084">BuddyPress*</text><!--MD5=[1833ec68037e816bb92db43c282574ac]
entity TaskBreaker--><rect fill="#FEFECE" height="92.5938" style="stroke: #A80036; stroke-width: 3.0;" width="254" x="1149" y="2617.0938"/><rect fill="#FEFECE" height="20" style="stroke: #A80036; stroke-width: 3.0;" width="30" x="1363" y="2627.0938"/><rect fill="#FEFECE" height="4" style="stroke: #A80036; stroke-width: 3.0;" width="8" x="1359" y="2631.0938"/><rect fill="#FEFECE" height="4" style="stroke: #A80036; stroke-width: 3.0;" width="8" x="1359" y="2639.0938"/><text fill="#000000" font-family="sans-serif" font-size="28" lengthAdjust="spacingAndGlyphs" textLength="174" x="1179" y="2683.084">TaskBreaker</text><!--MD5=[96553056188126bdc93422bc8f59f530]
entity TODO???--><rect fill="#FEFECE" height="92.5938" style="stroke: #A80036; stroke-width: 3.0;" width="206" x="1473" y="2617.0938"/><rect fill="#FEFECE" height="20" style="stroke: #A80036; stroke-width: 3.0;" width="30" x="1639" y="2627.0938"/><rect fill="#FEFECE" height="4" style="stroke: #A80036; stroke-width: 3.0;" width="8" x="1635" y="2631.0938"/><rect fill="#FEFECE" height="4" style="stroke: #A80036; stroke-width: 3.0;" width="8" x="1635" y="2639.0938"/><text fill="#000000" font-family="sans-serif" font-size="28" lengthAdjust="spacingAndGlyphs" textLength="126" x="1503" y="2683.084">TODO???</text><!--MD5=[d7c4842f713b7111f319033620a05650]
entity db_user--><path d="M2521,2621.0938 C2521,2601.0938 2622,2601.0938 2622,2601.0938 C2622,2601.0938 2723,2601.0938 2723,2621.0938 L2723,2704.2813 C2723,2724.2813 2622,2724.2813 2622,2724.2813 C2622,2724.2813 2521,2724.2813 2521,2704.2813 L2521,2621.0938 " fill="#FEFECE" style="stroke: #000000; stroke-width: 3.0;"/><path d="M2521,2621.0938 C2521,2641.0938 2622,2641.0938 2622,2641.0938 C2622,2641.0938 2723,2641.0938 2723,2621.0938 " fill="none" style="stroke: #000000; stroke-width: 3.0;"/><text fill="#000000" font-family="sans-serif" font-size="28" font-style="italic" lengthAdjust="spacingAndGlyphs" textLength="162" x="2541" y="2675.084">«database»</text><text fill="#000000" font-family="sans-serif" font-size="28" lengthAdjust="spacingAndGlyphs" textLength="130" x="2557" y="2707.6777">user data</text><!--MD5=[f96d10f7e1fdd0429d7c6002fb5377c2]
entity db_plattform--><path d="M2230,2621.0938 C2230,2601.0938 2340,2601.0938 2340,2601.0938 C2340,2601.0938 2450,2601.0938 2450,2621.0938 L2450,2704.2813 C2450,2724.2813 2340,2724.2813 2340,2724.2813 C2340,2724.2813 2230,2724.2813 2230,2704.2813 L2230,2621.0938 " fill="#FEFECE" style="stroke: #000000; stroke-width: 3.0;"/><path d="M2230,2621.0938 C2230,2641.0938 2340,2641.0938 2340,2641.0938 C2340,2641.0938 2450,2641.0938 2450,2621.0938 " fill="none" style="stroke: #000000; stroke-width: 3.0;"/><text fill="#000000" font-family="sans-serif" font-size="28" font-style="italic" lengthAdjust="spacingAndGlyphs" textLength="162" x="2259" y="2675.084">«database»</text><text fill="#000000" font-family="sans-serif" font-size="28" lengthAdjust="spacingAndGlyphs" textLength="180" x="2250" y="2707.6777">platform data</text><!--MD5=[98be375b8ca3cc00d19155af4f671309]
entity lime--><rect fill="#FEFECE" height="125.1875" style="stroke: #A80036; stroke-width: 3.0;" width="342" x="2729" y="3015.0938"/><rect fill="#FEFECE" height="20" style="stroke: #A80036; stroke-width: 3.0;" width="30" x="3031" y="3025.0938"/><rect fill="#FEFECE" height="4" style="stroke: #A80036; stroke-width: 3.0;" width="8" x="3027" y="3029.0938"/><rect fill="#FEFECE" height="4" style="stroke: #A80036; stroke-width: 3.0;" width="8" x="3027" y="3037.0938"/><text fill="#000000" font-family="sans-serif" font-size="28" font-style="italic" lengthAdjust="spacingAndGlyphs" textLength="262" x="2759" y="3081.084">«Web-Framework»</text><text fill="#000000" font-family="sans-serif" font-size="28" lengthAdjust="spacingAndGlyphs" textLength="156" x="2812" y="3113.6777">LimeSurvey</text><!--MD5=[13ba44324247c992f47ee7c3adccb3d8]
entity lime_db--><path d="M2799,3299.0938 C2799,3279.0938 2900,3279.0938 2900,3279.0938 C2900,3279.0938 3001,3279.0938 3001,3299.0938 L3001,3382.2813 C3001,3402.2813 2900,3402.2813 2900,3402.2813 C2900,3402.2813 2799,3402.2813 2799,3382.2813 L2799,3299.0938 " fill="#FEFECE" style="stroke: #000000; stroke-width: 3.0;"/><path d="M2799,3299.0938 C2799,3319.0938 2900,3319.0938 2900,3319.0938 C2900,3319.0938 3001,3319.0938 3001,3299.0938 " fill="none" style="stroke: #000000; stroke-width: 3.0;"/><text fill="#000000" font-family="sans-serif" font-size="28" font-style="italic" lengthAdjust="spacingAndGlyphs" textLength="162" x="2819" y="3353.084">«database»</text><text fill="#000000" font-family="sans-serif" font-size="28" lengthAdjust="spacingAndGlyphs" textLength="92" x="2854" y="3385.6777">MySQL</text><!--MD5=[c731dae3dc4b384084c2fdb9c9034c66]
entity bbb--><rect fill="#FEFECE" height="92.5938" style="stroke: #A80036; stroke-width: 3.0;" width="352" x="332" y="2137.0938"/><rect fill="#FEFECE" height="20" style="stroke: #A80036; stroke-width: 3.0;" width="30" x="644" y="2147.0938"/><rect fill="#FEFECE" height="4" style="stroke: #A80036; stroke-width: 3.0;" width="8" x="640" y="2151.0938"/><rect fill="#FEFECE" height="4" style="stroke: #A80036; stroke-width: 3.0;" width="8" x="640" y="2159.0938"/><text fill="#000000" font-family="sans-serif" font-size="28" lengthAdjust="spacingAndGlyphs" textLength="272" x="362" y="2203.084">Conference System</text><!--MD5=[8fc3522a43f8c7199df5e09e5bb0188e]
entity user--><ellipse cx="66" cy="3034.0938" fill="#FEFECE" rx="32" ry="32" style="stroke: #A80036; stroke-width: 3.0;"/><path d="M66,3074.0938 C74,3074.0938 80,3074.0938 88,3066.0938 C104,3066.0938 120,3082.0938 120,3098.0938 L120,3106.0938 C120,3114.0938 112,3122.0938 104,3122.0938 L28,3122.0938 C20,3122.0938 12,3114.0938 12,3106.0938 L12,3098.0938 C12,3082.0938 28,3066.0938 44,3066.0938 C52,3074.0938 58,3074.0938 66,3074.0938 " fill="#FEFECE" style="stroke: #A80036; stroke-width: 3.0;"/><text fill="#000000" font-family="sans-serif" font-size="28" lengthAdjust="spacingAndGlyphs" textLength="64" x="34" y="3151.084">User</text><path d="M1980,755.0938 L1980,805.3594 L2076,805.3594 L2076,775.0938 L2056,755.0938 L1980,755.0938 " fill="#AAAAFF" style="stroke: #A80036; stroke-width: 2.0;"/><path d="M2056,755.0938 L2056,775.0938 L2076,775.0938 L2056,755.0938 " fill="#AAAAFF" style="stroke: #A80036; stroke-width: 2.0;"/><text fill="#000000" font-family="sans-serif" font-size="26" lengthAdjust="spacingAndGlyphs" textLength="54" x="1992" y="789.2275">DPA</text><path d="M744,755.0938 L744,805.3594 L840,805.3594 L840,775.0938 L820,755.0938 L744,755.0938 " fill="#AAAAFF" style="stroke: #A80036; stroke-width: 2.0;"/><path d="M820,755.0938 L820,775.0938 L840,775.0938 L820,755.0938 " fill="#AAAAFF" style="stroke: #A80036; stroke-width: 2.0;"/><text fill="#000000" font-family="sans-serif" font-size="26" lengthAdjust="spacingAndGlyphs" textLength="54" x="756" y="789.2275">DPA</text><path d="M364,755.0938 L364,805.3594 L460,805.3594 L460,775.0938 L440,755.0938 L364,755.0938 " fill="#AAAAFF" style="stroke: #A80036; stroke-width: 2.0;"/><path d="M440,755.0938 L440,775.0938 L460,775.0938 L440,755.0938 " fill="#AAAAFF" style="stroke: #A80036; stroke-width: 2.0;"/><text fill="#000000" font-family="sans-serif" font-size="26" lengthAdjust="spacingAndGlyphs" textLength="54" x="376" y="789.2275">DPA</text><!--MD5=[7cf42eea8ccfc177cab0c6df00566878]
link wp to dbms--><path d="M1758.1106,2361.3309 C1758.5231,2361.4622 1758.9474,2361.5907 1759.3834,2361.7166 C1760.2553,2361.9683 1761.1736,2362.2094 1762.1366,2362.4402 C1764.0627,2362.9018 1766.1676,2363.3223 1768.4378,2363.7047 C1777.5184,2365.2345 1789.2423,2366.1552 1802.7359,2366.6616 C1829.7231,2367.6744 1863.7887,2367.03 1897.9425,2366.2863 C1966.25,2364.7988 2034.91,2362.9138 2048,2373.0938 C2071.52,2391.3737 2045.76,2417.2538 2068,2437.0938 C2096.36,2462.3737 2127.22,2424.2938 2152,2453.0938 C2159.425,2461.7238 2165.1438,2471.3791 2169.4638,2481.6767 C2169.7338,2482.3203 2169.9983,2482.9664 2170.2574,2483.615 C2170.387,2483.9392 2170.5152,2484.2641 2170.6421,2484.5896 " fill="none" id="wp-to-dbms" style="stroke: #A80036; stroke-width: 2.0;"/><polygon fill="#A80036" points="2170.6421,2484.5896,2171.5573,2464.9131,2167.0097,2475.2726,2156.6502,2470.725,2170.6421,2484.5896" style="stroke: #A80036; stroke-width: 2.0;"/><!--MD5=[cca07670e30e52107cdaa95bdcd40b73]
link wp to wpfolder--><path d="M1758.0167,2379.7642 C1758.1545,2380.1231 1758.2928,2380.482 1758.4315,2380.8408 C1758.709,2381.5585 1758.9884,2382.2759 1759.2696,2382.9931 C1760.3946,2385.8618 1761.5496,2388.7266 1762.733,2391.5864 C1767.4666,2403.0255 1772.6545,2414.3855 1778.1916,2425.6034 C1789.2656,2448.0394 1801.7363,2469.9075 1814.7625,2490.7063 C1840.815,2532.3038 1869.09,2569.6237 1892.86,2598.6538 " fill="none" id="wp-to-wpfolder" style="stroke: #A80036; stroke-width: 2.0;"/><polygon fill="#A80036" points="1899.74,2606.9738,1894.4456,2588.0009,1893.3719,2599.2635,1882.1093,2598.1898,1899.74,2606.9738" style="stroke: #A80036; stroke-width: 2.0;"/><!--MD5=[5808ed5415be249f4ce946070b438bcd]
link lime to lime_db--><path d="M2900,3141.4738 C2900,3179.6538 2900,3228.8538 2900,3268.6338 " fill="none" id="lime-to-lime_db" style="stroke: #A80036; stroke-width: 2.0;"/><polygon fill="#A80036" points="2900,3279.0538,2908,3261.0538,2900,3269.0538,2892,3261.0538,2900,3279.0538" style="stroke: #A80036; stroke-width: 2.0;"/><!--MD5=[ef3fe0051b64954f42195853355a5453]
reverse link ldap_server to lime--><path d="M2977.56,2736.9338 C2959.56,2815.6538 2931,2940.5538 2914.02,3014.8138 " fill="none" id="ldap_server-backto-lime" style="stroke: #A80036; stroke-width: 2.0;"/><polygon fill="#A80036" points="2979.92,2726.6338,2968.1078,2742.3967,2977.6902,2736.382,2983.7049,2745.9644,2979.92,2726.6338" style="stroke: #A80036; stroke-width: 2.0;"/><!--MD5=[780a36022eaba690baadc18e104f7e3c]
link wp to ldap_server--><path d="M1758.5405,2360.034 C1758.7568,2360.0773 1758.9766,2360.1204 1759.2,2360.1634 C1759.6468,2360.2493 1760.1079,2360.3346 1760.5831,2360.4193 C1762.4837,2360.7581 1764.6087,2361.0869 1766.9412,2361.4062 C1776.2713,2362.6834 1788.92,2363.8073 1803.795,2364.7997 C1833.545,2366.7844 1872.2,2368.2425 1911.02,2369.3463 C1988.66,2371.5538 2066.96,2372.3438 2076,2373.0938 C2379.26,2398.3538 2477.86,2329.6538 2756,2453.0938 C2826.94,2484.5738 2892.14,2544.7538 2936.28,2592.3138 " fill="none" id="wp-to-ldap_server" style="stroke: #A80036; stroke-width: 2.0;"/><polygon fill="#A80036" points="2943.2,2599.8338,2936.9539,2581.1526,2936.4505,2592.4551,2925.148,2591.9517,2943.2,2599.8338" style="stroke: #A80036; stroke-width: 2.0;"/><!--MD5=[15f4e41fd10d78d74f0c8848f0967b3d]
link bbb to ldap_server--><path d="M574.14,2229.2938 C639.6,2270.4738 744.2,2329.5338 844,2357.0938 C1366.08,2501.2538 1518.92,2413.0938 2060,2437.0938 C2098.64,2438.8138 2719.94,2439.0938 2756,2453.0938 C2829.32,2481.5738 2895.14,2543.3737 2938.88,2592.2538 " fill="none" id="bbb-to-ldap_server" style="stroke: #A80036; stroke-width: 2.0;"/><polygon fill="#A80036" points="2945.7,2599.9738,2939.7564,2581.1942,2939.0706,2592.4871,2927.7777,2591.8013,2945.7,2599.9738" style="stroke: #A80036; stroke-width: 2.0;"/><!--MD5=[43fef3d11c192aa0a88d628b3eebaa00]
link wp to i_web--><path d="M1099.9405,2370.8301 C1096.817,2370.8533 1093.7851,2370.8797 1090.8493,2370.9096 C1084.9777,2370.9693 1079.4902,2371.0429 1074.4222,2371.1323 C1054.1503,2371.49 1040.59,2372.1012 1036,2373.0938 C759.84,2432.8737 455.5,2604.8138 378.48,2650.0738 " fill="none" id="wp-i_web" style="stroke: #A80036; stroke-width: 2.0; stroke-dasharray: 7.0,7.0;"/><!--MD5=[852cf93fdfc09389cd87830623d42458]
link lime to i_lime--><path d="M2772.44,3141.2138 C2755.76,3147.4338 2738.66,3152.9738 2722,3157.0938 C2240.92,3276.1538 572.32,3332.3338 378.42,3338.5138 " fill="none" id="lime-i_lime" style="stroke: #A80036; stroke-width: 2.0; stroke-dasharray: 7.0,7.0;"/><!--MD5=[ba0020594d3db87e1e094c8a817d7300]
link bbb to i_bbb--><path d="M511.22,2229.7938 C517.82,2338.5738 527.58,2624.8938 468,2853.0938 C446.48,2935.4938 393.64,3023.8338 370.8,3059.6338 " fill="none" id="bbb-i_bbb" style="stroke: #A80036; stroke-width: 2.0; stroke-dasharray: 7.0,7.0;"/><!--MD5=[916fb375b8357f075b32922fdcb91ce5]
link umg to a_us--><path d="M559.9494,645.3126 C560.4048,646.0116 560.8654,646.7068 561.3313,647.3981 C568.7859,658.4594 577.5975,668.5238 588,677.0938 C615.5,699.7537 1731.34,761.8938 1979.46,775.4538 " fill="none" id="umg-a_us" style="stroke: #A80036; stroke-width: 2.0; stroke-dasharray: 7.0,7.0;"/><!--MD5=[6997ee9cb04b0574bc4b3d2005e4b463]
link a_us to s4p--><path d="M2046.34,805.1338 C2080.08,847.5138 2154.655,941.1888 2221.6925,1025.3987 C2255.2113,1067.5037 2286.8456,1107.2425 2310.5491,1137.02 C2316.4749,1144.4644 2321.9051,1151.2862 2326.7451,1157.3667 C2329.1651,1160.407 2331.4376,1163.262 2333.5507,1165.9168 C2334.079,1166.5805 2334.5973,1167.2317 2335.1055,1167.8701 C2335.3596,1168.1893 2335.6111,1168.5054 2335.8601,1168.8182 " fill="none" id="a_us-to-s4p" style="stroke: #A80036; stroke-width: 2.0; stroke-dasharray: 7.0,7.0;"/><polygon fill="#A80036" points="2335.8601,1168.8182,2330.9098,1149.7527,2329.6325,1160.9941,2318.3912,1159.7168,2335.8601,1168.8182" style="stroke: #A80036; stroke-width: 2.0;"/><!--MD5=[7339e6ca21ba761044ccb6aba77ddd84]
link umg to a_un--><path d="M566.8278,645.383 C567.2373,646.1334 567.6507,646.8812 568.068,647.6264 C568.9026,649.1169 569.7529,650.5967 570.6192,652.0651 C572.3518,655.0021 574.1482,657.8934 576.0108,660.7328 C579.7361,666.4116 583.7262,671.8825 588,677.0938 C627.84,725.6737 696.9,752.8738 743.5,766.5138 " fill="none" id="umg-a_un" style="stroke: #A80036; stroke-width: 2.0; stroke-dasharray: 7.0,7.0;"/><!--MD5=[9fa15f41c5eba71b8841bb348f363064]
link a_un to netcup--><path d="M793.38,805.2137 C798.8,895.4537 819.175,1234.7737 838.3325,1553.8313 C843.1219,1633.5956 847.8352,1712.0936 852.2196,1785.1167 C854.4119,1821.6282 856.5219,1856.771 858.5182,1890.0191 C859.0173,1898.3311 859.5092,1906.5247 859.9936,1914.5916 " fill="none" id="a_un-to-netcup" style="stroke: #A80036; stroke-width: 2.0; stroke-dasharray: 7.0,7.0;"/><polygon fill="#A80036" points="859.9936,1914.5916,866.9004,1896.1445,859.3942,1904.6096,850.9292,1897.1035,859.9936,1914.5916" style="stroke: #A80036; stroke-width: 2.0;"/><!--MD5=[2d73c405dc055b46790ba087183c6302]
link umg to a_ub--><path d="M507.9965,487.5308 C507.8656,487.9269 507.7341,488.3249 507.602,488.7246 C507.3379,489.5241 507.0713,490.3309 506.8024,491.1448 C505.7268,494.4005 504.6135,497.7698 503.4666,501.2412 C501.1727,508.184 498.7439,515.5352 496.2109,523.2018 C491.1448,538.535 485.6619,555.13 480.0075,572.2438 C457.39,640.6988 432.03,717.4538 419.64,754.9538 " fill="none" id="umg-a_ub" style="stroke: #A80036; stroke-width: 2.0; stroke-dasharray: 7.0,7.0;"/><!--MD5=[f9614aa9d415bd2f719ee7d76ca26acb]
link a_ub to bbb_provider--><path d="M407.5,805.5338 C390.96,892.3337 332.82,1203.9538 300,1463.0938 C290.095,1541.3138 281.1888,1624.5188 273.3897,1705.5178 C269.4902,1746.0173 265.8674,1785.9654 262.535,1824.4631 C260.8688,1843.7119 259.2752,1862.5982 257.7559,1881.0095 C257.566,1883.3109 257.3773,1885.6049 257.1897,1887.8913 " fill="none" id="a_ub-to-bbb_provider" style="stroke: #A80036; stroke-width: 2.0; stroke-dasharray: 7.0,7.0;"/><polygon fill="#A80036" points="257.1897,1887.8913,266.6348,1870.6057,258.0074,1877.9248,250.6884,1869.2974,257.1897,1887.8913" style="stroke: #A80036; stroke-width: 2.0;"/><!--MD5=[c7784b2e21d0ca9313c80fde28ef0c60]
link ship to mps--><path d="M972,516.1937 C972,683.4437 972,1094.4987 972,1466.2962 C972,1512.7709 972,1558.6322 972,1603.3273 C972,1625.6748 972,1647.7307 972,1669.426 C972,1680.2737 972,1691.0311 972,1701.6898 C972,1707.0191 972,1712.3238 972,1717.6026 C972,1720.242 972,1722.875 972,1725.5014 " fill="none" id="ship-to-mps" style="stroke: #A80036; stroke-width: 2.0;"/><polygon fill="#A80036" points="972,1725.5014,980,1707.5014,972,1715.5014,964,1707.5014,972,1725.5014" style="stroke: #A80036; stroke-width: 2.0;"/><text fill="#000000" font-family="sans-serif" font-size="26" lengthAdjust="spacingAndGlyphs" textLength="112" x="974" y="891.2275">Adminis-</text><text fill="#000000" font-family="sans-serif" font-size="26" lengthAdjust="spacingAndGlyphs" textLength="84" x="988" y="921.4932">tration</text><!--MD5=[fb49174e3b63624fb852d26317662dc8]
link ship to bbb--><path d="M957.94,516.3538 C945.18,567.3538 921.74,632.7137 880,677.0938 C823.04,737.6538 767.78,695.3137 710,755.0938 C673.18,793.1937 677.48,813.8337 664,865.0938 C538.56,1342.3337 513.8,1943.6338 509.08,2126.1338 " fill="none" id="ship-to-bbb" style="stroke: #A80036; stroke-width: 2.0;"/><polygon fill="#A80036" points="508.82,2136.5338,517.2304,2118.7218,509.0492,2126.5364,501.2346,2118.3551,508.82,2136.5338" style="stroke: #A80036; stroke-width: 2.0;"/><text fill="#000000" font-family="sans-serif" font-size="26" lengthAdjust="spacingAndGlyphs" textLength="112" x="666" y="891.2275">Adminis-</text><text fill="#000000" font-family="sans-serif" font-size="26" lengthAdjust="spacingAndGlyphs" textLength="84" x="680" y="921.4932">tration</text><!--MD5=[146ac31a81dcf7247f718aff5916ad51]
link s4p_partner to wp--><path d="M2489.86,1287.5338 C2471.22,1317.5738 2446.64,1347.9338 2416,1367.0938 C2162.46,1525.6938 1947.06,1238.1338 1750,1463.0938 C1723.92,1492.8638 1721.745,1669.8038 1726.1775,1840.5663 C1727.2856,1883.2569 1728.8067,1925.5614 1730.4705,1965.0838 C1730.8865,1974.9644 1731.3113,1984.6711 1731.7409,1994.1665 C1731.9557,1998.9142 1732.1716,2003.609 1732.3882,2008.2464 C1732.4965,2010.5651 1732.605,2012.8694 1732.7135,2015.1587 C1732.7678,2016.3034 1732.8221,2017.4443 1732.8764,2018.5814 " fill="none" id="s4p_partner-to-wp" style="stroke: #A80036; stroke-width: 2.0;"/><polygon fill="#A80036" points="1732.8764,2018.5814,1740.0085,2000.2202,1732.3993,2008.5928,1724.0267,2000.9836,1732.8764,2018.5814" style="stroke: #A80036; stroke-width: 2.0;"/><text fill="#000000" font-family="sans-serif" font-size="26" lengthAdjust="spacingAndGlyphs" textLength="112" x="2386" y="1409.2275">Adminis-</text><text fill="#000000" font-family="sans-serif" font-size="26" lengthAdjust="spacingAndGlyphs" textLength="84" x="2400" y="1439.4932">tration</text><!--MD5=[3cb7a05c2be10d670030bdc849a71b1d]
link s4p_partner to lime--><path d="M2645.52,1205.3938 C2790.8,1228.0738 3039.48,1291.1538 3152,1463.0938 C3494.66,1986.7138 3420.78,2305.9738 3152,2871.0938 C3124.76,2928.3938 3072.8,2974.9138 3023.1,3009.0738 " fill="none" id="s4p_partner-to-lime" style="stroke: #A80036; stroke-width: 2.0;"/><polygon fill="#A80036" points="3014.5,3014.8737,3033.9011,3011.4685,3022.7984,3009.2938,3024.9732,2998.1911,3014.5,3014.8737" style="stroke: #A80036; stroke-width: 2.0;"/><text fill="#000000" font-family="sans-serif" font-size="26" lengthAdjust="spacingAndGlyphs" textLength="112" x="3348" y="2399.2275">Adminis-</text><text fill="#000000" font-family="sans-serif" font-size="26" lengthAdjust="spacingAndGlyphs" textLength="84" x="3362" y="2429.4932">tration</text><!--MD5=[7a709eb06f2bd41125f47d4632756efa]
link s4p_partner to ldap_server--><path d="M2563.48,1287.1538 C2649.04,1560.2337 2896.18,2348.9537 2971.78,2590.1538 " fill="none" id="s4p_partner-to-ldap_server" style="stroke: #A80036; stroke-width: 2.0;"/><polygon fill="#A80036" points="2974.82,2599.8737,2977.1069,2580.3092,2971.847,2590.3259,2961.8304,2585.066,2974.82,2599.8737" style="stroke: #A80036; stroke-width: 2.0;"/><text fill="#000000" font-family="sans-serif" font-size="26" lengthAdjust="spacingAndGlyphs" textLength="112" x="2896" y="2177.2275">Adminis-</text><text fill="#000000" font-family="sans-serif" font-size="26" lengthAdjust="spacingAndGlyphs" textLength="84" x="2910" y="2207.4932">tration</text><!--MD5=[b93c4206cee9011957949891b2cc86fb]
link i_web to i_bbb--><!--MD5=[5cd74230e2ae9df8a556e2435a37450c]
link i_bbb to i_lime--><!--MD5=[d320135e18d4819ab489a80e606b00fb]
reverse link i_web to user--><path d="M333.92,2688.5338 C292.3,2726.9138 210.08,2806.9738 156,2887.0938 C132.62,2921.7338 112.08,2963.3938 96.56,2998.7738 " fill="none" id="i_web-backto-user" style="stroke: #A80036; stroke-width: 2.0;"/><polygon fill="#A80036" points="341.68,2681.4138,323.012,2687.6992,334.3156,2688.1787,333.836,2699.4823,341.68,2681.4138" style="stroke: #A80036; stroke-width: 2.0;"/><!--MD5=[b580156ca5aa78714c03c8e7bd9b55b2]
reverse link i_bbb to user--><path d="M341.78,3078.0938 C300.62,3078.0938 190.6,3078.0938 123.22,3078.0938 " fill="none" id="i_bbb-backto-user" style="stroke: #A80036; stroke-width: 2.0;"/><polygon fill="#A80036" points="341.78,3078.0938,323.78,3070.0938,331.78,3078.0938,323.78,3086.0938,341.78,3078.0938" style="stroke: #A80036; stroke-width: 2.0;"/><!--MD5=[421c93b4e314492810376df626a3e14e]
link user to i_lime--><path d="M123.38,3130.6538 C187.2,3186.8737 287.46,3275.1938 334.3,3316.4538 " fill="none" id="user-to-i_lime" style="stroke: #A80036; stroke-width: 2.0;"/><polygon fill="#A80036" points="341.86,3323.1138,333.6491,3305.209,334.3591,3316.5004,323.0677,3317.2104,341.86,3323.1138" style="stroke: #A80036; stroke-width: 2.0;"/><!--MD5=[685d4c77146e4de69831589066018687]
link bbPress to BuddyPress*--><!--MD5=[d978cefa2092a887f55296fa2c0a6979]
link bbPress to TaskBreaker--><!--MD5=[1c051b0180945900d66b5aa8f40fc977]
link TaskBreaker to TODO???--><rect fill="#DDDDDD" height="85.1875" rx="10" ry="10" style="stroke: #000000; stroke-width: 2.0;" width="1024" x="1228.33" y="3816.2379"/><text fill="#000000" font-family="sans-serif" font-size="28" font-weight="bold" lengthAdjust="spacingAndGlyphs" textLength="118" x="1240.33" y="3852.2281">Legend</text><text fill="#000000" font-family="sans-serif" font-size="28" lengthAdjust="spacingAndGlyphs" textLength="1000" x="1240.33" y="3884.8218">- DPA "Data Processing Agreement" - Auftragsverarbeitungsvertrag (AVV)</text><!--MD5=[4901105f50f4545b469bd950887b1c50]
@startuml

skinparam shadowing false
scale 2

title: Overview Platform (WIP)\njoinus4health.eu
header version: %date("dd.MM.yyyy")

skinparam actorStyle awesome
skinparam nodeBackgroundColor<<Server>> #ffccaa
skinparam rectangleBackgroundColor<<Partner>> #cccccc
skinparam rectangleBackgroundColor<<Provider>> #ddbbaa
skinparam componentBackgroundColor #fefece
skinparam databaseBackgroundColor #fefece

legend
**Legend**
- DPA "Data Processing Agreement" - Auftragsverarbeitungsvertrag (AVV)
end legend

actor "User" as user

rectangle "UMG\ncoordinator" as umg #ffcccc {
    rectangle "ICM SHIP-KEF" {
        actor "SHIP-IT" as ship
        actor "JoinUs4Health\nProject Manage-\nment Team" as umg_team
    }
}

rectangle "science4people.eu" <<Partner>> as s4p {
    actor "science4people\nPartner" as s4p_partner
}

cloud "Internet" {
    rectangle "netcup" <<Provider>> as netcup {
        node "Managed Private Server" <<Server>> as mps {
            node "LDAP-Server" <<Server>> as ldap_server #fefece
            node "Platform-Server" <<Server>> as platform_server {
                component "WordPress" <<Web-Framework>> as wp {
                    component "bbPress"
                    component "BuddyPress*"
                    component "TaskBreaker"
                    component "TODO???"
                }
                folder "WordPress-Files" as wpfolder
                database "DBMS MySQL" as dbms {
                    database "user data" <<database>> as db_user
                    database "platform data" <<database>> as db_plattform
                }
                wp - -> dbms
                wp - -> wpfolder
            }
            node "Questionnaire-Server" <<Server>> as lime_server {
                component "LimeSurvey" <<Web-Framework>> as lime
                database "MySQL" <<database>> as lime_db
                
                lime    - ->     lime_db
            }
            
''            ldap_server -d-  platform_server
''            lime_server -l-  platform_server
            lime    -u->     ldap_server
            wp      - ->     ldap_server
        }
    }
    rectangle "????" <<Provider>> as bbb_provider {
        node "???-Server" <<Server>> {
            component "Conference System" as bbb
            
        }
    }
    bbb     - ->     ldap_server

    interface "Conference" as i_bbb
    interface "Platform" as i_web
    interface "Questionnaire" as i_lime

    i_web   .u.     wp
    i_lime  .u.     lime
    i_bbb   .u.     bbb
}

note "DPA" as a_us #aaaaff
umg .. a_us
a_us ..> s4p
note "DPA" as a_un #aaaaff
umg .. a_un
a_un ..> netcup
note "DPA" as a_ub #aaaaff
umg .. a_ub
a_ub ..> bbb_provider

ship        - ->     mps         : Adminis-\ntration
ship        - ->     bbb         : Adminis-\ntration
s4p_partner - ->     wp          : Adminis-\ntration
s4p_partner - ->     lime        : Adminis-\ntration
s4p_partner - ->     ldap_server : Adminis-\ntration

i_web   -[hidden]-  i_bbb
i_bbb   -[hidden]-  i_lime

user    -u-> i_web
user    -u-> i_bbb
user    - ->  i_lime

@enduml

@startuml

skinparam shadowing false
scale 2

title: Overview Platform (WIP)\njoinus4health.eu
header version: 19.01.2022

skinparam actorStyle awesome
skinparam nodeBackgroundColor<<Server>> #ffccaa
skinparam rectangleBackgroundColor<<Partner>> #cccccc
skinparam rectangleBackgroundColor<<Provider>> #ddbbaa
skinparam componentBackgroundColor #fefece
skinparam databaseBackgroundColor #fefece

legend
**Legend**
- DPA "Data Processing Agreement" - Auftragsverarbeitungsvertrag (AVV)
end legend

actor "User" as user

rectangle "UMG\ncoordinator" as umg #ffcccc {
    rectangle "ICM SHIP-KEF" {
        actor "SHIP-IT" as ship
        actor "JoinUs4Health\nProject Manage-\nment Team" as umg_team
    }
}

rectangle "science4people.eu" <<Partner>> as s4p {
    actor "science4people\nPartner" as s4p_partner
}

cloud "Internet" {
    rectangle "netcup" <<Provider>> as netcup {
        node "Managed Private Server" <<Server>> as mps {
            node "LDAP-Server" <<Server>> as ldap_server #fefece
            node "Platform-Server" <<Server>> as platform_server {
                component "WordPress" <<Web-Framework>> as wp {
                    component "bbPress"
                    component "BuddyPress*"
                    component "TaskBreaker"
                    component "TODO???"
                }
                folder "WordPress-Files" as wpfolder
                database "DBMS MySQL" as dbms {
                    database "user data" <<database>> as db_user
                    database "platform data" <<database>> as db_plattform
                }
                wp - -> dbms
                wp - -> wpfolder
            }
            node "Questionnaire-Server" <<Server>> as lime_server {
                component "LimeSurvey" <<Web-Framework>> as lime
                database "MySQL" <<database>> as lime_db
                
                lime    - ->     lime_db
            }
            
            lime    -u->     ldap_server
            wp      - ->     ldap_server
        }
    }
    rectangle "????" <<Provider>> as bbb_provider {
        node "???-Server" <<Server>> {
            component "Conference System" as bbb
            
        }
    }
    bbb     - ->     ldap_server

    interface "Conference" as i_bbb
    interface "Platform" as i_web
    interface "Questionnaire" as i_lime

    i_web   .u.     wp
    i_lime  .u.     lime
    i_bbb   .u.     bbb
}

note "DPA" as a_us #aaaaff
umg .. a_us
a_us ..> s4p
note "DPA" as a_un #aaaaff
umg .. a_un
a_un ..> netcup
note "DPA" as a_ub #aaaaff
umg .. a_ub
a_ub ..> bbb_provider

ship        - ->     mps         : Adminis-\ntration
ship        - ->     bbb         : Adminis-\ntration
s4p_partner - ->     wp          : Adminis-\ntration
s4p_partner - ->     lime        : Adminis-\ntration
s4p_partner - ->     ldap_server : Adminis-\ntration

i_web   -[hidden]-  i_bbb
i_bbb   -[hidden]-  i_lime

user    -u-> i_web
user    -u-> i_bbb
user    - ->  i_lime

@enduml

PlantUML version 1.2020.16(Sun Aug 23 22:20:43 CEST 2020)
(GPL source distribution)
Java Runtime: OpenJDK Runtime Environment
JVM: OpenJDK 64-Bit Server VM
Default Encoding: UTF-8
Language: en
Country: GB
--></g></svg>