<?xml version="1.0" encoding="UTF-8" standalone="no"?><svg xmlns="http://www.w3.org/2000/svg" xmlns:xlink="http://www.w3.org/1999/xlink" contentScriptType="application/ecmascript" contentStyleType="text/css" height="3072px" preserveAspectRatio="none" style="width:3434px;height:3072px;" version="1.1" viewBox="0 0 3434 3072" width="3434px" zoomAndPan="magnify"><defs/><g><text fill="#888888" font-family="sans-serif" font-size="20" lengthAdjust="spacingAndGlyphs" textLength="190" x="3209.6418" y="18.5645">version: 19.01.2022</text><text fill="#000000" font-family="sans-serif" font-size="36" lengthAdjust="spacingAndGlyphs" textLength="378" x="1510.8209" y="56.6973">Overview Homepage</text><text fill="#000000" font-family="sans-serif" font-size="36" lengthAdjust="spacingAndGlyphs" textLength="290" x="1554.8209" y="98.6035">joinus4health.eu</text><!--MD5=[26c5d267d5640af9fd645d609f9318ff]
cluster umg--><rect fill="#FFCCCC" height="524" style="stroke: #000000; stroke-width: 3.0;" width="618" x="2180.6484" y="121.0938"/><text fill="#000000" font-family="sans-serif" font-size="28" font-weight="bold" lengthAdjust="spacingAndGlyphs" textLength="72" x="2453.6484" y="151.084">UMG</text><text fill="#000000" font-family="sans-serif" font-size="28" font-weight="bold" lengthAdjust="spacingAndGlyphs" textLength="184" x="2397.6484" y="183.6777">coordinator</text><!--MD5=[a5da4f68ede42b98d7b5f3a10e3ccc90]
cluster ICM SHIP-KEF--><rect fill="#FFCCCC" height="326" style="stroke: #000000; stroke-width: 3.0;" width="474" x="2260.6484" y="255.0938"/><text fill="#000000" font-family="sans-serif" font-size="28" font-weight="bold" lengthAdjust="spacingAndGlyphs" textLength="206" x="2394.6484" y="285.084">ICM SHIP-KEF</text><!--MD5=[d416a0175338ee00014ff4466993c423]
cluster s4p--><rect fill="#CCCCCC" height="358" style="stroke: #000000; stroke-width: 3.0;" width="356" x="980.6484" y="1009.0938"/><text fill="#000000" font-family="sans-serif" font-size="28" font-style="italic" lengthAdjust="spacingAndGlyphs" textLength="134" x="1091.6484" y="1039.084">«Partner»</text><text fill="#000000" font-family="sans-serif" font-size="28" font-weight="bold" lengthAdjust="spacingAndGlyphs" textLength="300" x="1008.6484" y="1071.6777">science4people.eu</text><!--MD5=[0ff277c6235d691d4cf1e9691da08ce2]
cluster bi--><rect fill="#CCCCCC" height="390" style="stroke: #000000; stroke-width: 3.0;" width="318" x="1484.6484" y="977.0938"/><text fill="#000000" font-family="sans-serif" font-size="28" font-style="italic" lengthAdjust="spacingAndGlyphs" textLength="134" x="1576.6484" y="1007.084">«Partner»</text><text fill="#000000" font-family="sans-serif" font-size="28" font-weight="bold" lengthAdjust="spacingAndGlyphs" textLength="286" x="1500.6484" y="1039.6777">Medical University</text><text fill="#000000" font-family="sans-serif" font-size="28" font-weight="bold" lengthAdjust="spacingAndGlyphs" textLength="182" x="1552.6484" y="1072.2715">of Bialystok</text><!--MD5=[eaeb4b0a6359e5999f2bdc196eca946c]
cluster erasmus--><rect fill="#CCCCCC" height="390" style="stroke: #000000; stroke-width: 3.0;" width="536" x="1882.6484" y="977.0938"/><text fill="#000000" font-family="sans-serif" font-size="28" font-style="italic" lengthAdjust="spacingAndGlyphs" textLength="134" x="2083.6484" y="1007.084">«Partner»</text><text fill="#000000" font-family="sans-serif" font-size="28" font-weight="bold" lengthAdjust="spacingAndGlyphs" textLength="340" x="1980.6484" y="1039.6777">Medical Center of the</text><text fill="#000000" font-family="sans-serif" font-size="28" font-weight="bold" lengthAdjust="spacingAndGlyphs" textLength="504" x="1898.6484" y="1072.2715">Erasmus University Rotterdamm</text><!--MD5=[07074073229a58b98d86dbf75a12e332]
cluster Internet--><path d="M175.3772,1544.8398 C257.4609,1445.7984 334.3876,1430.5229 412.9989,1548.6395 C471.455,1465.2726 560.1753,1459.159 608.2846,1559.6307 C655.1528,1431.3636 740.7301,1423.545 823.8072,1525.7741 C892.3539,1431.65 998.3069,1443.1478 1034.3978,1558.4157 C1093.8839,1426.6451 1169.2365,1429.0963 1259.3111,1528.6785 C1312.3678,1430.777 1418.0748,1427.6673 1479.9799,1518.3231 C1553.4896,1400.1692 1622.11,1405.1016 1700.1755,1513.903 C1765.1512,1425.9371 1865.2769,1418.503 1913.2032,1531.9368 C1976.8035,1435.5559 2071.3827,1426.2848 2134.7727,1532.1671 C2200.1615,1435.2006 2285.0276,1439.8783 2350.9702,1531.5323 C2428.6368,1426.8422 2521.825,1446.2325 2576.8375,1555.4526 C2625.4519,1444.9565 2718.8134,1439.1853 2792.4333,1528.4673 C2886.0453,1434.4914 2973.9735,1430.3534 3035.307,1563.0525 C3091.9058,1471.6548 3155.4092,1446.9978 3232.6484,1541.0938 C3247.6957,1535.6211 3255.2111,1547.1087 3252.573,1560.1386 C3405.1845,1646.1836 3411.6418,1748.2272 3264.179,1846.4368 C3384.1096,1945.3679 3400.9644,2042.2336 3260.304,2137.6978 C3384.4709,2226.2064 3368.126,2329.375 3243.807,2402.3971 C3359.8527,2506.9225 3345.7204,2590.2475 3218.6484,2672.0938 C3232.1619,2668.6204 3241.8761,2674.6136 3239.5123,2689.8239 C3154.625,2813.6484 3068.2075,2791.3912 3000.6904,2672.7172 C2952.3614,2758.1363 2861.2925,2771.9142 2803.5279,2683.4137 C2749.115,2785.2495 2658.5175,2796.5036 2600.7221,2686.6543 C2533.3525,2801.6707 2413.592,2799.1528 2353.5367,2678.9673 C2307.7935,2788.4867 2211.5919,2803.1746 2139.4508,2706.3566 C2076.163,2802.1646 1983.5088,2797.4835 1931.569,2694.4903 C1873.0561,2797.7197 1774.2905,2829.4991 1702.6326,2707.874 C1620.6514,2781.6867 1557.7493,2779.2952 1497.752,2681.6107 C1434.9431,2791.2147 1343.3712,2809.8039 1268.859,2693.4669 C1186.489,2810.2051 1112.4183,2786.8587 1034.9379,2688.1577 C991.4267,2789.2163 897.7701,2796.2485 839.3543,2703.1736 C764.349,2797.9088 688.1195,2793.1009 621.0797,2694.1948 C559.5431,2816.9359 466.9436,2828.3187 390.6861,2708.1578 C287.7151,2822.0713 199.8303,2786.8778 146.6484,2658.0938 C166.3918,2643.3065 178.4837,2650.0553 184.9814,2671.9397 C46.738,2600.7011 45.106,2492.9178 162.6277,2400.608 C51.215,2325.6604 27.6508,2197.2355 169.2921,2128.4853 C12,2034.3809 20.881,1935.917 165.9285,1838.3081 C16.6091,1733.2659 35.7316,1636.7887 160.6484,1527.0938 C174.6083,1524.5323 179.7229,1532.2079 175.3772,1544.8398 " fill="#FFFFFF" style="stroke: #000000; stroke-width: 3.0;"/><text fill="#000000" font-family="sans-serif" font-size="28" font-weight="bold" lengthAdjust="spacingAndGlyphs" textLength="126" x="1626.6484" y="1563.084">Internet</text><!--MD5=[fc7c9bc70f56de5c86322601a7f106c8]
cluster netcup--><polygon fill="#DDBBAA" points="194.6484,1633.0938,214.6484,1613.0938,3184.6484,1613.0938,3184.6484,2604.0938,3164.6484,2624.0938,194.6484,2624.0938,194.6484,1633.0938" style="stroke: #000000; stroke-width: 3.0;"/><line style="stroke: #000000; stroke-width: 3.0;" x1="3164.6484" x2="3184.6484" y1="1633.0938" y2="1613.0938"/><line style="stroke: #000000; stroke-width: 3.0;" x1="194.6484" x2="3164.6484" y1="1633.0938" y2="1633.0938"/><line style="stroke: #000000; stroke-width: 3.0;" x1="3164.6484" x2="3164.6484" y1="1633.0938" y2="2624.0938"/><text fill="#000000" font-family="sans-serif" font-size="28" font-style="italic" lengthAdjust="spacingAndGlyphs" textLength="148" x="1607.6484" y="1665.084">«Provider»</text><text fill="#000000" font-family="sans-serif" font-size="28" font-weight="bold" lengthAdjust="spacingAndGlyphs" textLength="160" x="1601.6484" y="1697.6777">netcup.de</text><!--MD5=[4664c0d5d074dae4437fc00e51bb76c2]
cluster webspace--><rect fill="#FFCCAA" height="771" style="stroke: #000000; stroke-width: 3.0;" width="2432" x="274.6484" y="1773.0938"/><text fill="#000000" font-family="sans-serif" font-size="28" font-weight="bold" lengthAdjust="spacingAndGlyphs" textLength="388" x="1296.6484" y="1803.084">Domain joinus4health.eu</text><!--MD5=[d10c0fc188658aa905e9b53266af4542]
cluster wp--><rect fill="#FEFECE" height="573" style="stroke: #000000; stroke-width: 3.0;" width="790" x="1010.6484" y="1891.0938"/><rect fill="#FEFECE" height="20" style="stroke: #000000; stroke-width: 3.0;" width="30" x="1760.6484" y="1901.0938"/><rect fill="#FEFECE" height="4" style="stroke: #000000; stroke-width: 3.0;" width="8" x="1756.6484" y="1905.0938"/><rect fill="#FEFECE" height="4" style="stroke: #000000; stroke-width: 3.0;" width="8" x="1756.6484" y="1913.0938"/><text fill="#000000" font-family="sans-serif" font-size="28" font-style="italic" lengthAdjust="spacingAndGlyphs" textLength="262" x="1274.6484" y="1943.084">«Web-Framework»</text><text fill="#000000" font-family="sans-serif" font-size="28" font-weight="bold" lengthAdjust="spacingAndGlyphs" textLength="174" x="1318.6484" y="1975.6777">WordPress</text><!--MD5=[893b3f08f7335ed1c07837f7f8fbbed9]
cluster //separate Server//--><rect fill="#FFCCAA" height="226" style="stroke: #000000; stroke-width: 3.0;" width="288" x="658.6484" y="2238.0938"/><text fill="#000000" font-family="sans-serif" font-size="28" font-style="italic" font-weight="bold" lengthAdjust="spacingAndGlyphs" textLength="256" x="674.6484" y="2268.084">separate Server</text><!--MD5=[cf76bd177cad34bbcc88e5e79c8c4c0a]
cluster email--><rect fill="#FEFECE" height="240" style="stroke: #000000; stroke-width: 3.0;" width="730" x="1880.6484" y="1916.0938"/><rect fill="#FEFECE" height="20" style="stroke: #000000; stroke-width: 3.0;" width="30" x="2570.6484" y="1926.0938"/><rect fill="#FEFECE" height="4" style="stroke: #000000; stroke-width: 3.0;" width="8" x="2566.6484" y="1930.0938"/><rect fill="#FEFECE" height="4" style="stroke: #000000; stroke-width: 3.0;" width="8" x="2566.6484" y="1938.0938"/><text fill="#000000" font-family="sans-serif" font-size="28" font-weight="bold" lengthAdjust="spacingAndGlyphs" textLength="90" x="2200.6484" y="1968.084">E-Mail</text><!--MD5=[3103861f95f0d7217426811062624cfa]
entity ship--><ellipse cx="2644.6484" cy="393.0938" fill="#FEFECE" rx="32" ry="32" style="stroke: #A80036; stroke-width: 3.0;"/><path d="M2644.6484,433.0938 C2652.6484,433.0938 2658.6484,433.0938 2666.6484,425.0938 C2682.6484,425.0938 2698.6484,441.0938 2698.6484,457.0938 L2698.6484,465.0938 C2698.6484,473.0938 2690.6484,481.0938 2682.6484,481.0938 L2606.6484,481.0938 C2598.6484,481.0938 2590.6484,473.0938 2590.6484,465.0938 L2590.6484,457.0938 C2590.6484,441.0938 2606.6484,425.0938 2622.6484,425.0938 C2630.6484,433.0938 2636.6484,433.0938 2644.6484,433.0938 " fill="#FEFECE" style="stroke: #A80036; stroke-width: 3.0;"/><text fill="#000000" font-family="sans-serif" font-size="28" lengthAdjust="spacingAndGlyphs" textLength="96" x="2596.6484" y="510.084">SHIP-IT</text><!--MD5=[b08f2111fdc261dd0bfb2eacdde7049b]
entity umg_team--><ellipse cx="2404.6484" cy="360.0938" fill="#FEFECE" rx="32" ry="32" style="stroke: #A80036; stroke-width: 3.0;"/><path d="M2404.6484,400.0938 C2412.6484,400.0938 2418.6484,400.0938 2426.6484,392.0938 C2442.6484,392.0938 2458.6484,408.0938 2458.6484,424.0938 L2458.6484,432.0938 C2458.6484,440.0938 2450.6484,448.0938 2442.6484,448.0938 L2366.6484,448.0938 C2358.6484,448.0938 2350.6484,440.0938 2350.6484,432.0938 L2350.6484,424.0938 C2350.6484,408.0938 2366.6484,392.0938 2382.6484,392.0938 C2390.6484,400.0938 2396.6484,400.0938 2404.6484,400.0938 " fill="#FEFECE" style="stroke: #A80036; stroke-width: 3.0;"/><text fill="#000000" font-family="sans-serif" font-size="28" lengthAdjust="spacingAndGlyphs" textLength="190" x="2292.6484" y="477.084">JoinUs4Health</text><text fill="#000000" font-family="sans-serif" font-size="28" lengthAdjust="spacingAndGlyphs" textLength="224" x="2292.6484" y="509.6777">Project Manage-</text><text fill="#000000" font-family="sans-serif" font-size="28" lengthAdjust="spacingAndGlyphs" textLength="158" x="2292.6484" y="542.2715">ment Team</text><!--MD5=[db450b6175b1cf7e0741641dc58b6f7f]
entity s4p_partner--><ellipse cx="1178.6484" cy="1162.0938" fill="#FEFECE" rx="32" ry="32" style="stroke: #A80036; stroke-width: 3.0;"/><path d="M1178.6484,1202.0938 C1186.6484,1202.0938 1192.6484,1202.0938 1200.6484,1194.0938 C1216.6484,1194.0938 1232.6484,1210.0938 1232.6484,1226.0938 L1232.6484,1234.0938 C1232.6484,1242.0938 1224.6484,1250.0938 1216.6484,1250.0938 L1140.6484,1250.0938 C1132.6484,1250.0938 1124.6484,1242.0938 1124.6484,1234.0938 L1124.6484,1226.0938 C1124.6484,1210.0938 1140.6484,1194.0938 1156.6484,1194.0938 C1164.6484,1202.0938 1170.6484,1202.0938 1178.6484,1202.0938 " fill="#FEFECE" style="stroke: #A80036; stroke-width: 3.0;"/><text fill="#000000" font-family="sans-serif" font-size="28" lengthAdjust="spacingAndGlyphs" textLength="222" x="1067.6484" y="1279.084">science4people</text><text fill="#000000" font-family="sans-serif" font-size="28" lengthAdjust="spacingAndGlyphs" textLength="100" x="1067.6484" y="1311.6777">Partner</text><!--MD5=[763ba745d9525f6980f176f7384ba2a3]
entity bi_partner--><ellipse cx="1692.6484" cy="1162.0938" fill="#FEFECE" rx="32" ry="32" style="stroke: #A80036; stroke-width: 3.0;"/><path d="M1692.6484,1202.0938 C1700.6484,1202.0938 1706.6484,1202.0938 1714.6484,1194.0938 C1730.6484,1194.0938 1746.6484,1210.0938 1746.6484,1226.0938 L1746.6484,1234.0938 C1746.6484,1242.0938 1738.6484,1250.0938 1730.6484,1250.0938 L1654.6484,1250.0938 C1646.6484,1250.0938 1638.6484,1242.0938 1638.6484,1234.0938 L1638.6484,1226.0938 C1638.6484,1210.0938 1654.6484,1194.0938 1670.6484,1194.0938 C1678.6484,1202.0938 1684.6484,1202.0938 1692.6484,1202.0938 " fill="#FEFECE" style="stroke: #A80036; stroke-width: 3.0;"/><text fill="#000000" font-family="sans-serif" font-size="28" lengthAdjust="spacingAndGlyphs" textLength="122" x="1631.6484" y="1279.084">Bialystok</text><text fill="#000000" font-family="sans-serif" font-size="28" lengthAdjust="spacingAndGlyphs" textLength="100" x="1631.6484" y="1311.6777">Partner</text><!--MD5=[da111c5fa759825b4b733df98dd135a0]
entity erasmus_partner--><ellipse cx="2280.6484" cy="1162.0938" fill="#FEFECE" rx="32" ry="32" style="stroke: #A80036; stroke-width: 3.0;"/><path d="M2280.6484,1202.0938 C2288.6484,1202.0938 2294.6484,1202.0938 2302.6484,1194.0938 C2318.6484,1194.0938 2334.6484,1210.0938 2334.6484,1226.0938 L2334.6484,1234.0938 C2334.6484,1242.0938 2326.6484,1250.0938 2318.6484,1250.0938 L2242.6484,1250.0938 C2234.6484,1250.0938 2226.6484,1242.0938 2226.6484,1234.0938 L2226.6484,1226.0938 C2226.6484,1210.0938 2242.6484,1194.0938 2258.6484,1194.0938 C2266.6484,1202.0938 2272.6484,1202.0938 2280.6484,1202.0938 " fill="#FEFECE" style="stroke: #A80036; stroke-width: 3.0;"/><text fill="#000000" font-family="sans-serif" font-size="28" lengthAdjust="spacingAndGlyphs" textLength="120" x="2220.6484" y="1279.084">Erasmus</text><text fill="#000000" font-family="sans-serif" font-size="28" lengthAdjust="spacingAndGlyphs" textLength="100" x="2220.6484" y="1311.6777">Partner</text><!--MD5=[51764780891d56c625808fe39e0f2680]
entity i_web--><ellipse cx="2846.6484" cy="2370.0938" fill="#FEFECE" rx="16" ry="16" style="stroke: #A80036; stroke-width: 4.0;"/><text fill="#000000" font-family="sans-serif" font-size="28" lengthAdjust="spacingAndGlyphs" textLength="152" x="2770.6484" y="2430.084">Homepage</text><!--MD5=[fa02c4fa1f4a6cb5c999117feefacaf8]
entity i_mail--><ellipse cx="3064.6484" cy="2370.0938" fill="#FEFECE" rx="16" ry="16" style="stroke: #A80036; stroke-width: 4.0;"/><text fill="#000000" font-family="sans-serif" font-size="28" lengthAdjust="spacingAndGlyphs" textLength="80" x="3024.6484" y="2430.084">E-Mail</text><!--MD5=[fcbfd374278afc1cf141dd59657f7740]
entity wpfolder--><polygon fill="#FEFECE" points="673.6484,1999.0938,765.6484,1999.0938,779.6484,2041.0938,955.6484,2041.0938,955.6484,2110.2813,673.6484,2110.2813,673.6484,1999.0938" style="stroke: #000000; stroke-width: 3.0;"/><line style="stroke: #000000; stroke-width: 3.0;" x1="673.6484" x2="779.6484" y1="2041.0938" y2="2041.0938"/><text fill="#000000" font-family="sans-serif" font-size="28" lengthAdjust="spacingAndGlyphs" textLength="222" x="693.6484" y="2081.084">WordPress-Files</text><!--MD5=[30ba7fb1050e29c0f3290b9e87c281e8]
entity log--><polygon fill="#FEFECE" points="390.6484,2334.0938,390.6484,2406.6875,534.6484,2406.6875,534.6484,2354.0938,514.6484,2334.0938,390.6484,2334.0938" style="stroke: #000000; stroke-width: 3.0;"/><path d="M514.6484,2334.0938 L514.6484,2354.0938 L534.6484,2354.0938 " fill="#FEFECE" style="stroke: #000000; stroke-width: 3.0;"/><text fill="#000000" font-family="sans-serif" font-size="28" lengthAdjust="spacingAndGlyphs" textLength="104" x="410.6484" y="2380.084">log files</text><!--MD5=[8aaf477cf9b50a1d50e25883b72bb19a]
entity stats--><rect fill="#FEFECE" height="125.1875" style="stroke: #A80036; stroke-width: 3.0;" width="280" x="322.6484" y="1992.0938"/><rect fill="#FEFECE" height="20" style="stroke: #A80036; stroke-width: 3.0;" width="30" x="562.6484" y="2002.0938"/><rect fill="#FEFECE" height="4" style="stroke: #A80036; stroke-width: 3.0;" width="8" x="558.6484" y="2006.0938"/><rect fill="#FEFECE" height="4" style="stroke: #A80036; stroke-width: 3.0;" width="8" x="558.6484" y="2014.0938"/><text fill="#000000" font-family="sans-serif" font-size="28" font-style="italic" lengthAdjust="spacingAndGlyphs" textLength="200" x="352.6484" y="2058.084">«statistic-tool»</text><text fill="#000000" font-family="sans-serif" font-size="28" lengthAdjust="spacingAndGlyphs" textLength="134" x="385.6484" y="2090.6777">Webalizer</text><!--MD5=[7dac474687ad5f96cb87364e70789d24]
entity Elementor--><rect fill="#FEFECE" height="92.5938" style="stroke: #A80036; stroke-width: 3.0;" width="222" x="1097.6484" y="2009.0938"/><rect fill="#FEFECE" height="20" style="stroke: #A80036; stroke-width: 3.0;" width="30" x="1279.6484" y="2019.0938"/><rect fill="#FEFECE" height="4" style="stroke: #A80036; stroke-width: 3.0;" width="8" x="1275.6484" y="2023.0938"/><rect fill="#FEFECE" height="4" style="stroke: #A80036; stroke-width: 3.0;" width="8" x="1275.6484" y="2031.0938"/><text fill="#000000" font-family="sans-serif" font-size="28" lengthAdjust="spacingAndGlyphs" textLength="142" x="1127.6484" y="2075.084">Elementor</text><!--MD5=[e9a91520661c1de87785af7560ccbf08]
entity TranslatePress--><rect fill="#FEFECE" height="92.5938" style="stroke: #A80036; stroke-width: 3.0;" width="286" x="1389.6484" y="2009.0938"/><rect fill="#FEFECE" height="20" style="stroke: #A80036; stroke-width: 3.0;" width="30" x="1635.6484" y="2019.0938"/><rect fill="#FEFECE" height="4" style="stroke: #A80036; stroke-width: 3.0;" width="8" x="1631.6484" y="2023.0938"/><rect fill="#FEFECE" height="4" style="stroke: #A80036; stroke-width: 3.0;" width="8" x="1631.6484" y="2031.0938"/><text fill="#000000" font-family="sans-serif" font-size="28" lengthAdjust="spacingAndGlyphs" textLength="206" x="1419.6484" y="2075.084">TranslatePress</text><!--MD5=[220513d1d882ff78dc80689c7f394be1]
entity Yoast SEO--><rect fill="#FEFECE" height="92.5938" style="stroke: #A80036; stroke-width: 3.0;" width="224" x="1074.6484" y="2324.0938"/><rect fill="#FEFECE" height="20" style="stroke: #A80036; stroke-width: 3.0;" width="30" x="1258.6484" y="2334.0938"/><rect fill="#FEFECE" height="4" style="stroke: #A80036; stroke-width: 3.0;" width="8" x="1254.6484" y="2338.0938"/><rect fill="#FEFECE" height="4" style="stroke: #A80036; stroke-width: 3.0;" width="8" x="1254.6484" y="2346.0938"/><text fill="#000000" font-family="sans-serif" font-size="28" lengthAdjust="spacingAndGlyphs" textLength="144" x="1104.6484" y="2390.084">Yoast SEO</text><!--MD5=[4f02f8ebfd08bfe6a187bb6f116c7981]
entity One Click Accessibility--><rect fill="#FEFECE" height="92.5938" style="stroke: #A80036; stroke-width: 3.0;" width="384" x="1368.6484" y="2324.0938"/><rect fill="#FEFECE" height="20" style="stroke: #A80036; stroke-width: 3.0;" width="30" x="1712.6484" y="2334.0938"/><rect fill="#FEFECE" height="4" style="stroke: #A80036; stroke-width: 3.0;" width="8" x="1708.6484" y="2338.0938"/><rect fill="#FEFECE" height="4" style="stroke: #A80036; stroke-width: 3.0;" width="8" x="1708.6484" y="2346.0938"/><text fill="#000000" font-family="sans-serif" font-size="28" lengthAdjust="spacingAndGlyphs" textLength="304" x="1398.6484" y="2390.084">One Click Accessibility</text><!--MD5=[51425f20b61c3ae958e00a58355c3be3]
entity my--><path d="M711.6484,2328.0938 C711.6484,2308.0938 812.6484,2308.0938 812.6484,2308.0938 C812.6484,2308.0938 913.6484,2308.0938 913.6484,2328.0938 L913.6484,2411.2813 C913.6484,2431.2813 812.6484,2431.2813 812.6484,2431.2813 C812.6484,2431.2813 711.6484,2431.2813 711.6484,2411.2813 L711.6484,2328.0938 " fill="#FEFECE" style="stroke: #000000; stroke-width: 3.0;"/><path d="M711.6484,2328.0938 C711.6484,2348.0938 812.6484,2348.0938 812.6484,2348.0938 C812.6484,2348.0938 913.6484,2348.0938 913.6484,2328.0938 " fill="none" style="stroke: #000000; stroke-width: 3.0;"/><text fill="#000000" font-family="sans-serif" font-size="28" font-style="italic" lengthAdjust="spacingAndGlyphs" textLength="162" x="731.6484" y="2382.084">«database»</text><text fill="#000000" font-family="sans-serif" font-size="28" lengthAdjust="spacingAndGlyphs" textLength="92" x="766.6484" y="2414.6777">MySQL</text><!--MD5=[b60821f76768a9c71fc0268686c5d669]
entity e_de--><rect fill="#FEFECE" height="105.1875" style="stroke: #000000; stroke-width: 3.0;" width="152" x="2410.6484" y="2002.0938"/><text fill="#000000" font-family="sans-serif" font-size="28" font-style="italic" lengthAdjust="spacingAndGlyphs" textLength="112" x="2430.6484" y="2048.084">«inbox»</text><text fill="#000000" font-family="sans-serif" font-size="28" lengthAdjust="spacingAndGlyphs" textLength="82" x="2445.6484" y="2080.6777">de/en</text><!--MD5=[ba6cf0bdf5e2e09cfbee57ce52cfe5c1]
entity e_pl--><rect fill="#FEFECE" height="105.1875" style="stroke: #000000; stroke-width: 3.0;" width="152" x="1966.6484" y="2002.0938"/><text fill="#000000" font-family="sans-serif" font-size="28" font-style="italic" lengthAdjust="spacingAndGlyphs" textLength="112" x="1986.6484" y="2048.084">«inbox»</text><text fill="#000000" font-family="sans-serif" font-size="28" lengthAdjust="spacingAndGlyphs" textLength="70" x="2007.6484" y="2080.6777">pl/en</text><!--MD5=[ba72840a7e95ae0372abc584fb2d4dc3]
entity e_nl--><rect fill="#FEFECE" height="105.1875" style="stroke: #000000; stroke-width: 3.0;" width="152" x="2188.6484" y="2002.0938"/><text fill="#000000" font-family="sans-serif" font-size="28" font-style="italic" lengthAdjust="spacingAndGlyphs" textLength="112" x="2208.6484" y="2048.084">«inbox»</text><text fill="#000000" font-family="sans-serif" font-size="28" lengthAdjust="spacingAndGlyphs" textLength="70" x="2229.6484" y="2080.6777">nl/en</text><!--MD5=[8fc3522a43f8c7199df5e09e5bb0188e]
entity user--><ellipse cx="2972.6484" cy="2817.0938" fill="#FEFECE" rx="32" ry="32" style="stroke: #A80036; stroke-width: 3.0;"/><path d="M2972.6484,2857.0938 C2980.6484,2857.0938 2986.6484,2857.0938 2994.6484,2849.0938 C3010.6484,2849.0938 3026.6484,2865.0938 3026.6484,2881.0938 L3026.6484,2889.0938 C3026.6484,2897.0938 3018.6484,2905.0938 3010.6484,2905.0938 L2934.6484,2905.0938 C2926.6484,2905.0938 2918.6484,2897.0938 2918.6484,2889.0938 L2918.6484,2881.0938 C2918.6484,2865.0938 2934.6484,2849.0938 2950.6484,2849.0938 C2958.6484,2857.0938 2964.6484,2857.0938 2972.6484,2857.0938 " fill="#FEFECE" style="stroke: #A80036; stroke-width: 3.0;"/><text fill="#000000" font-family="sans-serif" font-size="28" lengthAdjust="spacingAndGlyphs" textLength="64" x="2940.6484" y="2934.084">User</text><path d="M1504.6484,755.0938 L1504.6484,805.3594 L1600.6484,805.3594 L1600.6484,775.0938 L1580.6484,755.0938 L1504.6484,755.0938 " fill="#AAAAFF" style="stroke: #A80036; stroke-width: 2.0;"/><path d="M1580.6484,755.0938 L1580.6484,775.0938 L1600.6484,775.0938 L1580.6484,755.0938 " fill="#AAAAFF" style="stroke: #A80036; stroke-width: 2.0;"/><text fill="#000000" font-family="sans-serif" font-size="26" lengthAdjust="spacingAndGlyphs" textLength="54" x="1516.6484" y="789.2275">DPA</text><path d="M1862.6484,755.0938 L1862.6484,805.3594 L1958.6484,805.3594 L1958.6484,775.0938 L1938.6484,755.0938 L1862.6484,755.0938 " fill="#AAAAFF" style="stroke: #A80036; stroke-width: 2.0;"/><path d="M1938.6484,755.0938 L1938.6484,775.0938 L1958.6484,775.0938 L1938.6484,755.0938 " fill="#AAAAFF" style="stroke: #A80036; stroke-width: 2.0;"/><text fill="#000000" font-family="sans-serif" font-size="26" lengthAdjust="spacingAndGlyphs" textLength="54" x="1874.6484" y="789.2275">DPA</text><path d="M2124.6484,755.0938 L2124.6484,805.3594 L2220.6484,805.3594 L2220.6484,775.0938 L2200.6484,755.0938 L2124.6484,755.0938 " fill="#AAAAFF" style="stroke: #A80036; stroke-width: 2.0;"/><path d="M2200.6484,755.0938 L2200.6484,775.0938 L2220.6484,775.0938 L2200.6484,755.0938 " fill="#AAAAFF" style="stroke: #A80036; stroke-width: 2.0;"/><text fill="#000000" font-family="sans-serif" font-size="26" lengthAdjust="spacingAndGlyphs" textLength="54" x="2136.6484" y="789.2275">DPA</text><path d="M2872.6484,755.0938 L2872.6484,805.3594 L2968.6484,805.3594 L2968.6484,775.0938 L2948.6484,755.0938 L2872.6484,755.0938 " fill="#AAAAFF" style="stroke: #A80036; stroke-width: 2.0;"/><path d="M2948.6484,755.0938 L2948.6484,775.0938 L2968.6484,775.0938 L2948.6484,755.0938 " fill="#AAAAFF" style="stroke: #A80036; stroke-width: 2.0;"/><text fill="#000000" font-family="sans-serif" font-size="26" lengthAdjust="spacingAndGlyphs" textLength="54" x="2884.6484" y="789.2275">DPA</text><!--MD5=[0a867cd1b41760edf017e7717d6853dc]
link wp to my--><path d="M1010.5174,2203.1264 C1010.4171,2203.2962 1010.3166,2203.4659 1010.2158,2203.6356 C1010.0143,2203.9748 1009.8119,2204.3137 1009.6086,2204.6521 C1006.3561,2210.067 1002.8757,2215.3759 999.2018,2220.5744 C991.854,2230.9713 983.7321,2240.9263 975.1109,2250.4038 C957.8684,2269.3588 938.6284,2286.4038 919.5884,2301.2538 " fill="none" id="wp-to-my" style="stroke: #A80036; stroke-width: 2.0;"/><polygon fill="#A80036" points="910.9684,2307.8338,930.1221,2303.2366,918.9063,2301.7518,920.3911,2290.536,910.9684,2307.8338" style="stroke: #A80036; stroke-width: 2.0;"/><!--MD5=[a5f19530e84ebbc5218329742d489fe5]
reverse link wpfolder to wp--><path d="M966.5484,2055.0938 C976.3784,2055.0938 986.2134,2055.0938 996.0484,2055.0938 C998.5071,2055.0938 1000.9659,2055.0938 1003.4245,2055.0938 C1004.6539,2055.0938 1005.8832,2055.0938 1007.1125,2055.0938 C1007.7271,2055.0938 1008.3418,2055.0938 1008.9564,2055.0938 C1009.2637,2055.0938 1009.571,2055.0938 1009.8783,2055.0938 C1010.032,2055.0938 1010.1856,2055.0938 1010.3393,2055.0938 C1010.4161,2055.0938 1010.4929,2055.0938 1010.5698,2055.0938 " fill="none" id="wpfolder-backto-wp" style="stroke: #A80036; stroke-width: 2.0;"/><polygon fill="#A80036" points="956.2484,2055.0938,974.2484,2063.0938,966.2484,2055.0938,974.2484,2047.0938,956.2484,2055.0938" style="stroke: #A80036; stroke-width: 2.0;"/><!--MD5=[100387b058f8c8f1b9f38d95a60b7ee2]
link stats to log--><path d="M462.6484,2118.5338 C462.6484,2178.9538 462.6484,2269.6938 462.6484,2323.4938 " fill="none" id="stats-to-log" style="stroke: #A80036; stroke-width: 2.0;"/><polygon fill="#A80036" points="462.6484,2333.7538,470.6484,2315.7538,462.6484,2323.7538,454.6484,2315.7538,462.6484,2333.7538" style="stroke: #A80036; stroke-width: 2.0;"/><!--MD5=[43fef3d11c192aa0a88d628b3eebaa00]
link wp to i_web--><path d="M1804.6508,2223.9516 C1811.3392,2224.5822 1818.0479,2225.224 1824.7749,2225.8765 C1838.2289,2227.1816 1851.7563,2228.5295 1865.3416,2229.9168 C1892.5123,2232.6915 1919.9147,2235.6236 1947.4258,2238.6847 C2002.4479,2244.807 2057.9043,2251.4452 2112.809,2258.3716 C2222.6184,2272.2244 2330.2209,2287.23 2427.7284,2301.5663 C2622.7434,2330.2388 2777.3784,2356.2338 2828.5284,2364.9738 " fill="none" id="wp-i_web" style="stroke: #A80036; stroke-width: 2.0; stroke-dasharray: 7.0,7.0;"/><!--MD5=[8298b2441af43eb72b40d37aa4e0ec77]
link email to i_mail--><path d="M1910.465,2156.3851 C1910.5613,2156.5931 1910.6583,2156.8009 1910.7558,2157.0082 C1910.951,2157.423 1911.1485,2157.8364 1911.3486,2158.2484 C1912.1489,2159.8964 1912.989,2161.5217 1913.8708,2163.1202 C1915.6343,2166.3172 1917.5645,2169.4069 1919.6764,2172.3559 C1923.9002,2178.2538 1928.8509,2183.5888 1934.6484,2188.0938 C2025.9484,2259.0338 2874.6284,2164.0938 2974.6484,2222.0938 C3024.6284,2251.0738 3050.5284,2319.9738 3060.1684,2351.6538 " fill="none" id="email-i_mail" style="stroke: #A80036; stroke-width: 2.0; stroke-dasharray: 7.0,7.0;"/><!--MD5=[916fb375b8357f075b32922fdcb91ce5]
link umg to a_us--><path d="M2180.1176,447.795 C2179.7556,447.9856 2179.3881,448.1791 2179.0151,448.3755 C2177.5231,449.161 2175.9438,449.9924 2174.2799,450.8684 C2160.9685,457.8762 2142.2456,467.7323 2119.5615,479.6734 C2074.1934,503.5556 2012.9809,535.7775 1947.5284,570.2313 C1816.6234,639.1388 1668.7584,716.9738 1596.7684,754.8738 " fill="none" id="umg-a_us" style="stroke: #A80036; stroke-width: 2.0; stroke-dasharray: 7.0,7.0;"/><!--MD5=[6997ee9cb04b0574bc4b3d2005e4b463]
link a_us to s4p--><path d="M1504.5284,781.5538 C1401.1284,783.2537 1157.4084,802.9938 1036.6484,945.0938 C1026.7734,956.7163 1018.7231,969.6572 1012.1979,983.4161 C1008.9353,990.2956 1006.054,997.3796 1003.5166,1004.6055 C1003.1994,1005.5087 1002.8876,1006.4142 1002.5811,1007.3218 C1002.4278,1007.7755 1002.2759,1008.2298 1002.1253,1008.6846 " fill="none" id="a_us-to-s4p" style="stroke: #A80036; stroke-width: 2.0; stroke-dasharray: 7.0,7.0;"/><polygon fill="#A80036" points="1002.1253,1008.6846,1015.3783,994.1122,1005.269,999.1916,1000.1895,989.0823,1002.1253,1008.6846" style="stroke: #A80036; stroke-width: 2.0;"/><!--MD5=[2d73c405dc055b46790ba087183c6302]
link umg to a_ub--><path d="M2180.4648,458.2775 C2178.6422,460.4378 2176.6845,462.7583 2174.6014,465.2273 C2170.4354,470.1653 2165.7681,475.6973 2160.6781,481.7306 C2140.3177,505.8638 2113.1921,538.0163 2084.3159,572.2438 C2026.5634,640.6988 1961.8084,717.4538 1930.1684,754.9538 " fill="none" id="umg-a_ub" style="stroke: #A80036; stroke-width: 2.0; stroke-dasharray: 7.0,7.0;"/><!--MD5=[bef761d0f1a3dc5cd5fa1b8f082cfd20]
link a_ub to bi--><path d="M1862.3884,792.5738 C1791.9084,810.5938 1662.2884,854.6338 1598.6484,945.0938 C1594.2646,951.3238 1590.2764,957.8319 1586.6517,964.5603 C1584.8393,967.9245 1583.1178,971.3439 1581.4832,974.811 C1581.2788,975.2444 1581.0759,975.6785 1580.8743,976.1134 " fill="none" id="a_ub-to-bi" style="stroke: #A80036; stroke-width: 2.0; stroke-dasharray: 7.0,7.0;"/><polygon fill="#A80036" points="1580.8743,976.1134,1595.7034,963.1482,1585.0805,967.0411,1581.1876,956.4182,1580.8743,976.1134" style="stroke: #A80036; stroke-width: 2.0;"/><!--MD5=[9f83a443132699edc54afadafd27b93b]
link umg to a_ue--><path d="M2182.037,645.4536 C2181.9991,645.9881 2181.9613,646.522 2181.9236,647.0555 C2181.848,648.1223 2181.7726,649.187 2181.6974,650.2494 C2181.0957,658.7485 2180.5045,667.0986 2179.9306,675.2069 C2177.6346,707.64 2175.6134,736.2038 2174.2884,754.9538 " fill="none" id="umg-a_ue" style="stroke: #A80036; stroke-width: 2.0; stroke-dasharray: 7.0,7.0;"/><!--MD5=[43ca41bea33796d59755bfaa9855f1b8]
link a_ue to erasmus--><path d="M2171.4684,805.6937 C2170.3434,828.1338 2168.5109,864.6863 2166.3874,907.0463 C2165.3257,928.2262 2164.1913,950.8581 2163.0361,973.9038 C2163,974.6239 2162.9639,975.3445 2162.9278,976.0655 " fill="none" id="a_ue-to-erasmus" style="stroke: #A80036; stroke-width: 2.0; stroke-dasharray: 7.0,7.0;"/><polygon fill="#A80036" points="2162.9278,976.0655,2171.8188,958.4885,2163.4284,966.078,2155.8389,957.6875,2162.9278,976.0655" style="stroke: #A80036; stroke-width: 2.0;"/><!--MD5=[7339e6ca21ba761044ccb6aba77ddd84]
link umg to a_un--><path d="M2234.1342,645.3738 C2234.3584,645.7284 2234.5839,646.0822 2234.8106,646.4351 C2242.0659,657.7272 2250.6059,668.1063 2260.6484,677.0938 C2351.1284,758.0738 2735.5284,774.1538 2872.1884,777.3137 " fill="none" id="umg-a_un" style="stroke: #A80036; stroke-width: 2.0; stroke-dasharray: 7.0,7.0;"/><!--MD5=[9fa15f41c5eba71b8841bb348f363064]
link a_un to netcup--><path d="M2925.1684,805.2337 C2941.8384,890.6937 3001.8934,1198.4688 3058.1834,1486.9488 C3065.2196,1523.0088 3072.197,1558.7673 3079.0235,1593.7524 C3079.8769,1598.1255 3080.7278,1602.4866 3081.5762,1606.8347 " fill="none" id="a_un-to-netcup" style="stroke: #A80036; stroke-width: 2.0; stroke-dasharray: 7.0,7.0;"/><polygon fill="#A80036" points="3081.5762,1606.8347,3085.9809,1587.6357,3079.6611,1597.0198,3070.2771,1590.6999,3081.5762,1606.8347" style="stroke: #A80036; stroke-width: 2.0;"/><!--MD5=[c0b26be026174339df01e960bf1bc3cf]
link ship to webspace--><path d="M2646.8484,516.3938 C2651.3984,675.9238 2662.2134,1055.3638 2671.9584,1397.2613 C2674.3946,1482.7356 2676.764,1565.8636 2678.9519,1642.6225 C2680.0458,1681.0019 2681.0944,1717.7891 2682.0833,1752.4811 C2682.2069,1756.8176 2682.3296,1761.1214 2682.4513,1765.3914 C2682.5121,1767.5265 2682.5728,1769.653 2682.6331,1771.7711 " fill="none" id="ship-to-webspace" style="stroke: #A80036; stroke-width: 2.0;"/><polygon fill="#A80036" points="2682.6331,1771.7711,2690.117,1753.5505,2682.3482,1761.7752,2674.1235,1754.0063,2682.6331,1771.7711" style="stroke: #A80036; stroke-width: 2.0;"/><text fill="#000000" font-family="sans-serif" font-size="26" lengthAdjust="spacingAndGlyphs" textLength="112" x="2658.6484" y="891.2275">Adminis-</text><text fill="#000000" font-family="sans-serif" font-size="26" lengthAdjust="spacingAndGlyphs" textLength="84" x="2672.6484" y="921.4932">tration</text><!--MD5=[146ac31a81dcf7247f718aff5916ad51]
link s4p_partner to wp--><path d="M1118.4084,1319.1738 C1089.7084,1369.3138 1058.2884,1433.2738 1042.6484,1495.0938 C1027.6784,1554.2838 1023.5684,1690.3838 1023.2534,1813.3463 C1023.214,1828.7166 1023.2339,1843.8816 1023.2993,1858.6655 C1023.332,1866.0574 1023.3761,1873.3541 1023.4299,1880.5335 C1023.4433,1882.3283 1023.4573,1884.1159 1023.4719,1885.8957 C1023.4793,1886.7856 1023.4867,1887.6736 1023.4943,1888.5597 " fill="none" id="s4p_partner-to-wp" style="stroke: #A80036; stroke-width: 2.0;"/><polygon fill="#A80036" points="1023.4943,1888.5597,1031.3398,1870.4918,1023.4086,1878.56,1015.3404,1870.6289,1023.4943,1888.5597" style="stroke: #A80036; stroke-width: 2.0;"/><text fill="#000000" font-family="sans-serif" font-size="26" lengthAdjust="spacingAndGlyphs" textLength="112" x="1070.6484" y="1441.2275">Adminis-</text><text fill="#000000" font-family="sans-serif" font-size="26" lengthAdjust="spacingAndGlyphs" textLength="84" x="1084.6484" y="1471.4932">tration</text><!--MD5=[4b8def5eb75f600a6c203c284103c1ba]
link umg_team to e_de--><path d="M2410.2484,549.3938 C2426.1684,862.4938 2471.2284,1749.7138 2483.5284,1991.5538 " fill="none" id="umg_team-to-e_de" style="stroke: #A80036; stroke-width: 2.0;"/><polygon fill="#A80036" points="2484.0484,2001.9138,2491.1106,1983.5256,2483.5333,1991.927,2475.1319,1984.3497,2484.0484,2001.9138" style="stroke: #A80036; stroke-width: 2.0;"/><!--MD5=[94e15bd2dd988e8bac20be7795d24922]
link bi_partner to e_pl--><path d="M1754.0484,1286.4738 C1831.6084,1364.1338 1955.4284,1488.6338 1958.6484,1495.0938 C2041.0284,1659.8538 2047.7084,1883.6338 2045.4484,1990.8338 " fill="none" id="bi_partner-to-e_pl" style="stroke: #A80036; stroke-width: 2.0;"/><polygon fill="#A80036" points="2045.1884,2001.4538,2053.6484,1983.6653,2045.4454,1991.4571,2037.6537,1983.2541,2045.1884,2001.4538" style="stroke: #A80036; stroke-width: 2.0;"/><!--MD5=[ac4b9285fdce224685b70e92f0a79ffb]
link erasmus_partner to e_nl--><path d="M2278.8284,1319.2738 C2275.5284,1490.2938 2268.6284,1847.4938 2265.8484,1991.2337 " fill="none" id="erasmus_partner-to-e_nl" style="stroke: #A80036; stroke-width: 2.0;"/><polygon fill="#A80036" points="2265.6284,2002.0138,2273.9867,1984.1773,2265.8283,1992.0157,2257.9899,1983.8574,2265.6284,2002.0138" style="stroke: #A80036; stroke-width: 2.0;"/><!--MD5=[d320135e18d4819ab489a80e606b00fb]
reverse link i_web to user--><path d="M2853.5284,2398.6938 C2872.1084,2470.5138 2923.8484,2670.4538 2952.6484,2781.7738 " fill="none" id="i_web-backto-user" style="stroke: #A80036; stroke-width: 2.0;"/><polygon fill="#A80036" points="2850.8484,2388.2938,2847.6277,2407.7264,2853.361,2397.9729,2863.1144,2403.7062,2850.8484,2388.2938" style="stroke: #A80036; stroke-width: 2.0;"/><!--MD5=[3d02842c6fd60e0dd56159e80b4a6c76]
reverse link i_mail to user--><path d="M3059.6284,2398.6938 C3046.0484,2470.5138 3008.2884,2670.4538 2987.2484,2781.7738 " fill="none" id="i_mail-backto-user" style="stroke: #A80036; stroke-width: 2.0;"/><polygon fill="#A80036" points="3061.5884,2388.2938,3050.3854,2404.4954,3059.7317,2398.1199,3066.1072,2407.4661,3061.5884,2388.2938" style="stroke: #A80036; stroke-width: 2.0;"/><!--MD5=[17552040276eef0f93b8cd24bee29bc5]
link Elementor to TranslatePress--><!--MD5=[c50090d8a87d1d877a70590d9401d5f9]
link Elementor to Yoast SEO--><!--MD5=[a2fb50a0ce4548e129e183da535d7ae7]
link Yoast SEO to One Click Accessibility--><rect fill="#DDDDDD" height="85.1875" rx="10" ry="10" style="stroke: #000000; stroke-width: 2.0;" width="1024" x="1186.8209" y="2965.084"/><text fill="#000000" font-family="sans-serif" font-size="28" font-weight="bold" lengthAdjust="spacingAndGlyphs" textLength="118" x="1198.8209" y="3001.0742">Legend</text><text fill="#000000" font-family="sans-serif" font-size="28" lengthAdjust="spacingAndGlyphs" textLength="1000" x="1198.8209" y="3033.668">- DPA "Data Processing Agreement" - Auftragsverarbeitungsvertrag (AVV)</text><!--MD5=[7f9c14efcf0c7d108610c36e9a2c977d]
@startuml

skinparam shadowing false
scale 2

title: Overview Homepage\njoinus4health.eu
header version: %date("dd.MM.yyyy")

skinparam actorStyle awesome
skinparam rectangleBackgroundColor<<Partner>> #cccccc
skinparam componentBackgroundColor #fefece

legend
**Legend**
- DPA "Data Processing Agreement" - Auftragsverarbeitungsvertrag (AVV)
end legend

actor "User" as user

rectangle "UMG\ncoordinator" as umg #ffcccc {
    rectangle "ICM SHIP-KEF" {
        actor "SHIP-IT" as ship
        actor "JoinUs4Health\nProject Manage-\nment Team" as umg_team
    }
}

rectangle "science4people.eu" <<Partner>> as s4p {
    actor "science4people\nPartner" as s4p_partner
}

rectangle "Medical University\nof Bialystok" <<Partner>> as bi {
    actor "Bialystok\nPartner" as bi_partner
}

rectangle "Medical Center of the\nErasmus University Rotterdamm" <<Partner>> as erasmus {
    actor "Erasmus\nPartner" as erasmus_partner
}

cloud "Internet" {
    node "netcup.de" <<Provider>> as netcup #ddbbaa {
        rectangle "Domain joinus4health.eu" as webspace #ffccaa {
            component "WordPress" <<Web-Framework>> as wp {
                component "Elementor"
                component "TranslatePress"
                component "Yoast SEO"
                component "One Click Accessibility"
            }
            rectangle "//separate Server//" {
                database "MySQL" <<database>> as my
            }
            folder "WordPress-Files" as wpfolder
            file "log files" as log
            component "Webalizer" <<statistic-tool>> as stats
            component "E-Mail" as email {
                rectangle "de/en" <<inbox>> as e_de
                rectangle "pl/en" <<inbox>> as e_pl
                rectangle "nl/en" <<inbox>> as e_nl
            }
            wp - -> my
            wp -l-> wpfolder
            stats - -> log
        }
        interface "Homepage" as i_web
        interface "E-Mail" as i_mail
        i_web .u. wp
        i_mail .u. email
    }
}

note "DPA" as a_us #aaaaff
umg .. a_us
a_us ..> s4p
note "DPA" as a_ub #aaaaff
umg .. a_ub
a_ub ..> bi
note "DPA" as a_ue #aaaaff
umg .. a_ue
a_ue ..> erasmus
note "DPA" as a_un #aaaaff
umg .. a_un
a_un ..> netcup

ship        - ->     webspace    : Adminis-\ntration
s4p_partner - ->     wp          : Adminis-\ntration

umg_team        - -> e_de
bi_partner      - -> e_pl
erasmus_partner - -> e_nl

user    -u-> i_web
user    -u-> i_mail

@enduml

@startuml

skinparam shadowing false
scale 2

title: Overview Homepage\njoinus4health.eu
header version: 19.01.2022

skinparam actorStyle awesome
skinparam rectangleBackgroundColor<<Partner>> #cccccc
skinparam componentBackgroundColor #fefece

legend
**Legend**
- DPA "Data Processing Agreement" - Auftragsverarbeitungsvertrag (AVV)
end legend

actor "User" as user

rectangle "UMG\ncoordinator" as umg #ffcccc {
    rectangle "ICM SHIP-KEF" {
        actor "SHIP-IT" as ship
        actor "JoinUs4Health\nProject Manage-\nment Team" as umg_team
    }
}

rectangle "science4people.eu" <<Partner>> as s4p {
    actor "science4people\nPartner" as s4p_partner
}

rectangle "Medical University\nof Bialystok" <<Partner>> as bi {
    actor "Bialystok\nPartner" as bi_partner
}

rectangle "Medical Center of the\nErasmus University Rotterdamm" <<Partner>> as erasmus {
    actor "Erasmus\nPartner" as erasmus_partner
}

cloud "Internet" {
    node "netcup.de" <<Provider>> as netcup #ddbbaa {
        rectangle "Domain joinus4health.eu" as webspace #ffccaa {
            component "WordPress" <<Web-Framework>> as wp {
                component "Elementor"
                component "TranslatePress"
                component "Yoast SEO"
                component "One Click Accessibility"
            }
            rectangle "//separate Server//" {
                database "MySQL" <<database>> as my
            }
            folder "WordPress-Files" as wpfolder
            file "log files" as log
            component "Webalizer" <<statistic-tool>> as stats
            component "E-Mail" as email {
                rectangle "de/en" <<inbox>> as e_de
                rectangle "pl/en" <<inbox>> as e_pl
                rectangle "nl/en" <<inbox>> as e_nl
            }
            wp - -> my
            wp -l-> wpfolder
            stats - -> log
        }
        interface "Homepage" as i_web
        interface "E-Mail" as i_mail
        i_web .u. wp
        i_mail .u. email
    }
}

note "DPA" as a_us #aaaaff
umg .. a_us
a_us ..> s4p
note "DPA" as a_ub #aaaaff
umg .. a_ub
a_ub ..> bi
note "DPA" as a_ue #aaaaff
umg .. a_ue
a_ue ..> erasmus
note "DPA" as a_un #aaaaff
umg .. a_un
a_un ..> netcup

ship        - ->     webspace    : Adminis-\ntration
s4p_partner - ->     wp          : Adminis-\ntration

umg_team        - -> e_de
bi_partner      - -> e_pl
erasmus_partner - -> e_nl

user    -u-> i_web
user    -u-> i_mail

@enduml

PlantUML version 1.2020.16(Sun Aug 23 22:20:43 CEST 2020)
(GPL source distribution)
Java Runtime: OpenJDK Runtime Environment
JVM: OpenJDK 64-Bit Server VM
Default Encoding: UTF-8
Language: en
Country: GB
--></g></svg>