<?xml version="1.0" encoding="UTF-8" standalone="no"?><svg xmlns="http://www.w3.org/2000/svg" xmlns:xlink="http://www.w3.org/1999/xlink" contentScriptType="application/ecmascript" contentStyleType="text/css" height="3030px" preserveAspectRatio="none" style="width:2540px;height:3030px;" version="1.1" viewBox="0 0 2540 3030" width="2540px" zoomAndPan="magnify"><defs/><g><text fill="#888888" font-family="sans-serif" font-size="20" lengthAdjust="spacingAndGlyphs" textLength="190" x="2314.2795" y="18.5645">version: 19.01.2022</text><text fill="#000000" font-family="sans-serif" font-size="36" lengthAdjust="spacingAndGlyphs" textLength="378" x="1063.1398" y="56.6973">Overview Homepage</text><text fill="#000000" font-family="sans-serif" font-size="36" lengthAdjust="spacingAndGlyphs" textLength="290" x="1107.1398" y="98.6035">joinus4health.eu</text><!--MD5=[26c5d267d5640af9fd645d609f9318ff]
cluster umg--><rect fill="#FFCCCC" height="524" style="stroke: #000000; stroke-width: 3.0;" width="618" x="1406.4587" y="121.0938"/><text fill="#000000" font-family="sans-serif" font-size="28" font-weight="bold" lengthAdjust="spacingAndGlyphs" textLength="72" x="1679.4587" y="151.084">UMG</text><text fill="#000000" font-family="sans-serif" font-size="28" font-weight="bold" lengthAdjust="spacingAndGlyphs" textLength="184" x="1623.4587" y="183.6777">coordinator</text><!--MD5=[a5da4f68ede42b98d7b5f3a10e3ccc90]
cluster ICM SHIP-KEF--><rect fill="#FFCCCC" height="326" style="stroke: #000000; stroke-width: 3.0;" width="474" x="1486.4587" y="255.0938"/><text fill="#000000" font-family="sans-serif" font-size="28" font-weight="bold" lengthAdjust="spacingAndGlyphs" textLength="206" x="1620.4587" y="285.084">ICM SHIP-KEF</text><!--MD5=[d416a0175338ee00014ff4466993c423]
cluster s4p--><rect fill="#CCCCCC" height="358" style="stroke: #000000; stroke-width: 3.0;" width="356" x="304.4587" y="1009.0938"/><text fill="#000000" font-family="sans-serif" font-size="28" font-style="italic" lengthAdjust="spacingAndGlyphs" textLength="134" x="415.4587" y="1039.084">«Partner»</text><text fill="#000000" font-family="sans-serif" font-size="28" font-weight="bold" lengthAdjust="spacingAndGlyphs" textLength="300" x="332.4587" y="1071.6777">science4people.eu</text><!--MD5=[0ff277c6235d691d4cf1e9691da08ce2]
cluster bi--><rect fill="#CCCCCC" height="390" style="stroke: #000000; stroke-width: 3.0;" width="318" x="740.4587" y="977.0938"/><text fill="#000000" font-family="sans-serif" font-size="28" font-style="italic" lengthAdjust="spacingAndGlyphs" textLength="134" x="832.4587" y="1007.084">«Partner»</text><text fill="#000000" font-family="sans-serif" font-size="28" font-weight="bold" lengthAdjust="spacingAndGlyphs" textLength="286" x="756.4587" y="1039.6777">Medical University</text><text fill="#000000" font-family="sans-serif" font-size="28" font-weight="bold" lengthAdjust="spacingAndGlyphs" textLength="182" x="808.4587" y="1072.2715">of Bialystok</text><!--MD5=[eaeb4b0a6359e5999f2bdc196eca946c]
cluster erasmus--><rect fill="#CCCCCC" height="390" style="stroke: #000000; stroke-width: 3.0;" width="536" x="1138.4587" y="977.0938"/><text fill="#000000" font-family="sans-serif" font-size="28" font-style="italic" lengthAdjust="spacingAndGlyphs" textLength="134" x="1339.4587" y="1007.084">«Partner»</text><text fill="#000000" font-family="sans-serif" font-size="28" font-weight="bold" lengthAdjust="spacingAndGlyphs" textLength="340" x="1236.4587" y="1039.6777">Medical Center of the</text><text fill="#000000" font-family="sans-serif" font-size="28" font-weight="bold" lengthAdjust="spacingAndGlyphs" textLength="504" x="1154.4587" y="1072.2715">Erasmus University Rotterdamm</text><!--MD5=[07074073229a58b98d86dbf75a12e332]
cluster Internet--><path d="M130.8245,1547.9451 C183.5158,1459.7575 247.2571,1463.8408 294.6416,1552.8511 C324.5751,1473.5036 403.8568,1468.5327 455.1257,1528.2251 C514.2567,1448.0884 578.8566,1453.1262 620.9009,1544.7193 C678.1824,1451.5396 730.9047,1449.6918 795.1429,1538.0419 C836.9572,1467.5504 884.983,1450.7102 946.35,1516.3188 C988.5692,1454.3533 1065.7751,1441.408 1101.6261,1523.1974 C1143.1832,1432.5546 1226.5667,1434.0204 1269.2683,1522.124 C1330.1497,1457.2033 1386.741,1454.0345 1432.1665,1538.9295 C1480.5601,1468.7463 1542.9327,1453.6863 1591.2543,1539.003 C1633.144,1471.5862 1694.9071,1466.3967 1745.0573,1529.2505 C1803.2895,1453.4908 1864.4431,1465.6152 1911.543,1541.4744 C1956.1437,1475.1329 2028.0471,1456.2731 2075.1505,1538.7225 C2114.6179,1465.8488 2176.4051,1457.0336 2220.8385,1533.8906 C2270.5526,1452.9392 2345.6404,1461.5803 2388.4587,1541.0938 C2399.1447,1542.223 2403.3816,1547.947 2398.1202,1558.1236 C2483.0009,1606.2208 2486.8565,1673.7072 2412.0673,1734.4351 C2488.3975,1785.8277 2498.0209,1867.3939 2410.7878,1917.6442 C2497.1664,1972.6101 2489.9412,2035.1399 2418.1352,2096.6005 C2516.2795,2152.2359 2507.5796,2223.0509 2422.8526,2283.3069 C2497.2419,2333.0048 2492.7207,2408.113 2407.555,2442.4763 C2479.0256,2505.2673 2482.6186,2599.8221 2374.4587,2631.0938 C2389.4346,2623.7514 2398.7289,2627.0265 2401.309,2644.5037 C2343.4972,2708.9909 2291.587,2722.3499 2239.3046,2638.4662 C2195.4637,2716.4355 2129.7022,2718.0268 2072.8314,2653.7111 C2017.1086,2720.1795 1968.014,2728.3964 1913.5943,2652.256 C1875.6219,2725.5694 1797.9834,2722.1947 1755.6826,2657.1979 C1698.6153,2719.857 1626.459,2717.1381 1589.5262,2634.2176 C1545.3961,2719.2798 1465.6041,2704.3292 1419.4687,2636.4474 C1386.417,2707.6197 1327.9907,2717.7673 1273.4743,2660.9271 C1216.8324,2728.3266 1168.2185,2729.2193 1117.4847,2654.4449 C1057.5608,2725.1079 998.9899,2731.8834 953.7497,2639.6827 C897.9039,2740.9134 840.7579,2731.4457 773.0413,2651.5243 C727.9727,2712.7539 655.2057,2707.2806 625.4814,2634.6141 C585.0651,2723.2314 535.2567,2738.5326 467.5304,2660.4983 C417.7462,2740.8741 346.9417,2725.1843 312.515,2645.6142 C249.5476,2721.129 152.0551,2705.5145 112.4587,2617.0938 C121.7732,2622.2087 122.8657,2630.4757 113.8653,2636.8919 C34.6004,2568.6028 18.2264,2506.4793 122.5225,2446.5385 C32.6741,2403.442 35.8307,2339.9614 110.861,2284.9648 C12,2220.2723 22.3401,2155.2698 106.1969,2086.2878 C45.6038,2024.213 51.0668,1963.6552 133.5221,1925.9607 C51.4302,1878.6982 55.8963,1794.9552 131.2603,1745.7168 C33.9402,1684.4845 23.6967,1592.7204 126.4587,1527.0938 C137.2089,1530.639 138.4128,1540.5602 130.8245,1547.9451 " fill="#FFFFFF" style="stroke: #000000; stroke-width: 3.0;"/><text fill="#000000" font-family="sans-serif" font-size="28" font-weight="bold" lengthAdjust="spacingAndGlyphs" textLength="126" x="1187.4587" y="1563.084">Internet</text><!--MD5=[fc7c9bc70f56de5c86322601a7f106c8]
cluster netcup--><polygon fill="#DDBBAA" points="160.4587,1633.0938,180.4587,1613.0938,2340.4587,1613.0938,2340.4587,2563.0938,2320.4587,2583.0938,160.4587,2583.0938,160.4587,1633.0938" style="stroke: #000000; stroke-width: 3.0;"/><line style="stroke: #000000; stroke-width: 3.0;" x1="2320.4587" x2="2340.4587" y1="1633.0938" y2="1613.0938"/><line style="stroke: #000000; stroke-width: 3.0;" x1="160.4587" x2="2320.4587" y1="1633.0938" y2="1633.0938"/><line style="stroke: #000000; stroke-width: 3.0;" x1="2320.4587" x2="2320.4587" y1="1633.0938" y2="2583.0938"/><text fill="#000000" font-family="sans-serif" font-size="28" font-style="italic" lengthAdjust="spacingAndGlyphs" textLength="148" x="1168.4587" y="1665.084">«Provider»</text><text fill="#000000" font-family="sans-serif" font-size="28" font-weight="bold" lengthAdjust="spacingAndGlyphs" textLength="160" x="1162.4587" y="1697.6777">netcup.de</text><!--MD5=[4664c0d5d074dae4437fc00e51bb76c2]
cluster webspace--><rect fill="#FFCCAA" height="730" style="stroke: #000000; stroke-width: 3.0;" width="1622" x="240.4587" y="1773.0938"/><text fill="#000000" font-family="sans-serif" font-size="28" font-weight="bold" lengthAdjust="spacingAndGlyphs" textLength="388" x="857.4587" y="1803.084">Domain joinus4health.eu</text><!--MD5=[893b3f08f7335ed1c07837f7f8fbbed9]
cluster //separate Server//--><rect fill="#FFCCAA" height="226" style="stroke: #000000; stroke-width: 3.0;" width="288" x="666.4587" y="2213.0938"/><text fill="#000000" font-family="sans-serif" font-size="28" font-style="italic" font-weight="bold" lengthAdjust="spacingAndGlyphs" textLength="256" x="682.4587" y="2243.084">separate Server</text><!--MD5=[cf76bd177cad34bbcc88e5e79c8c4c0a]
cluster email--><rect fill="#FEFECE" height="240" style="stroke: #000000; stroke-width: 3.0;" width="730" x="1036.4587" y="1891.0938"/><rect fill="#FEFECE" height="20" style="stroke: #000000; stroke-width: 3.0;" width="30" x="1726.4587" y="1901.0938"/><rect fill="#FEFECE" height="4" style="stroke: #000000; stroke-width: 3.0;" width="8" x="1722.4587" y="1905.0938"/><rect fill="#FEFECE" height="4" style="stroke: #000000; stroke-width: 3.0;" width="8" x="1722.4587" y="1913.0938"/><text fill="#000000" font-family="sans-serif" font-size="28" font-weight="bold" lengthAdjust="spacingAndGlyphs" textLength="90" x="1356.4587" y="1943.084">E-Mail</text><!--MD5=[3103861f95f0d7217426811062624cfa]
entity ship--><ellipse cx="1870.4587" cy="393.0938" fill="#FEFECE" rx="32" ry="32" style="stroke: #A80036; stroke-width: 3.0;"/><path d="M1870.4587,433.0938 C1878.4587,433.0938 1884.4587,433.0938 1892.4587,425.0938 C1908.4587,425.0938 1924.4587,441.0938 1924.4587,457.0938 L1924.4587,465.0938 C1924.4587,473.0938 1916.4587,481.0938 1908.4587,481.0938 L1832.4587,481.0938 C1824.4587,481.0938 1816.4587,473.0938 1816.4587,465.0938 L1816.4587,457.0938 C1816.4587,441.0938 1832.4587,425.0938 1848.4587,425.0938 C1856.4587,433.0938 1862.4587,433.0938 1870.4587,433.0938 " fill="#FEFECE" style="stroke: #A80036; stroke-width: 3.0;"/><text fill="#000000" font-family="sans-serif" font-size="28" lengthAdjust="spacingAndGlyphs" textLength="96" x="1822.4587" y="510.084">SHIP-IT</text><!--MD5=[b08f2111fdc261dd0bfb2eacdde7049b]
entity umg_team--><ellipse cx="1630.4587" cy="360.0938" fill="#FEFECE" rx="32" ry="32" style="stroke: #A80036; stroke-width: 3.0;"/><path d="M1630.4587,400.0938 C1638.4587,400.0938 1644.4587,400.0938 1652.4587,392.0938 C1668.4587,392.0938 1684.4587,408.0938 1684.4587,424.0938 L1684.4587,432.0938 C1684.4587,440.0938 1676.4587,448.0938 1668.4587,448.0938 L1592.4587,448.0938 C1584.4587,448.0938 1576.4587,440.0938 1576.4587,432.0938 L1576.4587,424.0938 C1576.4587,408.0938 1592.4587,392.0938 1608.4587,392.0938 C1616.4587,400.0938 1622.4587,400.0938 1630.4587,400.0938 " fill="#FEFECE" style="stroke: #A80036; stroke-width: 3.0;"/><text fill="#000000" font-family="sans-serif" font-size="28" lengthAdjust="spacingAndGlyphs" textLength="190" x="1518.4587" y="477.084">JoinUs4Health</text><text fill="#000000" font-family="sans-serif" font-size="28" lengthAdjust="spacingAndGlyphs" textLength="224" x="1518.4587" y="509.6777">Project Manage-</text><text fill="#000000" font-family="sans-serif" font-size="28" lengthAdjust="spacingAndGlyphs" textLength="158" x="1518.4587" y="542.2715">ment Team</text><!--MD5=[db450b6175b1cf7e0741641dc58b6f7f]
entity s4p_partner--><ellipse cx="502.4587" cy="1162.0938" fill="#FEFECE" rx="32" ry="32" style="stroke: #A80036; stroke-width: 3.0;"/><path d="M502.4587,1202.0938 C510.4587,1202.0938 516.4587,1202.0938 524.4587,1194.0938 C540.4587,1194.0938 556.4587,1210.0938 556.4587,1226.0938 L556.4587,1234.0938 C556.4587,1242.0938 548.4587,1250.0938 540.4587,1250.0938 L464.4587,1250.0938 C456.4587,1250.0938 448.4587,1242.0938 448.4587,1234.0938 L448.4587,1226.0938 C448.4587,1210.0938 464.4587,1194.0938 480.4587,1194.0938 C488.4587,1202.0938 494.4587,1202.0938 502.4587,1202.0938 " fill="#FEFECE" style="stroke: #A80036; stroke-width: 3.0;"/><text fill="#000000" font-family="sans-serif" font-size="28" lengthAdjust="spacingAndGlyphs" textLength="222" x="391.4587" y="1279.084">science4people</text><text fill="#000000" font-family="sans-serif" font-size="28" lengthAdjust="spacingAndGlyphs" textLength="100" x="391.4587" y="1311.6777">Partner</text><!--MD5=[763ba745d9525f6980f176f7384ba2a3]
entity bi_partner--><ellipse cx="948.4587" cy="1162.0938" fill="#FEFECE" rx="32" ry="32" style="stroke: #A80036; stroke-width: 3.0;"/><path d="M948.4587,1202.0938 C956.4587,1202.0938 962.4587,1202.0938 970.4587,1194.0938 C986.4587,1194.0938 1002.4587,1210.0938 1002.4587,1226.0938 L1002.4587,1234.0938 C1002.4587,1242.0938 994.4587,1250.0938 986.4587,1250.0938 L910.4587,1250.0938 C902.4587,1250.0938 894.4587,1242.0938 894.4587,1234.0938 L894.4587,1226.0938 C894.4587,1210.0938 910.4587,1194.0938 926.4587,1194.0938 C934.4587,1202.0938 940.4587,1202.0938 948.4587,1202.0938 " fill="#FEFECE" style="stroke: #A80036; stroke-width: 3.0;"/><text fill="#000000" font-family="sans-serif" font-size="28" lengthAdjust="spacingAndGlyphs" textLength="122" x="887.4587" y="1279.084">Bialystok</text><text fill="#000000" font-family="sans-serif" font-size="28" lengthAdjust="spacingAndGlyphs" textLength="100" x="887.4587" y="1311.6777">Partner</text><!--MD5=[da111c5fa759825b4b733df98dd135a0]
entity erasmus_partner--><ellipse cx="1468.4587" cy="1162.0938" fill="#FEFECE" rx="32" ry="32" style="stroke: #A80036; stroke-width: 3.0;"/><path d="M1468.4587,1202.0938 C1476.4587,1202.0938 1482.4587,1202.0938 1490.4587,1194.0938 C1506.4587,1194.0938 1522.4587,1210.0938 1522.4587,1226.0938 L1522.4587,1234.0938 C1522.4587,1242.0938 1514.4587,1250.0938 1506.4587,1250.0938 L1430.4587,1250.0938 C1422.4587,1250.0938 1414.4587,1242.0938 1414.4587,1234.0938 L1414.4587,1226.0938 C1414.4587,1210.0938 1430.4587,1194.0938 1446.4587,1194.0938 C1454.4587,1202.0938 1460.4587,1202.0938 1468.4587,1202.0938 " fill="#FEFECE" style="stroke: #A80036; stroke-width: 3.0;"/><text fill="#000000" font-family="sans-serif" font-size="28" lengthAdjust="spacingAndGlyphs" textLength="120" x="1408.4587" y="1279.084">Erasmus</text><text fill="#000000" font-family="sans-serif" font-size="28" lengthAdjust="spacingAndGlyphs" textLength="100" x="1408.4587" y="1311.6777">Partner</text><!--MD5=[51764780891d56c625808fe39e0f2680]
entity i_web--><ellipse cx="2002.4587" cy="2345.0938" fill="#FEFECE" rx="16" ry="16" style="stroke: #A80036; stroke-width: 4.0;"/><text fill="#000000" font-family="sans-serif" font-size="28" lengthAdjust="spacingAndGlyphs" textLength="152" x="1926.4587" y="2405.084">Homepage</text><!--MD5=[fa02c4fa1f4a6cb5c999117feefacaf8]
entity i_mail--><ellipse cx="2220.4587" cy="2345.0938" fill="#FEFECE" rx="16" ry="16" style="stroke: #A80036; stroke-width: 4.0;"/><text fill="#000000" font-family="sans-serif" font-size="28" lengthAdjust="spacingAndGlyphs" textLength="80" x="2180.4587" y="2405.084">E-Mail</text><!--MD5=[4660e0abdb7fa9e4244c49bb3714a7b9]
entity wp--><rect fill="#FEFECE" height="125.1875" style="stroke: #A80036; stroke-width: 3.0;" width="342" x="639.4587" y="1967.0938"/><rect fill="#FEFECE" height="20" style="stroke: #A80036; stroke-width: 3.0;" width="30" x="941.4587" y="1977.0938"/><rect fill="#FEFECE" height="4" style="stroke: #A80036; stroke-width: 3.0;" width="8" x="937.4587" y="1981.0938"/><rect fill="#FEFECE" height="4" style="stroke: #A80036; stroke-width: 3.0;" width="8" x="937.4587" y="1989.0938"/><text fill="#000000" font-family="sans-serif" font-size="28" font-style="italic" lengthAdjust="spacingAndGlyphs" textLength="262" x="669.4587" y="2033.084">«Web-Framework»</text><text fill="#000000" font-family="sans-serif" font-size="28" lengthAdjust="spacingAndGlyphs" textLength="150" x="725.4587" y="2065.6777">WordPress</text><!--MD5=[30ba7fb1050e29c0f3290b9e87c281e8]
entity log--><polygon fill="#FEFECE" points="356.4587,2309.0938,356.4587,2381.6875,500.4587,2381.6875,500.4587,2329.0938,480.4587,2309.0938,356.4587,2309.0938" style="stroke: #000000; stroke-width: 3.0;"/><path d="M480.4587,2309.0938 L480.4587,2329.0938 L500.4587,2329.0938 " fill="#FEFECE" style="stroke: #000000; stroke-width: 3.0;"/><text fill="#000000" font-family="sans-serif" font-size="28" lengthAdjust="spacingAndGlyphs" textLength="104" x="376.4587" y="2355.084">log files</text><!--MD5=[8aaf477cf9b50a1d50e25883b72bb19a]
entity stats--><rect fill="#FEFECE" height="125.1875" style="stroke: #A80036; stroke-width: 3.0;" width="280" x="288.4587" y="1967.0938"/><rect fill="#FEFECE" height="20" style="stroke: #A80036; stroke-width: 3.0;" width="30" x="528.4587" y="1977.0938"/><rect fill="#FEFECE" height="4" style="stroke: #A80036; stroke-width: 3.0;" width="8" x="524.4587" y="1981.0938"/><rect fill="#FEFECE" height="4" style="stroke: #A80036; stroke-width: 3.0;" width="8" x="524.4587" y="1989.0938"/><text fill="#000000" font-family="sans-serif" font-size="28" font-style="italic" lengthAdjust="spacingAndGlyphs" textLength="200" x="318.4587" y="2033.084">«statistic-tool»</text><text fill="#000000" font-family="sans-serif" font-size="28" lengthAdjust="spacingAndGlyphs" textLength="134" x="351.4587" y="2065.6777">Webalizer</text><!--MD5=[51425f20b61c3ae958e00a58355c3be3]
entity my--><path d="M709.4587,2303.0938 C709.4587,2283.0938 810.4587,2283.0938 810.4587,2283.0938 C810.4587,2283.0938 911.4587,2283.0938 911.4587,2303.0938 L911.4587,2386.2813 C911.4587,2406.2813 810.4587,2406.2813 810.4587,2406.2813 C810.4587,2406.2813 709.4587,2406.2813 709.4587,2386.2813 L709.4587,2303.0938 " fill="#FEFECE" style="stroke: #000000; stroke-width: 3.0;"/><path d="M709.4587,2303.0938 C709.4587,2323.0938 810.4587,2323.0938 810.4587,2323.0938 C810.4587,2323.0938 911.4587,2323.0938 911.4587,2303.0938 " fill="none" style="stroke: #000000; stroke-width: 3.0;"/><text fill="#000000" font-family="sans-serif" font-size="28" font-style="italic" lengthAdjust="spacingAndGlyphs" textLength="162" x="729.4587" y="2357.084">«database»</text><text fill="#000000" font-family="sans-serif" font-size="28" lengthAdjust="spacingAndGlyphs" textLength="92" x="764.4587" y="2389.6777">MySQL</text><!--MD5=[b60821f76768a9c71fc0268686c5d669]
entity e_de--><rect fill="#FEFECE" height="105.1875" style="stroke: #000000; stroke-width: 3.0;" width="152" x="1566.4587" y="1977.0938"/><text fill="#000000" font-family="sans-serif" font-size="28" font-style="italic" lengthAdjust="spacingAndGlyphs" textLength="112" x="1586.4587" y="2023.084">«inbox»</text><text fill="#000000" font-family="sans-serif" font-size="28" lengthAdjust="spacingAndGlyphs" textLength="82" x="1601.4587" y="2055.6777">de/en</text><!--MD5=[ba6cf0bdf5e2e09cfbee57ce52cfe5c1]
entity e_pl--><rect fill="#FEFECE" height="105.1875" style="stroke: #000000; stroke-width: 3.0;" width="152" x="1122.4587" y="1977.0938"/><text fill="#000000" font-family="sans-serif" font-size="28" font-style="italic" lengthAdjust="spacingAndGlyphs" textLength="112" x="1142.4587" y="2023.084">«inbox»</text><text fill="#000000" font-family="sans-serif" font-size="28" lengthAdjust="spacingAndGlyphs" textLength="70" x="1163.4587" y="2055.6777">pl/en</text><!--MD5=[ba72840a7e95ae0372abc584fb2d4dc3]
entity e_nl--><rect fill="#FEFECE" height="105.1875" style="stroke: #000000; stroke-width: 3.0;" width="152" x="1344.4587" y="1977.0938"/><text fill="#000000" font-family="sans-serif" font-size="28" font-style="italic" lengthAdjust="spacingAndGlyphs" textLength="112" x="1364.4587" y="2023.084">«inbox»</text><text fill="#000000" font-family="sans-serif" font-size="28" lengthAdjust="spacingAndGlyphs" textLength="70" x="1385.4587" y="2055.6777">nl/en</text><!--MD5=[8fc3522a43f8c7199df5e09e5bb0188e]
entity user--><ellipse cx="2128.4587" cy="2776.0938" fill="#FEFECE" rx="32" ry="32" style="stroke: #A80036; stroke-width: 3.0;"/><path d="M2128.4587,2816.0938 C2136.4587,2816.0938 2142.4587,2816.0938 2150.4587,2808.0938 C2166.4587,2808.0938 2182.4587,2824.0938 2182.4587,2840.0938 L2182.4587,2848.0938 C2182.4587,2856.0938 2174.4587,2864.0938 2166.4587,2864.0938 L2090.4587,2864.0938 C2082.4587,2864.0938 2074.4587,2856.0938 2074.4587,2848.0938 L2074.4587,2840.0938 C2074.4587,2824.0938 2090.4587,2808.0938 2106.4587,2808.0938 C2114.4587,2816.0938 2120.4587,2816.0938 2128.4587,2816.0938 " fill="#FEFECE" style="stroke: #A80036; stroke-width: 3.0;"/><text fill="#000000" font-family="sans-serif" font-size="28" lengthAdjust="spacingAndGlyphs" textLength="64" x="2096.4587" y="2893.084">User</text><path d="M730.4587,755.0938 L730.4587,805.3594 L826.4587,805.3594 L826.4587,775.0938 L806.4587,755.0938 L730.4587,755.0938 " fill="#AAAAFF" style="stroke: #A80036; stroke-width: 2.0;"/><path d="M806.4587,755.0938 L806.4587,775.0938 L826.4587,775.0938 L806.4587,755.0938 " fill="#AAAAFF" style="stroke: #A80036; stroke-width: 2.0;"/><text fill="#000000" font-family="sans-serif" font-size="26" lengthAdjust="spacingAndGlyphs" textLength="54" x="742.4587" y="789.2275">DPA</text><path d="M1088.4587,755.0938 L1088.4587,805.3594 L1184.4587,805.3594 L1184.4587,775.0938 L1164.4587,755.0938 L1088.4587,755.0938 " fill="#AAAAFF" style="stroke: #A80036; stroke-width: 2.0;"/><path d="M1164.4587,755.0938 L1164.4587,775.0938 L1184.4587,775.0938 L1164.4587,755.0938 " fill="#AAAAFF" style="stroke: #A80036; stroke-width: 2.0;"/><text fill="#000000" font-family="sans-serif" font-size="26" lengthAdjust="spacingAndGlyphs" textLength="54" x="1100.4587" y="789.2275">DPA</text><path d="M1350.4587,755.0938 L1350.4587,805.3594 L1446.4587,805.3594 L1446.4587,775.0938 L1426.4587,755.0938 L1350.4587,755.0938 " fill="#AAAAFF" style="stroke: #A80036; stroke-width: 2.0;"/><path d="M1426.4587,755.0938 L1426.4587,775.0938 L1446.4587,775.0938 L1426.4587,755.0938 " fill="#AAAAFF" style="stroke: #A80036; stroke-width: 2.0;"/><text fill="#000000" font-family="sans-serif" font-size="26" lengthAdjust="spacingAndGlyphs" textLength="54" x="1362.4587" y="789.2275">DPA</text><path d="M2090.4587,755.0938 L2090.4587,805.3594 L2186.4587,805.3594 L2186.4587,775.0938 L2166.4587,755.0938 L2090.4587,755.0938 " fill="#AAAAFF" style="stroke: #A80036; stroke-width: 2.0;"/><path d="M2166.4587,755.0938 L2166.4587,775.0938 L2186.4587,775.0938 L2166.4587,755.0938 " fill="#AAAAFF" style="stroke: #A80036; stroke-width: 2.0;"/><text fill="#000000" font-family="sans-serif" font-size="26" lengthAdjust="spacingAndGlyphs" textLength="54" x="2102.4587" y="789.2275">DPA</text><!--MD5=[0a867cd1b41760edf017e7717d6853dc]
link wp to my--><path d="M810.4587,2093.5338 C810.4587,2144.9938 810.4587,2218.4338 810.4587,2272.3338 " fill="none" id="wp-to-my" style="stroke: #A80036; stroke-width: 2.0;"/><polygon fill="#A80036" points="810.4587,2282.8338,818.4587,2264.8338,810.4587,2272.8338,802.4587,2264.8338,810.4587,2282.8338" style="stroke: #A80036; stroke-width: 2.0;"/><!--MD5=[100387b058f8c8f1b9f38d95a60b7ee2]
link stats to log--><path d="M428.4587,2093.5338 C428.4587,2153.9538 428.4587,2244.6938 428.4587,2298.4938 " fill="none" id="stats-to-log" style="stroke: #A80036; stroke-width: 2.0;"/><polygon fill="#A80036" points="428.4587,2308.7538,436.4587,2290.7538,428.4587,2298.7538,420.4587,2290.7538,428.4587,2308.7538" style="stroke: #A80036; stroke-width: 2.0;"/><!--MD5=[43fef3d11c192aa0a88d628b3eebaa00]
link wp to i_web--><path d="M892.4387,2093.3138 C929.7787,2118.4738 975.5787,2145.7138 1020.4587,2163.0938 C1390.5787,2306.4538 1884.3187,2337.3737 1984.3387,2342.2938 " fill="none" id="wp-i_web" style="stroke: #A80036; stroke-width: 2.0; stroke-dasharray: 7.0,7.0;"/><!--MD5=[8298b2441af43eb72b40d37aa4e0ec77]
link email to i_mail--><path d="M1066.2753,2131.3851 C1066.3717,2131.5931 1066.4686,2131.8009 1066.5662,2132.0082 C1066.7613,2132.423 1066.9589,2132.8364 1067.159,2133.2484 C1067.9593,2134.8964 1068.7994,2136.5217 1069.6811,2138.1202 C1071.4447,2141.3172 1073.3749,2144.4069 1075.4868,2147.3559 C1079.7106,2153.2538 1084.6612,2158.5888 1090.4587,2163.0938 C1091.8787,2164.1938 2128.8987,2196.1938 2130.4587,2197.0938 C2180.4387,2226.0738 2206.3387,2294.9738 2215.9787,2326.6538 " fill="none" id="email-i_mail" style="stroke: #A80036; stroke-width: 2.0; stroke-dasharray: 7.0,7.0;"/><!--MD5=[916fb375b8357f075b32922fdcb91ce5]
link umg to a_us--><path d="M1405.928,447.795 C1405.566,447.9856 1405.1985,448.1791 1404.8255,448.3755 C1403.3335,449.161 1401.7541,449.9924 1400.0902,450.8684 C1386.7789,457.8762 1368.0559,467.7323 1345.3719,479.6734 C1300.0037,503.5556 1238.7912,535.7775 1173.3387,570.2313 C1042.4337,639.1388 894.5687,716.9738 822.5787,754.8738 " fill="none" id="umg-a_us" style="stroke: #A80036; stroke-width: 2.0; stroke-dasharray: 7.0,7.0;"/><!--MD5=[6997ee9cb04b0574bc4b3d2005e4b463]
link a_us to s4p--><path d="M729.8987,785.6737 C641.1187,795.0338 453.2587,828.3137 360.4587,945.0938 C350.9712,957.0338 343.2128,970.2141 336.9016,984.1487 C333.746,991.116 330.9522,998.2719 328.485,1005.5556 C328.1766,1006.466 327.8733,1007.3785 327.575,1008.2928 " fill="none" id="a_us-to-s4p" style="stroke: #A80036; stroke-width: 2.0; stroke-dasharray: 7.0,7.0;"/><polygon fill="#A80036" points="327.575,1008.2928,340.7628,993.6613,330.6763,998.7859,325.5517,988.6993,327.575,1008.2928" style="stroke: #A80036; stroke-width: 2.0;"/><!--MD5=[2d73c405dc055b46790ba087183c6302]
link umg to a_ub--><path d="M1406.2752,458.2775 C1404.4526,460.4378 1402.4948,462.7583 1400.4118,465.2273 C1396.2458,470.1653 1391.5785,475.6973 1386.4884,481.7306 C1366.1281,505.8638 1339.0025,538.0163 1310.1262,572.2438 C1252.3737,640.6988 1187.6187,717.4538 1155.9787,754.9538 " fill="none" id="umg-a_ub" style="stroke: #A80036; stroke-width: 2.0; stroke-dasharray: 7.0,7.0;"/><!--MD5=[bef761d0f1a3dc5cd5fa1b8f082cfd20]
link a_ub to bi--><path d="M1088.4187,795.3538 C1023.7187,815.8938 910.2987,862.0138 854.4587,945.0938 C850.2087,951.4163 846.3379,958.0055 842.8156,964.8047 C841.0545,968.2043 839.3805,971.6563 837.7898,975.1538 C837.5909,975.591 837.3934,976.0289 837.1972,976.4675 " fill="none" id="a_ub-to-bi" style="stroke: #A80036; stroke-width: 2.0; stroke-dasharray: 7.0,7.0;"/><polygon fill="#A80036" points="837.1972,976.4675,851.851,963.3044,841.2813,967.3395,837.2462,956.7698,837.1972,976.4675" style="stroke: #A80036; stroke-width: 2.0;"/><!--MD5=[9f83a443132699edc54afadafd27b93b]
link umg to a_ue--><path d="M1407.8473,645.4536 C1407.8095,645.9881 1407.7717,646.522 1407.7339,647.0555 C1407.6584,648.1223 1407.583,649.187 1407.5078,650.2494 C1406.9061,658.7485 1406.3149,667.0986 1405.7409,675.2069 C1403.445,707.64 1401.4237,736.2038 1400.0987,754.9538 " fill="none" id="umg-a_ue" style="stroke: #A80036; stroke-width: 2.0; stroke-dasharray: 7.0,7.0;"/><!--MD5=[43ca41bea33796d59755bfaa9855f1b8]
link a_ue to erasmus--><path d="M1395.2387,805.6937 C1392.1687,828.1338 1387.1712,864.6863 1381.3809,907.0463 C1378.4858,928.2262 1375.3924,950.8581 1372.2427,973.9038 C1372.1443,974.6239 1372.0458,975.3445 1371.9472,976.0655 " fill="none" id="a_ue-to-erasmus" style="stroke: #A80036; stroke-width: 2.0; stroke-dasharray: 7.0,7.0;"/><polygon fill="#A80036" points="1371.9472,976.0655,1382.311,959.3146,1373.3014,966.1576,1366.4584,957.1479,1371.9472,976.0655" style="stroke: #A80036; stroke-width: 2.0;"/><!--MD5=[7339e6ca21ba761044ccb6aba77ddd84]
link umg to a_un--><path d="M1459.9622,645.3503 C1460.1863,645.7051 1460.4116,646.0591 1460.6382,646.4121 C1467.8894,657.7097 1476.4237,668.0963 1486.4587,677.0938 C1575.5787,756.9938 1953.7587,773.7537 2089.6187,777.2137 " fill="none" id="umg-a_un" style="stroke: #A80036; stroke-width: 2.0; stroke-dasharray: 7.0,7.0;"/><!--MD5=[9fa15f41c5eba71b8841bb348f363064]
link a_un to netcup--><path d="M2141.9187,805.3337 C2154.5587,889.9437 2199.5837,1191.5388 2241.7512,1474.0037 C2247.0222,1509.3119 2252.2485,1544.3211 2257.3613,1578.5702 C2258.6395,1587.1325 2259.9106,1595.6473 2261.1735,1604.1074 C2261.4893,1606.2224 2261.8045,1608.334 2262.1192,1610.4421 " fill="none" id="a_un-to-netcup" style="stroke: #A80036; stroke-width: 2.0; stroke-dasharray: 7.0,7.0;"/><polygon fill="#A80036" points="2262.1192,1610.4421,2267.3739,1591.4582,2260.6427,1600.5517,2251.5492,1593.8205,2262.1192,1610.4421" style="stroke: #A80036; stroke-width: 2.0;"/><!--MD5=[c0b26be026174339df01e960bf1bc3cf]
link ship to webspace--><path d="M1869.2787,516.5938 C1866.6187,691.2337 1859.9787,1128.8938 1854.4587,1495.0938 C1853.5787,1553.3888 1852.6475,1615.2713 1851.7434,1675.445 C1851.2914,1705.5319 1850.8462,1735.1916 1850.4175,1763.762 C1850.3907,1765.5477 1850.364,1767.3291 1850.3374,1769.1061 C1850.324,1769.9946 1850.3107,1770.8819 1850.2974,1771.7682 " fill="none" id="ship-to-webspace" style="stroke: #A80036; stroke-width: 2.0;"/><polygon fill="#A80036" points="1850.2974,1771.7682,1858.5665,1753.8902,1850.4474,1761.7693,1842.5683,1753.6502,1850.2974,1771.7682" style="stroke: #A80036; stroke-width: 2.0;"/><text fill="#000000" font-family="sans-serif" font-size="26" lengthAdjust="spacingAndGlyphs" textLength="112" x="1864.4587" y="891.2275">Adminis-</text><text fill="#000000" font-family="sans-serif" font-size="26" lengthAdjust="spacingAndGlyphs" textLength="84" x="1878.4587" y="921.4932">tration</text><!--MD5=[146ac31a81dcf7247f718aff5916ad51]
link s4p_partner to wp--><path d="M538.6987,1319.5738 C601.0387,1482.1138 727.2787,1811.2338 782.9787,1956.4538 " fill="none" id="s4p_partner-to-wp" style="stroke: #A80036; stroke-width: 2.0;"/><polygon fill="#A80036" points="786.8787,1966.5938,787.8718,1946.9211,783.2832,1957.2625,772.9418,1952.6739,786.8787,1966.5938" style="stroke: #A80036; stroke-width: 2.0;"/><text fill="#000000" font-family="sans-serif" font-size="26" lengthAdjust="spacingAndGlyphs" textLength="112" x="600.4587" y="1441.2275">Adminis-</text><text fill="#000000" font-family="sans-serif" font-size="26" lengthAdjust="spacingAndGlyphs" textLength="84" x="614.4587" y="1471.4932">tration</text><!--MD5=[4b8def5eb75f600a6c203c284103c1ba]
link umg_team to e_de--><path d="M1631.2987,549.5738 C1633.6387,858.8738 1640.1787,1726.4938 1641.9987,1966.1138 " fill="none" id="umg_team-to-e_de" style="stroke: #A80036; stroke-width: 2.0;"/><polygon fill="#A80036" points="1642.0587,1976.3738,1649.9558,1958.3283,1642.0016,1966.3739,1633.956,1958.4198,1642.0587,1976.3738" style="stroke: #A80036; stroke-width: 2.0;"/><!--MD5=[94e15bd2dd988e8bac20be7795d24922]
link bi_partner to e_pl--><path d="M1009.8587,1305.8138 C1045.9387,1357.2938 1089.2987,1426.9538 1114.4587,1495.0938 C1174.6987,1658.2138 1191.7387,1865.0138 1196.5587,1966.3738 " fill="none" id="bi_partner-to-e_pl" style="stroke: #A80036; stroke-width: 2.0;"/><polygon fill="#A80036" points="1197.0187,1976.4538,1204.186,1958.1063,1196.5608,1966.4642,1188.2028,1958.839,1197.0187,1976.4538" style="stroke: #A80036; stroke-width: 2.0;"/><!--MD5=[ac4b9285fdce224685b70e92f0a79ffb]
link erasmus_partner to e_nl--><path d="M1462.8187,1319.5738 C1452.8787,1485.6338 1432.5587,1825.5338 1424.1987,1965.6138 " fill="none" id="erasmus_partner-to-e_nl" style="stroke: #A80036; stroke-width: 2.0;"/><polygon fill="#A80036" points="1423.5587,1976.1538,1432.6224,1958.6652,1424.1577,1966.1717,1416.6512,1957.7069,1423.5587,1976.1538" style="stroke: #A80036; stroke-width: 2.0;"/><!--MD5=[d320135e18d4819ab489a80e606b00fb]
reverse link i_web to user--><path d="M2009.4987,2373.3737 C2028.0587,2442.7738 2078.9387,2632.9738 2107.7787,2740.8138 " fill="none" id="i_web-backto-user" style="stroke: #A80036; stroke-width: 2.0;"/><polygon fill="#A80036" points="2006.7987,2363.3138,2003.7533,2382.7746,2009.3985,2372.9699,2019.2032,2378.615,2006.7987,2363.3138" style="stroke: #A80036; stroke-width: 2.0;"/><!--MD5=[3d02842c6fd60e0dd56159e80b4a6c76]
reverse link i_mail to user--><path d="M2215.3187,2373.3737 C2201.7787,2442.7738 2164.6187,2632.9738 2143.5587,2740.8138 " fill="none" id="i_mail-backto-user" style="stroke: #A80036; stroke-width: 2.0;"/><polygon fill="#A80036" points="2217.2987,2363.3138,2206.0051,2379.4524,2215.387,2373.1293,2221.71,2382.5112,2217.2987,2363.3138" style="stroke: #A80036; stroke-width: 2.0;"/><rect fill="#DDDDDD" height="85.1875" rx="10" ry="10" style="stroke: #000000; stroke-width: 2.0;" width="1024" x="739.1398" y="2924.084"/><text fill="#000000" font-family="sans-serif" font-size="28" font-weight="bold" lengthAdjust="spacingAndGlyphs" textLength="118" x="751.1398" y="2960.0742">Legend</text><text fill="#000000" font-family="sans-serif" font-size="28" lengthAdjust="spacingAndGlyphs" textLength="1000" x="751.1398" y="2992.668">- DPA "Data Processing Agreement" - Auftragsverarbeitungsvertrag (AVV)</text><!--MD5=[532b0c0ba0fdad6bd1bcb1c332085df9]
@startuml

skinparam shadowing false
scale 2

title: Overview Homepage\njoinus4health.eu
header version: %date("dd.MM.yyyy")

skinparam actorStyle awesome
skinparam rectangleBackgroundColor<<Partner>> #cccccc
skinparam componentBackgroundColor #fefece

legend
**Legend**
- DPA "Data Processing Agreement" - Auftragsverarbeitungsvertrag (AVV)
end legend

actor "User" as user

rectangle "UMG\ncoordinator" as umg #ffcccc {
    rectangle "ICM SHIP-KEF" {
        actor "SHIP-IT" as ship
        actor "JoinUs4Health\nProject Manage-\nment Team" as umg_team
    }
}

rectangle "science4people.eu" <<Partner>> as s4p {
    actor "science4people\nPartner" as s4p_partner
}

rectangle "Medical University\nof Bialystok" <<Partner>> as bi {
    actor "Bialystok\nPartner" as bi_partner
}

rectangle "Medical Center of the\nErasmus University Rotterdamm" <<Partner>> as erasmus {
    actor "Erasmus\nPartner" as erasmus_partner
}

cloud "Internet" {
    node "netcup.de" <<Provider>> as netcup #ddbbaa {
        rectangle "Domain joinus4health.eu" as webspace #ffccaa {
            component "WordPress" <<Web-Framework>> as wp
            rectangle "//separate Server//" {
                database "MySQL" <<database>> as my
            }
            file "log files" as log
            component "Webalizer" <<statistic-tool>> as stats
            component "E-Mail" as email {
                rectangle "de/en" <<inbox>> as e_de
                rectangle "pl/en" <<inbox>> as e_pl
                rectangle "nl/en" <<inbox>> as e_nl
            }
            wp - -> my
            stats - -> log
        }
        interface "Homepage" as i_web
        interface "E-Mail" as i_mail
        i_web .u. wp
        i_mail .u. email
    }
}

note "DPA" as a_us #aaaaff
umg .. a_us
a_us ..> s4p
note "DPA" as a_ub #aaaaff
umg .. a_ub
a_ub ..> bi
note "DPA" as a_ue #aaaaff
umg .. a_ue
a_ue ..> erasmus
note "DPA" as a_un #aaaaff
umg .. a_un
a_un ..> netcup

ship        - ->     webspace    : Adminis-\ntration
s4p_partner - ->     wp          : Adminis-\ntration

umg_team        - -> e_de
bi_partner      - -> e_pl
erasmus_partner - -> e_nl

user    -u-> i_web
user    -u-> i_mail

@enduml

@startuml

skinparam shadowing false
scale 2

title: Overview Homepage\njoinus4health.eu
header version: 19.01.2022

skinparam actorStyle awesome
skinparam rectangleBackgroundColor<<Partner>> #cccccc
skinparam componentBackgroundColor #fefece

legend
**Legend**
- DPA "Data Processing Agreement" - Auftragsverarbeitungsvertrag (AVV)
end legend

actor "User" as user

rectangle "UMG\ncoordinator" as umg #ffcccc {
    rectangle "ICM SHIP-KEF" {
        actor "SHIP-IT" as ship
        actor "JoinUs4Health\nProject Manage-\nment Team" as umg_team
    }
}

rectangle "science4people.eu" <<Partner>> as s4p {
    actor "science4people\nPartner" as s4p_partner
}

rectangle "Medical University\nof Bialystok" <<Partner>> as bi {
    actor "Bialystok\nPartner" as bi_partner
}

rectangle "Medical Center of the\nErasmus University Rotterdamm" <<Partner>> as erasmus {
    actor "Erasmus\nPartner" as erasmus_partner
}

cloud "Internet" {
    node "netcup.de" <<Provider>> as netcup #ddbbaa {
        rectangle "Domain joinus4health.eu" as webspace #ffccaa {
            component "WordPress" <<Web-Framework>> as wp
            rectangle "//separate Server//" {
                database "MySQL" <<database>> as my
            }
            file "log files" as log
            component "Webalizer" <<statistic-tool>> as stats
            component "E-Mail" as email {
                rectangle "de/en" <<inbox>> as e_de
                rectangle "pl/en" <<inbox>> as e_pl
                rectangle "nl/en" <<inbox>> as e_nl
            }
            wp - -> my
            stats - -> log
        }
        interface "Homepage" as i_web
        interface "E-Mail" as i_mail
        i_web .u. wp
        i_mail .u. email
    }
}

note "DPA" as a_us #aaaaff
umg .. a_us
a_us ..> s4p
note "DPA" as a_ub #aaaaff
umg .. a_ub
a_ub ..> bi
note "DPA" as a_ue #aaaaff
umg .. a_ue
a_ue ..> erasmus
note "DPA" as a_un #aaaaff
umg .. a_un
a_un ..> netcup

ship        - ->     webspace    : Adminis-\ntration
s4p_partner - ->     wp          : Adminis-\ntration

umg_team        - -> e_de
bi_partner      - -> e_pl
erasmus_partner - -> e_nl

user    -u-> i_web
user    -u-> i_mail

@enduml

PlantUML version 1.2020.16(Sun Aug 23 22:20:43 CEST 2020)
(GPL source distribution)
Java Runtime: OpenJDK Runtime Environment
JVM: OpenJDK 64-Bit Server VM
Default Encoding: UTF-8
Language: en
Country: GB
--></g></svg>