<?xml version="1.0" encoding="UTF-8" standalone="no"?><svg xmlns="http://www.w3.org/2000/svg" xmlns:xlink="http://www.w3.org/1999/xlink" contentScriptType="application/ecmascript" contentStyleType="text/css" height="1520px" preserveAspectRatio="none" style="width:1366px;height:1520px;" version="1.1" viewBox="0 0 1366 1520" width="1366px" zoomAndPan="magnify"><defs/><g><text fill="#888888" font-family="sans-serif" font-size="10" lengthAdjust="spacingAndGlyphs" textLength="95" x="1253.0733" y="9.2822">version: 28.04.2021</text><text fill="#000000" font-family="sans-serif" font-size="18" lengthAdjust="spacingAndGlyphs" textLength="189" x="579.5366" y="28.3486">Overview Homepage</text><text fill="#000000" font-family="sans-serif" font-size="18" lengthAdjust="spacingAndGlyphs" textLength="145" x="601.5366" y="49.3018">joinus4health.eu</text><!--MD5=[26c5d267d5640af9fd645d609f9318ff]
cluster umg--><rect fill="#FFCCCC" height="262" style="stroke: #000000; stroke-width: 1.5;" width="309" x="828.2565" y="60.5469"/><text fill="#000000" font-family="sans-serif" font-size="14" font-weight="bold" lengthAdjust="spacingAndGlyphs" textLength="36" x="964.7565" y="75.542">UMG</text><text fill="#000000" font-family="sans-serif" font-size="14" font-weight="bold" lengthAdjust="spacingAndGlyphs" textLength="92" x="936.7565" y="91.8389">coordinator</text><!--MD5=[a5da4f68ede42b98d7b5f3a10e3ccc90]
cluster ICM SHIP-KEF--><rect fill="#FFCCCC" height="163" style="stroke: #000000; stroke-width: 1.5;" width="237" x="868.2565" y="127.5469"/><text fill="#000000" font-family="sans-serif" font-size="14" font-weight="bold" lengthAdjust="spacingAndGlyphs" textLength="103" x="935.2565" y="142.542">ICM SHIP-KEF</text><!--MD5=[d416a0175338ee00014ff4466993c423]
cluster s4p--><rect fill="#CCCCCC" height="262" style="stroke: #000000; stroke-width: 1.5;" width="425" x="21.2565" y="488.5469"/><text fill="#000000" font-family="sans-serif" font-size="14" font-style="italic" lengthAdjust="spacingAndGlyphs" textLength="67" x="200.2565" y="503.542">«Partner»</text><text fill="#000000" font-family="sans-serif" font-size="14" font-weight="bold" lengthAdjust="spacingAndGlyphs" textLength="150" x="158.7565" y="519.8389">science4people.eu</text><!--MD5=[c18c20963afd30f9c53e7e12c1b78a7a]
cluster go--><rect fill="#DDDDDD" height="163" style="stroke: #000000; stroke-width: 1.5;" width="139" x="275.2565" y="555.5469"/><text fill="#000000" font-family="sans-serif" font-size="14" font-style="italic" lengthAdjust="spacingAndGlyphs" textLength="123" x="283.2565" y="570.542">«Sub-Contractor»</text><text fill="#000000" font-family="sans-serif" font-size="14" font-weight="bold" lengthAdjust="spacingAndGlyphs" textLength="77" x="306.2565" y="586.8389">goapps.io</text><!--MD5=[0ff277c6235d691d4cf1e9691da08ce2]
cluster bi--><rect fill="#CCCCCC" height="195" style="stroke: #000000; stroke-width: 1.5;" width="159" x="486.2565" y="531.5469"/><text fill="#000000" font-family="sans-serif" font-size="14" font-style="italic" lengthAdjust="spacingAndGlyphs" textLength="67" x="532.2565" y="546.542">«Partner»</text><text fill="#000000" font-family="sans-serif" font-size="14" font-weight="bold" lengthAdjust="spacingAndGlyphs" textLength="143" x="494.2565" y="562.8389">Medical University</text><text fill="#000000" font-family="sans-serif" font-size="14" font-weight="bold" lengthAdjust="spacingAndGlyphs" textLength="91" x="520.2565" y="579.1357">of Bialystok</text><!--MD5=[eaeb4b0a6359e5999f2bdc196eca946c]
cluster erasmus--><rect fill="#CCCCCC" height="195" style="stroke: #000000; stroke-width: 1.5;" width="268" x="685.2565" y="531.5469"/><text fill="#000000" font-family="sans-serif" font-size="14" font-style="italic" lengthAdjust="spacingAndGlyphs" textLength="67" x="785.7565" y="546.542">«Partner»</text><text fill="#000000" font-family="sans-serif" font-size="14" font-weight="bold" lengthAdjust="spacingAndGlyphs" textLength="170" x="734.2565" y="562.8389">Medical Center of the</text><text fill="#000000" font-family="sans-serif" font-size="14" font-weight="bold" lengthAdjust="spacingAndGlyphs" textLength="252" x="693.2565" y="579.1357">Erasmus University Rotterdamm</text><!--MD5=[07074073229a58b98d86dbf75a12e332]
cluster Internet--><path d="M281.6505,840.0818 C300.1171,804.6184 329.0512,805.0429 352.8674,834.1846 C378.2877,797.8105 403.1112,802.6029 424.555,838.1483 C446.9918,807.2604 472.6886,809.5696 494.4527,838.9286 C513.7492,799.0439 544.6854,803.046 566.8411,836.0906 C585.9772,800.8145 611.3547,792.9205 640.2856,825.487 C668.9785,788.4716 693.6341,791.1448 715.5525,832.0323 C739.6877,790.6079 763.2487,797.3532 789.8436,829.5502 C815.2742,790.2185 845.0128,797.7943 865.0171,834.8876 C889.1808,801.4748 915.4304,798.4973 937.6802,836.826 C956.4176,804.3049 978.9443,803.7409 999.8048,834.7499 C1021.7814,797.8291 1055.8148,799.4287 1081.0833,830.834 C1106.1338,806.6675 1129.373,809.3279 1146.509,840.236 C1164.7292,798.9598 1200.9154,797.2508 1226.5102,832.5295 C1251.6621,803.3933 1277.4576,804.4373 1298.2565,837.5469 C1305.5419,835.8934 1308.725,838.3973 1307.0673,846.0311 C1342.1747,874.4708 1343.3714,900.778 1301.4091,923.5956 C1337.3202,946.2907 1340.208,976.6822 1302.4847,1000.4083 C1341.0413,1020.5311 1346.984,1058.5612 1306.682,1082.706 C1354.0733,1108.6484 1346.5856,1135.465 1311.565,1166.2256 C1336.8199,1193.3118 1332.4477,1217.5262 1299.6069,1234.4262 C1333.8383,1262.4899 1330.1511,1299.5735 1291.2565,1320.5469 C1293.2044,1318.6962 1294.9352,1318.9375 1296.086,1321.4327 C1275.2942,1361.4575 1250.8897,1362.1809 1223.8259,1327.4993 C1202.8043,1361.9086 1177.8612,1370.0725 1150.5258,1334.0724 C1127.9526,1365.6193 1105.1352,1371.5438 1081.746,1334.8953 C1056.3833,1370.3573 1022.7165,1372.3472 1000.4541,1331.5887 C978.0762,1371.7383 949.7666,1368.8095 927.4203,1331.5588 C911.4369,1362.3923 883.8497,1362.367 862.9522,1337.2178 C836.7554,1373.6749 810.2296,1380.6961 782.4031,1338.8951 C758.5959,1366.5494 737.5105,1370.0742 716.2666,1336.1424 C694.5008,1368.148 667.8412,1377.4325 643.3613,1338.9495 C619.6063,1376.0022 593.1517,1374.7829 570.1067,1338.2427 C543.6297,1373.2112 508.2605,1364.6445 491.6114,1327.5392 C471.9246,1363.4285 443.6137,1366.6696 416.6226,1335.7362 C393.7924,1369.0242 373.8323,1368.8359 352.1808,1334.6111 C316.7618,1378.3076 276.8075,1358.937 262.2565,1313.5469 C268.2202,1313.7124 270.626,1316.2884 268.3873,1322.2391 C231.604,1296.7284 227.2912,1258.1637 271.0517,1235.1161 C236.6326,1217.8074 237.7548,1182.5148 267.842,1162.3603 C222.3931,1142.801 224.9533,1108.3073 259.6995,1080.7469 C218.4439,1060.7279 219.7102,1023.2182 259.2528,1002.7366 C223.8618,977.0893 228.0421,943.5209 267.3443,925.7211 C226.9178,899.5404 217.9573,854.8846 269.2565,830.5469 C277.3662,827.9156 281.9254,831.8144 281.6505,840.0818 " fill="#FFFFFF" style="stroke: #000000; stroke-width: 1.5;"/><text fill="#000000" font-family="sans-serif" font-size="14" font-weight="bold" lengthAdjust="spacingAndGlyphs" textLength="63" x="748.7565" y="848.542">Internet</text><!--MD5=[fc7c9bc70f56de5c86322601a7f106c8]
cluster netcup--><polygon fill="#DDBBAA" points="286.2565,883.5469,296.2565,873.5469,1274.2565,873.5469,1274.2565,1286.5469,1264.2565,1296.5469,286.2565,1296.5469,286.2565,883.5469" style="stroke: #000000; stroke-width: 1.5;"/><line style="stroke: #000000; stroke-width: 1.5;" x1="1264.2565" x2="1274.2565" y1="883.5469" y2="873.5469"/><line style="stroke: #000000; stroke-width: 1.5;" x1="286.2565" x2="1264.2565" y1="883.5469" y2="883.5469"/><line style="stroke: #000000; stroke-width: 1.5;" x1="1264.2565" x2="1264.2565" y1="883.5469" y2="1296.5469"/><text fill="#000000" font-family="sans-serif" font-size="14" font-style="italic" lengthAdjust="spacingAndGlyphs" textLength="74" x="739.2565" y="899.542">«Provider»</text><text fill="#000000" font-family="sans-serif" font-size="14" font-weight="bold" lengthAdjust="spacingAndGlyphs" textLength="80" x="736.2565" y="915.8389">netcup.de</text><!--MD5=[4664c0d5d074dae4437fc00e51bb76c2]
cluster webspace--><rect fill="#FFCCAA" height="303" style="stroke: #000000; stroke-width: 1.5;" width="709" x="326.2565" y="953.5469"/><text fill="#000000" font-family="sans-serif" font-size="14" font-weight="bold" lengthAdjust="spacingAndGlyphs" textLength="194" x="583.7565" y="968.542">Domain joinus4health.eu</text><!--MD5=[cf76bd177cad34bbcc88e5e79c8c4c0a]
cluster email--><rect fill="#FEFECE" height="103" style="stroke: #000000; stroke-width: 1.5;" width="263" x="724.2565" y="1012.5469"/><rect fill="#FEFECE" height="10" style="stroke: #000000; stroke-width: 1.5;" width="15" x="967.2565" y="1017.5469"/><rect fill="#FEFECE" height="2" style="stroke: #000000; stroke-width: 1.5;" width="4" x="965.2565" y="1019.5469"/><rect fill="#FEFECE" height="2" style="stroke: #000000; stroke-width: 1.5;" width="4" x="965.2565" y="1023.5469"/><text fill="#000000" font-family="sans-serif" font-size="14" font-weight="bold" lengthAdjust="spacingAndGlyphs" textLength="45" x="833.2565" y="1038.542">E-Mail</text><!--MD5=[3103861f95f0d7217426811062624cfa]
entity ship--><ellipse cx="1060.2565" cy="196.5469" fill="#FEFECE" rx="16" ry="16" style="stroke: #A80036; stroke-width: 1.5;"/><path d="M1060.2565,216.5469 C1064.2565,216.5469 1067.2565,216.5469 1071.2565,212.5469 C1079.2565,212.5469 1087.2565,220.5469 1087.2565,228.5469 L1087.2565,232.5469 C1087.2565,236.5469 1083.2565,240.5469 1079.2565,240.5469 L1041.2565,240.5469 C1037.2565,240.5469 1033.2565,236.5469 1033.2565,232.5469 L1033.2565,228.5469 C1033.2565,220.5469 1041.2565,212.5469 1049.2565,212.5469 C1053.2565,216.5469 1056.2565,216.5469 1060.2565,216.5469 " fill="#FEFECE" style="stroke: #A80036; stroke-width: 1.5;"/><text fill="#000000" font-family="sans-serif" font-size="14" lengthAdjust="spacingAndGlyphs" textLength="48" x="1036.2565" y="255.042">SHIP-IT</text><!--MD5=[b08f2111fdc261dd0bfb2eacdde7049b]
entity umg_team--><ellipse cx="940.2565" cy="180.0469" fill="#FEFECE" rx="16" ry="16" style="stroke: #A80036; stroke-width: 1.5;"/><path d="M940.2565,200.0469 C944.2565,200.0469 947.2565,200.0469 951.2565,196.0469 C959.2565,196.0469 967.2565,204.0469 967.2565,212.0469 L967.2565,216.0469 C967.2565,220.0469 963.2565,224.0469 959.2565,224.0469 L921.2565,224.0469 C917.2565,224.0469 913.2565,220.0469 913.2565,216.0469 L913.2565,212.0469 C913.2565,204.0469 921.2565,196.0469 929.2565,196.0469 C933.2565,200.0469 936.2565,200.0469 940.2565,200.0469 " fill="#FEFECE" style="stroke: #A80036; stroke-width: 1.5;"/><text fill="#000000" font-family="sans-serif" font-size="14" lengthAdjust="spacingAndGlyphs" textLength="95" x="884.2565" y="238.542">JoinUs4Health</text><text fill="#000000" font-family="sans-serif" font-size="14" lengthAdjust="spacingAndGlyphs" textLength="112" x="884.2565" y="254.8389">Project Manage-</text><text fill="#000000" font-family="sans-serif" font-size="14" lengthAdjust="spacingAndGlyphs" textLength="79" x="884.2565" y="271.1357">ment Team</text><!--MD5=[db450b6175b1cf7e0741641dc58b6f7f]
entity s4p_partner--><ellipse cx="120.2565" cy="624.0469" fill="#FEFECE" rx="16" ry="16" style="stroke: #A80036; stroke-width: 1.5;"/><path d="M120.2565,644.0469 C124.2565,644.0469 127.2565,644.0469 131.2565,640.0469 C139.2565,640.0469 147.2565,648.0469 147.2565,656.0469 L147.2565,660.0469 C147.2565,664.0469 143.2565,668.0469 139.2565,668.0469 L101.2565,668.0469 C97.2565,668.0469 93.2565,664.0469 93.2565,660.0469 L93.2565,656.0469 C93.2565,648.0469 101.2565,640.0469 109.2565,640.0469 C113.2565,644.0469 116.2565,644.0469 120.2565,644.0469 " fill="#FEFECE" style="stroke: #A80036; stroke-width: 1.5;"/><text fill="#000000" font-family="sans-serif" font-size="14" lengthAdjust="spacingAndGlyphs" textLength="111" x="64.7565" y="682.542">science4people</text><text fill="#000000" font-family="sans-serif" font-size="14" lengthAdjust="spacingAndGlyphs" textLength="50" x="64.7565" y="698.8389">Partner</text><path d="M211.2565,642.0469 L211.2565,667.1797 L259.2565,667.1797 L259.2565,652.0469 L249.2565,642.0469 L211.2565,642.0469 " fill="#AAAAFF" style="stroke: #A80036; stroke-width: 1.0;"/><path d="M249.2565,642.0469 L249.2565,652.0469 L259.2565,652.0469 L249.2565,642.0469 " fill="#AAAAFF" style="stroke: #A80036; stroke-width: 1.0;"/><text fill="#000000" font-family="sans-serif" font-size="13" lengthAdjust="spacingAndGlyphs" textLength="27" x="217.2565" y="659.1138">DPA</text><!--MD5=[4d48c9b76ea3df80d6d040b8c148f4eb]
entity go_partner--><ellipse cx="346.2565" cy="624.0469" fill="#FEFECE" rx="16" ry="16" style="stroke: #A80036; stroke-width: 1.5;"/><path d="M346.2565,644.0469 C350.2565,644.0469 353.2565,644.0469 357.2565,640.0469 C365.2565,640.0469 373.2565,648.0469 373.2565,656.0469 L373.2565,660.0469 C373.2565,664.0469 369.2565,668.0469 365.2565,668.0469 L327.2565,668.0469 C323.2565,668.0469 319.2565,664.0469 319.2565,660.0469 L319.2565,656.0469 C319.2565,648.0469 327.2565,640.0469 335.2565,640.0469 C339.2565,644.0469 342.2565,644.0469 346.2565,644.0469 " fill="#FEFECE" style="stroke: #A80036; stroke-width: 1.5;"/><text fill="#000000" font-family="sans-serif" font-size="14" lengthAdjust="spacingAndGlyphs" textLength="52" x="312.2565" y="682.542">goapps</text><text fill="#000000" font-family="sans-serif" font-size="14" lengthAdjust="spacingAndGlyphs" textLength="68" x="312.2565" y="698.8389">Employee</text><!--MD5=[763ba745d9525f6980f176f7384ba2a3]
entity bi_partner--><ellipse cx="590.2565" cy="624.0469" fill="#FEFECE" rx="16" ry="16" style="stroke: #A80036; stroke-width: 1.5;"/><path d="M590.2565,644.0469 C594.2565,644.0469 597.2565,644.0469 601.2565,640.0469 C609.2565,640.0469 617.2565,648.0469 617.2565,656.0469 L617.2565,660.0469 C617.2565,664.0469 613.2565,668.0469 609.2565,668.0469 L571.2565,668.0469 C567.2565,668.0469 563.2565,664.0469 563.2565,660.0469 L563.2565,656.0469 C563.2565,648.0469 571.2565,640.0469 579.2565,640.0469 C583.2565,644.0469 586.2565,644.0469 590.2565,644.0469 " fill="#FEFECE" style="stroke: #A80036; stroke-width: 1.5;"/><text fill="#000000" font-family="sans-serif" font-size="14" lengthAdjust="spacingAndGlyphs" textLength="61" x="559.7565" y="682.542">Bialystok</text><text fill="#000000" font-family="sans-serif" font-size="14" lengthAdjust="spacingAndGlyphs" textLength="50" x="559.7565" y="698.8389">Partner</text><!--MD5=[da111c5fa759825b4b733df98dd135a0]
entity erasmus_partner--><ellipse cx="857.2565" cy="624.0469" fill="#FEFECE" rx="16" ry="16" style="stroke: #A80036; stroke-width: 1.5;"/><path d="M857.2565,644.0469 C861.2565,644.0469 864.2565,644.0469 868.2565,640.0469 C876.2565,640.0469 884.2565,648.0469 884.2565,656.0469 L884.2565,660.0469 C884.2565,664.0469 880.2565,668.0469 876.2565,668.0469 L838.2565,668.0469 C834.2565,668.0469 830.2565,664.0469 830.2565,660.0469 L830.2565,656.0469 C830.2565,648.0469 838.2565,640.0469 846.2565,640.0469 C850.2565,644.0469 853.2565,644.0469 857.2565,644.0469 " fill="#FEFECE" style="stroke: #A80036; stroke-width: 1.5;"/><text fill="#000000" font-family="sans-serif" font-size="14" lengthAdjust="spacingAndGlyphs" textLength="60" x="827.2565" y="682.542">Erasmus</text><text fill="#000000" font-family="sans-serif" font-size="14" lengthAdjust="spacingAndGlyphs" textLength="50" x="827.2565" y="698.8389">Partner</text><!--MD5=[51764780891d56c625808fe39e0f2680]
entity i_web--><ellipse cx="1105.2565" cy="1201.5469" fill="#FEFECE" rx="8" ry="8" style="stroke: #A80036; stroke-width: 2.0;"/><text fill="#000000" font-family="sans-serif" font-size="14" lengthAdjust="spacingAndGlyphs" textLength="76" x="1067.2565" y="1231.542">Homepage</text><!--MD5=[fa02c4fa1f4a6cb5c999117feefacaf8]
entity i_mail--><ellipse cx="1214.2565" cy="1201.5469" fill="#FEFECE" rx="8" ry="8" style="stroke: #A80036; stroke-width: 2.0;"/><text fill="#000000" font-family="sans-serif" font-size="14" lengthAdjust="spacingAndGlyphs" textLength="40" x="1194.2565" y="1231.542">E-Mail</text><!--MD5=[4660e0abdb7fa9e4244c49bb3714a7b9]
entity wp--><rect fill="#FEFECE" height="62.5938" style="stroke: #A80036; stroke-width: 1.5;" width="171" x="525.7565" y="1042.0469"/><rect fill="#FEFECE" height="10" style="stroke: #A80036; stroke-width: 1.5;" width="15" x="676.7565" y="1047.0469"/><rect fill="#FEFECE" height="2" style="stroke: #A80036; stroke-width: 1.5;" width="4" x="674.7565" y="1049.0469"/><rect fill="#FEFECE" height="2" style="stroke: #A80036; stroke-width: 1.5;" width="4" x="674.7565" y="1053.0469"/><text fill="#000000" font-family="sans-serif" font-size="14" font-style="italic" lengthAdjust="spacingAndGlyphs" textLength="131" x="540.7565" y="1075.042">«Web-Framework»</text><text fill="#000000" font-family="sans-serif" font-size="14" lengthAdjust="spacingAndGlyphs" textLength="75" x="568.7565" y="1091.3389">WordPress</text><!--MD5=[51425f20b61c3ae958e00a58355c3be3]
entity my--><path d="M560.7565,1180.5469 C560.7565,1170.5469 611.2565,1170.5469 611.2565,1170.5469 C611.2565,1170.5469 661.7565,1170.5469 661.7565,1180.5469 L661.7565,1222.1406 C661.7565,1232.1406 611.2565,1232.1406 611.2565,1232.1406 C611.2565,1232.1406 560.7565,1232.1406 560.7565,1222.1406 L560.7565,1180.5469 " fill="#FEFECE" style="stroke: #000000; stroke-width: 1.5;"/><path d="M560.7565,1180.5469 C560.7565,1190.5469 611.2565,1190.5469 611.2565,1190.5469 C611.2565,1190.5469 661.7565,1190.5469 661.7565,1180.5469 " fill="none" style="stroke: #000000; stroke-width: 1.5;"/><text fill="#000000" font-family="sans-serif" font-size="14" font-style="italic" lengthAdjust="spacingAndGlyphs" textLength="81" x="570.7565" y="1207.542">«database»</text><text fill="#000000" font-family="sans-serif" font-size="14" lengthAdjust="spacingAndGlyphs" textLength="46" x="588.2565" y="1223.8389">MySQL</text><!--MD5=[30ba7fb1050e29c0f3290b9e87c281e8]
entity log--><polygon fill="#FEFECE" points="384.2565,1183.5469,384.2565,1219.8438,456.2565,1219.8438,456.2565,1193.5469,446.2565,1183.5469,384.2565,1183.5469" style="stroke: #000000; stroke-width: 1.5;"/><path d="M446.2565,1183.5469 L446.2565,1193.5469 L456.2565,1193.5469 " fill="#FEFECE" style="stroke: #000000; stroke-width: 1.5;"/><text fill="#000000" font-family="sans-serif" font-size="14" lengthAdjust="spacingAndGlyphs" textLength="52" x="394.2565" y="1206.542">log files</text><!--MD5=[8aaf477cf9b50a1d50e25883b72bb19a]
entity stats--><rect fill="#FEFECE" height="62.5938" style="stroke: #A80036; stroke-width: 1.5;" width="140" x="350.2565" y="1042.0469"/><rect fill="#FEFECE" height="10" style="stroke: #A80036; stroke-width: 1.5;" width="15" x="470.2565" y="1047.0469"/><rect fill="#FEFECE" height="2" style="stroke: #A80036; stroke-width: 1.5;" width="4" x="468.2565" y="1049.0469"/><rect fill="#FEFECE" height="2" style="stroke: #A80036; stroke-width: 1.5;" width="4" x="468.2565" y="1053.0469"/><text fill="#000000" font-family="sans-serif" font-size="14" font-style="italic" lengthAdjust="spacingAndGlyphs" textLength="100" x="365.2565" y="1075.042">«statistic-tool»</text><text fill="#000000" font-family="sans-serif" font-size="14" lengthAdjust="spacingAndGlyphs" textLength="67" x="381.7565" y="1091.3389">Webalizer</text><!--MD5=[b60821f76768a9c71fc0268686c5d669]
entity e_de--><rect fill="#FEFECE" height="36.2969" style="stroke: #000000; stroke-width: 1.5;" width="61" x="901.7565" y="1055.5469"/><text fill="#000000" font-family="sans-serif" font-size="14" lengthAdjust="spacingAndGlyphs" textLength="41" x="911.7565" y="1078.542">de/en</text><!--MD5=[ba6cf0bdf5e2e09cfbee57ce52cfe5c1]
entity e_pl--><rect fill="#FEFECE" height="36.2969" style="stroke: #000000; stroke-width: 1.5;" width="32" x="767.2565" y="1055.5469"/><text fill="#000000" font-family="sans-serif" font-size="14" lengthAdjust="spacingAndGlyphs" textLength="12" x="777.2565" y="1078.542">pl</text><!--MD5=[ba72840a7e95ae0372abc584fb2d4dc3]
entity e_nl--><rect fill="#FEFECE" height="36.2969" style="stroke: #000000; stroke-width: 1.5;" width="32" x="834.2565" y="1055.5469"/><text fill="#000000" font-family="sans-serif" font-size="14" lengthAdjust="spacingAndGlyphs" textLength="12" x="844.2565" y="1078.542">nl</text><!--MD5=[8fc3522a43f8c7199df5e09e5bb0188e]
entity user--><ellipse cx="1168.2565" cy="1393.0469" fill="#FEFECE" rx="16" ry="16" style="stroke: #A80036; stroke-width: 1.5;"/><path d="M1168.2565,1413.0469 C1172.2565,1413.0469 1175.2565,1413.0469 1179.2565,1409.0469 C1187.2565,1409.0469 1195.2565,1417.0469 1195.2565,1425.0469 L1195.2565,1429.0469 C1195.2565,1433.0469 1191.2565,1437.0469 1187.2565,1437.0469 L1149.2565,1437.0469 C1145.2565,1437.0469 1141.2565,1433.0469 1141.2565,1429.0469 L1141.2565,1425.0469 C1141.2565,1417.0469 1149.2565,1409.0469 1157.2565,1409.0469 C1161.2565,1413.0469 1164.2565,1413.0469 1168.2565,1413.0469 " fill="#FEFECE" style="stroke: #A80036; stroke-width: 1.5;"/><text fill="#000000" font-family="sans-serif" font-size="14" lengthAdjust="spacingAndGlyphs" textLength="32" x="1152.2565" y="1451.542">User</text><path d="M498.2565,377.5469 L498.2565,402.6797 L546.2565,402.6797 L546.2565,387.5469 L536.2565,377.5469 L498.2565,377.5469 " fill="#AAAAFF" style="stroke: #A80036; stroke-width: 1.0;"/><path d="M536.2565,377.5469 L536.2565,387.5469 L546.2565,387.5469 L536.2565,377.5469 " fill="#AAAAFF" style="stroke: #A80036; stroke-width: 1.0;"/><text fill="#000000" font-family="sans-serif" font-size="13" lengthAdjust="spacingAndGlyphs" textLength="27" x="504.2565" y="394.6138">DPA</text><path d="M677.2565,377.5469 L677.2565,402.6797 L725.2565,402.6797 L725.2565,387.5469 L715.2565,377.5469 L677.2565,377.5469 " fill="#AAAAFF" style="stroke: #A80036; stroke-width: 1.0;"/><path d="M715.2565,377.5469 L715.2565,387.5469 L725.2565,387.5469 L715.2565,377.5469 " fill="#AAAAFF" style="stroke: #A80036; stroke-width: 1.0;"/><text fill="#000000" font-family="sans-serif" font-size="13" lengthAdjust="spacingAndGlyphs" textLength="27" x="683.2565" y="394.6138">DPA</text><path d="M808.2565,377.5469 L808.2565,402.6797 L856.2565,402.6797 L856.2565,387.5469 L846.2565,377.5469 L808.2565,377.5469 " fill="#AAAAFF" style="stroke: #A80036; stroke-width: 1.0;"/><path d="M846.2565,377.5469 L846.2565,387.5469 L856.2565,387.5469 L846.2565,377.5469 " fill="#AAAAFF" style="stroke: #A80036; stroke-width: 1.0;"/><text fill="#000000" font-family="sans-serif" font-size="13" lengthAdjust="spacingAndGlyphs" textLength="27" x="814.2565" y="394.6138">DPA</text><path d="M1161.2565,377.5469 L1161.2565,402.6797 L1209.2565,402.6797 L1209.2565,387.5469 L1199.2565,377.5469 L1161.2565,377.5469 " fill="#AAAAFF" style="stroke: #A80036; stroke-width: 1.0;"/><path d="M1199.2565,377.5469 L1199.2565,387.5469 L1209.2565,387.5469 L1199.2565,377.5469 " fill="#AAAAFF" style="stroke: #A80036; stroke-width: 1.0;"/><text fill="#000000" font-family="sans-serif" font-size="13" lengthAdjust="spacingAndGlyphs" textLength="27" x="1167.2565" y="394.6138">DPA</text><!--MD5=[df1b7aac2acd28c30a26f893001ce7fc]
link s4p_partner to a_sg--><path d="M175.9565,654.5469 C187.6965,654.5469 199.4265,654.5469 211.1665,654.5469 " fill="none" id="s4p_partner-a_sg" style="stroke: #A80036; stroke-width: 1.0; stroke-dasharray: 7.0,7.0;"/><!--MD5=[7dc0f7ef96f3b874aa0278f37ad56710]
link a_sg to go_partner--><path d="M259.5365,654.5469 C275.2665,654.5469 290.9865,654.5469 306.7065,654.5469 " fill="none" id="a_sg-to-go_partner" style="stroke: #A80036; stroke-width: 1.0; stroke-dasharray: 7.0,7.0;"/><polygon fill="#A80036" points="312.0465,654.5469,303.0465,650.5469,307.0465,654.5469,303.0465,658.5469,312.0465,654.5469" style="stroke: #A80036; stroke-width: 1.0;"/><!--MD5=[0a867cd1b41760edf017e7717d6853dc]
link wp to my--><path d="M611.2565,1105.0469 C611.2565,1123.1569 611.2565,1146.1969 611.2565,1165.1069 " fill="none" id="wp-to-my" style="stroke: #A80036; stroke-width: 1.0;"/><polygon fill="#A80036" points="611.2565,1170.3269,615.2565,1161.3269,611.2565,1165.3269,607.2565,1161.3269,611.2565,1170.3269" style="stroke: #A80036; stroke-width: 1.0;"/><!--MD5=[100387b058f8c8f1b9f38d95a60b7ee2]
link stats to log--><path d="M420.2565,1105.0469 C420.2565,1127.6469 420.2565,1157.9269 420.2565,1178.2769 " fill="none" id="stats-to-log" style="stroke: #A80036; stroke-width: 1.0;"/><polygon fill="#A80036" points="420.2565,1183.4869,424.2565,1174.4869,420.2565,1178.4869,416.2565,1174.4869,420.2565,1183.4869" style="stroke: #A80036; stroke-width: 1.0;"/><!--MD5=[43fef3d11c192aa0a88d628b3eebaa00]
link wp to i_web--><path d="M658.7265,1105.1369 C676.1765,1115.0769 696.5165,1125.1669 716.2565,1131.5469 C845.4465,1173.3169 887.1065,1139.3469 1019.2565,1170.5469 C1047.8865,1177.3069 1080.3065,1190.0769 1095.9065,1196.5569 " fill="none" id="wp-i_web" style="stroke: #A80036; stroke-width: 1.0; stroke-dasharray: 7.0,7.0;"/><!--MD5=[8298b2441af43eb72b40d37aa4e0ec77]
link email to i_mail--><path d="M739.1692,1115.6046 C739.2108,1115.6971 739.2527,1115.7895 739.2948,1115.8817 C739.3791,1116.0663 739.4644,1116.2504 739.5506,1116.4339 C742.3103,1122.3075 746.089,1127.6569 751.2565,1131.5469 C759.7865,1137.9669 932.6265,1138.5969 943.2565,1139.5469 C1044.2365,1148.5569 1074.4465,1134.6269 1169.2565,1170.5469 C1182.7765,1175.6669 1196.3165,1185.4869 1204.9565,1192.4969 " fill="none" id="email-i_mail" style="stroke: #A80036; stroke-width: 1.0; stroke-dasharray: 7.0,7.0;"/><!--MD5=[916fb375b8357f075b32922fdcb91ce5]
link umg to a_us--><path d="M828.2122,223.8893 C828.0361,223.9844 827.8573,224.081 827.6758,224.1789 C826.9499,224.5709 826.1815,224.9858 825.372,225.4229 C818.8955,228.9196 809.7857,233.8377 798.7475,239.7967 C776.6709,251.7147 746.8803,267.7963 715.014,284.9981 C651.2815,319.4019 579.2465,358.2869 544.0165,377.3069 " fill="none" id="umg-a_us" style="stroke: #A80036; stroke-width: 1.0; stroke-dasharray: 7.0,7.0;"/><!--MD5=[6997ee9cb04b0574bc4b3d2005e4b463]
link a_us to s4p--><path d="M498.1965,391.5269 C410.7365,393.8069 111.5065,406.4069 49.2565,472.5469 C21.9565,501.5569 16.684,545.8569 18.369,583.3681 C18.7903,592.7459 19.6464,601.6995 20.7018,609.8837 C20.8338,610.9067 20.9688,611.9177 21.1065,612.916 C21.141,613.1656 21.1755,613.4144 21.2103,613.6624 " fill="none" id="a_us-to-s4p" style="stroke: #A80036; stroke-width: 1.0; stroke-dasharray: 7.0,7.0;"/><polygon fill="#A80036" points="21.2103,613.6624,23.9226,604.1944,20.5164,608.7108,16,605.3046,21.2103,613.6624" style="stroke: #A80036; stroke-width: 1.0;"/><!--MD5=[2d73c405dc055b46790ba087183c6302]
link umg to a_ub--><path d="M827.9573,229.9638 C827.7343,230.2438 827.5074,230.5286 827.2767,230.8183 C826.8153,231.3977 826.3385,231.9964 825.847,232.6136 C823.8807,235.0826 821.6778,237.8487 819.2753,240.8653 C809.6653,252.9319 796.8615,269.0081 783.2315,286.1219 C755.9715,320.3494 725.4065,358.7269 710.4765,377.4769 " fill="none" id="umg-a_ub" style="stroke: #A80036; stroke-width: 1.0; stroke-dasharray: 7.0,7.0;"/><!--MD5=[bef761d0f1a3dc5cd5fa1b8f082cfd20]
link a_ub to bi--><path d="M677.2265,395.9169 C641.4365,404.5469 574.9565,426.1669 543.2565,472.5469 C532.024,488.9794 525.1697,508.2856 521.2187,528.0561 C521.0953,528.6739 520.9746,529.2922 520.8568,529.9109 C520.7979,530.2202 520.7396,530.5296 520.6821,530.8391 " fill="none" id="a_ub-to-bi" style="stroke: #A80036; stroke-width: 1.0; stroke-dasharray: 7.0,7.0;"/><polygon fill="#A80036" points="520.6821,530.8391,526.2595,522.7217,521.5958,525.9233,518.3942,521.2597,520.6821,530.8391" style="stroke: #A80036; stroke-width: 1.0;"/><!--MD5=[9f83a443132699edc54afadafd27b93b]
link umg to a_ue--><path d="M833.8226,322.7268 C833.8163,322.994 833.8099,323.261 833.8036,323.5277 C833.791,324.0612 833.7784,324.5935 833.7659,325.1247 C833.6654,329.3742 833.5666,333.5493 833.4707,337.6034 C833.0872,353.82 832.749,368.1019 832.5265,377.4769 " fill="none" id="umg-a_ue" style="stroke: #A80036; stroke-width: 1.0; stroke-dasharray: 7.0,7.0;"/><!--MD5=[43ca41bea33796d59755bfaa9855f1b8]
link a_ue to erasmus--><path d="M828.6465,402.8069 C823.9365,418.5369 815.7965,447.3869 811.2565,472.5469 C809.4903,482.3419 807.8711,492.4669 806.3894,502.6924 C805.6486,507.8051 804.9422,512.943 804.269,518.0773 C803.9324,520.6444 803.6041,523.2107 803.2839,525.7725 C803.1238,527.0534 802.9658,528.3331 802.8098,529.6113 C802.7318,530.2504 802.6543,530.8891 802.5773,531.5274 " fill="none" id="a_ue-to-erasmus" style="stroke: #A80036; stroke-width: 1.0; stroke-dasharray: 7.0,7.0;"/><polygon fill="#A80036" points="802.5773,531.5274,807.6264,523.0713,803.1761,526.5634,799.684,522.1131,802.5773,531.5274" style="stroke: #A80036; stroke-width: 1.0;"/><!--MD5=[7339e6ca21ba761044ccb6aba77ddd84]
link umg to a_un--><path d="M855.0317,322.6512 C855.1436,322.8288 855.2561,323.006 855.3692,323.1827 C858.9893,328.8372 863.249,334.0381 868.2565,338.5469 C911.4265,377.4169 1094.5565,386.4669 1161.0265,388.4869 " fill="none" id="umg-a_un" style="stroke: #A80036; stroke-width: 1.0; stroke-dasharray: 7.0,7.0;"/><!--MD5=[9fa15f41c5eba71b8841bb348f363064]
link a_un to netcup--><path d="M1186.6265,402.5869 C1191.9065,447.0169 1211.5465,612.2469 1229.999,767.4856 C1232.3056,786.8905 1234.5936,806.1392 1236.8327,824.9764 C1237.9522,834.3949 1239.0595,843.7106 1240.1508,852.8915 C1240.6965,857.4819 1241.2381,862.0387 1241.7753,866.5577 C1242.0438,868.8172 1242.3113,871.0673 1242.5776,873.3075 " fill="none" id="a_un-to-netcup" style="stroke: #A80036; stroke-width: 1.0; stroke-dasharray: 7.0,7.0;"/><polygon fill="#A80036" points="1242.5776,873.3075,1245.4873,863.8983,1241.9874,868.3424,1237.5432,864.8425,1242.5776,873.3075" style="stroke: #A80036; stroke-width: 1.0;"/><!--MD5=[c0b26be026174339df01e960bf1bc3cf]
link ship to webspace--><path d="M1057.9265,258.1669 C1052.3165,352.9069 1038.0065,604.4469 1031.2565,814.5469 C1030.3515,842.7544 1029.6497,872.7038 1029.1057,901.8294 C1028.8338,916.3922 1028.6013,930.7491 1028.4027,944.5793 C1028.3779,946.3081 1028.3536,948.0286 1028.3298,949.7403 C1028.3179,950.5962 1028.3062,951.4498 1028.2945,952.3011 " fill="none" id="ship-to-webspace" style="stroke: #A80036; stroke-width: 1.0;"/><polygon fill="#A80036" points="1028.2945,952.3011,1032.4171,943.3566,1028.3628,947.3016,1024.4179,943.2473,1028.2945,952.3011" style="stroke: #A80036; stroke-width: 1.0;"/><text fill="#000000" font-family="sans-serif" font-size="13" lengthAdjust="spacingAndGlyphs" textLength="56" x="1048.2565" y="445.6138">Adminis-</text><text fill="#000000" font-family="sans-serif" font-size="13" lengthAdjust="spacingAndGlyphs" textLength="42" x="1055.2565" y="460.7466">tration</text><!--MD5=[88a1c7d116414ea08155e2f6944ce5ab]
link go_partner to wp--><path d="M380.5065,682.1469 C416.1965,711.3569 471.7665,761.2469 507.2565,814.5469 C555.4865,886.9769 587.3465,985.2669 601.9865,1037.1269 " fill="none" id="go_partner-to-wp" style="stroke: #A80036; stroke-width: 1.0;"/><polygon fill="#A80036" points="603.3465,1041.9969,604.7546,1032.2492,601.9899,1037.1844,597.0547,1034.4198,603.3465,1041.9969" style="stroke: #A80036; stroke-width: 1.0;"/><text fill="#000000" font-family="sans-serif" font-size="13" lengthAdjust="spacingAndGlyphs" textLength="56" x="502.2565" y="787.6138">Adminis-</text><text fill="#000000" font-family="sans-serif" font-size="13" lengthAdjust="spacingAndGlyphs" textLength="42" x="509.2565" y="802.7466">tration</text><!--MD5=[4b8def5eb75f600a6c203c284103c1ba]
link umg_team to e_de--><path d="M939.7365,274.8569 C938.1665,442.2269 933.5165,938.5969 932.4665,1050.1269 " fill="none" id="umg_team-to-e_de" style="stroke: #A80036; stroke-width: 1.0;"/><polygon fill="#A80036" points="932.4165,1055.4469,936.5191,1046.4932,932.4737,1050.4472,928.5196,1046.4018,932.4165,1055.4469" style="stroke: #A80036; stroke-width: 1.0;"/><!--MD5=[94e15bd2dd988e8bac20be7795d24922]
link bi_partner to e_pl--><path d="M620.8865,702.8169 C636.1265,723.9869 655.8565,748.2469 677.2565,766.5469 C710.5265,794.9969 739.6565,777.6869 763.2565,814.5469 C811.2865,889.5669 796.9165,1003.1469 787.9865,1050.5469 " fill="none" id="bi_partner-to-e_pl" style="stroke: #A80036; stroke-width: 1.0;"/><polygon fill="#A80036" points="787.0365,1055.4669,792.6651,1047.3848,787.9813,1050.5569,784.8092,1045.8732,787.0365,1055.4669" style="stroke: #A80036; stroke-width: 1.0;"/><!--MD5=[ac4b9285fdce224685b70e92f0a79ffb]
link erasmus_partner to e_nl--><path d="M856.4665,702.5669 C854.9565,792.2769 851.7265,984.7369 850.6265,1050.2169 " fill="none" id="erasmus_partner-to-e_nl" style="stroke: #A80036; stroke-width: 1.0;"/><polygon fill="#A80036" points="850.5465,1055.4269,854.7002,1046.4968,850.6322,1050.4276,846.7014,1046.3596,850.5465,1055.4269" style="stroke: #A80036; stroke-width: 1.0;"/><!--MD5=[d320135e18d4819ab489a80e606b00fb]
reverse link i_web to user--><path d="M1109.1065,1215.4869 C1118.4065,1246.7069 1142.3665,1327.1269 1156.7765,1375.5069 " fill="none" id="i_web-backto-user" style="stroke: #A80036; stroke-width: 1.0;"/><polygon fill="#A80036" points="1107.6465,1210.5769,1106.3533,1220.3405,1109.0597,1215.373,1114.0271,1218.0794,1107.6465,1210.5769" style="stroke: #A80036; stroke-width: 1.0;"/><!--MD5=[3d02842c6fd60e0dd56159e80b4a6c76]
reverse link i_mail to user--><path d="M1211.4465,1215.4869 C1204.6565,1246.7069 1187.1565,1327.1269 1176.6365,1375.5069 " fill="none" id="i_mail-backto-user" style="stroke: #A80036; stroke-width: 1.0;"/><polygon fill="#A80036" points="1212.5065,1210.5769,1206.6937,1218.5274,1211.4491,1215.4638,1214.5127,1220.2192,1212.5065,1210.5769" style="stroke: #A80036; stroke-width: 1.0;"/><rect fill="#DDDDDD" height="42.5938" rx="5" ry="5" style="stroke: #000000; stroke-width: 1.0;" width="512" x="417.5366" y="1467.042"/><text fill="#000000" font-family="sans-serif" font-size="14" font-weight="bold" lengthAdjust="spacingAndGlyphs" textLength="59" x="423.5366" y="1485.0371">Legend</text><text fill="#000000" font-family="sans-serif" font-size="14" lengthAdjust="spacingAndGlyphs" textLength="500" x="423.5366" y="1501.334">- DPA "Data Processing Agreement" - Auftragsverarbeitungsvertrag (AVV)</text><!--MD5=[d3b3b6305475e5c91856826fc137d8b6]
@startuml

skinparam shadowing false
'scale 3/5

title: Overview Homepage\njoinus4health.eu
header version: %date("dd.MM.yyyy")

skinparam actorStyle awesome
skinparam rectangleBackgroundColor<<Partner>> #cccccc
skinparam componentBackgroundColor #fefece

legend
**Legend**
- DPA "Data Processing Agreement" - Auftragsverarbeitungsvertrag (AVV)
end legend

actor "User" as user

rectangle "UMG\ncoordinator" as umg #ffcccc {
    rectangle "ICM SHIP-KEF" {
        actor "SHIP-IT" as ship
        actor "JoinUs4Health\nProject Manage-\nment Team" as umg_team
    }
}

rectangle "science4people.eu" <<Partner>> as s4p {
    actor "science4people\nPartner" as s4p_partner
    rectangle "goapps.io" <<Sub-Contractor>> as go #dddddd {
        actor "goapps\nEmployee" as go_partner
    }
    note "DPA" as a_sg #aaaaff
    s4p_partner . a_sg
    a_sg .> go_partner
}

rectangle "Medical University\nof Bialystok" <<Partner>> as bi {
    actor "Bialystok\nPartner" as bi_partner
}

rectangle "Medical Center of the\nErasmus University Rotterdamm" <<Partner>> as erasmus {
    actor "Erasmus\nPartner" as erasmus_partner
}

cloud "Internet" {
    node "netcup.de" <<Provider>> as netcup #ddbbaa {
        rectangle "Domain joinus4health.eu" as webspace #ffccaa {
            component "WordPress" <<Web-Framework>> as wp
            database "MySQL" <<database>> as my
            file "log files" as log
            component "Webalizer" <<statistic-tool>> as stats
            component "E-Mail" as email {
                rectangle "de/en" as e_de
                rectangle "pl" as e_pl
                rectangle "nl" as e_nl
            }
            wp - -> my
            stats - -> log
        }
        interface "Homepage" as i_web
        interface "E-Mail" as i_mail
        i_web .u. wp
        i_mail .u. email
    }
}

note "DPA" as a_us #aaaaff
umg .. a_us
a_us ..> s4p
note "DPA" as a_ub #aaaaff
umg .. a_ub
a_ub ..> bi
note "DPA" as a_ue #aaaaff
umg .. a_ue
a_ue ..> erasmus
note "DPA" as a_un #aaaaff
umg .. a_un
a_un ..> netcup

ship        - ->     webspace    : Adminis-\ntration
go_partner  - ->     wp          : Adminis-\ntration

umg_team        - -> e_de
bi_partner      - -> e_pl
erasmus_partner - -> e_nl

user    -u-> i_web
user    -u-> i_mail

@enduml

@startuml

skinparam shadowing false

title: Overview Homepage\njoinus4health.eu
header version: 28.04.2021

skinparam actorStyle awesome
skinparam rectangleBackgroundColor<<Partner>> #cccccc
skinparam componentBackgroundColor #fefece

legend
**Legend**
- DPA "Data Processing Agreement" - Auftragsverarbeitungsvertrag (AVV)
end legend

actor "User" as user

rectangle "UMG\ncoordinator" as umg #ffcccc {
    rectangle "ICM SHIP-KEF" {
        actor "SHIP-IT" as ship
        actor "JoinUs4Health\nProject Manage-\nment Team" as umg_team
    }
}

rectangle "science4people.eu" <<Partner>> as s4p {
    actor "science4people\nPartner" as s4p_partner
    rectangle "goapps.io" <<Sub-Contractor>> as go #dddddd {
        actor "goapps\nEmployee" as go_partner
    }
    note "DPA" as a_sg #aaaaff
    s4p_partner . a_sg
    a_sg .> go_partner
}

rectangle "Medical University\nof Bialystok" <<Partner>> as bi {
    actor "Bialystok\nPartner" as bi_partner
}

rectangle "Medical Center of the\nErasmus University Rotterdamm" <<Partner>> as erasmus {
    actor "Erasmus\nPartner" as erasmus_partner
}

cloud "Internet" {
    node "netcup.de" <<Provider>> as netcup #ddbbaa {
        rectangle "Domain joinus4health.eu" as webspace #ffccaa {
            component "WordPress" <<Web-Framework>> as wp
            database "MySQL" <<database>> as my
            file "log files" as log
            component "Webalizer" <<statistic-tool>> as stats
            component "E-Mail" as email {
                rectangle "de/en" as e_de
                rectangle "pl" as e_pl
                rectangle "nl" as e_nl
            }
            wp - -> my
            stats - -> log
        }
        interface "Homepage" as i_web
        interface "E-Mail" as i_mail
        i_web .u. wp
        i_mail .u. email
    }
}

note "DPA" as a_us #aaaaff
umg .. a_us
a_us ..> s4p
note "DPA" as a_ub #aaaaff
umg .. a_ub
a_ub ..> bi
note "DPA" as a_ue #aaaaff
umg .. a_ue
a_ue ..> erasmus
note "DPA" as a_un #aaaaff
umg .. a_un
a_un ..> netcup

ship        - ->     webspace    : Adminis-\ntration
go_partner  - ->     wp          : Adminis-\ntration

umg_team        - -> e_de
bi_partner      - -> e_pl
erasmus_partner - -> e_nl

user    -u-> i_web
user    -u-> i_mail

@enduml

PlantUML version 1.2020.16(Sun Aug 23 22:20:43 CEST 2020)
(GPL source distribution)
Java Runtime: OpenJDK Runtime Environment
JVM: OpenJDK 64-Bit Server VM
Default Encoding: UTF-8
Language: en
Country: GB
--></g></svg>