<?xml version="1.0" encoding="UTF-8" standalone="no"?><svg xmlns="http://www.w3.org/2000/svg" xmlns:xlink="http://www.w3.org/1999/xlink" contentScriptType="application/ecmascript" contentStyleType="text/css" height="3140px" preserveAspectRatio="none" style="width:3356px;height:3140px;" version="1.1" viewBox="0 0 3356 3140" width="3356px" zoomAndPan="magnify"><defs/><g><text fill="#888888" font-family="sans-serif" font-size="20" lengthAdjust="spacingAndGlyphs" textLength="190" x="3130.867" y="21.38">version: 03.05.2022</text><text fill="#000000" font-family="sans-serif" font-size="36" lengthAdjust="spacingAndGlyphs" textLength="352" x="1484.4335" y="65.7237">Overview Homepage</text><text fill="#000000" font-family="sans-serif" font-size="36" lengthAdjust="spacingAndGlyphs" textLength="284" x="1518.4335" y="114.7554">joinus4health.eu</text><!--MD5=[26c5d267d5640af9fd645d609f9318ff]
cluster umg--><rect fill="#FFCCCC" height="558" style="stroke: #000000; stroke-width: 3.0;" width="614" x="1796.8912" y="139.3034"/><text fill="#000000" font-family="sans-serif" font-size="28" font-weight="bold" lengthAdjust="spacingAndGlyphs" textLength="68" x="2069.8912" y="173.2352">UMG</text><text fill="#000000" font-family="sans-serif" font-size="28" font-weight="bold" lengthAdjust="spacingAndGlyphs" textLength="164" x="2021.8912" y="211.3711">coordinator</text><!--MD5=[a5da4f68ede42b98d7b5f3a10e3ccc90]
cluster ICM SHIP-KEF--><rect fill="#FFCCCC" height="348" style="stroke: #000000; stroke-width: 3.0;" width="470" x="1876.8912" y="285.3034"/><text fill="#000000" font-family="sans-serif" font-size="28" font-weight="bold" lengthAdjust="spacingAndGlyphs" textLength="188" x="2017.8912" y="319.2352">ICM SHIP-KEF</text><!--MD5=[ba78371ae0a1e0b472fcad90a3cf0b09]
cluster editors--><rect fill="#CCCCCC" height="380" style="stroke: #000000; stroke-width: 3.0;" width="612" x="304.8912" y="833.3034"/><text fill="#000000" font-family="sans-serif" font-size="28" font-style="italic" lengthAdjust="spacingAndGlyphs" textLength="124" x="548.8912" y="867.2352">«Partner»</text><text fill="#000000" font-family="sans-serif" font-size="28" font-weight="bold" lengthAdjust="spacingAndGlyphs" textLength="218" x="501.8912" y="905.3711">Website Editors</text><!--MD5=[d416a0175338ee00014ff4466993c423]
cluster s4p--><rect fill="#CCCCCC" height="380" style="stroke: #000000; stroke-width: 3.0;" width="504" x="996.8912" y="833.3034"/><text fill="#000000" font-family="sans-serif" font-size="28" font-style="italic" lengthAdjust="spacingAndGlyphs" textLength="124" x="1186.8912" y="867.2352">«Partner»</text><text fill="#000000" font-family="sans-serif" font-size="28" font-weight="bold" lengthAdjust="spacingAndGlyphs" textLength="252" x="1122.8912" y="905.3711">science4people.eu</text><!--MD5=[0ff277c6235d691d4cf1e9691da08ce2]
cluster bi--><rect fill="#CCCCCC" height="418" style="stroke: #000000; stroke-width: 3.0;" width="416" x="1580.8912" y="795.3034"/><text fill="#000000" font-family="sans-serif" font-size="28" font-style="italic" lengthAdjust="spacingAndGlyphs" textLength="124" x="1726.8912" y="829.2352">«Partner»</text><text fill="#000000" font-family="sans-serif" font-size="28" font-weight="bold" lengthAdjust="spacingAndGlyphs" textLength="256" x="1660.8912" y="867.3711">Medical University</text><text fill="#000000" font-family="sans-serif" font-size="28" font-weight="bold" lengthAdjust="spacingAndGlyphs" textLength="164" x="1706.8912" y="905.5069">of Bialystok</text><!--MD5=[eaeb4b0a6359e5999f2bdc196eca946c]
cluster erasmus--><rect fill="#CCCCCC" height="418" style="stroke: #000000; stroke-width: 3.0;" width="486" x="2076.8912" y="795.3034"/><text fill="#000000" font-family="sans-serif" font-size="28" font-style="italic" lengthAdjust="spacingAndGlyphs" textLength="124" x="2257.8912" y="829.2352">«Partner»</text><text fill="#000000" font-family="sans-serif" font-size="28" font-weight="bold" lengthAdjust="spacingAndGlyphs" textLength="296" x="2171.8912" y="867.3711">Medical Center of the</text><text fill="#000000" font-family="sans-serif" font-size="28" font-weight="bold" lengthAdjust="spacingAndGlyphs" textLength="454" x="2092.8912" y="905.5069">Erasmus University Rotterdamm</text><!--MD5=[07074073229a58b98d86dbf75a12e332]
cluster Internet--><path d="M184.8411,1411.8123 C257.3762,1300.1704 336.1474,1308.6246 403.1876,1417.259 C456.3821,1321.9991 537.341,1318.9344 608.1886,1396.2944 C685.6852,1285.7817 761.3248,1288.9845 830.296,1404.6657 C897.0747,1299.4678 977.9962,1305.1348 1045.3288,1404.0823 C1099.049,1286.7988 1182.6146,1278.5385 1257.0092,1384.4769 C1307.808,1307.4884 1390.1671,1285.2354 1443.5268,1381.7233 C1504.9107,1267.0478 1600.3805,1263.1942 1670.0211,1373.4077 C1731.2955,1273.3529 1842.4562,1287.6483 1897.2138,1381.0605 C1954.2361,1287.2533 2044.8058,1280.2116 2095.8893,1386.9441 C2172.9759,1290.807 2247.5627,1300.5677 2308.1549,1404.4485 C2372.0283,1283.6938 2458.0175,1310.2145 2526.0796,1400.1152 C2605.8242,1287.7091 2685.9987,1302.3752 2759.3402,1406.9972 C2828.2464,1292.7341 2905.7653,1306.1078 2980.7262,1400.5755 C3040.7433,1321.1503 3108.0071,1310.1102 3170.8912,1397.3034 C3189.0376,1388.8074 3202.0918,1395.2372 3201.7334,1416.489 C3304.0171,1501.7889 3310.8214,1577.5991 3203.2803,1664.2093 C3295.7246,1731.915 3306.2626,1800.1604 3210.19,1874.0731 C3315.1078,1947.8267 3332.867,2046.5416 3204.8349,2115.12 C3325.3779,2199.786 3317.0809,2291.8324 3190.4031,2362.0497 C3310.5349,2435.485 3320.1244,2535.0023 3200.9475,2618.2854 C3303.6266,2708.2269 3279.3528,2795.0378 3156.8912,2840.3034 C3162.4055,2834.3361 3170.1322,2834.9557 3173.1284,2843.1837 C3114.6744,2948.0836 3028.2835,2926.71 2968.6288,2844.496 C2906.5686,2951.7407 2836.8495,2953.6784 2763.9117,2855.3271 C2704.9641,2960.6354 2620.0416,2988.4263 2537.5667,2880.2746 C2441.5062,2977.5341 2369.6858,2958.7061 2301.4814,2848.5657 C2257.3942,2954.6173 2173.127,2960.8599 2105.7703,2871.9211 C2029.4756,2984.7833 1957.4385,2957.6369 1889.4573,2863.2443 C1823.1896,2955.1616 1726.7897,2964.5089 1665.6174,2857.5104 C1622.3231,2939.2089 1532.0111,2943.4809 1478.0993,2870.3714 C1400.9436,2984.9477 1319.7596,2992.2912 1240.9534,2872.0381 C1178.7384,2980.3237 1106.6056,2962.8425 1034.0783,2883.4024 C950.3966,2995.4107 881.4068,2966.268 816.9655,2863.915 C749.5171,2983.9845 679.8442,2966.6445 598.8156,2878.1172 C530.8961,2972.1719 471.2135,2984.0783 403.999,2877.4329 C306.5061,2977.2879 189.6314,2977.325 140.8912,2826.3034 C160.6146,2833.81 160.7604,2845.9133 148.4934,2860.5262 C40.3608,2777.0773 16.8989,2695.552 141.8007,2605.9761 C52.8617,2517.5484 35.8483,2435.2579 167.6346,2371.1085 C41.4711,2295.0763 50.0617,2215.366 153.9325,2126.4506 C48.0578,2050.1802 49.7998,1978.5862 163.0967,1911.6672 C31.3217,1833.1512 36.7341,1752.4797 141.5483,1654.1654 C21.1277,1554.3484 12,1470.1494 154.8912,1383.3034 C180.1528,1376.2357 188.8078,1388.1743 184.8411,1411.8123 " fill="#FFFFFF" style="stroke: #000000; stroke-width: 3.0;"/><text fill="#000000" font-family="sans-serif" font-size="28" font-weight="bold" lengthAdjust="spacingAndGlyphs" textLength="114" x="1598.8912" y="1423.2352">Internet</text><!--MD5=[fc7c9bc70f56de5c86322601a7f106c8]
cluster netcup--><polygon fill="#DDBBAA" points="172.8912,1479.3034,192.8912,1459.3034,3138.8912,1459.3034,3138.8912,2470.3034,3118.8912,2490.3034,172.8912,2490.3034,172.8912,1479.3034" style="stroke: #000000; stroke-width: 3.0;"/><line style="stroke: #000000; stroke-width: 3.0;" x1="3118.8912" x2="3138.8912" y1="1479.3034" y2="1459.3034"/><line style="stroke: #000000; stroke-width: 3.0;" x1="172.8912" x2="3118.8912" y1="1479.3034" y2="1479.3034"/><line style="stroke: #000000; stroke-width: 3.0;" x1="3118.8912" x2="3118.8912" y1="1479.3034" y2="2490.3034"/><text fill="#000000" font-family="sans-serif" font-size="28" font-style="italic" lengthAdjust="spacingAndGlyphs" textLength="136" x="1579.8912" y="1515.2352">«Provider»</text><text fill="#000000" font-family="sans-serif" font-size="28" font-weight="bold" lengthAdjust="spacingAndGlyphs" textLength="138" x="1578.8912" y="1553.3711">netcup.de</text><!--MD5=[4664c0d5d074dae4437fc00e51bb76c2]
cluster webspace--><rect fill="#FFCCAA" height="811" style="stroke: #000000; stroke-width: 3.0;" width="2352" x="344.8912" y="1615.3034"/><text fill="#000000" font-family="sans-serif" font-size="28" font-weight="bold" lengthAdjust="spacingAndGlyphs" textLength="346" x="1347.8912" y="1649.2352">Domain joinus4health.eu</text><!--MD5=[d10c0fc188658aa905e9b53266af4542]
cluster wp--><rect fill="#FEFECE" height="607" style="stroke: #000000; stroke-width: 3.0;" width="774" x="1056.8912" y="1739.3034"/><rect fill="#FEFECE" height="20" style="stroke: #000000; stroke-width: 3.0;" width="30" x="1790.8912" y="1749.3034"/><rect fill="#FEFECE" height="4" style="stroke: #000000; stroke-width: 3.0;" width="8" x="1786.8912" y="1753.3034"/><rect fill="#FEFECE" height="4" style="stroke: #000000; stroke-width: 3.0;" width="8" x="1786.8912" y="1761.3034"/><text fill="#000000" font-family="sans-serif" font-size="28" font-style="italic" lengthAdjust="spacingAndGlyphs" textLength="232" x="1327.8912" y="1795.2352">«Web-Framework»</text><text fill="#000000" font-family="sans-serif" font-size="28" font-weight="bold" lengthAdjust="spacingAndGlyphs" textLength="150" x="1368.8912" y="1833.3711">WordPress</text><!--MD5=[893b3f08f7335ed1c07837f7f8fbbed9]
cluster //separate Server//--><rect fill="#FFCCAA" height="242" style="stroke: #000000; stroke-width: 3.0;" width="248" x="744.8912" y="2106.3034"/><text fill="#000000" font-family="sans-serif" font-size="28" font-style="italic" font-weight="bold" lengthAdjust="spacingAndGlyphs" textLength="210" x="763.8912" y="2140.2352">separate Server</text><!--MD5=[cf76bd177cad34bbcc88e5e79c8c4c0a]
cluster email--><rect fill="#FEFECE" height="256" style="stroke: #000000; stroke-width: 3.0;" width="690" x="1910.8912" y="1768.3034"/><rect fill="#FEFECE" height="20" style="stroke: #000000; stroke-width: 3.0;" width="30" x="2560.8912" y="1778.3034"/><rect fill="#FEFECE" height="4" style="stroke: #000000; stroke-width: 3.0;" width="8" x="2556.8912" y="1782.3034"/><rect fill="#FEFECE" height="4" style="stroke: #000000; stroke-width: 3.0;" width="8" x="2556.8912" y="1790.3034"/><text fill="#000000" font-family="sans-serif" font-size="28" font-weight="bold" lengthAdjust="spacingAndGlyphs" textLength="84" x="2213.8912" y="1824.2352">E-Mail</text><!--MD5=[7e24b8391da21ad2be3b88b11b7f436f]
cluster deepl--><polygon fill="#DDBBAA" points="290.8912,2612.3034,310.8912,2592.3034,736.8912,2592.3034,736.8912,2788.3034,716.8912,2808.3034,290.8912,2808.3034,290.8912,2612.3034" style="stroke: #000000; stroke-width: 3.0;"/><line style="stroke: #000000; stroke-width: 3.0;" x1="716.8912" x2="736.8912" y1="2612.3034" y2="2592.3034"/><line style="stroke: #000000; stroke-width: 3.0;" x1="290.8912" x2="716.8912" y1="2612.3034" y2="2612.3034"/><line style="stroke: #000000; stroke-width: 3.0;" x1="716.8912" x2="716.8912" y1="2612.3034" y2="2808.3034"/><text fill="#000000" font-family="sans-serif" font-size="28" font-weight="bold" lengthAdjust="spacingAndGlyphs" textLength="144" x="433.8912" y="2648.2352">deepl.com</text><!--MD5=[3103861f95f0d7217426811062624cfa]
entity ship--><ellipse cx="1966.8912" cy="434.3034" fill="#FEFECE" rx="32" ry="32" style="stroke: #A80036; stroke-width: 3.0;"/><path d="M1966.8912,474.3034 C1974.8912,474.3034 1980.8912,474.3034 1988.8912,466.3034 C2004.8912,466.3034 2020.8912,482.3034 2020.8912,498.3034 L2020.8912,506.3034 C2020.8912,514.3034 2012.8912,522.3034 2004.8912,522.3034 L1928.8912,522.3034 C1920.8912,522.3034 1912.8912,514.3034 1912.8912,506.3034 L1912.8912,498.3034 C1912.8912,482.3034 1928.8912,466.3034 1944.8912,466.3034 C1952.8912,474.3034 1958.8912,474.3034 1966.8912,474.3034 " fill="#FEFECE" style="stroke: #A80036; stroke-width: 3.0;"/><text fill="#000000" font-family="sans-serif" font-size="28" lengthAdjust="spacingAndGlyphs" textLength="98" x="1917.8912" y="555.2352">SHIP-IT</text><!--MD5=[b08f2111fdc261dd0bfb2eacdde7049b]
entity umg_team--><ellipse cx="2204.8912" cy="396.3034" fill="#FEFECE" rx="32" ry="32" style="stroke: #A80036; stroke-width: 3.0;"/><path d="M2204.8912,436.3034 C2212.8912,436.3034 2218.8912,436.3034 2226.8912,428.3034 C2242.8912,428.3034 2258.8912,444.3034 2258.8912,460.3034 L2258.8912,468.3034 C2258.8912,476.3034 2250.8912,484.3034 2242.8912,484.3034 L2166.8912,484.3034 C2158.8912,484.3034 2150.8912,476.3034 2150.8912,468.3034 L2150.8912,460.3034 C2150.8912,444.3034 2166.8912,428.3034 2182.8912,428.3034 C2190.8912,436.3034 2196.8912,436.3034 2204.8912,436.3034 " fill="#FEFECE" style="stroke: #A80036; stroke-width: 3.0;"/><text fill="#000000" font-family="sans-serif" font-size="28" lengthAdjust="spacingAndGlyphs" textLength="188" x="2094.8912" y="517.2352">JoinUs4Health</text><text fill="#000000" font-family="sans-serif" font-size="28" lengthAdjust="spacingAndGlyphs" textLength="220" x="2094.8912" y="555.3711">Project Manage-</text><text fill="#000000" font-family="sans-serif" font-size="28" lengthAdjust="spacingAndGlyphs" textLength="152" x="2094.8912" y="593.5069">ment Team</text><path d="M776.8912,1036.3034 L776.8912,1091.7154 L868.8912,1091.7154 L868.8912,1056.3034 L848.8912,1036.3034 L776.8912,1036.3034 " fill="#AAAAFF" style="stroke: #A80036; stroke-width: 2.0;"/><path d="M848.8912,1036.3034 L848.8912,1056.3034 L868.8912,1056.3034 L848.8912,1036.3034 " fill="#AAAAFF" style="stroke: #A80036; stroke-width: 2.0;"/><text fill="#000000" font-family="sans-serif" font-size="26" lengthAdjust="spacingAndGlyphs" textLength="50" x="788.8912" y="1074.0974">DPA</text><!--MD5=[8e642618591a72e9d69effc41f17cfac]
entity editor_partner--><ellipse cx="548.8912" cy="998.3034" fill="#FEFECE" rx="32" ry="32" style="stroke: #A80036; stroke-width: 3.0;"/><path d="M548.8912,1038.3034 C556.8912,1038.3034 562.8912,1038.3034 570.8912,1030.3034 C586.8912,1030.3034 602.8912,1046.3034 602.8912,1062.3034 L602.8912,1070.3034 C602.8912,1078.3034 594.8912,1086.3034 586.8912,1086.3034 L510.8912,1086.3034 C502.8912,1086.3034 494.8912,1078.3034 494.8912,1070.3034 L494.8912,1062.3034 C494.8912,1046.3034 510.8912,1030.3034 526.8912,1030.3034 C534.8912,1038.3034 540.8912,1038.3034 548.8912,1038.3034 " fill="#FEFECE" style="stroke: #A80036; stroke-width: 3.0;"/><text fill="#000000" font-family="sans-serif" font-size="28" lengthAdjust="spacingAndGlyphs" textLength="214" x="390.8912" y="1119.2352">Project Partners</text><text fill="#000000" font-family="sans-serif" font-size="28" lengthAdjust="spacingAndGlyphs" textLength="316" x="390.8912" y="1157.3711">with editing-rights only</text><path d="M1360.8912,1036.3034 L1360.8912,1091.7154 L1452.8912,1091.7154 L1452.8912,1056.3034 L1432.8912,1036.3034 L1360.8912,1036.3034 " fill="#AAAAFF" style="stroke: #A80036; stroke-width: 2.0;"/><path d="M1432.8912,1036.3034 L1432.8912,1056.3034 L1452.8912,1056.3034 L1432.8912,1036.3034 " fill="#AAAAFF" style="stroke: #A80036; stroke-width: 2.0;"/><text fill="#000000" font-family="sans-serif" font-size="26" lengthAdjust="spacingAndGlyphs" textLength="50" x="1372.8912" y="1074.0974">DPA</text><!--MD5=[db450b6175b1cf7e0741641dc58b6f7f]
entity s4p_partner--><ellipse cx="1186.8912" cy="998.3034" fill="#FEFECE" rx="32" ry="32" style="stroke: #A80036; stroke-width: 3.0;"/><path d="M1186.8912,1038.3034 C1194.8912,1038.3034 1200.8912,1038.3034 1208.8912,1030.3034 C1224.8912,1030.3034 1240.8912,1046.3034 1240.8912,1062.3034 L1240.8912,1070.3034 C1240.8912,1078.3034 1232.8912,1086.3034 1224.8912,1086.3034 L1148.8912,1086.3034 C1140.8912,1086.3034 1132.8912,1078.3034 1132.8912,1070.3034 L1132.8912,1062.3034 C1132.8912,1046.3034 1148.8912,1030.3034 1164.8912,1030.3034 C1172.8912,1038.3034 1178.8912,1038.3034 1186.8912,1038.3034 " fill="#FEFECE" style="stroke: #A80036; stroke-width: 3.0;"/><text fill="#000000" font-family="sans-serif" font-size="28" lengthAdjust="spacingAndGlyphs" textLength="208" x="1082.8912" y="1119.2352">science4people</text><text fill="#000000" font-family="sans-serif" font-size="28" lengthAdjust="spacingAndGlyphs" textLength="100" x="1082.8912" y="1157.3711">Partner</text><path d="M1856.8912,1036.3034 L1856.8912,1091.7154 L1948.8912,1091.7154 L1948.8912,1056.3034 L1928.8912,1036.3034 L1856.8912,1036.3034 " fill="#AAAAFF" style="stroke: #A80036; stroke-width: 2.0;"/><path d="M1928.8912,1036.3034 L1928.8912,1056.3034 L1948.8912,1056.3034 L1928.8912,1036.3034 " fill="#AAAAFF" style="stroke: #A80036; stroke-width: 2.0;"/><text fill="#000000" font-family="sans-serif" font-size="26" lengthAdjust="spacingAndGlyphs" textLength="50" x="1868.8912" y="1074.0974">DPA</text><!--MD5=[763ba745d9525f6980f176f7384ba2a3]
entity bi_partner--><ellipse cx="1726.8912" cy="998.3034" fill="#FEFECE" rx="32" ry="32" style="stroke: #A80036; stroke-width: 3.0;"/><path d="M1726.8912,1038.3034 C1734.8912,1038.3034 1740.8912,1038.3034 1748.8912,1030.3034 C1764.8912,1030.3034 1780.8912,1046.3034 1780.8912,1062.3034 L1780.8912,1070.3034 C1780.8912,1078.3034 1772.8912,1086.3034 1764.8912,1086.3034 L1688.8912,1086.3034 C1680.8912,1086.3034 1672.8912,1078.3034 1672.8912,1070.3034 L1672.8912,1062.3034 C1672.8912,1046.3034 1688.8912,1030.3034 1704.8912,1030.3034 C1712.8912,1038.3034 1718.8912,1038.3034 1726.8912,1038.3034 " fill="#FEFECE" style="stroke: #A80036; stroke-width: 3.0;"/><text fill="#000000" font-family="sans-serif" font-size="28" lengthAdjust="spacingAndGlyphs" textLength="118" x="1667.8912" y="1119.2352">Bialystok</text><text fill="#000000" font-family="sans-serif" font-size="28" lengthAdjust="spacingAndGlyphs" textLength="100" x="1667.8912" y="1157.3711">Partner</text><path d="M2402.8912,1036.3034 L2402.8912,1091.7154 L2494.8912,1091.7154 L2494.8912,1056.3034 L2474.8912,1036.3034 L2402.8912,1036.3034 " fill="#AAAAFF" style="stroke: #A80036; stroke-width: 2.0;"/><path d="M2474.8912,1036.3034 L2474.8912,1056.3034 L2494.8912,1056.3034 L2474.8912,1036.3034 " fill="#AAAAFF" style="stroke: #A80036; stroke-width: 2.0;"/><text fill="#000000" font-family="sans-serif" font-size="26" lengthAdjust="spacingAndGlyphs" textLength="50" x="2414.8912" y="1074.0974">DPA</text><!--MD5=[da111c5fa759825b4b733df98dd135a0]
entity erasmus_partner--><ellipse cx="2274.8912" cy="998.3034" fill="#FEFECE" rx="32" ry="32" style="stroke: #A80036; stroke-width: 3.0;"/><path d="M2274.8912,1038.3034 C2282.8912,1038.3034 2288.8912,1038.3034 2296.8912,1030.3034 C2312.8912,1030.3034 2328.8912,1046.3034 2328.8912,1062.3034 L2328.8912,1070.3034 C2328.8912,1078.3034 2320.8912,1086.3034 2312.8912,1086.3034 L2236.8912,1086.3034 C2228.8912,1086.3034 2220.8912,1078.3034 2220.8912,1070.3034 L2220.8912,1062.3034 C2220.8912,1046.3034 2236.8912,1030.3034 2252.8912,1030.3034 C2260.8912,1038.3034 2266.8912,1038.3034 2274.8912,1038.3034 " fill="#FEFECE" style="stroke: #A80036; stroke-width: 3.0;"/><text fill="#000000" font-family="sans-serif" font-size="28" lengthAdjust="spacingAndGlyphs" textLength="116" x="2216.8912" y="1119.2352">Erasmus</text><text fill="#000000" font-family="sans-serif" font-size="28" lengthAdjust="spacingAndGlyphs" textLength="100" x="2216.8912" y="1157.3711">Partner</text><path d="M204.8912,1890.3034 L204.8912,1945.7154 L296.8912,1945.7154 L296.8912,1910.3034 L276.8912,1890.3034 L204.8912,1890.3034 " fill="#AAAAFF" style="stroke: #A80036; stroke-width: 2.0;"/><path d="M276.8912,1890.3034 L276.8912,1910.3034 L296.8912,1910.3034 L276.8912,1890.3034 " fill="#AAAAFF" style="stroke: #A80036; stroke-width: 2.0;"/><text fill="#000000" font-family="sans-serif" font-size="26" lengthAdjust="spacingAndGlyphs" textLength="50" x="216.8912" y="1928.0974">DPA</text><!--MD5=[51764780891d56c625808fe39e0f2680]
entity i_web--><ellipse cx="2832.8912" cy="2249.3034" fill="#FEFECE" rx="16" ry="16" style="stroke: #A80036; stroke-width: 4.0;"/><text fill="#000000" font-family="sans-serif" font-size="28" lengthAdjust="spacingAndGlyphs" textLength="146" x="2759.8912" y="2313.2352">Homepage</text><!--MD5=[fa02c4fa1f4a6cb5c999117feefacaf8]
entity i_mail--><ellipse cx="3048.8912" cy="2249.3034" fill="#FEFECE" rx="16" ry="16" style="stroke: #A80036; stroke-width: 4.0;"/><text fill="#000000" font-family="sans-serif" font-size="28" lengthAdjust="spacingAndGlyphs" textLength="84" x="3006.8912" y="2313.2352">E-Mail</text><!--MD5=[fcbfd374278afc1cf141dd59657f7740]
entity wpfolder--><polygon fill="#FEFECE" points="727.8912,1857.3034,819.8912,1857.3034,833.8912,1899.3034,1001.8912,1899.3034,1001.8912,1979.575,727.8912,1979.575,727.8912,1857.3034" style="stroke: #000000; stroke-width: 3.0;"/><line style="stroke: #000000; stroke-width: 3.0;" x1="727.8912" x2="833.8912" y1="1899.3034" y2="1899.3034"/><text fill="#000000" font-family="sans-serif" font-size="28" lengthAdjust="spacingAndGlyphs" textLength="214" x="747.8912" y="1943.2352">WordPress-Files</text><!--MD5=[30ba7fb1050e29c0f3290b9e87c281e8]
entity log--><polygon fill="#FEFECE" points="505.8912,2210.3034,505.8912,2288.4392,651.8912,2288.4392,651.8912,2230.3034,631.8912,2210.3034,505.8912,2210.3034" style="stroke: #000000; stroke-width: 3.0;"/><path d="M631.8912,2210.3034 L631.8912,2230.3034 L651.8912,2230.3034 " fill="#FEFECE" style="stroke: #000000; stroke-width: 3.0;"/><text fill="#000000" font-family="sans-serif" font-size="28" lengthAdjust="spacingAndGlyphs" textLength="106" x="525.8912" y="2260.2352">log files</text><!--MD5=[8aaf477cf9b50a1d50e25883b72bb19a]
entity stats--><rect fill="#FEFECE" height="136.2717" style="stroke: #A80036; stroke-width: 3.0;" width="264" x="392.8912" y="1850.3034"/><rect fill="#FEFECE" height="20" style="stroke: #A80036; stroke-width: 3.0;" width="30" x="616.8912" y="1860.3034"/><rect fill="#FEFECE" height="4" style="stroke: #A80036; stroke-width: 3.0;" width="8" x="612.8912" y="1864.3034"/><rect fill="#FEFECE" height="4" style="stroke: #A80036; stroke-width: 3.0;" width="8" x="612.8912" y="1872.3034"/><text fill="#000000" font-family="sans-serif" font-size="28" font-style="italic" lengthAdjust="spacingAndGlyphs" textLength="184" x="422.8912" y="1920.2352">«statistic-tool»</text><text fill="#000000" font-family="sans-serif" font-size="28" lengthAdjust="spacingAndGlyphs" textLength="134" x="447.8912" y="1958.3711">Webalizer</text><!--MD5=[7dac474687ad5f96cb87364e70789d24]
entity Elementor--><rect fill="#FEFECE" height="98.1358" style="stroke: #A80036; stroke-width: 3.0;" width="218" x="1143.8912" y="1869.3034"/><rect fill="#FEFECE" height="20" style="stroke: #A80036; stroke-width: 3.0;" width="30" x="1321.8912" y="1879.3034"/><rect fill="#FEFECE" height="4" style="stroke: #A80036; stroke-width: 3.0;" width="8" x="1317.8912" y="1883.3034"/><rect fill="#FEFECE" height="4" style="stroke: #A80036; stroke-width: 3.0;" width="8" x="1317.8912" y="1891.3034"/><text fill="#000000" font-family="sans-serif" font-size="28" lengthAdjust="spacingAndGlyphs" textLength="138" x="1173.8912" y="1939.2352">Elementor</text><!--MD5=[e9a91520661c1de87785af7560ccbf08]
entity TranslatePress--><rect fill="#FEFECE" height="98.1358" style="stroke: #A80036; stroke-width: 3.0;" width="278" x="1431.8912" y="1869.3034"/><rect fill="#FEFECE" height="20" style="stroke: #A80036; stroke-width: 3.0;" width="30" x="1669.8912" y="1879.3034"/><rect fill="#FEFECE" height="4" style="stroke: #A80036; stroke-width: 3.0;" width="8" x="1665.8912" y="1883.3034"/><rect fill="#FEFECE" height="4" style="stroke: #A80036; stroke-width: 3.0;" width="8" x="1665.8912" y="1891.3034"/><text fill="#000000" font-family="sans-serif" font-size="28" lengthAdjust="spacingAndGlyphs" textLength="198" x="1461.8912" y="1939.2352">TranslatePress</text><!--MD5=[220513d1d882ff78dc80689c7f394be1]
entity Yoast SEO--><rect fill="#FEFECE" height="98.1358" style="stroke: #A80036; stroke-width: 3.0;" width="214" x="1119.8912" y="2200.3034"/><rect fill="#FEFECE" height="20" style="stroke: #A80036; stroke-width: 3.0;" width="30" x="1293.8912" y="2210.3034"/><rect fill="#FEFECE" height="4" style="stroke: #A80036; stroke-width: 3.0;" width="8" x="1289.8912" y="2214.3034"/><rect fill="#FEFECE" height="4" style="stroke: #A80036; stroke-width: 3.0;" width="8" x="1289.8912" y="2222.3034"/><text fill="#000000" font-family="sans-serif" font-size="28" lengthAdjust="spacingAndGlyphs" textLength="134" x="1149.8912" y="2270.2352">Yoast SEO</text><!--MD5=[4f02f8ebfd08bfe6a187bb6f116c7981]
entity One Click Accessibility--><rect fill="#FEFECE" height="98.1358" style="stroke: #A80036; stroke-width: 3.0;" width="378" x="1403.8912" y="2200.3034"/><rect fill="#FEFECE" height="20" style="stroke: #A80036; stroke-width: 3.0;" width="30" x="1741.8912" y="2210.3034"/><rect fill="#FEFECE" height="4" style="stroke: #A80036; stroke-width: 3.0;" width="8" x="1737.8912" y="2214.3034"/><rect fill="#FEFECE" height="4" style="stroke: #A80036; stroke-width: 3.0;" width="8" x="1737.8912" y="2222.3034"/><text fill="#000000" font-family="sans-serif" font-size="28" lengthAdjust="spacingAndGlyphs" textLength="298" x="1433.8912" y="2270.2352">One Click Accessibility</text><!--MD5=[51425f20b61c3ae958e00a58355c3be3]
entity my--><path d="M776.8912,2202.3034 C776.8912,2182.3034 868.8912,2182.3034 868.8912,2182.3034 C868.8912,2182.3034 960.8912,2182.3034 960.8912,2202.3034 L960.8912,2296.575 C960.8912,2316.575 868.8912,2316.575 868.8912,2316.575 C868.8912,2316.575 776.8912,2316.575 776.8912,2296.575 L776.8912,2202.3034 " fill="#FEFECE" style="stroke: #000000; stroke-width: 3.0;"/><path d="M776.8912,2202.3034 C776.8912,2222.3034 868.8912,2222.3034 868.8912,2222.3034 C868.8912,2222.3034 960.8912,2222.3034 960.8912,2202.3034 " fill="none" style="stroke: #000000; stroke-width: 3.0;"/><text fill="#000000" font-family="sans-serif" font-size="28" font-style="italic" lengthAdjust="spacingAndGlyphs" textLength="144" x="796.8912" y="2260.2352">«database»</text><text fill="#000000" font-family="sans-serif" font-size="28" lengthAdjust="spacingAndGlyphs" textLength="116" x="810.8912" y="2298.3711">MariaDB</text><!--MD5=[b60821f76768a9c71fc0268686c5d669]
entity e_de--><rect fill="#FEFECE" height="116.2717" style="stroke: #000000; stroke-width: 3.0;" width="138" x="2413.8912" y="1860.3034"/><text fill="#000000" font-family="sans-serif" font-size="28" font-style="italic" lengthAdjust="spacingAndGlyphs" textLength="98" x="2433.8912" y="1910.2352">«inbox»</text><text fill="#000000" font-family="sans-serif" font-size="28" lengthAdjust="spacingAndGlyphs" textLength="78" x="2443.8912" y="1948.3711">de/en</text><!--MD5=[ba6cf0bdf5e2e09cfbee57ce52cfe5c1]
entity e_pl--><rect fill="#FEFECE" height="116.2717" style="stroke: #000000; stroke-width: 3.0;" width="138" x="1997.8912" y="1860.3034"/><text fill="#000000" font-family="sans-serif" font-size="28" font-style="italic" lengthAdjust="spacingAndGlyphs" textLength="98" x="2017.8912" y="1910.2352">«inbox»</text><text fill="#000000" font-family="sans-serif" font-size="28" lengthAdjust="spacingAndGlyphs" textLength="70" x="2031.8912" y="1948.3711">pl/en</text><!--MD5=[ba72840a7e95ae0372abc584fb2d4dc3]
entity e_nl--><rect fill="#FEFECE" height="116.2717" style="stroke: #000000; stroke-width: 3.0;" width="138" x="2205.8912" y="1860.3034"/><text fill="#000000" font-family="sans-serif" font-size="28" font-style="italic" lengthAdjust="spacingAndGlyphs" textLength="98" x="2225.8912" y="1910.2352">«inbox»</text><text fill="#000000" font-family="sans-serif" font-size="28" lengthAdjust="spacingAndGlyphs" textLength="70" x="2239.8912" y="1948.3711">nl/en</text><path d="M612.8912,2699.3034 L612.8912,2754.7154 L704.8912,2754.7154 L704.8912,2719.3034 L684.8912,2699.3034 L612.8912,2699.3034 " fill="#AAAAFF" style="stroke: #A80036; stroke-width: 2.0;"/><path d="M684.8912,2699.3034 L684.8912,2719.3034 L704.8912,2719.3034 L684.8912,2699.3034 " fill="#AAAAFF" style="stroke: #A80036; stroke-width: 2.0;"/><text fill="#000000" font-family="sans-serif" font-size="26" lengthAdjust="spacingAndGlyphs" textLength="50" x="624.8912" y="2737.0974">DPA</text><!--MD5=[4010d4e2001a3c4827d43219502702b7]
entity deepl_trans--><rect fill="#FEFECE" height="98.1358" style="stroke: #A80036; stroke-width: 3.0;" width="218" x="323.8912" y="2678.3034"/><rect fill="#FEFECE" height="20" style="stroke: #A80036; stroke-width: 3.0;" width="30" x="501.8912" y="2688.3034"/><rect fill="#FEFECE" height="4" style="stroke: #A80036; stroke-width: 3.0;" width="8" x="497.8912" y="2692.3034"/><rect fill="#FEFECE" height="4" style="stroke: #A80036; stroke-width: 3.0;" width="8" x="497.8912" y="2700.3034"/><text fill="#000000" font-family="sans-serif" font-size="28" lengthAdjust="spacingAndGlyphs" textLength="138" x="353.8912" y="2748.2352">Translator</text><!--MD5=[8fc3522a43f8c7199df5e09e5bb0188e]
entity user--><ellipse cx="3276.8912" cy="2680.3034" fill="#FEFECE" rx="32" ry="32" style="stroke: #A80036; stroke-width: 3.0;"/><path d="M3276.8912,2720.3034 C3284.8912,2720.3034 3290.8912,2720.3034 3298.8912,2712.3034 C3314.8912,2712.3034 3330.8912,2728.3034 3330.8912,2744.3034 L3330.8912,2752.3034 C3330.8912,2760.3034 3322.8912,2768.3034 3314.8912,2768.3034 L3238.8912,2768.3034 C3230.8912,2768.3034 3222.8912,2760.3034 3222.8912,2752.3034 L3222.8912,2744.3034 C3222.8912,2728.3034 3238.8912,2712.3034 3254.8912,2712.3034 C3262.8912,2720.3034 3268.8912,2720.3034 3276.8912,2720.3034 " fill="#FEFECE" style="stroke: #A80036; stroke-width: 3.0;"/><text fill="#000000" font-family="sans-serif" font-size="28" lengthAdjust="spacingAndGlyphs" textLength="62" x="3245.8912" y="2801.2352">User</text><!--MD5=[0a867cd1b41760edf017e7717d6853dc]
link wp to my--><path d="M1056.8184,2072.3222 C1056.6251,2072.673 1056.4309,2073.0236 1056.2358,2073.3738 C1053.1145,2078.9766 1049.7684,2084.4899 1046.2318,2089.9065 C1039.1587,2100.7396 1031.3237,2111.1859 1023.0012,2121.1884 C1006.3562,2141.1934 987.7612,2159.4234 969.4112,2175.4234 " fill="none" id="wp-to-my" style="stroke: #000000; stroke-width: 2.0;"/><polygon fill="#000000" points="961.1112,2182.5434,979.9859,2176.909,968.7058,2176.0378,969.577,2164.7577,961.1112,2182.5434" style="stroke: #000000; stroke-width: 2.0;"/><!--MD5=[a5f19530e84ebbc5218329742d489fe5]
reverse link wpfolder to wp--><path d="M1012.5312,1918.3034 C1022.4112,1918.3034 1032.2862,1918.3034 1042.1612,1918.3034 C1044.6299,1918.3034 1047.0987,1918.3034 1049.5675,1918.3034 C1050.8019,1918.3034 1052.0364,1918.3034 1053.2708,1918.3034 C1053.8881,1918.3034 1054.5053,1918.3034 1055.1226,1918.3034 C1055.4312,1918.3034 1055.7398,1918.3034 1056.0484,1918.3034 C1056.2027,1918.3034 1056.3571,1918.3034 1056.5114,1918.3034 C1056.5885,1918.3034 1056.6657,1918.3034 1056.7428,1918.3034 " fill="none" id="wpfolder-backto-wp" style="stroke: #000000; stroke-width: 2.0;"/><polygon fill="#000000" points="1002.2112,1918.3034,1020.2112,1926.3034,1012.2112,1918.3034,1020.2112,1910.3034,1002.2112,1918.3034" style="stroke: #000000; stroke-width: 2.0;"/><!--MD5=[100387b058f8c8f1b9f38d95a60b7ee2]
link stats to log--><path d="M535.8112,1986.4834 C546.2712,2049.7234 561.7512,2143.5234 571.0312,2199.7234 " fill="none" id="stats-to-log" style="stroke: #000000; stroke-width: 2.0;"/><polygon fill="#000000" points="572.6912,2209.7434,577.6501,2190.6801,571.0611,2199.8771,561.8641,2193.2882,572.6912,2209.7434" style="stroke: #000000; stroke-width: 2.0;"/><!--MD5=[43fef3d11c192aa0a88d628b3eebaa00]
link wp to i_web--><path d="M1834.0102,2092.2518 C1840.4028,2092.9138 1846.8144,2093.588 1853.2432,2094.274 C1866.1008,2095.6461 1879.027,2097.0655 1892.0074,2098.5283 C1917.9682,2101.4538 1944.1457,2104.5529 1970.4236,2107.795 C2022.9795,2114.2791 2075.9371,2121.3349 2128.3668,2128.7165 C2233.2262,2143.4796 2335.9737,2159.5459 2429.1712,2174.9484 C2615.5662,2205.7534 2763.7612,2233.9034 2814.2512,2243.6634 " fill="none" id="wp-i_web" style="stroke: #A80036; stroke-width: 2.0; stroke-dasharray: 7.0,7.0;"/><!--MD5=[8298b2441af43eb72b40d37aa4e0ec77]
link email to i_mail--><path d="M1940.7106,2024.6096 C1940.8109,2024.8243 1940.9119,2025.0387 1941.0135,2025.2528 C1941.8265,2026.9651 1942.6811,2028.6541 1943.5793,2030.3154 C1945.3758,2033.6381 1947.3467,2036.8504 1949.5082,2039.9175 C1953.8312,2046.0518 1958.9162,2051.6059 1964.8912,2056.3034 C2051.5912,2124.4634 2862.1512,2033.8434 2956.8912,2090.3034 C3010.3512,2122.1634 3036.0112,2197.9634 3045.0112,2231.2034 " fill="none" id="email-i_mail" style="stroke: #A80036; stroke-width: 2.0; stroke-dasharray: 7.0,7.0;"/><!--MD5=[8cc0045ab29728952f25259bfa3a3d6b]
link wp to deepl_trans--><path d="M1056.009,2061.9882 C1055.6646,2062.1425 1055.3135,2062.2953 1054.9558,2062.4464 C1053.5251,2063.051 1051.9891,2063.6305 1050.3514,2064.1858 C1043.8008,2066.4068 1035.6237,2068.2399 1026.0527,2069.7409 C1006.9108,2072.7427 982.1935,2074.4159 953.7621,2075.2059 C896.8993,2076.7859 825.1799,2074.8334 753.4937,2072.9134 C610.1212,2069.0734 466.8812,2065.3634 442.8912,2090.3034 C286.5912,2252.8034 373.6112,2560.9034 414.9712,2678.2834 " fill="none" id="wp-deepl_trans" style="stroke: #00AA00; stroke-width: 4.0;"/><path d="M767.2521,2087.4291 A20,20 0 0 0 768.0094 2059.1549" fill="#FFFFFF" style="stroke: #00AA00; stroke-width: 3.0;"/><ellipse cx="753.4937" cy="2072.9134" fill="#FFFFFF" rx="12" ry="12" style="stroke: #00AA00; stroke-width: 3.0;"/><!--MD5=[ffb2350252921b0564aa64468a071920]
link umg to editors--><!--MD5=[af637e3fb6bec7b733edad74b6d0b2a7]
link umg to s4p--><!--MD5=[1ac215c7902888a5e64a0738cbce6017]
link umg to bi--><!--MD5=[6fba8065c4080b283aa772bf6a03f8f1]
link umg to erasmus--><!--MD5=[c0b26be026174339df01e960bf1bc3cf]
link ship to webspace--><path d="M1975.3312,563.7434 C1985.7312,619.6234 2008.9712,690.7034 2060.8912,729.3034 C2144.2112,791.2634 2451.3112,692.1234 2526.8912,763.3034 C2713.6012,939.1434 2752.9612,1224.2784 2745.2187,1466.9934 C2741.3474,1588.3509 2725.7006,1699.1034 2710.809,1780.2865 C2707.0861,1800.5823 2703.4104,1819.03 2699.9778,1835.3333 C2699.1196,1839.4091 2698.2766,1843.3509 2697.4519,1847.154 " fill="none" id="ship-to-webspace" style="stroke: #A80036; stroke-width: 2.0;"/><polygon fill="#A80036" points="2697.4519,1847.154,2709.0849,1831.2583,2699.5712,1837.3812,2693.4483,1827.8674,2697.4519,1847.154" style="stroke: #A80036; stroke-width: 2.0;"/><text fill="#000000" font-family="sans-serif" font-size="26" lengthAdjust="spacingAndGlyphs" textLength="104" x="2736.8912" y="1057.0974">Adminis-</text><text fill="#000000" font-family="sans-serif" font-size="26" lengthAdjust="spacingAndGlyphs" textLength="82" x="2747.8912" y="1092.5094">tration</text><!--MD5=[146ac31a81dcf7247f718aff5916ad51]
link s4p_partner to wp--><path d="M1144.3312,1165.8834 C1123.4712,1219.7234 1100.3912,1287.9834 1088.8912,1351.3034 C1077.8412,1412.1334 1073.7912,1549.9534 1072.5287,1674.2409 C1072.3709,1689.7768 1072.2566,1705.1013 1072.1777,1720.0375 C1072.158,1723.7716 1072.1404,1727.4814 1072.125,1731.1642 C1072.1173,1733.0055 1072.1101,1734.8402 1072.1034,1736.6677 " fill="none" id="s4p_partner-to-wp" style="stroke: #A80036; stroke-width: 2.0;"/><polygon fill="#A80036" points="1072.1034,1736.6677,1080.1693,1718.6971,1072.14,1726.6678,1064.1694,1718.6385,1072.1034,1736.6677" style="stroke: #A80036; stroke-width: 2.0;"/><text fill="#000000" font-family="sans-serif" font-size="26" lengthAdjust="spacingAndGlyphs" textLength="104" x="1110.8912" y="1291.0974">Adminis-</text><text fill="#000000" font-family="sans-serif" font-size="26" lengthAdjust="spacingAndGlyphs" textLength="82" x="1121.8912" y="1326.5094">tration</text><!--MD5=[039c62d3576be54965b27221d08d635e]
link editor_partner to wp--><path d="M641.6912,1165.8634 C671.4712,1194.0834 705.8512,1223.1034 740.8912,1245.3034 C832.2312,1303.1634 862.7112,1306.4234 966.8912,1335.3034 C988.1512,1341.2034 1050.4912,1334.5834 1064.8912,1351.3034 C1085.2312,1374.8934 1087.3612,1514.1284 1084.3412,1648.4609 C1083.9637,1665.2524 1083.5057,1681.9674 1082.9928,1698.3703 C1082.7363,1706.5718 1082.4661,1714.6952 1082.1854,1722.7112 C1082.045,1726.7192 1081.902,1730.7003 1081.7567,1734.651 C1081.7204,1735.6386 1081.684,1736.6243 1081.6474,1737.6081 " fill="none" id="editor_partner-to-wp" style="stroke: #A80036; stroke-width: 2.0;"/><polygon fill="#A80036" points="1081.6474,1737.6081,1090.3108,1719.9179,1082.019,1727.615,1074.3219,1719.3232,1081.6474,1737.6081" style="stroke: #A80036; stroke-width: 2.0;"/><text fill="#000000" font-family="sans-serif" font-size="26" lengthAdjust="spacingAndGlyphs" textLength="106" x="968.8912" y="1291.0974">Content-</text><text fill="#000000" font-family="sans-serif" font-size="26" lengthAdjust="spacingAndGlyphs" textLength="84" x="979.8912" y="1326.5094">editing</text><!--MD5=[4b8def5eb75f600a6c203c284103c1ba]
link umg_team to e_de--><path d="M2315.2312,498.8034 C2456.8112,525.2834 2696.9912,593.8634 2804.8912,763.3034 C2919.9712,944.0034 2922.3712,1066.1634 2804.8912,1245.3034 C2740.0512,1344.1634 2632.3512,1257.1034 2560.8912,1351.3034 C2448.1712,1499.8634 2459.0912,1735.5834 2472.7312,1849.8634 " fill="none" id="umg_team-to-e_de" style="stroke: #A80036; stroke-width: 2.0;"/><polygon fill="#A80036" points="2473.9712,1859.8634,2479.6969,1841.0162,2472.7414,1849.9393,2463.8183,1842.9838,2473.9712,1859.8634" style="stroke: #A80036; stroke-width: 2.0;"/><!--MD5=[94e15bd2dd988e8bac20be7795d24922]
link bi_partner to e_pl--><path d="M1768.8312,1166.1234 C1783.3712,1193.7034 1801.4912,1222.3434 1822.8912,1245.3034 C1883.0712,1309.9034 1943.1912,1277.0234 1990.8912,1351.3034 C2090.8712,1507.0234 2085.3512,1736.6634 2075.1112,1849.1834 " fill="none" id="bi_partner-to-e_pl" style="stroke: #A80036; stroke-width: 2.0;"/><polygon fill="#A80036" points="2074.0912,1859.7034,2083.7547,1842.539,2075.0352,1849.748,2067.8262,1841.0285,2074.0912,1859.7034" style="stroke: #A80036; stroke-width: 2.0;"/><!--MD5=[ac4b9285fdce224685b70e92f0a79ffb]
link erasmus_partner to e_nl--><path d="M2274.8912,1165.4634 C2274.8912,1340.8234 2274.8912,1701.0834 2274.8912,1849.8234 " fill="none" id="erasmus_partner-to-e_nl" style="stroke: #A80036; stroke-width: 2.0;"/><polygon fill="#A80036" points="2274.8912,1860.1634,2282.8912,1842.1634,2274.8912,1850.1634,2266.8912,1842.1634,2274.8912,1860.1634" style="stroke: #A80036; stroke-width: 2.0;"/><!--MD5=[d320135e18d4819ab489a80e606b00fb]
reverse link i_web to user--><path d="M2840.6112,2277.4834 C2856.1512,2326.7234 2895.0712,2434.6034 2956.8912,2506.3034 C3032.0712,2593.4834 3149.5912,2661.9034 3219.3512,2697.7434 " fill="none" id="i_web-backto-user" style="stroke: #A80036; stroke-width: 2.0;"/><polygon fill="#A80036" points="2837.6512,2267.9034,2835.3109,2287.4615,2840.5981,2277.4593,2850.6003,2282.7465,2837.6512,2267.9034" style="stroke: #A80036; stroke-width: 2.0;"/><text fill="#000000" font-family="sans-serif" font-size="26" lengthAdjust="spacingAndGlyphs" textLength="42" x="3010.8912" y="2552.0974">use</text><!--MD5=[3d02842c6fd60e0dd56159e80b4a6c76]
reverse link i_mail to user--><path d="M3061.1712,2276.8034 C3094.0912,2345.2634 3185.4512,2535.2034 3238.1112,2644.6834 " fill="none" id="i_mail-backto-user" style="stroke: #A80036; stroke-width: 2.0;"/><polygon fill="#A80036" points="3056.7312,2267.6234,3057.2737,2287.3136,3061.0427,2276.6462,3071.7102,2280.4152,3056.7312,2267.6234" style="stroke: #A80036; stroke-width: 2.0;"/><text fill="#000000" font-family="sans-serif" font-size="26" lengthAdjust="spacingAndGlyphs" textLength="58" x="3196.8912" y="2552.0974">send</text><!--MD5=[17552040276eef0f93b8cd24bee29bc5]
link Elementor to TranslatePress--><!--MD5=[c50090d8a87d1d877a70590d9401d5f9]
link Elementor to Yoast SEO--><!--MD5=[a2fb50a0ce4548e129e183da535d7ae7]
link Yoast SEO to One Click Accessibility--><rect fill="#DDDDDD" height="96.2717" rx="10" ry="10" style="stroke: #000000; stroke-width: 2.0;" width="1006" x="1156.4335" y="3023.4107"/><text fill="#000000" font-family="sans-serif" font-size="28" font-weight="bold" lengthAdjust="spacingAndGlyphs" textLength="102" x="1168.4335" y="3063.3426">Legend</text><text fill="#000000" font-family="sans-serif" font-size="28" lengthAdjust="spacingAndGlyphs" textLength="982" x="1168.4335" y="3101.4784">- DPA "Data Processing Agreement" - Auftragsverarbeitungsvertrag (AVV)</text><!--MD5=[e390c48571971faa11e76367e97701c8]
@startuml

skinparam shadowing false
scale 2

title: Overview Homepage\njoinus4health.eu
header version: %date("dd.MM.yyyy")

skinparam actorStyle awesome
skinparam rectangleBackgroundColor<<Partner>> #cccccc
skinparam componentBackgroundColor #fefece

legend
**Legend**
- DPA "Data Processing Agreement" - Auftragsverarbeitungsvertrag (AVV)
end legend

!define DPA(_name)   note "DPA" as _name #aaaaff

actor "User" as user

rectangle "UMG\ncoordinator" as umg #ffcccc {
    rectangle "ICM SHIP-KEF" {
        actor "SHIP-IT" as ship
        actor "JoinUs4Health\nProject Manage-\nment Team" as umg_team
    }
}

rectangle "Website Editors" <<Partner>> as editors {
    DPA(dpa_editors)
    actor "Project Partners\nwith editing-rights only" as editor_partner
}

rectangle "science4people.eu" <<Partner>> as s4p {
    DPA(dpa_s4p)
    actor "science4people\nPartner" as s4p_partner
}

rectangle "Medical University\nof Bialystok" <<Partner>> as bi {
    DPA(dpa_bia)
    actor "Bialystok\nPartner" as bi_partner
}

rectangle "Medical Center of the\nErasmus University Rotterdamm" <<Partner>> as erasmus {
    DPA(dpa_era)
    actor "Erasmus\nPartner" as erasmus_partner
}

cloud "Internet" {
    node "netcup.de" <<Provider>> as netcup #ddbbaa {
        DPA(dpa_netcup)
        rectangle "Domain joinus4health.eu" as webspace #ffccaa {
            component "WordPress" <<Web-Framework>> as wp {
                component "Elementor"
                component "TranslatePress"
                component "Yoast SEO"
                component "One Click Accessibility"
            }
            rectangle "//separate Server//" {
                database "MariaDB" <<database>> as my
            }
            folder "WordPress-Files" as wpfolder
            file "log files" as log
            component "Webalizer" <<statistic-tool>> as stats
            component "E-Mail" as email {
                rectangle "de/en" <<inbox>> as e_de
                rectangle "pl/en" <<inbox>> as e_pl
                rectangle "nl/en" <<inbox>> as e_nl
            }
            wp - -> my           #black
            wp -l-> wpfolder    #black
            stats - -> log       #black
        }
        interface "Homepage" as i_web
        interface "E-Mail" as i_mail
        i_web .u. wp
        i_mail .u. email
    }
    node "deepl.com" as deepl #ddbbaa {
        DPA(dpa_deepl)
        component "Translator" as deepl_trans
    }
    wp     =(0==     deepl_trans #00aa00
}

umg -[hidden]-  editors
umg -[hidden]-  s4p
umg -[hidden]-  bi
umg -[hidden]-  erasmus

ship            - ->     webspace    : Adminis-\ntration
s4p_partner     - ->     wp          : Adminis-\ntration
editor_partner  - ->     wp          : Content-\nediting

umg_team        - -> e_de
bi_partner      - -> e_pl
erasmus_partner - -> e_nl

user    -u-> i_web      : use
user    -u-> i_mail     : send

@enduml

@startuml

skinparam shadowing false
scale 2

title: Overview Homepage\njoinus4health.eu
header version: 03.05.2022

skinparam actorStyle awesome
skinparam rectangleBackgroundColor<<Partner>> #cccccc
skinparam componentBackgroundColor #fefece

legend
**Legend**
- DPA "Data Processing Agreement" - Auftragsverarbeitungsvertrag (AVV)
end legend


actor "User" as user

rectangle "UMG\ncoordinator" as umg #ffcccc {
    rectangle "ICM SHIP-KEF" {
        actor "SHIP-IT" as ship
        actor "JoinUs4Health\nProject Manage-\nment Team" as umg_team
    }
}

rectangle "Website Editors" <<Partner>> as editors {
    note "DPA" as dpa_editors #aaaaff
    actor "Project Partners\nwith editing-rights only" as editor_partner
}

rectangle "science4people.eu" <<Partner>> as s4p {
    note "DPA" as dpa_s4p #aaaaff
    actor "science4people\nPartner" as s4p_partner
}

rectangle "Medical University\nof Bialystok" <<Partner>> as bi {
    note "DPA" as dpa_bia #aaaaff
    actor "Bialystok\nPartner" as bi_partner
}

rectangle "Medical Center of the\nErasmus University Rotterdamm" <<Partner>> as erasmus {
    note "DPA" as dpa_era #aaaaff
    actor "Erasmus\nPartner" as erasmus_partner
}

cloud "Internet" {
    node "netcup.de" <<Provider>> as netcup #ddbbaa {
        note "DPA" as dpa_netcup #aaaaff
        rectangle "Domain joinus4health.eu" as webspace #ffccaa {
            component "WordPress" <<Web-Framework>> as wp {
                component "Elementor"
                component "TranslatePress"
                component "Yoast SEO"
                component "One Click Accessibility"
            }
            rectangle "//separate Server//" {
                database "MariaDB" <<database>> as my
            }
            folder "WordPress-Files" as wpfolder
            file "log files" as log
            component "Webalizer" <<statistic-tool>> as stats
            component "E-Mail" as email {
                rectangle "de/en" <<inbox>> as e_de
                rectangle "pl/en" <<inbox>> as e_pl
                rectangle "nl/en" <<inbox>> as e_nl
            }
            wp - -> my           #black
            wp -l-> wpfolder    #black
            stats - -> log       #black
        }
        interface "Homepage" as i_web
        interface "E-Mail" as i_mail
        i_web .u. wp
        i_mail .u. email
    }
    node "deepl.com" as deepl #ddbbaa {
        note "DPA" as dpa_deepl #aaaaff
        component "Translator" as deepl_trans
    }
    wp     =(0==     deepl_trans #00aa00
}

umg -[hidden]-  editors
umg -[hidden]-  s4p
umg -[hidden]-  bi
umg -[hidden]-  erasmus

ship            - ->     webspace    : Adminis-\ntration
s4p_partner     - ->     wp          : Adminis-\ntration
editor_partner  - ->     wp          : Content-\nediting

umg_team        - -> e_de
bi_partner      - -> e_pl
erasmus_partner - -> e_nl

user    -u-> i_web      : use
user    -u-> i_mail     : send

@enduml

PlantUML version 1.2020.16(Sun Aug 23 22:20:43 CEST 2020)
(GPL source distribution)
Java Runtime: OpenJDK Runtime Environment
JVM: OpenJDK 64-Bit Server VM
Default Encoding: UTF-8
Language: en
Country: GB
--></g></svg>