<?xml version="1.0" encoding="UTF-8" standalone="no"?><svg xmlns="http://www.w3.org/2000/svg" xmlns:xlink="http://www.w3.org/1999/xlink" contentScriptType="application/ecmascript" contentStyleType="text/css" height="2940px" preserveAspectRatio="none" style="width:2518px;height:2940px;" version="1.1" viewBox="0 0 2518 2940" width="2518px" zoomAndPan="magnify"><defs/><g><text fill="#888888" font-family="sans-serif" font-size="20" lengthAdjust="spacingAndGlyphs" textLength="190" x="2293.9946" y="18.5645">version: 08.09.2021</text><text fill="#000000" font-family="sans-serif" font-size="36" lengthAdjust="spacingAndGlyphs" textLength="378" x="1052.9973" y="56.6973">Overview Homepage</text><text fill="#000000" font-family="sans-serif" font-size="36" lengthAdjust="spacingAndGlyphs" textLength="290" x="1096.9973" y="98.6035">joinus4health.eu</text><!--MD5=[26c5d267d5640af9fd645d609f9318ff]
cluster umg--><rect fill="#FFCCCC" height="524" style="stroke: #000000; stroke-width: 3.0;" width="618" x="1394.7845" y="121.0938"/><text fill="#000000" font-family="sans-serif" font-size="28" font-weight="bold" lengthAdjust="spacingAndGlyphs" textLength="72" x="1667.7845" y="151.084">UMG</text><text fill="#000000" font-family="sans-serif" font-size="28" font-weight="bold" lengthAdjust="spacingAndGlyphs" textLength="184" x="1611.7845" y="183.6777">coordinator</text><!--MD5=[a5da4f68ede42b98d7b5f3a10e3ccc90]
cluster ICM SHIP-KEF--><rect fill="#FFCCCC" height="326" style="stroke: #000000; stroke-width: 3.0;" width="474" x="1474.7845" y="255.0938"/><text fill="#000000" font-family="sans-serif" font-size="28" font-weight="bold" lengthAdjust="spacingAndGlyphs" textLength="206" x="1608.7845" y="285.084">ICM SHIP-KEF</text><!--MD5=[d416a0175338ee00014ff4466993c423]
cluster s4p--><rect fill="#CCCCCC" height="358" style="stroke: #000000; stroke-width: 3.0;" width="356" x="292.7845" y="1009.0938"/><text fill="#000000" font-family="sans-serif" font-size="28" font-style="italic" lengthAdjust="spacingAndGlyphs" textLength="134" x="403.7845" y="1039.084">«Partner»</text><text fill="#000000" font-family="sans-serif" font-size="28" font-weight="bold" lengthAdjust="spacingAndGlyphs" textLength="300" x="320.7845" y="1071.6777">science4people.eu</text><!--MD5=[0ff277c6235d691d4cf1e9691da08ce2]
cluster bi--><rect fill="#CCCCCC" height="390" style="stroke: #000000; stroke-width: 3.0;" width="318" x="728.7845" y="977.0938"/><text fill="#000000" font-family="sans-serif" font-size="28" font-style="italic" lengthAdjust="spacingAndGlyphs" textLength="134" x="820.7845" y="1007.084">«Partner»</text><text fill="#000000" font-family="sans-serif" font-size="28" font-weight="bold" lengthAdjust="spacingAndGlyphs" textLength="286" x="744.7845" y="1039.6777">Medical University</text><text fill="#000000" font-family="sans-serif" font-size="28" font-weight="bold" lengthAdjust="spacingAndGlyphs" textLength="182" x="796.7845" y="1072.2715">of Bialystok</text><!--MD5=[eaeb4b0a6359e5999f2bdc196eca946c]
cluster erasmus--><rect fill="#CCCCCC" height="390" style="stroke: #000000; stroke-width: 3.0;" width="536" x="1126.7845" y="977.0938"/><text fill="#000000" font-family="sans-serif" font-size="28" font-style="italic" lengthAdjust="spacingAndGlyphs" textLength="134" x="1327.7845" y="1007.084">«Partner»</text><text fill="#000000" font-family="sans-serif" font-size="28" font-weight="bold" lengthAdjust="spacingAndGlyphs" textLength="340" x="1224.7845" y="1039.6777">Medical Center of the</text><text fill="#000000" font-family="sans-serif" font-size="28" font-weight="bold" lengthAdjust="spacingAndGlyphs" textLength="504" x="1142.7845" y="1072.2715">Erasmus University Rotterdamm</text><!--MD5=[07074073229a58b98d86dbf75a12e332]
cluster Internet--><path d="M123.7634,1528.8162 C171.9913,1451.194 234.3206,1441.9682 282.5005,1528.8626 C334.8956,1457.8695 398.5964,1445.3325 448.1388,1531.8623 C498.6038,1442.5696 558.5933,1456.8067 611.176,1529.7339 C658.5441,1440.0045 712.4211,1443.0021 770.1278,1519.8697 C822.5897,1452.133 892.1515,1453.0404 932.9935,1532.7083 C989.494,1468.7471 1044.1727,1452.7249 1095.5185,1538.3103 C1142.5647,1473.4936 1199.2436,1480.0794 1244.2988,1540.6725 C1290.3045,1461.2272 1357.8875,1451.0059 1412.4197,1531.7224 C1466.0355,1467.0309 1533.6633,1467.6149 1579.8251,1540.7745 C1634.3814,1457.7595 1693.9878,1466.4772 1747.5563,1541.8208 C1781.0385,1471.2011 1830.8177,1468.6031 1882.3268,1522.2739 C1941.2507,1445.0516 2009.9076,1457.5865 2060.2004,1532.3737 C2105.355,1444.5858 2166.1792,1462.5322 2217.9414,1525.458 C2279.6904,1451.7347 2330.5106,1457.606 2376.7845,1541.0938 C2387.3306,1543.6839 2390.1357,1553.3913 2382.0294,1560.9167 C2456.1785,1603.4323 2468.4472,1667.2921 2393.6586,1720.6508 C2469.2477,1773.0669 2487.6046,1839.721 2398.1497,1896.3556 C2474.9339,1934.5377 2487.1739,1996.5106 2421.9793,2055.8988 C2493.9156,2102.1472 2479.4326,2165.2238 2414.0047,2204.0798 C2495.9946,2254.3047 2475.1948,2325.5537 2403.4129,2365.7012 C2478.6788,2438.004 2448.7924,2506.1488 2362.7845,2541.0938 C2366.914,2536.49 2372.5617,2537.9695 2374.6612,2543.478 C2346.7877,2642.6252 2260.3778,2635.5926 2206.4263,2570.1304 C2165.606,2642.287 2101.6762,2640.4218 2065.9338,2565.2868 C2002.6348,2646.5108 1952.5712,2629.1257 1901.9784,2552.1207 C1836.7871,2644.8296 1781.8641,2627.0789 1722.0163,2546.5692 C1676.3367,2634.68 1627.4474,2633.8384 1568.4567,2559.1227 C1519.717,2646.5455 1441.3554,2641.0464 1401.352,2550.9011 C1353.2054,2621.3764 1304.7333,2621.3213 1258.4959,2548.9912 C1205.692,2629.058 1147.9336,2622.1114 1088.885,2556.2493 C1034.5864,2629.998 985.3451,2631.3113 932.4647,2554.7732 C890.3637,2629.4188 828.8169,2626.8012 779.532,2562.6911 C730.4387,2634.7318 658.2028,2640.5353 620.9783,2551.0412 C572.7068,2642.1388 509.1041,2634.5552 450.0255,2562.3549 C404.3696,2639.4066 349.7406,2632.0782 300.7232,2565.858 C222.189,2650.5791 142.9539,2629.9346 100.7845,2527.0938 C107.3845,2518.3722 114.1696,2520.7805 119.0336,2528.9675 C51.4506,2473.7816 55.8133,2419.3931 126.4412,2370.6751 C55.0882,2324.4104 59.6762,2274.2775 117.3186,2220.1928 C37.7802,2173.9994 17.7363,2105.6223 100.1793,2043.6989 C14.0279,1999.4098 26.5637,1921.247 97.6713,1874.6251 C40.3208,1819.7075 42.0472,1773.0619 107.0612,1725.8682 C12,1653.1551 29.3225,1592.7927 114.7845,1527.0938 C117.9903,1523.0626 122.1864,1524.3568 123.7634,1528.8162 " fill="#FFFFFF" style="stroke: #000000; stroke-width: 3.0;"/><text fill="#000000" font-family="sans-serif" font-size="28" font-weight="bold" lengthAdjust="spacingAndGlyphs" textLength="126" x="1175.7845" y="1563.084">Internet</text><!--MD5=[fc7c9bc70f56de5c86322601a7f106c8]
cluster netcup--><polygon fill="#DDBBAA" points="148.7845,1633.0938,168.7845,1613.0938,2328.7845,1613.0938,2328.7845,2473.0938,2308.7845,2493.0938,148.7845,2493.0938,148.7845,1633.0938" style="stroke: #000000; stroke-width: 3.0;"/><line style="stroke: #000000; stroke-width: 3.0;" x1="2308.7845" x2="2328.7845" y1="1633.0938" y2="1613.0938"/><line style="stroke: #000000; stroke-width: 3.0;" x1="148.7845" x2="2308.7845" y1="1633.0938" y2="1633.0938"/><line style="stroke: #000000; stroke-width: 3.0;" x1="2308.7845" x2="2308.7845" y1="1633.0938" y2="2493.0938"/><text fill="#000000" font-family="sans-serif" font-size="28" font-style="italic" lengthAdjust="spacingAndGlyphs" textLength="148" x="1156.7845" y="1665.084">«Provider»</text><text fill="#000000" font-family="sans-serif" font-size="28" font-weight="bold" lengthAdjust="spacingAndGlyphs" textLength="160" x="1150.7845" y="1697.6777">netcup.de</text><!--MD5=[4664c0d5d074dae4437fc00e51bb76c2]
cluster webspace--><rect fill="#FFCCAA" height="640" style="stroke: #000000; stroke-width: 3.0;" width="1622" x="228.7845" y="1773.0938"/><text fill="#000000" font-family="sans-serif" font-size="28" font-weight="bold" lengthAdjust="spacingAndGlyphs" textLength="388" x="845.7845" y="1803.084">Domain joinus4health.eu</text><!--MD5=[cf76bd177cad34bbcc88e5e79c8c4c0a]
cluster email--><rect fill="#FEFECE" height="240" style="stroke: #000000; stroke-width: 3.0;" width="730" x="1024.7845" y="1891.0938"/><rect fill="#FEFECE" height="20" style="stroke: #000000; stroke-width: 3.0;" width="30" x="1714.7845" y="1901.0938"/><rect fill="#FEFECE" height="4" style="stroke: #000000; stroke-width: 3.0;" width="8" x="1710.7845" y="1905.0938"/><rect fill="#FEFECE" height="4" style="stroke: #000000; stroke-width: 3.0;" width="8" x="1710.7845" y="1913.0938"/><text fill="#000000" font-family="sans-serif" font-size="28" font-weight="bold" lengthAdjust="spacingAndGlyphs" textLength="90" x="1344.7845" y="1943.084">E-Mail</text><!--MD5=[3103861f95f0d7217426811062624cfa]
entity ship--><ellipse cx="1858.7845" cy="393.0938" fill="#FEFECE" rx="32" ry="32" style="stroke: #A80036; stroke-width: 3.0;"/><path d="M1858.7845,433.0938 C1866.7845,433.0938 1872.7845,433.0938 1880.7845,425.0938 C1896.7845,425.0938 1912.7845,441.0938 1912.7845,457.0938 L1912.7845,465.0938 C1912.7845,473.0938 1904.7845,481.0938 1896.7845,481.0938 L1820.7845,481.0938 C1812.7845,481.0938 1804.7845,473.0938 1804.7845,465.0938 L1804.7845,457.0938 C1804.7845,441.0938 1820.7845,425.0938 1836.7845,425.0938 C1844.7845,433.0938 1850.7845,433.0938 1858.7845,433.0938 " fill="#FEFECE" style="stroke: #A80036; stroke-width: 3.0;"/><text fill="#000000" font-family="sans-serif" font-size="28" lengthAdjust="spacingAndGlyphs" textLength="96" x="1810.7845" y="510.084">SHIP-IT</text><!--MD5=[b08f2111fdc261dd0bfb2eacdde7049b]
entity umg_team--><ellipse cx="1618.7845" cy="360.0938" fill="#FEFECE" rx="32" ry="32" style="stroke: #A80036; stroke-width: 3.0;"/><path d="M1618.7845,400.0938 C1626.7845,400.0938 1632.7845,400.0938 1640.7845,392.0938 C1656.7845,392.0938 1672.7845,408.0938 1672.7845,424.0938 L1672.7845,432.0938 C1672.7845,440.0938 1664.7845,448.0938 1656.7845,448.0938 L1580.7845,448.0938 C1572.7845,448.0938 1564.7845,440.0938 1564.7845,432.0938 L1564.7845,424.0938 C1564.7845,408.0938 1580.7845,392.0938 1596.7845,392.0938 C1604.7845,400.0938 1610.7845,400.0938 1618.7845,400.0938 " fill="#FEFECE" style="stroke: #A80036; stroke-width: 3.0;"/><text fill="#000000" font-family="sans-serif" font-size="28" lengthAdjust="spacingAndGlyphs" textLength="190" x="1506.7845" y="477.084">JoinUs4Health</text><text fill="#000000" font-family="sans-serif" font-size="28" lengthAdjust="spacingAndGlyphs" textLength="224" x="1506.7845" y="509.6777">Project Manage-</text><text fill="#000000" font-family="sans-serif" font-size="28" lengthAdjust="spacingAndGlyphs" textLength="158" x="1506.7845" y="542.2715">ment Team</text><!--MD5=[db450b6175b1cf7e0741641dc58b6f7f]
entity s4p_partner--><ellipse cx="490.7845" cy="1162.0938" fill="#FEFECE" rx="32" ry="32" style="stroke: #A80036; stroke-width: 3.0;"/><path d="M490.7845,1202.0938 C498.7845,1202.0938 504.7845,1202.0938 512.7845,1194.0938 C528.7845,1194.0938 544.7845,1210.0938 544.7845,1226.0938 L544.7845,1234.0938 C544.7845,1242.0938 536.7845,1250.0938 528.7845,1250.0938 L452.7845,1250.0938 C444.7845,1250.0938 436.7845,1242.0938 436.7845,1234.0938 L436.7845,1226.0938 C436.7845,1210.0938 452.7845,1194.0938 468.7845,1194.0938 C476.7845,1202.0938 482.7845,1202.0938 490.7845,1202.0938 " fill="#FEFECE" style="stroke: #A80036; stroke-width: 3.0;"/><text fill="#000000" font-family="sans-serif" font-size="28" lengthAdjust="spacingAndGlyphs" textLength="222" x="379.7845" y="1279.084">science4people</text><text fill="#000000" font-family="sans-serif" font-size="28" lengthAdjust="spacingAndGlyphs" textLength="100" x="379.7845" y="1311.6777">Partner</text><!--MD5=[763ba745d9525f6980f176f7384ba2a3]
entity bi_partner--><ellipse cx="936.7845" cy="1162.0938" fill="#FEFECE" rx="32" ry="32" style="stroke: #A80036; stroke-width: 3.0;"/><path d="M936.7845,1202.0938 C944.7845,1202.0938 950.7845,1202.0938 958.7845,1194.0938 C974.7845,1194.0938 990.7845,1210.0938 990.7845,1226.0938 L990.7845,1234.0938 C990.7845,1242.0938 982.7845,1250.0938 974.7845,1250.0938 L898.7845,1250.0938 C890.7845,1250.0938 882.7845,1242.0938 882.7845,1234.0938 L882.7845,1226.0938 C882.7845,1210.0938 898.7845,1194.0938 914.7845,1194.0938 C922.7845,1202.0938 928.7845,1202.0938 936.7845,1202.0938 " fill="#FEFECE" style="stroke: #A80036; stroke-width: 3.0;"/><text fill="#000000" font-family="sans-serif" font-size="28" lengthAdjust="spacingAndGlyphs" textLength="122" x="875.7845" y="1279.084">Bialystok</text><text fill="#000000" font-family="sans-serif" font-size="28" lengthAdjust="spacingAndGlyphs" textLength="100" x="875.7845" y="1311.6777">Partner</text><!--MD5=[da111c5fa759825b4b733df98dd135a0]
entity erasmus_partner--><ellipse cx="1456.7845" cy="1162.0938" fill="#FEFECE" rx="32" ry="32" style="stroke: #A80036; stroke-width: 3.0;"/><path d="M1456.7845,1202.0938 C1464.7845,1202.0938 1470.7845,1202.0938 1478.7845,1194.0938 C1494.7845,1194.0938 1510.7845,1210.0938 1510.7845,1226.0938 L1510.7845,1234.0938 C1510.7845,1242.0938 1502.7845,1250.0938 1494.7845,1250.0938 L1418.7845,1250.0938 C1410.7845,1250.0938 1402.7845,1242.0938 1402.7845,1234.0938 L1402.7845,1226.0938 C1402.7845,1210.0938 1418.7845,1194.0938 1434.7845,1194.0938 C1442.7845,1202.0938 1448.7845,1202.0938 1456.7845,1202.0938 " fill="#FEFECE" style="stroke: #A80036; stroke-width: 3.0;"/><text fill="#000000" font-family="sans-serif" font-size="28" lengthAdjust="spacingAndGlyphs" textLength="120" x="1396.7845" y="1279.084">Erasmus</text><text fill="#000000" font-family="sans-serif" font-size="28" lengthAdjust="spacingAndGlyphs" textLength="100" x="1396.7845" y="1311.6777">Partner</text><!--MD5=[51764780891d56c625808fe39e0f2680]
entity i_web--><ellipse cx="1990.7845" cy="2303.0938" fill="#FEFECE" rx="16" ry="16" style="stroke: #A80036; stroke-width: 4.0;"/><text fill="#000000" font-family="sans-serif" font-size="28" lengthAdjust="spacingAndGlyphs" textLength="152" x="1914.7845" y="2363.084">Homepage</text><!--MD5=[fa02c4fa1f4a6cb5c999117feefacaf8]
entity i_mail--><ellipse cx="2208.7845" cy="2303.0938" fill="#FEFECE" rx="16" ry="16" style="stroke: #A80036; stroke-width: 4.0;"/><text fill="#000000" font-family="sans-serif" font-size="28" lengthAdjust="spacingAndGlyphs" textLength="80" x="2168.7845" y="2363.084">E-Mail</text><!--MD5=[4660e0abdb7fa9e4244c49bb3714a7b9]
entity wp--><rect fill="#FEFECE" height="125.1875" style="stroke: #A80036; stroke-width: 3.0;" width="342" x="627.7845" y="1967.0938"/><rect fill="#FEFECE" height="20" style="stroke: #A80036; stroke-width: 3.0;" width="30" x="929.7845" y="1977.0938"/><rect fill="#FEFECE" height="4" style="stroke: #A80036; stroke-width: 3.0;" width="8" x="925.7845" y="1981.0938"/><rect fill="#FEFECE" height="4" style="stroke: #A80036; stroke-width: 3.0;" width="8" x="925.7845" y="1989.0938"/><text fill="#000000" font-family="sans-serif" font-size="28" font-style="italic" lengthAdjust="spacingAndGlyphs" textLength="262" x="657.7845" y="2033.084">«Web-Framework»</text><text fill="#000000" font-family="sans-serif" font-size="28" lengthAdjust="spacingAndGlyphs" textLength="150" x="713.7845" y="2065.6777">WordPress</text><!--MD5=[51425f20b61c3ae958e00a58355c3be3]
entity my--><path d="M697.7845,2261.0938 C697.7845,2241.0938 798.7845,2241.0938 798.7845,2241.0938 C798.7845,2241.0938 899.7845,2241.0938 899.7845,2261.0938 L899.7845,2344.2813 C899.7845,2364.2813 798.7845,2364.2813 798.7845,2364.2813 C798.7845,2364.2813 697.7845,2364.2813 697.7845,2344.2813 L697.7845,2261.0938 " fill="#FEFECE" style="stroke: #000000; stroke-width: 3.0;"/><path d="M697.7845,2261.0938 C697.7845,2281.0938 798.7845,2281.0938 798.7845,2281.0938 C798.7845,2281.0938 899.7845,2281.0938 899.7845,2261.0938 " fill="none" style="stroke: #000000; stroke-width: 3.0;"/><text fill="#000000" font-family="sans-serif" font-size="28" font-style="italic" lengthAdjust="spacingAndGlyphs" textLength="162" x="717.7845" y="2315.084">«database»</text><text fill="#000000" font-family="sans-serif" font-size="28" lengthAdjust="spacingAndGlyphs" textLength="92" x="752.7845" y="2347.6777">MySQL</text><!--MD5=[30ba7fb1050e29c0f3290b9e87c281e8]
entity log--><polygon fill="#FEFECE" points="344.7845,2267.0938,344.7845,2339.6875,488.7845,2339.6875,488.7845,2287.0938,468.7845,2267.0938,344.7845,2267.0938" style="stroke: #000000; stroke-width: 3.0;"/><path d="M468.7845,2267.0938 L468.7845,2287.0938 L488.7845,2287.0938 " fill="#FEFECE" style="stroke: #000000; stroke-width: 3.0;"/><text fill="#000000" font-family="sans-serif" font-size="28" lengthAdjust="spacingAndGlyphs" textLength="104" x="364.7845" y="2313.084">log files</text><!--MD5=[8aaf477cf9b50a1d50e25883b72bb19a]
entity stats--><rect fill="#FEFECE" height="125.1875" style="stroke: #A80036; stroke-width: 3.0;" width="280" x="276.7845" y="1967.0938"/><rect fill="#FEFECE" height="20" style="stroke: #A80036; stroke-width: 3.0;" width="30" x="516.7845" y="1977.0938"/><rect fill="#FEFECE" height="4" style="stroke: #A80036; stroke-width: 3.0;" width="8" x="512.7845" y="1981.0938"/><rect fill="#FEFECE" height="4" style="stroke: #A80036; stroke-width: 3.0;" width="8" x="512.7845" y="1989.0938"/><text fill="#000000" font-family="sans-serif" font-size="28" font-style="italic" lengthAdjust="spacingAndGlyphs" textLength="200" x="306.7845" y="2033.084">«statistic-tool»</text><text fill="#000000" font-family="sans-serif" font-size="28" lengthAdjust="spacingAndGlyphs" textLength="134" x="339.7845" y="2065.6777">Webalizer</text><!--MD5=[b60821f76768a9c71fc0268686c5d669]
entity e_de--><rect fill="#FEFECE" height="105.1875" style="stroke: #000000; stroke-width: 3.0;" width="152" x="1554.7845" y="1977.0938"/><text fill="#000000" font-family="sans-serif" font-size="28" font-style="italic" lengthAdjust="spacingAndGlyphs" textLength="112" x="1574.7845" y="2023.084">«inbox»</text><text fill="#000000" font-family="sans-serif" font-size="28" lengthAdjust="spacingAndGlyphs" textLength="82" x="1589.7845" y="2055.6777">de/en</text><!--MD5=[ba6cf0bdf5e2e09cfbee57ce52cfe5c1]
entity e_pl--><rect fill="#FEFECE" height="105.1875" style="stroke: #000000; stroke-width: 3.0;" width="152" x="1110.7845" y="1977.0938"/><text fill="#000000" font-family="sans-serif" font-size="28" font-style="italic" lengthAdjust="spacingAndGlyphs" textLength="112" x="1130.7845" y="2023.084">«inbox»</text><text fill="#000000" font-family="sans-serif" font-size="28" lengthAdjust="spacingAndGlyphs" textLength="70" x="1151.7845" y="2055.6777">pl/en</text><!--MD5=[ba72840a7e95ae0372abc584fb2d4dc3]
entity e_nl--><rect fill="#FEFECE" height="105.1875" style="stroke: #000000; stroke-width: 3.0;" width="152" x="1332.7845" y="1977.0938"/><text fill="#000000" font-family="sans-serif" font-size="28" font-style="italic" lengthAdjust="spacingAndGlyphs" textLength="112" x="1352.7845" y="2023.084">«inbox»</text><text fill="#000000" font-family="sans-serif" font-size="28" lengthAdjust="spacingAndGlyphs" textLength="70" x="1373.7845" y="2055.6777">nl/en</text><!--MD5=[8fc3522a43f8c7199df5e09e5bb0188e]
entity user--><ellipse cx="2116.7845" cy="2686.0938" fill="#FEFECE" rx="32" ry="32" style="stroke: #A80036; stroke-width: 3.0;"/><path d="M2116.7845,2726.0938 C2124.7845,2726.0938 2130.7845,2726.0938 2138.7845,2718.0938 C2154.7845,2718.0938 2170.7845,2734.0938 2170.7845,2750.0938 L2170.7845,2758.0938 C2170.7845,2766.0938 2162.7845,2774.0938 2154.7845,2774.0938 L2078.7845,2774.0938 C2070.7845,2774.0938 2062.7845,2766.0938 2062.7845,2758.0938 L2062.7845,2750.0938 C2062.7845,2734.0938 2078.7845,2718.0938 2094.7845,2718.0938 C2102.7845,2726.0938 2108.7845,2726.0938 2116.7845,2726.0938 " fill="#FEFECE" style="stroke: #A80036; stroke-width: 3.0;"/><text fill="#000000" font-family="sans-serif" font-size="28" lengthAdjust="spacingAndGlyphs" textLength="64" x="2084.7845" y="2803.084">User</text><path d="M718.7845,755.0938 L718.7845,805.3594 L814.7845,805.3594 L814.7845,775.0938 L794.7845,755.0938 L718.7845,755.0938 " fill="#AAAAFF" style="stroke: #A80036; stroke-width: 2.0;"/><path d="M794.7845,755.0938 L794.7845,775.0938 L814.7845,775.0938 L794.7845,755.0938 " fill="#AAAAFF" style="stroke: #A80036; stroke-width: 2.0;"/><text fill="#000000" font-family="sans-serif" font-size="26" lengthAdjust="spacingAndGlyphs" textLength="54" x="730.7845" y="789.2275">DPA</text><path d="M1076.7845,755.0938 L1076.7845,805.3594 L1172.7845,805.3594 L1172.7845,775.0938 L1152.7845,755.0938 L1076.7845,755.0938 " fill="#AAAAFF" style="stroke: #A80036; stroke-width: 2.0;"/><path d="M1152.7845,755.0938 L1152.7845,775.0938 L1172.7845,775.0938 L1152.7845,755.0938 " fill="#AAAAFF" style="stroke: #A80036; stroke-width: 2.0;"/><text fill="#000000" font-family="sans-serif" font-size="26" lengthAdjust="spacingAndGlyphs" textLength="54" x="1088.7845" y="789.2275">DPA</text><path d="M1338.7845,755.0938 L1338.7845,805.3594 L1434.7845,805.3594 L1434.7845,775.0938 L1414.7845,755.0938 L1338.7845,755.0938 " fill="#AAAAFF" style="stroke: #A80036; stroke-width: 2.0;"/><path d="M1414.7845,755.0938 L1414.7845,775.0938 L1434.7845,775.0938 L1414.7845,755.0938 " fill="#AAAAFF" style="stroke: #A80036; stroke-width: 2.0;"/><text fill="#000000" font-family="sans-serif" font-size="26" lengthAdjust="spacingAndGlyphs" textLength="54" x="1350.7845" y="789.2275">DPA</text><path d="M2078.7845,755.0938 L2078.7845,805.3594 L2174.7845,805.3594 L2174.7845,775.0938 L2154.7845,755.0938 L2078.7845,755.0938 " fill="#AAAAFF" style="stroke: #A80036; stroke-width: 2.0;"/><path d="M2154.7845,755.0938 L2154.7845,775.0938 L2174.7845,775.0938 L2154.7845,755.0938 " fill="#AAAAFF" style="stroke: #A80036; stroke-width: 2.0;"/><text fill="#000000" font-family="sans-serif" font-size="26" lengthAdjust="spacingAndGlyphs" textLength="54" x="2090.7845" y="789.2275">DPA</text><!--MD5=[0a867cd1b41760edf017e7717d6853dc]
link wp to my--><path d="M798.7845,2093.1338 C798.7845,2133.8938 798.7845,2187.6338 798.7845,2230.2738 " fill="none" id="wp-to-my" style="stroke: #A80036; stroke-width: 2.0;"/><polygon fill="#A80036" points="798.7845,2240.2938,806.7845,2222.2938,798.7845,2230.2938,790.7845,2222.2938,798.7845,2240.2938" style="stroke: #A80036; stroke-width: 2.0;"/><!--MD5=[100387b058f8c8f1b9f38d95a60b7ee2]
link stats to log--><path d="M416.7845,2093.1338 C416.7845,2142.7938 416.7845,2211.7138 416.7845,2256.3538 " fill="none" id="stats-to-log" style="stroke: #A80036; stroke-width: 2.0;"/><polygon fill="#A80036" points="416.7845,2266.5938,424.7845,2248.5938,416.7845,2256.5938,408.7845,2248.5938,416.7845,2266.5938" style="stroke: #A80036; stroke-width: 2.0;"/><!--MD5=[43fef3d11c192aa0a88d628b3eebaa00]
link wp to i_web--><path d="M877.1245,2093.0938 C914.8445,2119.1738 961.9845,2147.2338 1008.7845,2163.0938 C1351.3045,2279.2138 1465.5045,2163.6538 1818.7845,2241.0938 C1876.2445,2253.6938 1941.0045,2279.6538 1972.1245,2292.9138 " fill="none" id="wp-i_web" style="stroke: #A80036; stroke-width: 2.0; stroke-dasharray: 7.0,7.0;"/><!--MD5=[8298b2441af43eb72b40d37aa4e0ec77]
link email to i_mail--><path d="M1054.6092,2131.3851 C1054.7056,2131.5931 1054.8025,2131.8009 1054.9,2132.0082 C1055.0951,2132.423 1055.2927,2132.8364 1055.4927,2133.2484 C1056.2928,2134.8964 1057.1327,2136.5217 1058.0143,2138.1202 C1059.7774,2141.3172 1061.707,2144.4069 1063.8182,2147.3559 C1068.0407,2153.2538 1072.9895,2158.5888 1078.7845,2163.0938 C1100.1045,2179.6738 1537.8445,2177.1538 1564.7845,2179.0938 C1811.9045,2196.9538 1886.0245,2156.1938 2118.7845,2241.0938 C2145.9445,2250.9938 2173.0045,2270.6938 2190.2445,2284.8338 " fill="none" id="email-i_mail" style="stroke: #A80036; stroke-width: 2.0; stroke-dasharray: 7.0,7.0;"/><!--MD5=[916fb375b8357f075b32922fdcb91ce5]
link umg to a_us--><path d="M1394.2537,447.795 C1393.8917,447.9856 1393.5242,448.1791 1393.1512,448.3755 C1391.6592,449.161 1390.0799,449.9924 1388.4159,450.8684 C1375.1046,457.8762 1356.3816,467.7323 1333.6976,479.6734 C1288.3295,503.5556 1227.117,535.7775 1161.6645,570.2313 C1030.7595,639.1388 882.8945,716.9738 810.9045,754.8738 " fill="none" id="umg-a_us" style="stroke: #A80036; stroke-width: 2.0; stroke-dasharray: 7.0,7.0;"/><!--MD5=[6997ee9cb04b0574bc4b3d2005e4b463]
link a_us to s4p--><path d="M718.2245,785.6737 C629.4445,795.0338 441.5845,828.3138 348.7845,945.0938 C339.297,957.0338 331.5385,970.2141 325.2273,984.1487 C322.0717,991.116 319.2779,998.2719 316.8107,1005.5556 C316.5023,1006.466 316.199,1007.3785 315.9007,1008.2928 " fill="none" id="a_us-to-s4p" style="stroke: #A80036; stroke-width: 2.0; stroke-dasharray: 7.0,7.0;"/><polygon fill="#A80036" points="315.9007,1008.2928,329.0885,993.6613,319.002,998.7859,313.8774,988.6993,315.9007,1008.2928" style="stroke: #A80036; stroke-width: 2.0;"/><!--MD5=[2d73c405dc055b46790ba087183c6302]
link umg to a_ub--><path d="M1394.6009,458.2775 C1392.7783,460.4378 1390.8206,462.7583 1388.7375,465.2273 C1384.5715,470.1653 1379.9042,475.6973 1374.8141,481.7306 C1354.4538,505.8638 1327.3282,538.0163 1298.452,572.2438 C1240.6995,640.6988 1175.9445,717.4538 1144.3045,754.9538 " fill="none" id="umg-a_ub" style="stroke: #A80036; stroke-width: 2.0; stroke-dasharray: 7.0,7.0;"/><!--MD5=[bef761d0f1a3dc5cd5fa1b8f082cfd20]
link a_ub to bi--><path d="M1076.7445,795.3538 C1012.0445,815.8938 898.6245,862.0138 842.7845,945.0938 C838.5345,951.4163 834.6636,958.0055 831.1413,964.8047 C829.3802,968.2043 827.7062,971.6563 826.1155,975.1538 C825.9167,975.591 825.7191,976.0289 825.5229,976.4675 " fill="none" id="a_ub-to-bi" style="stroke: #A80036; stroke-width: 2.0; stroke-dasharray: 7.0,7.0;"/><polygon fill="#A80036" points="825.5229,976.4675,840.1767,963.3044,829.607,967.3395,825.5719,956.7698,825.5229,976.4675" style="stroke: #A80036; stroke-width: 2.0;"/><!--MD5=[9f83a443132699edc54afadafd27b93b]
link umg to a_ue--><path d="M1396.1731,645.4536 C1396.1352,645.9881 1396.0974,646.522 1396.0596,647.0555 C1395.9841,648.1223 1395.9087,649.187 1395.8335,650.2494 C1395.2318,658.7485 1394.6406,667.0986 1394.0666,675.2069 C1391.7707,707.64 1389.7495,736.2038 1388.4245,754.9538 " fill="none" id="umg-a_ue" style="stroke: #A80036; stroke-width: 2.0; stroke-dasharray: 7.0,7.0;"/><!--MD5=[43ca41bea33796d59755bfaa9855f1b8]
link a_ue to erasmus--><path d="M1383.5645,805.6937 C1380.4945,828.1338 1375.497,864.6863 1369.7066,907.0463 C1366.8115,928.2262 1363.7181,950.8581 1360.5684,973.9038 C1360.47,974.6239 1360.3715,975.3445 1360.273,976.0655 " fill="none" id="a_ue-to-erasmus" style="stroke: #A80036; stroke-width: 2.0; stroke-dasharray: 7.0,7.0;"/><polygon fill="#A80036" points="1360.273,976.0655,1370.6367,959.3146,1361.6271,966.1576,1354.7841,957.1479,1360.273,976.0655" style="stroke: #A80036; stroke-width: 2.0;"/><!--MD5=[7339e6ca21ba761044ccb6aba77ddd84]
link umg to a_un--><path d="M1448.2879,645.3503 C1448.512,645.7051 1448.7373,646.0591 1448.9639,646.4121 C1456.2151,657.7097 1464.7495,668.0963 1474.7845,677.0938 C1563.9045,756.9938 1942.0845,773.7538 2077.9445,777.2137 " fill="none" id="umg-a_un" style="stroke: #A80036; stroke-width: 2.0; stroke-dasharray: 7.0,7.0;"/><!--MD5=[9fa15f41c5eba71b8841bb348f363064]
link a_un to netcup--><path d="M2130.2445,805.3338 C2142.8845,889.9438 2187.9095,1191.5388 2230.077,1474.0037 C2235.3479,1509.3119 2240.5742,1544.3211 2245.687,1578.5702 C2246.9652,1587.1325 2248.2363,1595.6473 2249.4992,1604.1074 C2249.815,1606.2224 2250.1302,1608.334 2250.4449,1610.4421 " fill="none" id="a_un-to-netcup" style="stroke: #A80036; stroke-width: 2.0; stroke-dasharray: 7.0,7.0;"/><polygon fill="#A80036" points="2250.4449,1610.4421,2255.6996,1591.4582,2248.9684,1600.5517,2239.8749,1593.8205,2250.4449,1610.4421" style="stroke: #A80036; stroke-width: 2.0;"/><!--MD5=[c0b26be026174339df01e960bf1bc3cf]
link ship to webspace--><path d="M1857.6045,516.5938 C1854.9445,691.2337 1848.3045,1128.8938 1842.7845,1495.0938 C1841.9045,1553.3888 1840.9732,1615.2713 1840.0691,1675.445 C1839.6171,1705.5319 1839.1719,1735.1916 1838.7432,1763.762 C1838.7165,1765.5477 1838.6897,1767.3291 1838.6631,1769.1061 C1838.6497,1769.9946 1838.6364,1770.8819 1838.6231,1771.7682 " fill="none" id="ship-to-webspace" style="stroke: #A80036; stroke-width: 2.0;"/><polygon fill="#A80036" points="1838.6231,1771.7682,1846.8922,1753.8902,1838.7731,1761.7693,1830.894,1753.6502,1838.6231,1771.7682" style="stroke: #A80036; stroke-width: 2.0;"/><text fill="#000000" font-family="sans-serif" font-size="26" lengthAdjust="spacingAndGlyphs" textLength="112" x="1852.7845" y="891.2275">Adminis-</text><text fill="#000000" font-family="sans-serif" font-size="26" lengthAdjust="spacingAndGlyphs" textLength="84" x="1866.7845" y="921.4932">tration</text><!--MD5=[146ac31a81dcf7247f718aff5916ad51]
link s4p_partner to wp--><path d="M527.0245,1319.5738 C589.3645,1482.1138 715.6045,1811.2337 771.3045,1956.4538 " fill="none" id="s4p_partner-to-wp" style="stroke: #A80036; stroke-width: 2.0;"/><polygon fill="#A80036" points="775.2045,1966.5938,776.1975,1946.9211,771.6089,1957.2625,761.2675,1952.6739,775.2045,1966.5938" style="stroke: #A80036; stroke-width: 2.0;"/><text fill="#000000" font-family="sans-serif" font-size="26" lengthAdjust="spacingAndGlyphs" textLength="112" x="588.7845" y="1441.2275">Adminis-</text><text fill="#000000" font-family="sans-serif" font-size="26" lengthAdjust="spacingAndGlyphs" textLength="84" x="602.7845" y="1471.4932">tration</text><!--MD5=[4b8def5eb75f600a6c203c284103c1ba]
link umg_team to e_de--><path d="M1619.6245,549.5738 C1621.9645,858.8738 1628.5045,1726.4938 1630.3245,1966.1138 " fill="none" id="umg_team-to-e_de" style="stroke: #A80036; stroke-width: 2.0;"/><polygon fill="#A80036" points="1630.3845,1976.3738,1638.2815,1958.3283,1630.3273,1966.3739,1622.2817,1958.4198,1630.3845,1976.3738" style="stroke: #A80036; stroke-width: 2.0;"/><!--MD5=[94e15bd2dd988e8bac20be7795d24922]
link bi_partner to e_pl--><path d="M998.1845,1305.8138 C1034.2645,1357.2938 1077.6245,1426.9538 1102.7845,1495.0938 C1163.0245,1658.2138 1180.0645,1865.0138 1184.8845,1966.3738 " fill="none" id="bi_partner-to-e_pl" style="stroke: #A80036; stroke-width: 2.0;"/><polygon fill="#A80036" points="1185.3445,1976.4538,1192.5117,1958.1063,1184.8865,1966.4642,1176.5285,1958.839,1185.3445,1976.4538" style="stroke: #A80036; stroke-width: 2.0;"/><!--MD5=[ac4b9285fdce224685b70e92f0a79ffb]
link erasmus_partner to e_nl--><path d="M1451.1445,1319.5738 C1441.2045,1485.6338 1420.8845,1825.5338 1412.5245,1965.6138 " fill="none" id="erasmus_partner-to-e_nl" style="stroke: #A80036; stroke-width: 2.0;"/><polygon fill="#A80036" points="1411.8845,1976.1538,1420.9482,1958.6652,1412.4834,1966.1717,1404.9769,1957.7069,1411.8845,1976.1538" style="stroke: #A80036; stroke-width: 2.0;"/><!--MD5=[d320135e18d4819ab489a80e606b00fb]
reverse link i_web to user--><path d="M1998.4845,2330.9738 C2017.0845,2393.4138 2065.0045,2554.2538 2093.8245,2651.0138 " fill="none" id="i_web-backto-user" style="stroke: #A80036; stroke-width: 2.0;"/><polygon fill="#A80036" points="1995.5645,2321.1538,1992.978,2340.6809,1998.3908,2330.746,2008.3256,2336.1588,1995.5645,2321.1538" style="stroke: #A80036; stroke-width: 2.0;"/><!--MD5=[3d02842c6fd60e0dd56159e80b4a6c76]
reverse link i_mail to user--><path d="M2203.1645,2330.9738 C2189.5845,2393.4138 2154.5845,2554.2538 2133.5445,2651.0138 " fill="none" id="i_mail-backto-user" style="stroke: #A80036; stroke-width: 2.0;"/><polygon fill="#A80036" points="2205.2845,2321.1538,2193.6588,2337.0548,2203.1697,2330.9276,2209.2969,2340.4385,2205.2845,2321.1538" style="stroke: #A80036; stroke-width: 2.0;"/><rect fill="#DDDDDD" height="85.1875" rx="10" ry="10" style="stroke: #000000; stroke-width: 2.0;" width="1024" x="728.9973" y="2834.084"/><text fill="#000000" font-family="sans-serif" font-size="28" font-weight="bold" lengthAdjust="spacingAndGlyphs" textLength="118" x="740.9973" y="2870.0742">Legend</text><text fill="#000000" font-family="sans-serif" font-size="28" lengthAdjust="spacingAndGlyphs" textLength="1000" x="740.9973" y="2902.668">- DPA "Data Processing Agreement" - Auftragsverarbeitungsvertrag (AVV)</text><!--MD5=[b1db5dff9a23a11b61aeec34f3848e27]
@startuml

skinparam shadowing false
scale 2

title: Overview Homepage\njoinus4health.eu
header version: %date("dd.MM.yyyy")

skinparam actorStyle awesome
skinparam rectangleBackgroundColor<<Partner>> #cccccc
skinparam componentBackgroundColor #fefece

legend
**Legend**
- DPA "Data Processing Agreement" - Auftragsverarbeitungsvertrag (AVV)
end legend

actor "User" as user

rectangle "UMG\ncoordinator" as umg #ffcccc {
    rectangle "ICM SHIP-KEF" {
        actor "SHIP-IT" as ship
        actor "JoinUs4Health\nProject Manage-\nment Team" as umg_team
    }
}

rectangle "science4people.eu" <<Partner>> as s4p {
    actor "science4people\nPartner" as s4p_partner
}

rectangle "Medical University\nof Bialystok" <<Partner>> as bi {
    actor "Bialystok\nPartner" as bi_partner
}

rectangle "Medical Center of the\nErasmus University Rotterdamm" <<Partner>> as erasmus {
    actor "Erasmus\nPartner" as erasmus_partner
}

cloud "Internet" {
    node "netcup.de" <<Provider>> as netcup #ddbbaa {
        rectangle "Domain joinus4health.eu" as webspace #ffccaa {
            component "WordPress" <<Web-Framework>> as wp
            database "MySQL" <<database>> as my
            file "log files" as log
            component "Webalizer" <<statistic-tool>> as stats
            component "E-Mail" as email {
                rectangle "de/en" <<inbox>> as e_de
                rectangle "pl/en" <<inbox>> as e_pl
                rectangle "nl/en" <<inbox>> as e_nl
            }
            wp - -> my
            stats - -> log
        }
        interface "Homepage" as i_web
        interface "E-Mail" as i_mail
        i_web .u. wp
        i_mail .u. email
    }
}

note "DPA" as a_us #aaaaff
umg .. a_us
a_us ..> s4p
note "DPA" as a_ub #aaaaff
umg .. a_ub
a_ub ..> bi
note "DPA" as a_ue #aaaaff
umg .. a_ue
a_ue ..> erasmus
note "DPA" as a_un #aaaaff
umg .. a_un
a_un ..> netcup

ship        - ->     webspace    : Adminis-\ntration
s4p_partner - ->     wp          : Adminis-\ntration

umg_team        - -> e_de
bi_partner      - -> e_pl
erasmus_partner - -> e_nl

user    -u-> i_web
user    -u-> i_mail

@enduml

@startuml

skinparam shadowing false
scale 2

title: Overview Homepage\njoinus4health.eu
header version: 08.09.2021

skinparam actorStyle awesome
skinparam rectangleBackgroundColor<<Partner>> #cccccc
skinparam componentBackgroundColor #fefece

legend
**Legend**
- DPA "Data Processing Agreement" - Auftragsverarbeitungsvertrag (AVV)
end legend

actor "User" as user

rectangle "UMG\ncoordinator" as umg #ffcccc {
    rectangle "ICM SHIP-KEF" {
        actor "SHIP-IT" as ship
        actor "JoinUs4Health\nProject Manage-\nment Team" as umg_team
    }
}

rectangle "science4people.eu" <<Partner>> as s4p {
    actor "science4people\nPartner" as s4p_partner
}

rectangle "Medical University\nof Bialystok" <<Partner>> as bi {
    actor "Bialystok\nPartner" as bi_partner
}

rectangle "Medical Center of the\nErasmus University Rotterdamm" <<Partner>> as erasmus {
    actor "Erasmus\nPartner" as erasmus_partner
}

cloud "Internet" {
    node "netcup.de" <<Provider>> as netcup #ddbbaa {
        rectangle "Domain joinus4health.eu" as webspace #ffccaa {
            component "WordPress" <<Web-Framework>> as wp
            database "MySQL" <<database>> as my
            file "log files" as log
            component "Webalizer" <<statistic-tool>> as stats
            component "E-Mail" as email {
                rectangle "de/en" <<inbox>> as e_de
                rectangle "pl/en" <<inbox>> as e_pl
                rectangle "nl/en" <<inbox>> as e_nl
            }
            wp - -> my
            stats - -> log
        }
        interface "Homepage" as i_web
        interface "E-Mail" as i_mail
        i_web .u. wp
        i_mail .u. email
    }
}

note "DPA" as a_us #aaaaff
umg .. a_us
a_us ..> s4p
note "DPA" as a_ub #aaaaff
umg .. a_ub
a_ub ..> bi
note "DPA" as a_ue #aaaaff
umg .. a_ue
a_ue ..> erasmus
note "DPA" as a_un #aaaaff
umg .. a_un
a_un ..> netcup

ship        - ->     webspace    : Adminis-\ntration
s4p_partner - ->     wp          : Adminis-\ntration

umg_team        - -> e_de
bi_partner      - -> e_pl
erasmus_partner - -> e_nl

user    -u-> i_web
user    -u-> i_mail

@enduml

PlantUML version 1.2020.16(Sun Aug 23 22:20:43 CEST 2020)
(GPL source distribution)
Java Runtime: OpenJDK Runtime Environment
JVM: OpenJDK 64-Bit Server VM
Default Encoding: UTF-8
Language: en
Country: GB
--></g></svg>