<?xml version="1.0" encoding="UTF-8" standalone="no"?><svg xmlns="http://www.w3.org/2000/svg" xmlns:xlink="http://www.w3.org/1999/xlink" contentScriptType="application/ecmascript" contentStyleType="text/css" height="3446px" preserveAspectRatio="none" style="width:3396px;height:3446px;" version="1.1" viewBox="0 0 3396 3446" width="3396px" zoomAndPan="magnify"><defs/><g><text fill="#888888" font-family="sans-serif" font-size="20" lengthAdjust="spacingAndGlyphs" textLength="190" x="3170.8045" y="18.5645">version: 07.02.2022</text><text fill="#000000" font-family="sans-serif" font-size="36" lengthAdjust="spacingAndGlyphs" textLength="378" x="1491.4022" y="56.6973">Overview Homepage</text><text fill="#000000" font-family="sans-serif" font-size="36" lengthAdjust="spacingAndGlyphs" textLength="290" x="1535.4022" y="98.6035">joinus4health.eu</text><!--MD5=[26c5d267d5640af9fd645d609f9318ff]
cluster umg--><rect fill="#FFCCCC" height="524" style="stroke: #000000; stroke-width: 3.0;" width="618" x="2208.8045" y="121.0938"/><text fill="#000000" font-family="sans-serif" font-size="28" font-weight="bold" lengthAdjust="spacingAndGlyphs" textLength="72" x="2481.8045" y="151.084">UMG</text><text fill="#000000" font-family="sans-serif" font-size="28" font-weight="bold" lengthAdjust="spacingAndGlyphs" textLength="184" x="2425.8045" y="183.6777">coordinator</text><!--MD5=[a5da4f68ede42b98d7b5f3a10e3ccc90]
cluster ICM SHIP-KEF--><rect fill="#FFCCCC" height="326" style="stroke: #000000; stroke-width: 3.0;" width="474" x="2288.8045" y="255.0938"/><text fill="#000000" font-family="sans-serif" font-size="28" font-weight="bold" lengthAdjust="spacingAndGlyphs" textLength="206" x="2422.8045" y="285.084">ICM SHIP-KEF</text><!--MD5=[d416a0175338ee00014ff4466993c423]
cluster s4p--><rect fill="#CCCCCC" height="358" style="stroke: #000000; stroke-width: 3.0;" width="356" x="912.8045" y="1009.0938"/><text fill="#000000" font-family="sans-serif" font-size="28" font-style="italic" lengthAdjust="spacingAndGlyphs" textLength="134" x="1023.8045" y="1039.084">«Partner»</text><text fill="#000000" font-family="sans-serif" font-size="28" font-weight="bold" lengthAdjust="spacingAndGlyphs" textLength="300" x="940.8045" y="1071.6777">science4people.eu</text><!--MD5=[0ff277c6235d691d4cf1e9691da08ce2]
cluster bi--><rect fill="#CCCCCC" height="390" style="stroke: #000000; stroke-width: 3.0;" width="318" x="1398.8045" y="977.0938"/><text fill="#000000" font-family="sans-serif" font-size="28" font-style="italic" lengthAdjust="spacingAndGlyphs" textLength="134" x="1490.8045" y="1007.084">«Partner»</text><text fill="#000000" font-family="sans-serif" font-size="28" font-weight="bold" lengthAdjust="spacingAndGlyphs" textLength="286" x="1414.8045" y="1039.6777">Medical University</text><text fill="#000000" font-family="sans-serif" font-size="28" font-weight="bold" lengthAdjust="spacingAndGlyphs" textLength="182" x="1466.8045" y="1072.2715">of Bialystok</text><!--MD5=[eaeb4b0a6359e5999f2bdc196eca946c]
cluster erasmus--><rect fill="#CCCCCC" height="390" style="stroke: #000000; stroke-width: 3.0;" width="536" x="1796.8045" y="977.0938"/><text fill="#000000" font-family="sans-serif" font-size="28" font-style="italic" lengthAdjust="spacingAndGlyphs" textLength="134" x="1997.8045" y="1007.084">«Partner»</text><text fill="#000000" font-family="sans-serif" font-size="28" font-weight="bold" lengthAdjust="spacingAndGlyphs" textLength="340" x="1894.8045" y="1039.6777">Medical Center of the</text><text fill="#000000" font-family="sans-serif" font-size="28" font-weight="bold" lengthAdjust="spacingAndGlyphs" textLength="504" x="1812.8045" y="1072.2715">Erasmus University Rotterdamm</text><!--MD5=[07074073229a58b98d86dbf75a12e332]
cluster Internet--><path d="M173.5396,1557.2097 C229.8474,1447.582 302.082,1425.0588 388.8282,1526.1045 C462.314,1439.9064 532.9473,1455.083 579.2839,1554.0321 C650.6565,1423.8293 736.2493,1434.756 820.1082,1541.3324 C879.3388,1442.4096 982.6751,1436.8861 1043.209,1539.8924 C1107.0183,1449.2669 1203.1244,1447.2791 1259.1837,1548.6119 C1306.5804,1432.5814 1390.4031,1447.7372 1459.0888,1526.7975 C1531.2731,1420.2015 1638.7384,1414.9075 1706.6214,1531.5666 C1753.5333,1439.3072 1841.6443,1432.2948 1901.3521,1517.5281 C1974.12,1406.8972 2076.9703,1436.5898 2130.2591,1538.5064 C2176.8353,1441.8231 2271.2677,1419.3543 2336.0881,1519.4203 C2430.9742,1416.6472 2513.6694,1408.3453 2580.5225,1547.7183 C2639.1793,1454.9865 2717.1449,1424.268 2791.3735,1531.2807 C2854.7629,1441.5477 2936.3574,1452.9389 2992.5521,1539.4913 C3049.9989,1442.2573 3156.8057,1439.2953 3212.8045,1541.0938 C3226.5972,1523.7717 3241.3042,1523.4225 3250.8321,1545.2376 C3348.7966,1610.2644 3361.8725,1699.7315 3243.8531,1757.6622 C3325.6045,1822.384 3325.8496,1909.4087 3230.8502,1962.9343 C3329.1625,2018.2155 3338.7467,2088.967 3248.7157,2161.2181 C3360.676,2209.7592 3369.7617,2299.757 3264.3391,2364.9669 C3351.1016,2443.4638 3350.2999,2515.2207 3247.7371,2579.0345 C3324.7644,2643.6112 3305.6908,2704.086 3225.4818,2747.9457 C3322.9638,2797.5255 3328.4262,2871.6582 3253.5198,2945.6818 C3352.3469,3035.4423 3329.3068,3127.4065 3198.8045,3158.0938 C3211.0588,3149.8959 3218.3201,3156.5428 3220.893,3168.6339 C3173.1262,3263.4108 3072.8323,3279.6286 3012.9571,3181.6993 C2944.1051,3302.0102 2848.1536,3312.7106 2771.5772,3189.3511 C2696.9796,3290.7799 2631.6993,3287.6487 2567.0611,3179.6263 C2514.4545,3283.1396 2404.7794,3295.8767 2344.5951,3187.5855 C2265.9704,3290.905 2206.4181,3263.8845 2142.5443,3172.2941 C2077.7713,3297.9815 1987.3642,3287.2445 1915.8389,3178.8332 C1851.1642,3293.2128 1744.2777,3286.7706 1692.3762,3166.6606 C1626.155,3282.9893 1549.1083,3267.1572 1479.824,3169.7061 C1411.2813,3264.1756 1347.0517,3276.804 1266.0377,3183.9384 C1191.8254,3282.5486 1120.0194,3288.5674 1049.5765,3180.0001 C973.5083,3290.1736 874.8344,3282.7998 815.2042,3163.2308 C747.7149,3263.4125 687.341,3263.071 614.3817,3168.8823 C538.0402,3272.446 458.9519,3279.1085 374.2677,3178.7034 C273.3167,3290.6497 195.5123,3262.6899 126.8045,3144.0938 C136.8193,3127.1488 150.2095,3129.9407 159.2718,3145.0583 C57.5449,3108.799 37.9462,3036.197 124.9233,2964.1157 C50.219,2896.5172 51.5478,2812.4452 146.0514,2762.5863 C47.586,2696.9047 37.5184,2612.4074 145.23,2545.9442 C43.4441,2494.7943 48.9944,2404.152 136.9448,2345.1722 C42.5609,2306.6599 21.6683,2221.3819 114.7421,2160.3502 C29.5569,2104.3251 30.1324,2034.8875 115.5582,1979.6329 C39.4303,1896.376 50.9019,1826.3981 146.5073,1768.2899 C32.8769,1696.2355 12,1604.8802 140.8045,1527.0938 C165.0718,1519.3132 176.7958,1535.0731 173.5396,1557.2097 " fill="#FFFFFF" style="stroke: #000000; stroke-width: 3.0;"/><text fill="#000000" font-family="sans-serif" font-size="28" font-weight="bold" lengthAdjust="spacingAndGlyphs" textLength="126" x="1606.8045" y="1563.084">Internet</text><!--MD5=[fc7c9bc70f56de5c86322601a7f106c8]
cluster netcup--><polygon fill="#DDBBAA" points="174.8045,1633.0938,194.8045,1613.0938,3164.8045,1613.0938,3164.8045,2604.0938,3144.8045,2624.0938,174.8045,2624.0938,174.8045,1633.0938" style="stroke: #000000; stroke-width: 3.0;"/><line style="stroke: #000000; stroke-width: 3.0;" x1="3144.8045" x2="3164.8045" y1="1633.0938" y2="1613.0938"/><line style="stroke: #000000; stroke-width: 3.0;" x1="174.8045" x2="3144.8045" y1="1633.0938" y2="1633.0938"/><line style="stroke: #000000; stroke-width: 3.0;" x1="3144.8045" x2="3144.8045" y1="1633.0938" y2="2624.0938"/><text fill="#000000" font-family="sans-serif" font-size="28" font-style="italic" lengthAdjust="spacingAndGlyphs" textLength="148" x="1587.8045" y="1665.084">«Provider»</text><text fill="#000000" font-family="sans-serif" font-size="28" font-weight="bold" lengthAdjust="spacingAndGlyphs" textLength="160" x="1581.8045" y="1697.6777">netcup.de</text><!--MD5=[4664c0d5d074dae4437fc00e51bb76c2]
cluster webspace--><rect fill="#FFCCAA" height="771" style="stroke: #000000; stroke-width: 3.0;" width="2432" x="254.8045" y="1773.0938"/><text fill="#000000" font-family="sans-serif" font-size="28" font-weight="bold" lengthAdjust="spacingAndGlyphs" textLength="388" x="1276.8045" y="1803.084">Domain joinus4health.eu</text><!--MD5=[d10c0fc188658aa905e9b53266af4542]
cluster wp--><rect fill="#FEFECE" height="573" style="stroke: #000000; stroke-width: 3.0;" width="790" x="990.8045" y="1891.0938"/><rect fill="#FEFECE" height="20" style="stroke: #000000; stroke-width: 3.0;" width="30" x="1740.8045" y="1901.0938"/><rect fill="#FEFECE" height="4" style="stroke: #000000; stroke-width: 3.0;" width="8" x="1736.8045" y="1905.0938"/><rect fill="#FEFECE" height="4" style="stroke: #000000; stroke-width: 3.0;" width="8" x="1736.8045" y="1913.0938"/><text fill="#000000" font-family="sans-serif" font-size="28" font-style="italic" lengthAdjust="spacingAndGlyphs" textLength="262" x="1254.8045" y="1943.084">«Web-Framework»</text><text fill="#000000" font-family="sans-serif" font-size="28" font-weight="bold" lengthAdjust="spacingAndGlyphs" textLength="174" x="1298.8045" y="1975.6777">WordPress</text><!--MD5=[893b3f08f7335ed1c07837f7f8fbbed9]
cluster //separate Server//--><rect fill="#FFCCAA" height="226" style="stroke: #000000; stroke-width: 3.0;" width="288" x="638.8045" y="2238.0938"/><text fill="#000000" font-family="sans-serif" font-size="28" font-style="italic" font-weight="bold" lengthAdjust="spacingAndGlyphs" textLength="256" x="654.8045" y="2268.084">separate Server</text><!--MD5=[cf76bd177cad34bbcc88e5e79c8c4c0a]
cluster email--><rect fill="#FEFECE" height="240" style="stroke: #000000; stroke-width: 3.0;" width="730" x="1860.8045" y="1916.0938"/><rect fill="#FEFECE" height="20" style="stroke: #000000; stroke-width: 3.0;" width="30" x="2550.8045" y="1926.0938"/><rect fill="#FEFECE" height="4" style="stroke: #000000; stroke-width: 3.0;" width="8" x="2546.8045" y="1930.0938"/><rect fill="#FEFECE" height="4" style="stroke: #000000; stroke-width: 3.0;" width="8" x="2546.8045" y="1938.0938"/><text fill="#000000" font-family="sans-serif" font-size="28" font-weight="bold" lengthAdjust="spacingAndGlyphs" textLength="90" x="2180.8045" y="1968.084">E-Mail</text><!--MD5=[7e24b8391da21ad2be3b88b11b7f436f]
cluster deepl--><polygon fill="#DDBBAA" points="264.8045,2726.0938,284.8045,2706.0938,938.8045,2706.0938,938.8045,3106.0938,918.8045,3126.0938,264.8045,3126.0938,264.8045,2726.0938" style="stroke: #000000; stroke-width: 3.0;"/><line style="stroke: #000000; stroke-width: 3.0;" x1="918.8045" x2="938.8045" y1="2726.0938" y2="2706.0938"/><line style="stroke: #000000; stroke-width: 3.0;" x1="264.8045" x2="918.8045" y1="2726.0938" y2="2726.0938"/><line style="stroke: #000000; stroke-width: 3.0;" x1="918.8045" x2="918.8045" y1="2726.0938" y2="3126.0938"/><text fill="#000000" font-family="sans-serif" font-size="28" font-weight="bold" lengthAdjust="spacingAndGlyphs" textLength="164" x="511.8045" y="2758.084">deepl.com</text><!--MD5=[9a965e807ff1c8a3f1e320dc1aa43df6]
cluster deepl_trans--><rect fill="#FEFECE" height="244" style="stroke: #000000; stroke-width: 3.0;" width="546" x="328.8045" y="2818.0938"/><rect fill="#FEFECE" height="20" style="stroke: #000000; stroke-width: 3.0;" width="30" x="834.8045" y="2828.0938"/><rect fill="#FEFECE" height="4" style="stroke: #000000; stroke-width: 3.0;" width="8" x="830.8045" y="2832.0938"/><rect fill="#FEFECE" height="4" style="stroke: #000000; stroke-width: 3.0;" width="8" x="830.8045" y="2840.0938"/><text fill="#000000" font-family="sans-serif" font-size="28" font-weight="bold" lengthAdjust="spacingAndGlyphs" textLength="162" x="520.8045" y="2870.084">Translator</text><!--MD5=[3103861f95f0d7217426811062624cfa]
entity ship--><ellipse cx="2672.8045" cy="393.0938" fill="#FEFECE" rx="32" ry="32" style="stroke: #A80036; stroke-width: 3.0;"/><path d="M2672.8045,433.0938 C2680.8045,433.0938 2686.8045,433.0938 2694.8045,425.0938 C2710.8045,425.0938 2726.8045,441.0938 2726.8045,457.0938 L2726.8045,465.0938 C2726.8045,473.0938 2718.8045,481.0938 2710.8045,481.0938 L2634.8045,481.0938 C2626.8045,481.0938 2618.8045,473.0938 2618.8045,465.0938 L2618.8045,457.0938 C2618.8045,441.0938 2634.8045,425.0938 2650.8045,425.0938 C2658.8045,433.0938 2664.8045,433.0938 2672.8045,433.0938 " fill="#FEFECE" style="stroke: #A80036; stroke-width: 3.0;"/><text fill="#000000" font-family="sans-serif" font-size="28" lengthAdjust="spacingAndGlyphs" textLength="96" x="2624.8045" y="510.084">SHIP-IT</text><!--MD5=[b08f2111fdc261dd0bfb2eacdde7049b]
entity umg_team--><ellipse cx="2432.8045" cy="360.0938" fill="#FEFECE" rx="32" ry="32" style="stroke: #A80036; stroke-width: 3.0;"/><path d="M2432.8045,400.0938 C2440.8045,400.0938 2446.8045,400.0938 2454.8045,392.0938 C2470.8045,392.0938 2486.8045,408.0938 2486.8045,424.0938 L2486.8045,432.0938 C2486.8045,440.0938 2478.8045,448.0938 2470.8045,448.0938 L2394.8045,448.0938 C2386.8045,448.0938 2378.8045,440.0938 2378.8045,432.0938 L2378.8045,424.0938 C2378.8045,408.0938 2394.8045,392.0938 2410.8045,392.0938 C2418.8045,400.0938 2424.8045,400.0938 2432.8045,400.0938 " fill="#FEFECE" style="stroke: #A80036; stroke-width: 3.0;"/><text fill="#000000" font-family="sans-serif" font-size="28" lengthAdjust="spacingAndGlyphs" textLength="190" x="2320.8045" y="477.084">JoinUs4Health</text><text fill="#000000" font-family="sans-serif" font-size="28" lengthAdjust="spacingAndGlyphs" textLength="224" x="2320.8045" y="509.6777">Project Manage-</text><text fill="#000000" font-family="sans-serif" font-size="28" lengthAdjust="spacingAndGlyphs" textLength="158" x="2320.8045" y="542.2715">ment Team</text><!--MD5=[db450b6175b1cf7e0741641dc58b6f7f]
entity s4p_partner--><ellipse cx="1110.8045" cy="1162.0938" fill="#FEFECE" rx="32" ry="32" style="stroke: #A80036; stroke-width: 3.0;"/><path d="M1110.8045,1202.0938 C1118.8045,1202.0938 1124.8045,1202.0938 1132.8045,1194.0938 C1148.8045,1194.0938 1164.8045,1210.0938 1164.8045,1226.0938 L1164.8045,1234.0938 C1164.8045,1242.0938 1156.8045,1250.0938 1148.8045,1250.0938 L1072.8045,1250.0938 C1064.8045,1250.0938 1056.8045,1242.0938 1056.8045,1234.0938 L1056.8045,1226.0938 C1056.8045,1210.0938 1072.8045,1194.0938 1088.8045,1194.0938 C1096.8045,1202.0938 1102.8045,1202.0938 1110.8045,1202.0938 " fill="#FEFECE" style="stroke: #A80036; stroke-width: 3.0;"/><text fill="#000000" font-family="sans-serif" font-size="28" lengthAdjust="spacingAndGlyphs" textLength="222" x="999.8045" y="1279.084">science4people</text><text fill="#000000" font-family="sans-serif" font-size="28" lengthAdjust="spacingAndGlyphs" textLength="100" x="999.8045" y="1311.6777">Partner</text><!--MD5=[763ba745d9525f6980f176f7384ba2a3]
entity bi_partner--><ellipse cx="1606.8045" cy="1162.0938" fill="#FEFECE" rx="32" ry="32" style="stroke: #A80036; stroke-width: 3.0;"/><path d="M1606.8045,1202.0938 C1614.8045,1202.0938 1620.8045,1202.0938 1628.8045,1194.0938 C1644.8045,1194.0938 1660.8045,1210.0938 1660.8045,1226.0938 L1660.8045,1234.0938 C1660.8045,1242.0938 1652.8045,1250.0938 1644.8045,1250.0938 L1568.8045,1250.0938 C1560.8045,1250.0938 1552.8045,1242.0938 1552.8045,1234.0938 L1552.8045,1226.0938 C1552.8045,1210.0938 1568.8045,1194.0938 1584.8045,1194.0938 C1592.8045,1202.0938 1598.8045,1202.0938 1606.8045,1202.0938 " fill="#FEFECE" style="stroke: #A80036; stroke-width: 3.0;"/><text fill="#000000" font-family="sans-serif" font-size="28" lengthAdjust="spacingAndGlyphs" textLength="122" x="1545.8045" y="1279.084">Bialystok</text><text fill="#000000" font-family="sans-serif" font-size="28" lengthAdjust="spacingAndGlyphs" textLength="100" x="1545.8045" y="1311.6777">Partner</text><!--MD5=[da111c5fa759825b4b733df98dd135a0]
entity erasmus_partner--><ellipse cx="2224.8045" cy="1162.0938" fill="#FEFECE" rx="32" ry="32" style="stroke: #A80036; stroke-width: 3.0;"/><path d="M2224.8045,1202.0938 C2232.8045,1202.0938 2238.8045,1202.0938 2246.8045,1194.0938 C2262.8045,1194.0938 2278.8045,1210.0938 2278.8045,1226.0938 L2278.8045,1234.0938 C2278.8045,1242.0938 2270.8045,1250.0938 2262.8045,1250.0938 L2186.8045,1250.0938 C2178.8045,1250.0938 2170.8045,1242.0938 2170.8045,1234.0938 L2170.8045,1226.0938 C2170.8045,1210.0938 2186.8045,1194.0938 2202.8045,1194.0938 C2210.8045,1202.0938 2216.8045,1202.0938 2224.8045,1202.0938 " fill="#FEFECE" style="stroke: #A80036; stroke-width: 3.0;"/><text fill="#000000" font-family="sans-serif" font-size="28" lengthAdjust="spacingAndGlyphs" textLength="120" x="2164.8045" y="1279.084">Erasmus</text><text fill="#000000" font-family="sans-serif" font-size="28" lengthAdjust="spacingAndGlyphs" textLength="100" x="2164.8045" y="1311.6777">Partner</text><!--MD5=[51764780891d56c625808fe39e0f2680]
entity i_web--><ellipse cx="2826.8045" cy="2370.0938" fill="#FEFECE" rx="16" ry="16" style="stroke: #A80036; stroke-width: 4.0;"/><text fill="#000000" font-family="sans-serif" font-size="28" lengthAdjust="spacingAndGlyphs" textLength="152" x="2750.8045" y="2430.084">Homepage</text><!--MD5=[fa02c4fa1f4a6cb5c999117feefacaf8]
entity i_mail--><ellipse cx="3044.8045" cy="2370.0938" fill="#FEFECE" rx="16" ry="16" style="stroke: #A80036; stroke-width: 4.0;"/><text fill="#000000" font-family="sans-serif" font-size="28" lengthAdjust="spacingAndGlyphs" textLength="80" x="3004.8045" y="2430.084">E-Mail</text><!--MD5=[fcbfd374278afc1cf141dd59657f7740]
entity wpfolder--><polygon fill="#FEFECE" points="653.8045,1999.0938,745.8045,1999.0938,759.8045,2041.0938,935.8045,2041.0938,935.8045,2110.2813,653.8045,2110.2813,653.8045,1999.0938" style="stroke: #000000; stroke-width: 3.0;"/><line style="stroke: #000000; stroke-width: 3.0;" x1="653.8045" x2="759.8045" y1="2041.0938" y2="2041.0938"/><text fill="#000000" font-family="sans-serif" font-size="28" lengthAdjust="spacingAndGlyphs" textLength="222" x="673.8045" y="2081.084">WordPress-Files</text><!--MD5=[30ba7fb1050e29c0f3290b9e87c281e8]
entity log--><polygon fill="#FEFECE" points="416.8045,2334.0938,416.8045,2406.6875,560.8045,2406.6875,560.8045,2354.0938,540.8045,2334.0938,416.8045,2334.0938" style="stroke: #000000; stroke-width: 3.0;"/><path d="M540.8045,2334.0938 L540.8045,2354.0938 L560.8045,2354.0938 " fill="#FEFECE" style="stroke: #000000; stroke-width: 3.0;"/><text fill="#000000" font-family="sans-serif" font-size="28" lengthAdjust="spacingAndGlyphs" textLength="104" x="436.8045" y="2380.084">log files</text><!--MD5=[8aaf477cf9b50a1d50e25883b72bb19a]
entity stats--><rect fill="#FEFECE" height="125.1875" style="stroke: #A80036; stroke-width: 3.0;" width="280" x="302.8045" y="1992.0938"/><rect fill="#FEFECE" height="20" style="stroke: #A80036; stroke-width: 3.0;" width="30" x="542.8045" y="2002.0938"/><rect fill="#FEFECE" height="4" style="stroke: #A80036; stroke-width: 3.0;" width="8" x="538.8045" y="2006.0938"/><rect fill="#FEFECE" height="4" style="stroke: #A80036; stroke-width: 3.0;" width="8" x="538.8045" y="2014.0938"/><text fill="#000000" font-family="sans-serif" font-size="28" font-style="italic" lengthAdjust="spacingAndGlyphs" textLength="200" x="332.8045" y="2058.084">«statistic-tool»</text><text fill="#000000" font-family="sans-serif" font-size="28" lengthAdjust="spacingAndGlyphs" textLength="134" x="365.8045" y="2090.6777">Webalizer</text><!--MD5=[7dac474687ad5f96cb87364e70789d24]
entity Elementor--><rect fill="#FEFECE" height="92.5938" style="stroke: #A80036; stroke-width: 3.0;" width="222" x="1077.8045" y="2009.0938"/><rect fill="#FEFECE" height="20" style="stroke: #A80036; stroke-width: 3.0;" width="30" x="1259.8045" y="2019.0938"/><rect fill="#FEFECE" height="4" style="stroke: #A80036; stroke-width: 3.0;" width="8" x="1255.8045" y="2023.0938"/><rect fill="#FEFECE" height="4" style="stroke: #A80036; stroke-width: 3.0;" width="8" x="1255.8045" y="2031.0938"/><text fill="#000000" font-family="sans-serif" font-size="28" lengthAdjust="spacingAndGlyphs" textLength="142" x="1107.8045" y="2075.084">Elementor</text><!--MD5=[e9a91520661c1de87785af7560ccbf08]
entity TranslatePress--><rect fill="#FEFECE" height="92.5938" style="stroke: #A80036; stroke-width: 3.0;" width="286" x="1369.8045" y="2009.0938"/><rect fill="#FEFECE" height="20" style="stroke: #A80036; stroke-width: 3.0;" width="30" x="1615.8045" y="2019.0938"/><rect fill="#FEFECE" height="4" style="stroke: #A80036; stroke-width: 3.0;" width="8" x="1611.8045" y="2023.0938"/><rect fill="#FEFECE" height="4" style="stroke: #A80036; stroke-width: 3.0;" width="8" x="1611.8045" y="2031.0938"/><text fill="#000000" font-family="sans-serif" font-size="28" lengthAdjust="spacingAndGlyphs" textLength="206" x="1399.8045" y="2075.084">TranslatePress</text><!--MD5=[220513d1d882ff78dc80689c7f394be1]
entity Yoast SEO--><rect fill="#FEFECE" height="92.5938" style="stroke: #A80036; stroke-width: 3.0;" width="224" x="1054.8045" y="2324.0938"/><rect fill="#FEFECE" height="20" style="stroke: #A80036; stroke-width: 3.0;" width="30" x="1238.8045" y="2334.0938"/><rect fill="#FEFECE" height="4" style="stroke: #A80036; stroke-width: 3.0;" width="8" x="1234.8045" y="2338.0938"/><rect fill="#FEFECE" height="4" style="stroke: #A80036; stroke-width: 3.0;" width="8" x="1234.8045" y="2346.0938"/><text fill="#000000" font-family="sans-serif" font-size="28" lengthAdjust="spacingAndGlyphs" textLength="144" x="1084.8045" y="2390.084">Yoast SEO</text><!--MD5=[4f02f8ebfd08bfe6a187bb6f116c7981]
entity One Click Accessibility--><rect fill="#FEFECE" height="92.5938" style="stroke: #A80036; stroke-width: 3.0;" width="384" x="1348.8045" y="2324.0938"/><rect fill="#FEFECE" height="20" style="stroke: #A80036; stroke-width: 3.0;" width="30" x="1692.8045" y="2334.0938"/><rect fill="#FEFECE" height="4" style="stroke: #A80036; stroke-width: 3.0;" width="8" x="1688.8045" y="2338.0938"/><rect fill="#FEFECE" height="4" style="stroke: #A80036; stroke-width: 3.0;" width="8" x="1688.8045" y="2346.0938"/><text fill="#000000" font-family="sans-serif" font-size="28" lengthAdjust="spacingAndGlyphs" textLength="304" x="1378.8045" y="2390.084">One Click Accessibility</text><!--MD5=[51425f20b61c3ae958e00a58355c3be3]
entity my--><path d="M691.8045,2328.0938 C691.8045,2308.0938 792.8045,2308.0938 792.8045,2308.0938 C792.8045,2308.0938 893.8045,2308.0938 893.8045,2328.0938 L893.8045,2411.2813 C893.8045,2431.2813 792.8045,2431.2813 792.8045,2431.2813 C792.8045,2431.2813 691.8045,2431.2813 691.8045,2411.2813 L691.8045,2328.0938 " fill="#FEFECE" style="stroke: #000000; stroke-width: 3.0;"/><path d="M691.8045,2328.0938 C691.8045,2348.0938 792.8045,2348.0938 792.8045,2348.0938 C792.8045,2348.0938 893.8045,2348.0938 893.8045,2328.0938 " fill="none" style="stroke: #000000; stroke-width: 3.0;"/><text fill="#000000" font-family="sans-serif" font-size="28" font-style="italic" lengthAdjust="spacingAndGlyphs" textLength="162" x="711.8045" y="2382.084">«database»</text><text fill="#000000" font-family="sans-serif" font-size="28" lengthAdjust="spacingAndGlyphs" textLength="92" x="746.8045" y="2414.6777">MariaDB</text><!--MD5=[b60821f76768a9c71fc0268686c5d669]
entity e_de--><rect fill="#FEFECE" height="105.1875" style="stroke: #000000; stroke-width: 3.0;" width="152" x="2390.8045" y="2002.0938"/><text fill="#000000" font-family="sans-serif" font-size="28" font-style="italic" lengthAdjust="spacingAndGlyphs" textLength="112" x="2410.8045" y="2048.084">«inbox»</text><text fill="#000000" font-family="sans-serif" font-size="28" lengthAdjust="spacingAndGlyphs" textLength="82" x="2425.8045" y="2080.6777">de/en</text><!--MD5=[ba6cf0bdf5e2e09cfbee57ce52cfe5c1]
entity e_pl--><rect fill="#FEFECE" height="105.1875" style="stroke: #000000; stroke-width: 3.0;" width="152" x="1946.8045" y="2002.0938"/><text fill="#000000" font-family="sans-serif" font-size="28" font-style="italic" lengthAdjust="spacingAndGlyphs" textLength="112" x="1966.8045" y="2048.084">«inbox»</text><text fill="#000000" font-family="sans-serif" font-size="28" lengthAdjust="spacingAndGlyphs" textLength="70" x="1987.8045" y="2080.6777">pl/en</text><!--MD5=[ba72840a7e95ae0372abc584fb2d4dc3]
entity e_nl--><rect fill="#FEFECE" height="105.1875" style="stroke: #000000; stroke-width: 3.0;" width="152" x="2168.8045" y="2002.0938"/><text fill="#000000" font-family="sans-serif" font-size="28" font-style="italic" lengthAdjust="spacingAndGlyphs" textLength="112" x="2188.8045" y="2048.084">«inbox»</text><text fill="#000000" font-family="sans-serif" font-size="28" lengthAdjust="spacingAndGlyphs" textLength="70" x="2209.8045" y="2080.6777">nl/en</text><path d="M414.8045,2904.0938 L414.8045,3014.8906 L826.8045,3014.8906 L826.8045,2924.0938 L806.8045,2904.0938 L414.8045,2904.0938 " fill="#FBFB77" style="stroke: #A80036; stroke-width: 2.0;"/><path d="M806.8045,2904.0938 L806.8045,2924.0938 L826.8045,2924.0938 L806.8045,2904.0938 " fill="#FBFB77" style="stroke: #A80036; stroke-width: 2.0;"/><text fill="#000000" font-family="sans-serif" font-size="26" lengthAdjust="spacingAndGlyphs" textLength="328" x="426.8045" y="2938.2275">Deepl is used to translate</text><text fill="#000000" font-family="sans-serif" font-size="26" lengthAdjust="spacingAndGlyphs" textLength="284" x="426.8045" y="2968.4932">website public content</text><text fill="#000000" font-family="sans-serif" font-size="26" lengthAdjust="spacingAndGlyphs" textLength="370" x="426.8045" y="2998.7588">no user data is sent to Deepl</text><!--MD5=[8fc3522a43f8c7199df5e09e5bb0188e]
entity user--><ellipse cx="3318.8045" cy="2915.0938" fill="#FEFECE" rx="32" ry="32" style="stroke: #A80036; stroke-width: 3.0;"/><path d="M3318.8045,2955.0938 C3326.8045,2955.0938 3332.8045,2955.0938 3340.8045,2947.0938 C3356.8045,2947.0938 3372.8045,2963.0938 3372.8045,2979.0938 L3372.8045,2987.0938 C3372.8045,2995.0938 3364.8045,3003.0938 3356.8045,3003.0938 L3280.8045,3003.0938 C3272.8045,3003.0938 3264.8045,2995.0938 3264.8045,2987.0938 L3264.8045,2979.0938 C3264.8045,2963.0938 3280.8045,2947.0938 3296.8045,2947.0938 C3304.8045,2955.0938 3310.8045,2955.0938 3318.8045,2955.0938 " fill="#FEFECE" style="stroke: #A80036; stroke-width: 3.0;"/><text fill="#000000" font-family="sans-serif" font-size="28" lengthAdjust="spacingAndGlyphs" textLength="64" x="3286.8045" y="3032.084">User</text><path d="M1378.8045,755.0938 L1378.8045,805.3594 L1474.8045,805.3594 L1474.8045,775.0938 L1454.8045,755.0938 L1378.8045,755.0938 " fill="#AAAAFF" style="stroke: #A80036; stroke-width: 2.0;"/><path d="M1454.8045,755.0938 L1454.8045,775.0938 L1474.8045,775.0938 L1454.8045,755.0938 " fill="#AAAAFF" style="stroke: #A80036; stroke-width: 2.0;"/><text fill="#000000" font-family="sans-serif" font-size="26" lengthAdjust="spacingAndGlyphs" textLength="54" x="1390.8045" y="789.2275">DPA</text><path d="M1800.8045,755.0938 L1800.8045,805.3594 L1896.8045,805.3594 L1896.8045,775.0938 L1876.8045,755.0938 L1800.8045,755.0938 " fill="#AAAAFF" style="stroke: #A80036; stroke-width: 2.0;"/><path d="M1876.8045,755.0938 L1876.8045,775.0938 L1896.8045,775.0938 L1876.8045,755.0938 " fill="#AAAAFF" style="stroke: #A80036; stroke-width: 2.0;"/><text fill="#000000" font-family="sans-serif" font-size="26" lengthAdjust="spacingAndGlyphs" textLength="54" x="1812.8045" y="789.2275">DPA</text><path d="M2094.8045,755.0938 L2094.8045,805.3594 L2190.8045,805.3594 L2190.8045,775.0938 L2170.8045,755.0938 L2094.8045,755.0938 " fill="#AAAAFF" style="stroke: #A80036; stroke-width: 2.0;"/><path d="M2170.8045,755.0938 L2170.8045,775.0938 L2190.8045,775.0938 L2170.8045,755.0938 " fill="#AAAAFF" style="stroke: #A80036; stroke-width: 2.0;"/><text fill="#000000" font-family="sans-serif" font-size="26" lengthAdjust="spacingAndGlyphs" textLength="54" x="2106.8045" y="789.2275">DPA</text><path d="M2324.8045,755.0938 L2324.8045,805.3594 L2420.8045,805.3594 L2420.8045,775.0938 L2400.8045,755.0938 L2324.8045,755.0938 " fill="#AAAAFF" style="stroke: #A80036; stroke-width: 2.0;"/><path d="M2400.8045,755.0938 L2400.8045,775.0938 L2420.8045,775.0938 L2400.8045,755.0938 " fill="#AAAAFF" style="stroke: #A80036; stroke-width: 2.0;"/><text fill="#000000" font-family="sans-serif" font-size="26" lengthAdjust="spacingAndGlyphs" textLength="54" x="2336.8045" y="789.2275">DPA</text><!--MD5=[0a867cd1b41760edf017e7717d6853dc]
link wp to my--><path d="M990.6735,2203.1264 C990.5732,2203.2962 990.4727,2203.4659 990.3719,2203.6356 C990.1704,2203.9748 989.968,2204.3137 989.7647,2204.6521 C986.5122,2210.067 983.0318,2215.3759 979.3579,2220.5744 C972.0101,2230.9713 963.8882,2240.9263 955.267,2250.4038 C938.0245,2269.3588 918.7845,2286.4038 899.7445,2301.2538 " fill="none" id="wp-to-my" style="stroke: #000000; stroke-width: 2.0;"/><polygon fill="#000000" points="891.1245,2307.8338,910.2782,2303.2366,899.0624,2301.7518,900.5472,2290.536,891.1245,2307.8338" style="stroke: #000000; stroke-width: 2.0;"/><!--MD5=[a5f19530e84ebbc5218329742d489fe5]
reverse link wpfolder to wp--><path d="M946.7045,2055.0938 C956.5345,2055.0938 966.3695,2055.0938 976.2045,2055.0938 C978.6632,2055.0938 981.122,2055.0938 983.5806,2055.0938 C984.81,2055.0938 986.0393,2055.0938 987.2686,2055.0938 C987.8832,2055.0938 988.4979,2055.0938 989.1125,2055.0938 C989.4198,2055.0938 989.7271,2055.0938 990.0344,2055.0938 C990.1881,2055.0938 990.3417,2055.0938 990.4954,2055.0938 C990.5722,2055.0938 990.649,2055.0938 990.7259,2055.0938 " fill="none" id="wpfolder-backto-wp" style="stroke: #000000; stroke-width: 2.0;"/><polygon fill="#000000" points="936.4045,2055.0938,954.4045,2063.0938,946.4045,2055.0938,954.4045,2047.0938,936.4045,2055.0938" style="stroke: #000000; stroke-width: 2.0;"/><!--MD5=[100387b058f8c8f1b9f38d95a60b7ee2]
link stats to log--><path d="M451.8845,2118.5338 C460.8245,2178.9537 474.2445,2269.6938 482.2045,2323.4938 " fill="none" id="stats-to-log" style="stroke: #000000; stroke-width: 2.0;"/><polygon fill="#000000" points="483.7245,2333.7538,488.9605,2314.7647,482.2383,2323.8648,473.1382,2317.1426,483.7245,2333.7538" style="stroke: #000000; stroke-width: 2.0;"/><!--MD5=[43fef3d11c192aa0a88d628b3eebaa00]
link wp to i_web--><path d="M1784.8069,2223.9516 C1791.4953,2224.5822 1798.204,2225.224 1804.931,2225.8765 C1818.385,2227.1816 1831.9124,2228.5295 1845.4977,2229.9168 C1872.6684,2232.6915 1900.0708,2235.6236 1927.5819,2238.6847 C1982.604,2244.807 2038.0604,2251.4452 2092.9651,2258.3716 C2202.7745,2272.2244 2310.377,2287.23 2407.8845,2301.5663 C2602.8995,2330.2388 2757.5345,2356.2338 2808.6845,2364.9738 " fill="none" id="wp-i_web" style="stroke: #A80036; stroke-width: 2.0; stroke-dasharray: 7.0,7.0;"/><!--MD5=[8298b2441af43eb72b40d37aa4e0ec77]
link email to i_mail--><path d="M1890.6211,2156.3851 C1890.7174,2156.5931 1890.8144,2156.8009 1890.9119,2157.0082 C1891.1071,2157.423 1891.3046,2157.8364 1891.5047,2158.2484 C1892.305,2159.8964 1893.1451,2161.5217 1894.0269,2163.1202 C1895.7904,2166.3172 1897.7206,2169.4069 1899.8325,2172.3559 C1904.0563,2178.2538 1909.007,2183.5888 1914.8045,2188.0938 C2006.1045,2259.0338 2854.7845,2164.0938 2954.8045,2222.0938 C3004.7845,2251.0738 3030.6845,2319.9738 3040.3245,2351.6538 " fill="none" id="email-i_mail" style="stroke: #A80036; stroke-width: 2.0; stroke-dasharray: 7.0,7.0;"/><!--MD5=[8cc0045ab29728952f25259bfa3a3d6b]
link wp to deepl_trans--><path d="M990.6459,2193.4785 C989.9595,2193.8032 989.2454,2194.1212 988.5041,2194.4327 C987.0214,2195.0557 985.4297,2195.6524 983.7329,2196.2238 C976.9454,2198.5095 968.4746,2200.3902 958.5613,2201.9242 C938.7347,2204.9921 913.1381,2206.673 883.6979,2207.4322 C824.8176,2208.9506 750.5632,2206.7825 676.347,2204.6513 C527.9145,2200.3888 379.6345,2196.2738 354.8045,2222.0938 C242.4645,2338.9137 239.1245,2520.7188 264.2845,2674.2788 C276.8645,2751.0588 296.5695,2820.7775 313.337,2871.7813 C317.5288,2884.5322 321.5371,2896.1134 325.2046,2906.3429 C326.1215,2908.9003 327.017,2911.3732 327.8888,2913.7587 C328.1068,2914.3551 328.3232,2914.946 328.5382,2915.5315 " fill="none" id="wp-deepl_trans" style="stroke: #00AA00; stroke-width: 4.0;"/><path d="M690.0773,2219.1935 A20,20 0 0 0 690.8892 2190.9209" fill="#FFFFFF" style="stroke: #00AA00; stroke-width: 3.0;"/><ellipse cx="676.347" cy="2204.6513" fill="#FFFFFF" rx="12" ry="12" style="stroke: #00AA00; stroke-width: 3.0;"/><!--MD5=[916fb375b8357f075b32922fdcb91ce5]
link umg to a_us--><path d="M2207.7983,446.32 C2204.464,447.7366 2200.6722,449.3476 2196.452,451.1405 C2179.571,458.3123 2155.8357,468.3958 2127.1132,480.5978 C2069.6682,505.0019 1992.2745,537.88 1909.8695,572.8863 C1745.0595,642.8988 1560.2045,721.4237 1474.8045,757.6937 " fill="none" id="umg-a_us" style="stroke: #A80036; stroke-width: 2.0; stroke-dasharray: 7.0,7.0;"/><!--MD5=[6997ee9cb04b0574bc4b3d2005e4b463]
link a_us to s4p--><path d="M1378.2245,783.8137 C1283.1645,789.9938 1072.8445,818.1138 968.8045,945.0938 C959.1395,956.8913 951.2473,969.9644 944.838,983.8205 C941.6333,990.7486 938.7994,997.8725 936.3,1005.1305 C935.9875,1006.0378 935.6803,1006.9471 935.3783,1007.8585 " fill="none" id="a_us-to-s4p" style="stroke: #A80036; stroke-width: 2.0; stroke-dasharray: 7.0,7.0;"/><polygon fill="#A80036" points="935.3783,1007.8585,948.635,993.2893,938.5244,998.3662,933.4475,988.2556,935.3783,1007.8585" style="stroke: #A80036; stroke-width: 2.0;"/><!--MD5=[2d73c405dc055b46790ba087183c6302]
link umg to a_ub--><path d="M2208.5999,453.6919 C2208.0693,454.1703 2207.527,454.6592 2206.9732,455.1586 C2205.8656,456.1572 2204.7121,457.1973 2203.5141,458.2775 C2201.1181,460.4378 2198.5445,462.7583 2195.8063,465.2273 C2190.3297,470.1653 2184.1942,475.6973 2177.5029,481.7306 C2150.7376,505.8638 2115.0782,538.0163 2077.117,572.2438 C2001.1945,640.6988 1916.0645,717.4538 1874.4645,754.9538 " fill="none" id="umg-a_ub" style="stroke: #A80036; stroke-width: 2.0; stroke-dasharray: 7.0,7.0;"/><!--MD5=[bef761d0f1a3dc5cd5fa1b8f082cfd20]
link a_ub to bi--><path d="M1800.6445,790.6138 C1725.8045,806.5938 1582.8845,848.5538 1512.8045,945.0938 C1508.3282,951.2588 1504.2589,957.7098 1500.5635,964.3885 C1498.7157,967.7278 1496.9614,971.124 1495.2965,974.5698 C1495.0883,975.0006 1494.8816,975.432 1494.6763,975.8643 " fill="none" id="a_ub-to-bi" style="stroke: #A80036; stroke-width: 2.0; stroke-dasharray: 7.0,7.0;"/><polygon fill="#A80036" points="1494.6763,975.8643,1509.6259,963.0382,1498.9671,966.8317,1495.1736,956.1729,1494.6763,975.8643" style="stroke: #A80036; stroke-width: 2.0;"/><!--MD5=[9f83a443132699edc54afadafd27b93b]
link umg to a_ue--><path d="M2208.493,506.5234 C2208.0612,508.3087 2207.6236,510.1181 2207.1805,511.9501 C2206.2942,515.6141 2205.3861,519.3685 2204.459,523.2018 C2200.7503,538.535 2196.7363,555.13 2192.597,572.2438 C2176.0395,640.6988 2157.4745,717.4538 2148.4045,754.9538 " fill="none" id="umg-a_ue" style="stroke: #A80036; stroke-width: 2.0; stroke-dasharray: 7.0,7.0;"/><!--MD5=[43ca41bea33796d59755bfaa9855f1b8]
link a_ue to erasmus--><path d="M2140.2245,805.6937 C2137.7695,828.1338 2133.772,864.6863 2129.1398,907.0463 C2126.8237,928.2262 2124.3489,950.8581 2121.829,973.9038 C2121.7502,974.6239 2121.6714,975.3445 2121.5926,976.0655 " fill="none" id="a_ue-to-erasmus" style="stroke: #A80036; stroke-width: 2.0; stroke-dasharray: 7.0,7.0;"/><polygon fill="#A80036" points="2121.5926,976.0655,2131.5018,959.0417,2122.6796,966.1247,2115.5966,957.3025,2121.5926,976.0655" style="stroke: #A80036; stroke-width: 2.0;"/><!--MD5=[7339e6ca21ba761044ccb6aba77ddd84]
link umg to a_un--><path d="M2274.2691,645.606 C2274.4345,646.007 2274.6004,646.4077 2274.7668,646.808 C2275.0996,647.6086 2275.4345,648.4077 2275.7714,649.2052 C2277.119,652.3953 2278.4995,655.5603 2279.9134,658.6949 C2282.7413,664.964 2285.7032,671.1113 2288.8045,677.0938 C2304.1245,706.6538 2329.3045,735.3538 2348.0845,754.5538 " fill="none" id="umg-a_un" style="stroke: #A80036; stroke-width: 2.0; stroke-dasharray: 7.0,7.0;"/><!--MD5=[9fa15f41c5eba71b8841bb348f363064]
link a_un to netcup--><path d="M2386.9445,805.2337 C2439.1145,890.6937 2627.0245,1198.4688 2803.1545,1486.9488 C2825.1707,1523.0088 2847.0029,1558.7673 2868.3629,1593.7524 C2871.0329,1598.1255 2873.6955,1602.4866 2876.3502,1606.8347 " fill="none" id="a_un-to-netcup" style="stroke: #A80036; stroke-width: 2.0; stroke-dasharray: 7.0,7.0;"/><polygon fill="#A80036" points="2876.3502,1606.8347,2873.7984,1587.3029,2871.1392,1598.2997,2860.1425,1595.6405,2876.3502,1606.8347" style="stroke: #A80036; stroke-width: 2.0;"/><!--MD5=[c0b26be026174339df01e960bf1bc3cf]
link ship to webspace--><path d="M2672.7045,516.3938 C2672.5045,675.9238 2672.0345,1055.3638 2671.612,1397.2613 C2671.5063,1482.7356 2671.4037,1565.8636 2671.309,1642.6225 C2671.2616,1681.0019 2671.2162,1717.7891 2671.1734,1752.4811 C2671.1681,1756.8176 2671.1628,1761.1214 2671.1575,1765.3914 C2671.1549,1767.5265 2671.1523,1769.653 2671.1497,1771.7711 " fill="none" id="ship-to-webspace" style="stroke: #A80036; stroke-width: 2.0;"/><polygon fill="#A80036" points="2671.1497,1771.7711,2679.1718,1753.781,2671.162,1761.7711,2663.1719,1753.7612,2671.1497,1771.7711" style="stroke: #A80036; stroke-width: 2.0;"/><text fill="#000000" font-family="sans-serif" font-size="26" lengthAdjust="spacingAndGlyphs" textLength="112" x="2672.8045" y="891.2275">Adminis-</text><text fill="#000000" font-family="sans-serif" font-size="26" lengthAdjust="spacingAndGlyphs" textLength="84" x="2686.8045" y="921.4932">tration</text><!--MD5=[146ac31a81dcf7247f718aff5916ad51]
link s4p_partner to wp--><path d="M1072.6245,1319.6138 C1053.9045,1370.6738 1033.1845,1435.3538 1022.8045,1495.0938 C1012.3645,1555.2537 1008.3245,1691.3687 1006.9145,1814.0963 C1006.7382,1829.4372 1006.6031,1844.5689 1006.5016,1859.317 C1006.4509,1866.6911 1006.4086,1873.9692 1006.3739,1881.1296 C1006.3652,1882.9197 1006.357,1884.7024 1006.3492,1886.4775 C1006.3453,1887.365 1006.3415,1888.2506 1006.3379,1889.1342 " fill="none" id="s4p_partner-to-wp" style="stroke: #A80036; stroke-width: 2.0;"/><polygon fill="#A80036" points="1006.3379,1889.1342,1014.4123,1871.1675,1006.3793,1879.1343,998.4125,1871.1012,1006.3379,1889.1342" style="stroke: #A80036; stroke-width: 2.0;"/><text fill="#000000" font-family="sans-serif" font-size="26" lengthAdjust="spacingAndGlyphs" textLength="112" x="1040.8045" y="1441.2275">Adminis-</text><text fill="#000000" font-family="sans-serif" font-size="26" lengthAdjust="spacingAndGlyphs" textLength="84" x="1054.8045" y="1471.4932">tration</text><!--MD5=[4b8def5eb75f600a6c203c284103c1ba]
link umg_team to e_de--><path d="M2443.0245,549.3938 C2448.1845,610.0538 2453.9445,686.6538 2456.8045,755.0938 C2476.6845,1230.7538 2470.5645,1805.2938 2467.8245,1991.5938 " fill="none" id="umg_team-to-e_de" style="stroke: #A80036; stroke-width: 2.0;"/><polygon fill="#A80036" points="2467.6645,2001.7338,2475.9208,1983.8499,2467.8073,1991.7348,2459.9224,1983.6213,2467.6645,2001.7338" style="stroke: #A80036; stroke-width: 2.0;"/><!--MD5=[94e15bd2dd988e8bac20be7795d24922]
link bi_partner to e_pl--><path d="M1667.8045,1293.4338 C1699.7245,1327.2138 1740.4845,1367.4338 1780.8045,1399.0938 C1845.4245,1449.8338 1893.2845,1426.6938 1938.8045,1495.0938 C2041.8445,1649.9538 2038.2445,1882.0538 2029.5045,1991.6338 " fill="none" id="bi_partner-to-e_pl" style="stroke: #A80036; stroke-width: 2.0;"/><polygon fill="#A80036" points="2028.6445,2001.8538,2038.1076,1984.578,2029.4726,1991.8881,2022.1625,1983.2531,2028.6445,2001.8538" style="stroke: #A80036; stroke-width: 2.0;"/><!--MD5=[ac4b9285fdce224685b70e92f0a79ffb]
link erasmus_partner to e_nl--><path d="M2227.0845,1319.2738 C2231.2045,1490.2938 2239.8445,1847.4938 2243.3045,1991.2338 " fill="none" id="erasmus_partner-to-e_nl" style="stroke: #A80036; stroke-width: 2.0;"/><polygon fill="#A80036" points="2243.5645,2002.0138,2251.0991,1983.8141,2243.3074,1992.0171,2235.1044,1984.2253,2243.5645,2002.0138" style="stroke: #A80036; stroke-width: 2.0;"/><!--MD5=[d320135e18d4819ab489a80e606b00fb]
reverse link i_web to user--><path d="M2834.2245,2398.3938 C2850.0045,2451.1938 2890.8045,2572.1938 2954.8045,2656.0938 C3042.8245,2771.4938 3183.1445,2871.2138 3261.3645,2921.7538 " fill="none" id="i_web-backto-user" style="stroke: #A80036; stroke-width: 2.0;"/><polygon fill="#A80036" points="2831.2245,2388.2138,2828.638,2407.7409,2834.0508,2397.806,2843.9856,2403.2188,2831.2245,2388.2138" style="stroke: #A80036; stroke-width: 2.0;"/><!--MD5=[3d02842c6fd60e0dd56159e80b4a6c76]
reverse link i_mail to user--><path d="M3056.7445,2397.5738 C3095.7245,2480.7938 3220.3445,2746.8938 3282.6445,2879.8938 " fill="none" id="i_mail-backto-user" style="stroke: #A80036; stroke-width: 2.0;"/><polygon fill="#A80036" points="3052.4245,2388.3538,3052.8413,2408.0471,3056.6783,2397.4039,3067.3215,2401.2409,3052.4245,2388.3538" style="stroke: #A80036; stroke-width: 2.0;"/><!--MD5=[17552040276eef0f93b8cd24bee29bc5]
link Elementor to TranslatePress--><!--MD5=[c50090d8a87d1d877a70590d9401d5f9]
link Elementor to Yoast SEO--><!--MD5=[a2fb50a0ce4548e129e183da535d7ae7]
link Yoast SEO to One Click Accessibility--><rect fill="#DDDDDD" height="85.1875" rx="10" ry="10" style="stroke: #000000; stroke-width: 2.0;" width="1024" x="1167.4022" y="3340.7106"/><text fill="#000000" font-family="sans-serif" font-size="28" font-weight="bold" lengthAdjust="spacingAndGlyphs" textLength="118" x="1179.4022" y="3376.7008">Legend</text><text fill="#000000" font-family="sans-serif" font-size="28" lengthAdjust="spacingAndGlyphs" textLength="1000" x="1179.4022" y="3409.2946">- DPA "Data Processing Agreement" - Auftragsverarbeitungsvertrag (AVV)</text><!--MD5=[f06f8a75514cbd57c1d0c0d1901f9038]
@startuml

skinparam shadowing false
scale 2

title: Overview Homepage\njoinus4health.eu
header version: %date("dd.MM.yyyy")

skinparam actorStyle awesome
skinparam rectangleBackgroundColor<<Partner>> #cccccc
skinparam componentBackgroundColor #fefece

legend
**Legend**
- DPA "Data Processing Agreement" - Auftragsverarbeitungsvertrag (AVV)
end legend

actor "User" as user

rectangle "UMG\ncoordinator" as umg #ffcccc {
    rectangle "ICM SHIP-KEF" {
        actor "SHIP-IT" as ship
        actor "JoinUs4Health\nProject Manage-\nment Team" as umg_team
    }
}

rectangle "science4people.eu" <<Partner>> as s4p {
    actor "science4people\nPartner" as s4p_partner
}

rectangle "Medical University\nof Bialystok" <<Partner>> as bi {
    actor "Bialystok\nPartner" as bi_partner
}

rectangle "Medical Center of the\nErasmus University Rotterdamm" <<Partner>> as erasmus {
    actor "Erasmus\nPartner" as erasmus_partner
}

cloud "Internet" {
    node "netcup.de" <<Provider>> as netcup #ddbbaa {
        rectangle "Domain joinus4health.eu" as webspace #ffccaa {
            component "WordPress" <<Web-Framework>> as wp {
                component "Elementor"
                component "TranslatePress"
                component "Yoast SEO"
                component "One Click Accessibility"
            }
            rectangle "//separate Server//" {
                database "MariaDB" <<database>> as my
            }
            folder "WordPress-Files" as wpfolder
            file "log files" as log
            component "Webalizer" <<statistic-tool>> as stats
            component "E-Mail" as email {
                rectangle "de/en" <<inbox>> as e_de
                rectangle "pl/en" <<inbox>> as e_pl
                rectangle "nl/en" <<inbox>> as e_nl
            }
            wp - -> my           #black
            wp -l-> wpfolder    #black
            stats - -> log       #black
        }
        interface "Homepage" as i_web
        interface "E-Mail" as i_mail
        i_web .u. wp
        i_mail .u. email
    }
    node "deepl.com" as deepl #ddbbaa {
        component "Translator" as deepl_trans {
            note as n_deepl
                Deepl is used to translate
                website public content
                no user data is sent to Deepl
            end note
        }
    }
    wp     =(0==     deepl_trans #00aa00
}

note "DPA" as a_us #aaaaff
umg .. a_us
a_us ..> s4p
note "DPA" as a_ub #aaaaff
umg .. a_ub
a_ub ..> bi
note "DPA" as a_ue #aaaaff
umg .. a_ue
a_ue ..> erasmus
note "DPA" as a_un #aaaaff
umg .. a_un
a_un ..> netcup

ship        - ->     webspace    : Adminis-\ntration
s4p_partner - ->     wp          : Adminis-\ntration

umg_team        - -> e_de
bi_partner      - -> e_pl
erasmus_partner - -> e_nl

user    -u-> i_web
user    -u-> i_mail

@enduml

@startuml

skinparam shadowing false
scale 2

title: Overview Homepage\njoinus4health.eu
header version: 07.02.2022

skinparam actorStyle awesome
skinparam rectangleBackgroundColor<<Partner>> #cccccc
skinparam componentBackgroundColor #fefece

legend
**Legend**
- DPA "Data Processing Agreement" - Auftragsverarbeitungsvertrag (AVV)
end legend

actor "User" as user

rectangle "UMG\ncoordinator" as umg #ffcccc {
    rectangle "ICM SHIP-KEF" {
        actor "SHIP-IT" as ship
        actor "JoinUs4Health\nProject Manage-\nment Team" as umg_team
    }
}

rectangle "science4people.eu" <<Partner>> as s4p {
    actor "science4people\nPartner" as s4p_partner
}

rectangle "Medical University\nof Bialystok" <<Partner>> as bi {
    actor "Bialystok\nPartner" as bi_partner
}

rectangle "Medical Center of the\nErasmus University Rotterdamm" <<Partner>> as erasmus {
    actor "Erasmus\nPartner" as erasmus_partner
}

cloud "Internet" {
    node "netcup.de" <<Provider>> as netcup #ddbbaa {
        rectangle "Domain joinus4health.eu" as webspace #ffccaa {
            component "WordPress" <<Web-Framework>> as wp {
                component "Elementor"
                component "TranslatePress"
                component "Yoast SEO"
                component "One Click Accessibility"
            }
            rectangle "//separate Server//" {
                database "MariaDB" <<database>> as my
            }
            folder "WordPress-Files" as wpfolder
            file "log files" as log
            component "Webalizer" <<statistic-tool>> as stats
            component "E-Mail" as email {
                rectangle "de/en" <<inbox>> as e_de
                rectangle "pl/en" <<inbox>> as e_pl
                rectangle "nl/en" <<inbox>> as e_nl
            }
            wp - -> my           #black
            wp -l-> wpfolder    #black
            stats - -> log       #black
        }
        interface "Homepage" as i_web
        interface "E-Mail" as i_mail
        i_web .u. wp
        i_mail .u. email
    }
    node "deepl.com" as deepl #ddbbaa {
        component "Translator" as deepl_trans {
            note as n_deepl
                Deepl is used to translate
                website public content
                no user data is sent to Deepl
            end note
        }
    }
    wp     =(0==     deepl_trans #00aa00
}

note "DPA" as a_us #aaaaff
umg .. a_us
a_us ..> s4p
note "DPA" as a_ub #aaaaff
umg .. a_ub
a_ub ..> bi
note "DPA" as a_ue #aaaaff
umg .. a_ue
a_ue ..> erasmus
note "DPA" as a_un #aaaaff
umg .. a_un
a_un ..> netcup

ship        - ->     webspace    : Adminis-\ntration
s4p_partner - ->     wp          : Adminis-\ntration

umg_team        - -> e_de
bi_partner      - -> e_pl
erasmus_partner - -> e_nl

user    -u-> i_web
user    -u-> i_mail

@enduml

PlantUML version 1.2020.16(Sun Aug 23 22:20:43 CEST 2020)
(GPL source distribution)
Java Runtime: OpenJDK Runtime Environment
JVM: OpenJDK 64-Bit Server VM
Default Encoding: UTF-8
Language: en
Country: GB
--></g></svg>